<?xml version="1.0" standalone="no"?>
<!DOCTYPE svg PUBLIC "-//W3C//DTD SVG 1.1//EN" "http://www.w3.org/Graphics/SVG/1.1/DTD/svg11.dtd" >
<svg xmlns="http://www.w3.org/2000/svg" xmlns:xlink="http://www.w3.org/1999/xlink" version="1.1">
<metadata>
Created by FontForge 20161013 at Thu Nov  5 07:42:09 2015
 By ,,,
Copyright (c) 2012 by ALS Studio. All rights reserved.
</metadata>
<defs>
<font id="ALSSchlangesans-Bold" horiz-adv-x="554" >
  <font-face 
    font-family="ALSSchlangesans-Bold"
    font-weight="400"
    font-stretch="normal"
    units-per-em="1000"
    panose-1="2 0 8 6 4 0 0 2 0 4"
    ascent="769"
    descent="-231"
    x-height="485"
    cap-height="690"
    bbox="-167.255 -276.389 1176 891.121"
    underline-thickness="50"
    underline-position="-150"
    unicode-range="U+000D-FB02"
  />
<missing-glyph horiz-adv-x="240" 
 />
    <glyph glyph-name="ff" unicode="ff" horiz-adv-x="567" 
d="M60 492q0 110 46 159t136 49q69 0 120 -31q40 31 105 31q60 0 95 -16q52 -23 37 -67q-14 -40 -63 -25q-41 12 -64 12q-60 0 -60 -78v-36h81q54 0 54 -45q0 -46 -54 -46h-81v-541q0 -25 -15 -42q-15 -16 -42 -16t-41 16q-15 17 -15 42v541h-126v-541q0 -25 -15 -42
q-15 -16 -42 -16t-41 16q-15 17 -15 42v634zM299 490q0 66 13 105q-34 14 -68 14q-40 0 -55 -23q-16 -24 -16 -67v-29h126z" />
    <glyph glyph-name="fi" unicode="fi" horiz-adv-x="472" 
d="M299 394h-126v-536q0 -25 -15 -42q-15 -16 -42 -16t-41 16q-15 17 -15 42v631q0 105 40 155q43 56 142 56q76 0 120 -24q35 -21 24 -59q-11 -36 -62 -26q-48 13 -77 13q-74 0 -74 -80v-34h181q29 0 44 -17q14 -17 14 -42v-373q0 -25 -15 -41q-15 -17 -42 -17t-41 17
q-15 16 -15 41v336z" />
    <glyph glyph-name="fl" unicode="fl" horiz-adv-x="472" 
d="M299 599q-25 9 -54 9q-72 0 -72 -82v-36h33q54 0 54 -48t-54 -48h-33v-536q0 -25 -15 -42q-15 -16 -42 -16t-41 16q-15 17 -15 42v633q0 113 45 161t135 48q83 0 131 -25q27 -14 34 -34q7 -21 7 -56v-527q0 -25 -15 -41q-15 -17 -42 -17t-41 17q-15 16 -15 41v541z" />
    <glyph glyph-name=".notdef" horiz-adv-x="240" 
 />
    <glyph glyph-name=".null" horiz-adv-x="0" 
 />
    <glyph glyph-name=".null" horiz-adv-x="0" 
 />
    <glyph glyph-name="nonmarkingreturn" unicode="&#xd;" horiz-adv-x="333" 
 />
    <glyph glyph-name="space" unicode=" " horiz-adv-x="240" 
 />
    <glyph glyph-name="exclam" unicode="!" horiz-adv-x="239" 
d="M50 64q0 29 18 47t51 18t52 -18q18 -18 18 -47t-18 -46q-19 -18 -52 -18q-34 0 -51 18q-18 17 -18 46zM62 637q0 24 15 41t42 17t42 -16q14 -17 14 -42v-378q0 -26 -14 -42q-15 -17 -42 -17t-42 17q-15 16 -15 42v378z" />
    <glyph glyph-name="quotedbl" unicode="&#x22;" horiz-adv-x="338" 
d="M55 649q0 22 12 37q12 14 35 14t35 -14q12 -15 12 -37v-135q0 -22 -12 -36t-35 -14t-35 14t-12 36v135zM188 649q0 22 13 37q12 14 35 14t35 -14q12 -15 12 -37v-135q0 -22 -12 -36t-35 -14t-35 14q-13 14 -13 36v135z" />
    <glyph glyph-name="numbersign" unicode="#" horiz-adv-x="634" 
d="M315 193h-115l-55 -158q-20 -56 -61 -43q-21 6 -25 27q-4 20 5 37l48 137h-33q-46 0 -46 42q0 41 46 41h63l46 131h-50q-46 0 -46 42q0 41 46 41h80l61 173q16 47 58 34q38 -12 20 -61l-52 -146h116l61 173q16 47 58 34q38 -12 20 -61l-52 -146h48q45 0 45 -41
q0 -20 -12 -31t-33 -11h-77l-46 -131h63q45 0 45 -41q0 -20 -12 -31t-33 -11h-93l-55 -158q-20 -56 -61 -43q-21 6 -25 27q-4 20 5 37zM230 276h115l46 131h-115z" />
    <glyph glyph-name="dollar" unicode="$" 
d="M308 600q-48 0 -73 -19q-25 -20 -25 -53q0 -37 33 -64t80 -47q47 -21 95 -46q47 -25 80 -70q33 -46 33 -110q0 -71 -42 -124q-43 -54 -126 -70v-52q0 -25 -13 -42q-14 -17 -41 -17t-40 17t-13 42v46q-81 6 -130 36q-65 41 -37 89q22 37 77 8q66 -35 134 -35q55 0 85 25
q30 24 30 68q0 35 -24 63q-24 27 -59 43l-77 37q-42 20 -77 42q-36 22 -60 62q-24 39 -24 91q0 69 40 117q39 47 122 59v49q0 25 13 42q13 16 40 16t41 -16q13 -17 13 -42v-49q61 -10 102 -33q29 -16 38 -38q9 -23 -2 -41q-21 -41 -86 -11q-59 27 -107 27z" />
    <glyph glyph-name="percent" unicode="%" horiz-adv-x="835" 
d="M23 509q0 89 43 140q42 51 119 51t120 -51q42 -51 42 -140q0 -88 -42 -138q-43 -51 -120 -51t-119 51q-43 50 -43 138zM249 509q0 108 -64 108t-64 -108q0 -106 64 -106t64 106zM488 179q0 89 43 140q42 51 119 51t120 -51q42 -51 42 -140q0 -88 -42 -138
q-43 -51 -120 -51t-119 51q-43 50 -43 138zM714 179q0 108 -64 108t-64 -108q0 -106 64 -106t64 106zM343 4q-20 -56 -64 -41q-38 13 -18 71l233 661q19 58 62 42q38 -13 18 -71z" />
    <glyph glyph-name="ampersand" unicode="&#x26;" horiz-adv-x="663" 
d="M478 75q-92 -85 -217 -85q-94 0 -155 47q-61 46 -61 137q0 63 35 110q34 47 106 99q-61 84 -61 156q0 71 47 116t129 45q80 0 121 -37q40 -38 40 -93q0 -50 -31 -95q-32 -45 -104 -99q41 -50 143 -150q22 37 42 112q13 53 55 49q43 -4 38 -58q-8 -88 -62 -174
q38 -37 65 -58q49 -41 20 -79q-33 -44 -94 9zM268 86q82 0 139 54q-74 68 -165 174q-47 -37 -65 -66q-18 -30 -18 -66q0 -39 30 -67q29 -29 79 -29zM237 545q0 -44 39 -100q91 67 91 118q0 24 -16 39q-17 14 -46 14t-48 -19q-20 -19 -20 -52z" />
    <glyph glyph-name="quotesingle" unicode="'" horiz-adv-x="204" 
d="M55 649q0 22 12 37q12 14 35 14t35 -14q12 -15 12 -37v-135q0 -22 -12 -36t-35 -14t-35 14t-12 36v135z" />
    <glyph glyph-name="parenleft" unicode="(" horiz-adv-x="307" 
d="M45 345q0 123 40 227q39 103 98 164q56 58 96 20q31 -29 -10 -85q-113 -151 -110 -326q-3 -173 110 -326q41 -55 10 -85q-40 -39 -96 20q-59 62 -98 165q-40 103 -40 226z" />
    <glyph glyph-name="parenright" unicode=")" horiz-adv-x="307" 
d="M291 345q0 -123 -39 -226q-40 -103 -99 -165q-56 -59 -96 -20q-31 30 10 85q113 153 110 326q3 175 -110 326q-41 56 -10 85q40 38 96 -20q59 -61 99 -164q39 -104 39 -227z" />
    <glyph glyph-name="asterisk" unicode="*" horiz-adv-x="365" 
d="M318 531q34 -18 16 -56q-10 -21 -28 -23q-19 -2 -31 9l-34 25l2 -41q0 -42 -42 -42q-22 0 -33 12t-10 30l2 41l-34 -25q-13 -11 -31 -8q-18 2 -29 22q-18 35 17 56l36 20l-36 21q-35 21 -17 56q10 20 29 22q18 2 31 -9l34 -24l-2 41q0 42 43 42q44 0 42 -42l-2 -41l34 24
q12 11 30 9q18 -3 29 -22q20 -36 -16 -56l-37 -21z" />
    <glyph glyph-name="plus" unicode="+" horiz-adv-x="515" 
d="M205 275h-107q-53 0 -53 48q0 23 15 36q14 12 38 12h107v107q0 59 52 59t52 -59v-107h108q24 0 39 -12q14 -13 14 -36q0 -48 -53 -48h-108v-107q0 -58 -52 -58t-52 58v107z" />
    <glyph glyph-name="comma" unicode="," horiz-adv-x="234" 
d="M121 -96q-28 -54 -73 -30q-41 22 -13 74l80 150q27 53 71 30q21 -11 24 -34t-9 -39z" />
    <glyph glyph-name="hyphen" unicode="-" horiz-adv-x="362" 
d="M59 217q-24 0 -39 13t-15 37q0 23 15 37q15 13 39 13h244q24 0 39 -13q15 -14 15 -37q0 -24 -15 -37t-39 -13h-244z" />
    <glyph glyph-name="period" unicode="." horiz-adv-x="240" 
d="M50 69q0 29 19 50q18 20 50 20t51 -20q19 -21 19 -50q0 -30 -18 -49q-19 -20 -52 -20t-51 20q-18 19 -18 49z" />
    <glyph glyph-name="slash" unicode="/" horiz-adv-x="330" 
d="M75 -65q-20 -56 -66 -42q-22 7 -28 29q-5 23 4 44l279 791q18 55 65 40q45 -15 24 -77z" />
    <glyph glyph-name="zero" unicode="0" 
d="M27 345q0 163 63 259q62 96 187 96t187 -96t62 -259q0 -164 -62 -259q-62 -96 -187 -96t-187 96q-63 95 -63 259zM136 345q0 -123 37 -191q36 -68 104 -68t104 68t36 191t-36 191t-104 68q-141 0 -141 -259z" />
    <glyph glyph-name="one" unicode="1" 
d="M267 537l-88 -86q-16 -17 -35 -22q-20 -6 -40 7q-17 16 -14 38q3 21 22 40l146 146l21 21q6 5 21 12q14 7 30 7q45 0 45 -67v-575q0 -26 -14 -42t-41 -16q-26 0 -39 16q-14 16 -14 42v479z" />
    <glyph glyph-name="two" unicode="2" 
d="M149 568q-55 -25 -74 5q-11 14 -6 35q4 21 25 37q36 26 87 41q51 14 97 14q102 0 154 -49q51 -49 51 -130q0 -52 -22 -95q-23 -44 -56 -72q-34 -28 -74 -58l-75 -55q-35 -26 -60 -63q-25 -38 -29 -82h280q54 0 54 -48q0 -23 -15 -35q-15 -13 -39 -13h-328q-31 0 -46 17
t-15 45q0 54 18 101q17 46 45 79q28 32 62 60q33 28 67 53q33 24 61 48q28 23 46 52q17 29 17 61q0 36 -26 60q-27 23 -78 23q-53 0 -121 -31z" />
    <glyph glyph-name="three" unicode="3" horiz-adv-x="564" 
d="M229 324q-59 0 -59 45q0 30 22 53l162 172h-193q-53 0 -53 48t53 48h277q42 0 52 -33q9 -33 -18 -60l-177 -185q107 -5 163 -58t56 -143q0 -100 -64 -160q-65 -61 -175 -61q-124 0 -181 49q-40 35 -17 72q21 33 67 10q70 -35 129 -35q64 0 96 33q31 33 31 91
q0 114 -171 114z" />
    <glyph glyph-name="four" unicode="4" 
d="M523 258q0 -47 -45 -47h-35v-155q0 -56 -52 -56q-26 0 -39 16q-14 15 -14 40v155h-248q-41 0 -51 32q-11 32 13 59l289 367q22 31 51 31q26 0 39 -16q12 -17 12 -43v-339h35q20 0 33 -12q12 -12 12 -32zM338 302v225l-180 -225h180z" />
    <glyph glyph-name="five" unicode="5" 
d="M271 -10q-124 0 -181 49q-40 35 -17 72q21 33 67 10q71 -35 129 -35q61 0 95 37t34 98q0 55 -31 89t-88 34q-27 0 -62 -6q-36 -7 -48 -7q-25 0 -38 15q-14 15 -12 43l16 230q5 71 68 71h221q60 0 60 -53t-60 -53h-196l-11 -154q43 10 82 10q58 0 101 -19t67 -51
q23 -33 34 -68q11 -36 11 -75q0 -108 -66 -172q-66 -65 -175 -65z" />
    <glyph glyph-name="six" unicode="6" 
d="M394 592q-38 12 -76 12q-82 0 -125 -63q-44 -63 -46 -160q55 74 159 74q95 0 151 -61q56 -62 56 -159q0 -99 -61 -172t-172 -73t-174 78t-63 226q0 406 278 406q73 0 115 -23q45 -23 31 -64q-9 -25 -32 -27q-23 -3 -41 6zM153 241q0 -63 32 -109t96 -46q58 0 91 42
q32 42 32 103q0 55 -34 91q-35 36 -87 36q-50 0 -90 -32t-40 -85z" />
    <glyph glyph-name="seven" unicode="7" 
d="M443 690q40 0 53 -26t-5 -65l-246 -549q-29 -65 -79 -46q-22 8 -27 31q-6 23 7 53l226 496h-265q-59 0 -59 53t59 53h336z" />
    <glyph glyph-name="eight" unicode="8" horiz-adv-x="541" 
d="M57 528q0 78 60 125t153 47q94 0 153 -45t59 -126q0 -97 -102 -167q69 -37 100 -78q30 -42 30 -101q0 -83 -66 -138t-172 -55t-174 48q-68 47 -68 141q0 114 130 191q-54 34 -78 71q-25 36 -25 87zM136 186q0 -46 38 -73q37 -27 97 -27t96 27t36 69q0 80 -168 141
q-99 -54 -99 -137zM164 523q0 -68 141 -121q73 53 73 118q0 41 -30 63q-30 21 -79 21q-45 0 -75 -21q-30 -22 -30 -60z" />
    <glyph glyph-name="nine" unicode="9" 
d="M158 98q38 -12 76 -12q82 0 126 63q43 63 45 160q-55 -74 -159 -74q-95 0 -151 62q-56 61 -56 158q0 99 61 172t172 73t174 -78t63 -226q0 -406 -278 -406q-73 0 -115 23q-45 23 -31 64q9 25 32 28q23 2 41 -7zM399 449q0 63 -32 109t-96 46q-58 0 -90 -42
q-33 -42 -33 -103q0 -55 35 -91q34 -36 86 -36q50 0 90 32t40 85z" />
    <glyph glyph-name="colon" unicode=":" horiz-adv-x="240" 
d="M50 430q0 29 19 50q18 20 50 20t51 -20q19 -21 19 -50q0 -30 -18 -49q-19 -20 -52 -20t-51 20q-18 19 -18 49zM50 69q0 29 19 50q18 20 50 20t51 -20q19 -21 19 -50q0 -30 -18 -49q-19 -20 -52 -20t-51 20q-18 19 -18 49z" />
    <glyph glyph-name="semicolon" unicode=";" horiz-adv-x="246" 
d="M121 -96q-28 -54 -73 -30q-41 22 -13 74l80 150q27 53 71 30q21 -11 24 -34t-9 -39zM84 430q0 29 19 50q18 20 50 20t51 -20q19 -21 19 -50q0 -30 -18 -49q-19 -20 -52 -20t-51 20q-18 19 -18 49z" />
    <glyph glyph-name="less" unicode="&#x3c;" horiz-adv-x="515" 
d="M327 536q13 11 28 17q14 5 30 2q15 -4 25 -19q24 -39 -29 -78l-161 -120l172 -136q45 -37 15 -75q-14 -16 -36 -16t-43 17l-202 157q-26 21 -26 50q0 28 27 49z" />
    <glyph glyph-name="equal" unicode="=" horiz-adv-x="515" 
d="M96 171q-53 0 -53 48q0 23 15 36q14 12 38 12h323q24 0 39 -12q14 -13 14 -36q0 -48 -53 -48h-323zM96 316q-53 0 -53 48q0 23 15 36q14 12 38 12h323q24 0 39 -12q14 -13 14 -36q0 -48 -53 -48h-323z" />
    <glyph glyph-name="greater" unicode="&#x3e;" horiz-adv-x="515" 
d="M216 128q-13 -11 -27 -16q-15 -6 -30 -2q-16 3 -26 18q-24 39 29 78l161 120l-172 136q-45 37 -15 75q14 16 36 16t43 -17l202 -157q26 -21 26 -49q0 -29 -27 -50z" />
    <glyph glyph-name="question" unicode="?" horiz-adv-x="412" 
d="M211 700q90 0 137 -45q46 -45 46 -108q0 -37 -15 -70t-31 -52t-47 -48q-37 -35 -52 -59q-16 -25 -16 -62q0 -56 -51 -56q-50 0 -50 56q0 49 20 86q19 36 56 73q26 26 38 40t22 35q9 21 9 45q0 29 -20 49q-21 20 -59 20q-35 0 -92 -25q-49 -22 -68 12q-10 15 -3 36
q7 20 32 35q63 38 144 38zM114 64q0 29 18 47t51 18t52 -18q18 -18 18 -47t-18 -46q-19 -18 -52 -18t-51 18q-18 17 -18 46z" />
    <glyph glyph-name="at" unicode="@" horiz-adv-x="951" 
d="M674 91h1h14q118 0 118 213q0 135 -81 215q-82 79 -236 79q-163 0 -254 -93q-92 -93 -92 -274q0 -169 95 -260q94 -91 254 -91q27 0 47 2q19 2 37 5q18 4 21 4q45 7 54 -25q10 -39 -38 -59q-42 -17 -120 -17q-210 0 -329 119q-120 119 -120 322q0 209 120 334
q119 124 327 124q200 0 307 -104q107 -105 107 -283q0 -154 -64 -228t-195 -74q-42 0 -59 15t-17 46v15q-25 -46 -60 -66q-36 -20 -89 -20q-82 0 -129 65t-47 176q0 129 55 199q54 70 159 70q78 0 119 -25q18 15 47 15q48 0 48 -55v-344zM451 81q120 0 120 223v87
q-58 18 -97 18q-66 0 -93 -45q-28 -45 -28 -137q0 -146 98 -146z" />
    <glyph glyph-name="A" unicode="A" horiz-adv-x="611" 
d="M453 195h-257l-52 -141q-25 -72 -82 -49q-44 19 -20 82l225 564q19 49 61 49q40 0 58 -43l232 -569q11 -22 5 -48q-7 -26 -32 -35q-28 -10 -49 2q-22 11 -33 40zM228 289h191l-97 252z" />
    <glyph glyph-name="B" unicode="B" horiz-adv-x="623" 
d="M75 616q0 57 57 67q71 12 161 12q252 0 252 -181q0 -46 -24 -86q-25 -40 -67 -59q58 -18 91 -60q33 -43 33 -102q0 -212 -277 -212q-99 0 -170 11q-56 8 -56 64v546zM190 308v-208q48 -6 116 -6q74 0 112 25q37 25 37 83q0 106 -150 106h-115zM282 595q-44 0 -92 -5v-192
h102q130 0 130 104q0 93 -140 93z" />
    <glyph glyph-name="C" unicode="C" horiz-adv-x="629" 
d="M368 593q-92 0 -144 -67q-53 -68 -53 -180q0 -116 57 -182q56 -67 143 -67q69 0 142 43q51 29 76 -7q13 -17 8 -41q-6 -24 -31 -43q-80 -59 -204 -59q-157 0 -237 96q-80 95 -80 259q0 162 85 259q85 96 236 96q119 0 185 -46q44 -30 24 -73q-17 -38 -76 -16
q-73 28 -131 28z" />
    <glyph glyph-name="D" unicode="D" horiz-adv-x="696" 
d="M75 612q0 59 55 69q66 14 168 14q175 0 264 -88t89 -259q0 -165 -90 -259t-262 -94q-109 0 -168 10q-56 10 -56 64v543zM299 102q226 0 226 246q0 240 -227 240q-45 0 -103 -6v-475q44 -5 104 -5z" />
    <glyph glyph-name="E" unicode="E" horiz-adv-x="561" 
d="M75 628q0 27 16 45q16 17 45 17h338q26 0 42 -14q15 -15 15 -40q0 -24 -15 -38q-16 -15 -42 -15h-279v-175h223q27 0 43 -14q15 -14 15 -39q0 -24 -15 -39q-16 -15 -43 -15h-223v-194h289q26 0 42 -14q15 -15 15 -40q0 -24 -15 -38q-16 -15 -42 -15h-347q-29 0 -45 18
q-17 17 -17 44v566z" />
    <glyph glyph-name="F" unicode="F" horiz-adv-x="532" 
d="M75 628q0 27 16 45q15 17 44 17h320q26 0 42 -14q15 -15 15 -40q0 -24 -15 -38q-16 -15 -42 -15h-260v-174h208q26 0 42 -14q15 -14 15 -39q0 -24 -15 -39q-16 -15 -42 -15h-208v-241q0 -27 -16 -44t-44 -17q-29 0 -44 17q-16 17 -16 44v567z" />
    <glyph glyph-name="G" unicode="G" horiz-adv-x="667" 
d="M373 700q118 0 183 -44q47 -32 25 -73q-20 -37 -77 -16q-68 26 -130 26q-97 0 -150 -68q-53 -69 -53 -182q0 -118 54 -182q53 -64 151 -64q92 0 148 39v134h-113q-53 0 -53 46t53 46h151q60 0 60 -52v-190q0 -43 -32 -66q-36 -27 -95 -45q-60 -19 -127 -19
q-164 0 -243 95q-80 94 -80 261q0 161 88 258q88 96 240 96z" />
    <glyph glyph-name="H" unicode="H" horiz-adv-x="708" 
d="M513 299h-318v-238q0 -27 -16 -44t-44 -17q-29 0 -44 17q-16 17 -16 44v567q0 27 16 45q15 17 44 17q28 0 44 -17q16 -18 16 -45v-222h318v222q0 27 16 45q15 17 44 17q28 0 44 -17q16 -18 16 -45v-567q0 -27 -16 -44t-44 -17q-29 0 -44 17q-16 17 -16 44v238z" />
    <glyph glyph-name="I" unicode="I" horiz-adv-x="270" 
d="M75 628q0 27 16 45q15 17 44 17q28 0 44 -17q16 -18 16 -45v-567q0 -27 -16 -44t-44 -17q-29 0 -44 17q-16 17 -16 44v567z" />
    <glyph glyph-name="J" unicode="J" horiz-adv-x="388" 
d="M2 97q17 39 70 19q46 -19 73 -19q69 0 69 74v457q0 27 16 45q15 17 44 17q28 0 44 -17q16 -18 16 -45v-459q0 -85 -43 -132t-127 -47q-81 0 -125 25q-58 32 -37 82z" />
    <glyph glyph-name="K" unicode="K" horiz-adv-x="571" 
d="M75 628q0 27 16 45q15 17 44 17q28 0 44 -17q16 -18 16 -45v-252l245 281q48 55 89 18q20 -20 17 -44q-4 -24 -24 -45l-213 -230l228 -241q23 -24 27 -49q4 -26 -15 -47q-44 -43 -97 13l-257 283v-254q0 -27 -16 -44t-44 -17q-29 0 -44 17q-16 17 -16 44v567z" />
    <glyph glyph-name="L" unicode="L" horiz-adv-x="533" 
d="M133 0q-28 0 -43 18q-15 17 -15 43v567q0 27 16 45q15 17 44 17q28 0 44 -17q16 -18 16 -45v-521h276q26 0 42 -14q15 -15 15 -39q0 -25 -15 -39q-16 -15 -42 -15h-338z" />
    <glyph glyph-name="M" unicode="M" horiz-adv-x="787" 
d="M397 329l200 323q24 38 59 38q27 0 42 -17q14 -17 14 -45v-567q0 -27 -15 -44q-16 -17 -45 -17q-28 0 -44 17t-16 44v407l-146 -236q-22 -36 -55 -36q-34 0 -56 35l-148 232v-402q0 -61 -56 -61t-56 61v566q0 32 16 48q15 15 40 15q38 0 62 -39z" />
    <glyph glyph-name="N" unicode="N" horiz-adv-x="708" 
d="M522 628q0 62 54 62q55 0 55 -62v-567q0 -27 -15 -44q-16 -17 -42 -17q-30 0 -54 30l-334 443v-412q0 -61 -55 -61q-54 0 -54 61v566q0 63 56 63q35 0 59 -33l330 -444v415z" />
    <glyph glyph-name="O" unicode="O" horiz-adv-x="747" 
d="M45 345q0 155 86 255q85 100 242 100t243 -100t86 -255q0 -156 -86 -255q-86 -100 -243 -100t-242 100q-86 99 -86 255zM171 345q0 -109 53 -178q52 -70 149 -70q98 0 151 70q52 69 52 178t-52 179q-53 69 -151 69q-97 0 -149 -69q-53 -70 -53 -179z" />
    <glyph glyph-name="P" unicode="P" horiz-adv-x="579" 
d="M75 612q0 59 56 70q66 13 154 13q123 0 194 -53q70 -54 70 -168q0 -116 -74 -175t-193 -59q-57 0 -87 5v-184q0 -27 -16 -44t-44 -17q-29 0 -44 17q-16 17 -16 44v551zM275 344q148 0 148 127q0 119 -141 119q-43 0 -87 -6v-236q29 -4 80 -4z" />
    <glyph glyph-name="Q" unicode="Q" horiz-adv-x="747" 
d="M45 345q0 155 86 255q85 100 242 100t243 -100t86 -255q0 -175 -103 -273q28 -25 79 -62q44 -31 19 -68q-21 -31 -67 -8q-51 27 -114 83q-65 -27 -143 -27q-157 0 -242 100q-86 99 -86 255zM171 345q0 -109 53 -178q52 -70 149 -70q32 0 61 8q-35 45 -49 79q-10 21 -5 40
q4 18 21 27q35 18 63 -21q38 -54 53 -72q59 68 59 187q0 109 -52 179q-53 69 -151 69q-97 0 -149 -69q-53 -70 -53 -179z" />
    <glyph glyph-name="R" unicode="R" horiz-adv-x="612" 
d="M75 613q0 57 56 69q59 13 150 13q259 0 259 -208q0 -71 -34 -120t-92 -69l127 -193q18 -27 15 -54q-3 -28 -26 -42q-53 -30 -91 33l-142 234q-13 -2 -43 -2q-32 0 -59 4v-217q0 -27 -16 -44t-44 -17q-29 0 -44 17q-16 17 -16 44v552zM263 364q77 0 114 28q37 27 37 88
q0 108 -143 108q-26 0 -76 -6v-214q31 -4 68 -4z" />
    <glyph glyph-name="S" unicode="S" horiz-adv-x="551" 
d="M280 590q-99 0 -99 -72q0 -32 26 -54q26 -23 65 -35q38 -12 84 -30q45 -18 84 -38q38 -20 64 -61t26 -98q0 -97 -61 -154q-61 -58 -184 -58q-110 0 -190 41q-34 18 -45 43q-12 25 2 51q20 39 86 12q80 -37 150 -37q56 0 89 22q32 22 32 65q0 42 -36 68t-87 42t-102 37
q-52 20 -88 65t-36 115q0 86 59 136q58 50 170 50q101 0 174 -42q61 -33 35 -84q-22 -43 -95 -11q-64 27 -123 27z" />
    <glyph glyph-name="T" unicode="T" horiz-adv-x="599" 
d="M536 690q27 0 43 -14q15 -14 15 -39q0 -24 -15 -39q-16 -15 -43 -15h-177v-522q0 -27 -15 -44q-16 -17 -45 -17t-44 17q-16 17 -16 44v522h-177q-26 0 -41 15q-16 15 -16 39q0 25 16 39q15 14 41 14h474z" />
    <glyph glyph-name="U" unicode="U" horiz-adv-x="679" 
d="M489 628q0 27 15 45q14 17 42 17t43 -17q15 -18 15 -45v-347q0 -62 -13 -112t-42 -91q-29 -42 -82 -65t-126 -23q-141 0 -203 80q-63 79 -63 209v349q0 27 16 45q15 17 43 17q29 0 45 -17q16 -18 16 -45v-354q0 -177 147 -177t147 179v352z" />
    <glyph glyph-name="V" unicode="V" horiz-adv-x="608" 
d="M320 170l171 464q26 74 83 51q47 -19 21 -83l-221 -566q-18 -46 -61 -46q-39 0 -58 44l-231 560q-12 23 -6 52q6 28 33 38q56 23 83 -45z" />
    <glyph glyph-name="W" unicode="W" horiz-adv-x="826" 
d="M436 414l-128 -375q-16 -49 -57 -49q-46 0 -60 51l-147 536q-25 95 33 110q36 9 54 -12q18 -22 29 -65l105 -420l117 355q15 52 60 52q44 0 58 -50l115 -358l105 415q12 50 29 71t52 13q33 -8 38 -37q4 -30 -10 -69l-154 -541q-15 -51 -58 -51q-42 0 -59 50z" />
    <glyph glyph-name="X" unicode="X" horiz-adv-x="603" 
d="M305 442l154 212q39 56 84 24q41 -29 3 -83l-176 -233l197 -261q16 -21 15 -47t-22 -42q-25 -16 -47 -10q-23 6 -40 29l-178 242l-168 -236q-40 -58 -86 -27q-21 18 -21 40t16 43l194 262l-177 232q-16 22 -16 48q0 25 21 42q29 18 52 11q23 -8 40 -33z" />
    <glyph glyph-name="Y" unicode="Y" horiz-adv-x="566" 
d="M267 299l-197 282q-42 65 6 99q30 17 53 7t41 -38l161 -242l156 242q17 26 38 36t51 -5q22 -18 22 -40q-1 -22 -17 -46l-194 -290v-242q0 -27 -16 -44t-44 -17q-29 0 -44 17q-16 17 -16 44v237z" />
    <glyph glyph-name="Z" unicode="Z" horiz-adv-x="574" 
d="M96 0q-46 0 -57 36q-12 35 12 64l350 483h-293q-27 0 -42 15q-16 15 -16 39q0 25 16 39q15 14 42 14h384q45 0 58 -32q13 -33 -12 -65l-350 -486h316q27 0 42 -14q15 -15 15 -40q0 -24 -15 -38q-16 -15 -42 -15h-408z" />
    <glyph glyph-name="bracketleft" unicode="[" horiz-adv-x="309" 
d="M112 -70q-28 0 -42 16q-15 16 -15 42v713q0 59 55 59h120q24 0 39 -13t15 -35q0 -48 -54 -48h-67v-638h67q24 0 39 -13t15 -35q0 -48 -54 -48h-118z" />
    <glyph glyph-name="backslash" unicode="\" horiz-adv-x="330" 
d="M2 720q-21 62 24 77q47 15 65 -40l279 -791q9 -21 4 -44q-6 -22 -28 -29q-46 -14 -66 42z" />
    <glyph glyph-name="bracketright" unicode="]" horiz-adv-x="309" 
d="M73 -70q-54 0 -54 48q0 22 15 35t39 13h67v638h-67q-54 0 -54 48q0 22 15 35t39 13h120q55 0 55 -59v-713q0 -26 -14 -42q-15 -16 -43 -16h-118z" />
    <glyph glyph-name="asciicircum" unicode="^" horiz-adv-x="565" 
d="M511 429q15 -16 15 -40q-1 -24 -21 -38q-44 -31 -83 24l-143 203l-143 -207q-37 -51 -78 -23q-18 14 -17 35t16 41l169 240q25 36 57 36q29 0 57 -36z" />
    <glyph glyph-name="underscore" unicode="_" horiz-adv-x="584" 
d="M59 -122q-24 0 -39 13t-15 37q0 23 15 36q15 14 39 14h466q24 0 39 -14q15 -13 15 -36q0 -24 -15 -37t-39 -13h-466z" />
    <glyph glyph-name="grave" unicode="`" horiz-adv-x="519" 
d="M202 638q-46 31 -24 65q22 33 66 4l121 -80q46 -30 20 -65q-23 -32 -66 -1z" />
    <glyph glyph-name="a" unicode="a" horiz-adv-x="503" 
d="M335 76q-49 -86 -160 -86q-75 0 -117 40q-43 40 -43 107q0 85 62 125q61 39 153 39q63 0 105 -7v11q0 48 -21 75q-21 26 -81 26q-13 0 -25 -1t-24 -4q-13 -3 -21 -5l-24 -8q-16 -5 -24 -7q-18 -6 -34 0q-17 6 -23 23q-12 35 25 59q55 37 163 37q197 0 197 -186v-256
q0 -26 -13 -42q-14 -16 -41 -16t-40 17q-14 16 -14 41v18zM205 78q60 0 95 40q35 39 35 90v17q-32 5 -89 5q-120 0 -120 -84q0 -31 21 -49q21 -19 58 -19z" />
    <glyph glyph-name="b" unicode="b" horiz-adv-x="544" 
d="M60 632q0 25 15 42q14 16 41 16t42 -16q15 -17 15 -42v-208q47 76 146 76q92 0 141 -65q49 -66 49 -175q0 -122 -56 -196q-57 -74 -169 -74q-80 0 -126 26q-14 -16 -42 -16q-27 0 -41 17q-15 16 -15 41v574zM296 404q-123 0 -123 -217v-78q40 -23 99 -23q121 0 121 176
q0 142 -97 142z" />
    <glyph glyph-name="c" unicode="c" horiz-adv-x="461" 
d="M420 36q-58 -46 -155 -46q-108 0 -169 66t-61 185q0 120 64 190q63 69 173 69q85 0 129 -28q43 -27 25 -67q-17 -36 -66 -21q-51 15 -85 15q-58 0 -91 -42t-33 -116q0 -70 35 -110q34 -40 90 -40q40 0 96 28q48 23 68 -10q23 -38 -20 -73z" />
    <glyph glyph-name="d" unicode="d" horiz-adv-x="544" 
d="M484 58q0 -25 -14 -41q-15 -17 -42 -17t-42 17q-15 16 -15 41v8q-45 -76 -146 -76q-92 0 -141 66q-49 65 -49 174q0 122 57 196q56 74 168 74q64 0 111 -19v151q0 25 15 42q15 16 42 16t42 -16q14 -17 14 -42v-574zM248 86q123 0 123 217v78q-40 23 -99 23
q-121 0 -121 -176q0 -142 97 -142z" />
    <glyph glyph-name="e" unicode="e" horiz-adv-x="506" 
d="M147 204q2 -57 37 -90t93 -33q44 0 106 26q44 18 62 -14q9 -15 4 -33q-6 -19 -25 -31q-58 -39 -158 -39q-112 0 -171 66q-60 66 -60 187q0 117 63 187t170 70q96 0 151 -54q54 -55 54 -145q0 -29 -5 -47q-7 -26 -22 -38t-44 -12h-255zM268 409q-53 0 -84 -32
q-32 -33 -37 -94h221q1 10 1 25q0 45 -25 73q-26 28 -76 28z" />
    <glyph glyph-name="f" unicode="f" horiz-adv-x="332" 
d="M60 494q0 106 36 151q44 55 134 55q72 0 109 -23q39 -23 26 -60q-13 -38 -64 -24q-37 11 -66 11q-62 0 -62 -78v-36h85q54 0 54 -48t-54 -48h-85v-536q0 -25 -15 -42q-15 -16 -42 -16t-41 16q-15 17 -15 42v636z" />
    <glyph glyph-name="g" unicode="g" horiz-adv-x="513" 
d="M50 331q0 77 52 123t148 46q40 0 78 -10h138q46 0 46 -40q0 -39 -46 -39h-35q20 -40 20 -80q0 -75 -52 -121q-53 -46 -149 -46q-54 0 -95 15q-27 -17 -27 -41q0 -22 33 -34t120 -16q101 -4 156 -32q54 -29 54 -95q0 -76 -65 -124q-65 -47 -186 -47t-173 40
q-52 41 -52 101q0 70 72 111q-47 26 -47 79q0 52 54 96q-44 44 -44 114zM249 4q-43 3 -78 9q-54 -25 -54 -69q0 -28 30 -48q29 -19 92 -19q73 0 109 21q35 21 35 54q0 25 -29 36q-30 11 -105 16zM151 331q0 -37 27 -59q26 -22 72 -22t73 22q26 22 26 59t-26 60
q-27 23 -73 23t-72 -23q-27 -23 -27 -60z" />
    <glyph glyph-name="h" unicode="h" horiz-adv-x="552" 
d="M60 632q0 25 15 42q14 16 41 16t42 -16q15 -17 15 -42v-215q22 41 62 62q39 21 86 21q93 0 132 -54t39 -160v-228q0 -25 -15 -41q-15 -17 -42 -17t-41 17q-15 16 -15 41v230q0 112 -85 112q-35 0 -59 -17q-25 -17 -37 -48q-13 -32 -18 -67q-6 -35 -7 -81v-129
q0 -25 -15 -41q-15 -17 -42 -17t-41 17q-15 16 -15 41v574z" />
    <glyph glyph-name="i" unicode="i" horiz-adv-x="233" 
d="M60 432q0 25 15 42q14 16 41 16t42 -16q15 -17 15 -42v-374q0 -25 -15 -41q-15 -17 -42 -17t-41 17q-15 16 -15 41v374zM51 619q0 28 18 45q17 16 47 16t48 -16q18 -17 18 -45q0 -29 -18 -45t-48 -16t-47 16q-18 15 -18 45z" />
    <glyph glyph-name="j" unicode="j" horiz-adv-x="237" 
d="M78 432q0 24 15 41t42 17t42 -16q14 -17 14 -42v-466q0 -176 -155 -176q-65 0 -103 19q-46 22 -32 66q11 35 57 26q44 -10 61 -10q35 0 47 21t12 65v455zM69 619q0 28 18 45q17 16 47 16t48 -16q18 -17 18 -45q0 -29 -18 -45t-48 -16t-47 16q-18 15 -18 45z" />
    <glyph glyph-name="k" unicode="k" horiz-adv-x="462" 
d="M60 632q0 25 15 42q14 16 40 16q27 0 42 -16q14 -17 14 -42v-365l170 194q45 51 84 14q15 -15 13 -36t-21 -41l-141 -150l158 -150q19 -18 22 -40q2 -23 -13 -39q-39 -42 -87 8l-185 188v-157q0 -25 -14 -41q-15 -17 -42 -17t-41 17q-14 16 -14 41v574z" />
    <glyph glyph-name="l" unicode="l" horiz-adv-x="337" 
d="M60 632q0 25 15 42q14 16 41 16t42 -16q15 -17 15 -42v-462q0 -42 13 -61t44 -19q24 0 53 12q19 8 37 3q17 -5 24 -22q17 -44 -32 -71q-38 -22 -101 -22q-151 0 -151 164v478z" />
    <glyph glyph-name="m" unicode="m" horiz-adv-x="833" 
d="M361 270q0 68 -14 101t-59 33q-115 0 -117 -213v-133q0 -25 -14 -41q-15 -17 -42 -17t-41 17q-14 16 -14 41v374q0 25 15 42q14 16 40 16q27 0 42 -16q14 -17 14 -42v-16q49 84 152 84q49 0 84 -25t48 -72q21 46 65 72q44 25 97 25q87 0 122 -53q34 -53 34 -158v-231
q0 -25 -14 -41q-15 -17 -42 -17t-41 17q-14 16 -14 41v234q0 55 -15 84q-15 28 -58 28q-117 0 -117 -222v-124q0 -25 -14 -41q-15 -17 -42 -17t-41 17q-14 16 -14 41v212z" />
    <glyph glyph-name="n" unicode="n" horiz-adv-x="552" 
d="M60 432q0 25 15 42q14 16 41 16t42 -16q15 -17 15 -42v-15q22 41 62 62q39 21 86 21q93 0 132 -54t39 -160v-228q0 -25 -15 -41q-15 -17 -42 -17t-41 17q-15 16 -15 41v230q0 112 -85 112q-35 0 -59 -17q-25 -17 -37 -48q-13 -32 -18 -67q-6 -35 -7 -81v-129
q0 -25 -15 -41q-15 -17 -42 -17t-41 17q-15 16 -15 41v374z" />
    <glyph glyph-name="o" unicode="o" horiz-adv-x="549" 
d="M35 245q0 113 63 184t176 71t177 -71q63 -72 63 -184t-63 -183q-64 -72 -177 -72t-176 71t-63 184zM151 245q0 -71 32 -115t91 -44q60 0 92 44t32 115t-32 115t-92 44q-59 0 -91 -44q-32 -45 -32 -115z" />
    <glyph glyph-name="p" unicode="p" horiz-adv-x="544" 
d="M60 432q0 25 15 42q14 16 41 16t42 -16q15 -17 15 -42v-8q45 76 146 76q92 0 141 -65q49 -66 49 -175q0 -122 -56 -196q-57 -74 -169 -74q-64 0 -111 19v-151q0 -25 -15 -42q-15 -16 -42 -16t-41 16q-15 17 -15 42v574zM296 404q-123 0 -123 -217v-78q40 -23 99 -23
q121 0 121 176q0 142 -97 142z" />
    <glyph glyph-name="q" unicode="q" horiz-adv-x="544" 
d="M484 -142q0 -25 -14 -42q-15 -16 -42 -16t-42 16q-15 17 -15 42v208q-45 -76 -146 -76q-92 0 -141 66q-49 65 -49 174q0 122 57 196q56 74 168 74q80 0 126 -26q14 16 42 16q27 0 42 -16q14 -17 14 -42v-574zM248 86q123 0 123 217v78q-40 23 -99 23q-121 0 -121 -176
q0 -142 97 -142z" />
    <glyph glyph-name="r" unicode="r" horiz-adv-x="367" 
d="M60 432q0 25 15 42q14 16 41 16t42 -16q15 -17 15 -38q16 29 44 47q28 17 61 17q58 0 82 -29q23 -29 9 -60q-17 -38 -63 -22q-27 9 -47 9q-86 0 -86 -171v-169q0 -25 -15 -41q-15 -17 -42 -17t-41 17q-15 16 -15 41v374z" />
    <glyph glyph-name="s" unicode="s" horiz-adv-x="433" 
d="M238 500q86 0 143 -33q46 -26 28 -66q-16 -34 -63 -19q-69 27 -104 27q-67 0 -67 -45q0 -25 26 -41q26 -17 63 -28q37 -12 74 -27t63 -47t26 -79q0 -73 -49 -112q-50 -40 -149 -40q-98 0 -156 38q-42 30 -23 69q18 37 73 12q63 -28 116 -28q74 0 74 51q0 26 -26 43
q-26 16 -63 28t-74 27t-63 48t-26 82q0 68 48 104t129 36z" />
    <glyph glyph-name="t" unicode="t" horiz-adv-x="337" 
d="M60 552q0 25 15 42q14 16 41 16t42 -16q15 -17 15 -42v-62h85q54 0 54 -48t-54 -48h-85v-223q0 -43 13 -62t44 -19q24 0 53 12q19 8 36 3t24 -22q17 -42 -31 -70q-40 -23 -100 -23q-152 0 -152 169v393z" />
    <glyph glyph-name="u" unicode="u" horiz-adv-x="552" 
d="M492 58q0 -25 -14 -41q-15 -17 -42 -17t-42 17q-15 16 -15 41v15q-22 -41 -61 -62q-40 -21 -87 -21q-93 0 -132 54t-39 160v228q0 25 15 42q15 16 42 16t42 -16q14 -17 14 -42v-230q0 -112 85 -112q35 0 60 17q24 17 37 49q12 31 18 66q5 35 6 81v129q0 25 15 42
q15 16 42 16t42 -16q14 -17 14 -42v-374z" />
    <glyph glyph-name="v" unicode="v" horiz-adv-x="466" 
d="M293 36q-19 -46 -53 -46q-35 0 -53 43l-157 367q-12 22 -6 49q6 26 31 36q26 10 46 -1t30 -39l110 -288l111 285q23 63 74 43q24 -9 29 -32q4 -24 -7 -45z" />
    <glyph glyph-name="w" unicode="w" horiz-adv-x="652" 
d="M545 51q-10 -31 -23 -46t-39 -15q-24 0 -37 14q-13 13 -23 41l-73 226l-68 -223q-9 -29 -22 -43q-14 -15 -39 -15t-37 15q-13 14 -23 44l-113 342q-25 78 26 95q30 10 49 -6t32 -60l78 -262l71 225q14 44 49 44q34 0 50 -44l77 -227l78 277q19 68 69 55q49 -13 29 -78z
" />
    <glyph glyph-name="x" unicode="x" horiz-adv-x="464" 
d="M242 325l105 134q15 22 36 29q20 6 42 -10q34 -29 -5 -78l-115 -142l134 -163q17 -21 17 -43q0 -23 -19 -39q-44 -36 -85 18l-119 149l-113 -149q-41 -54 -83 -17q-16 17 -13 38q3 20 19 40l129 156l-115 143q-41 51 0 86q23 17 46 11t40 -30z" />
    <glyph glyph-name="y" unicode="y" horiz-adv-x="465" 
d="M40 401q-12 23 -6 49q6 25 32 35q55 21 79 -41l117 -310l103 306q21 65 74 46q45 -15 22 -78l-156 -413q-44 -118 -84 -162q-41 -43 -106 -43q-48 0 -81 18q-50 28 -31 70q15 33 59 20q38 -12 54 -12q32 0 52 28q20 29 42 86z" />
    <glyph glyph-name="z" unicode="z" horiz-adv-x="453" 
d="M376 490q44 0 55 -32t-14 -61l-242 -301h213q53 0 53 -48t-53 -48h-296q-41 0 -52 32q-11 31 13 60l246 302h-197q-53 0 -53 48t53 48h274z" />
    <glyph glyph-name="braceleft" unicode="{" horiz-adv-x="338" 
d="M139 345q56 -25 56 -99v-171q0 -60 44 -60q8 0 22 4q14 3 16 3q38 7 48 -28q11 -37 -32 -60q-25 -14 -69 -14q-70 0 -102 42q-33 42 -33 112v160q0 39 -30 62q-25 22 -25 49t25 48q30 25 30 62v160q0 71 33 113q32 42 102 42q41 0 69 -14q20 -10 29 -26q8 -17 3 -34
q-12 -37 -48 -29q-32 8 -38 8q-44 0 -44 -60v-172q0 -74 -56 -98z" />
    <glyph glyph-name="bar" unicode="|" horiz-adv-x="215" 
d="M60 749q0 22 13 37q12 14 35 14t35 -14q12 -15 12 -37v-809q0 -22 -12 -36t-35 -14t-35 14q-13 14 -13 36v809z" />
    <glyph glyph-name="braceright" unicode="}" horiz-adv-x="338" 
d="M204 345q-56 24 -56 98v172q0 60 -44 60q-6 0 -38 -8q-36 -8 -48 29q-5 17 4 34q8 16 28 26q28 14 69 14q70 0 103 -42q32 -42 32 -113v-160q0 -37 30 -62q25 -21 25 -48t-25 -49q-30 -23 -30 -62v-160q0 -70 -32 -112q-33 -42 -103 -42q-44 0 -69 14q-43 23 -32 60
q10 35 48 28q2 0 16 -3q14 -4 22 -4q44 0 44 60v171q0 74 56 99z" />
    <glyph glyph-name="asciitilde" unicode="~" horiz-adv-x="495" 
d="M331 335q27 0 51 19q41 33 68 6q14 -15 11 -35q-4 -20 -21 -38q-48 -48 -106 -48q-30 0 -87 21t-79 21q-28 0 -55 -20q-39 -30 -64 -6q-14 12 -11 34q2 22 20 40q50 48 106 48q34 0 93 -21t74 -21z" />
    <glyph glyph-name="uni00A0" unicode="&#xa0;" horiz-adv-x="240" 
 />
    <glyph glyph-name="exclamdown" unicode="&#xa1;" horiz-adv-x="239" 
d="M50 626q0 29 18 47q17 17 51 17q33 0 52 -17q18 -18 18 -47t-18 -47q-19 -18 -52 -18t-51 18t-18 47zM62 431q0 26 15 43q15 16 42 16t42 -16q14 -17 14 -43v-378q0 -25 -14 -41q-15 -17 -42 -17t-42 17t-15 41v378z" />
    <glyph glyph-name="cent" unicode="&#xa2;" 
d="M459 37q-39 -32 -96 -41v-51q0 -59 -53 -59q-27 0 -40 17t-13 42v49q-87 14 -135 78t-48 169q0 104 49 171q48 66 134 83v50q0 25 13 42q13 16 40 16q53 0 53 -58v-49q46 -6 77 -24q44 -26 25 -67q-17 -36 -66 -21q-51 15 -85 15q-58 0 -91 -42t-33 -116q0 -70 35 -110
q34 -40 90 -40q40 0 96 28q48 23 68 -10q23 -37 -20 -72z" />
    <glyph glyph-name="sterling" unicode="&#xa3;" 
d="M125 351q-39 82 -39 151q0 92 59 145q58 53 157 53q122 -1 186 -64q28 -28 9 -62q-18 -30 -61 -16q-4 2 -23 10l-27 10q-8 3 -24 8q-17 4 -31 6t-29 2q-46 0 -71 -25q-26 -26 -26 -70q0 -45 33 -121l12 -27h118q49 0 49 -46t-49 -46h-89q4 -19 4 -45q0 -74 -41 -113h223
q53 0 53 -51q0 -23 -13 -36q-14 -14 -40 -14h-362q-26 0 -40 14q-14 13 -14 36q0 51 53 51q33 0 53 28q19 27 19 67q0 31 -10 63h-63q-49 0 -49 46t49 46h24z" />
    <glyph glyph-name="currency" unicode="&#xa4;" horiz-adv-x="629" 
d="M99 351q0 75 33 128l-50 52q-20 20 -23 43q-4 23 15 43q22 18 44 15q21 -4 38 -24l50 -59q54 31 123 31q70 0 122 -30l50 58q17 20 39 24q21 3 43 -15q19 -20 16 -43q-4 -23 -24 -43l-51 -52q34 -53 34 -128q0 -74 -33 -129l50 -51q20 -20 24 -43q3 -23 -16 -43
q-22 -18 -43 -14q-22 3 -39 23l-49 57q-54 -30 -123 -30q-68 0 -124 31l-49 -58q-17 -20 -38 -23q-22 -4 -44 14q-19 20 -15 43q3 23 23 43l50 51q-33 55 -33 129zM195 350q0 -63 37 -100q37 -38 97 -38t97 38q36 37 36 100t-36 101q-37 38 -97 38q-59 0 -96 -39
q-38 -40 -38 -100z" />
    <glyph glyph-name="yen" unicode="&#xa5;" 
d="M201 331l-165 260q-15 20 -13 47q1 27 25 42q51 32 86 -29l150 -253l144 252q33 60 82 31q21 -12 23 -35q1 -24 -14 -46l-165 -269h89q41 0 41 -35t-41 -35h-103v-56h103q41 0 41 -35t-41 -35h-103v-74q0 -27 -16 -44t-44 -17q-29 0 -44 17q-16 17 -16 44v74h-102
q-42 0 -42 35t42 35h102v56h-102q-42 0 -42 35t42 35h83z" />
    <glyph glyph-name="brokenbar" unicode="&#xa6;" horiz-adv-x="215" 
d="M60 244q0 22 13 37q12 14 35 14t35 -14q12 -15 12 -37v-304q0 -22 -12 -36t-35 -14t-35 14q-13 14 -13 36v304zM60 749q0 22 13 37q12 14 35 14t35 -14q12 -15 12 -37v-304q0 -22 -12 -36t-35 -14t-35 14q-13 14 -13 36v304z" />
    <glyph glyph-name="section" unicode="&#xa7;" horiz-adv-x="562" 
d="M92 525q0 81 54 128t156 47q95 0 153 -36q48 -29 30 -70q-10 -20 -28 -22q-19 -2 -37 6q-80 26 -116 26q-49 0 -73 -22q-25 -22 -25 -58q0 -10 3 -19q2 -9 5 -16q2 -8 9 -15l12 -12q4 -5 15 -11l15 -9q5 -4 18 -9l18 -8q5 -2 20 -7q15 -6 19 -8q80 -32 124 -76
q43 -44 43 -109q0 -58 -31 -99q-32 -41 -76 -63q70 -51 70 -140q0 -78 -54 -127q-54 -48 -156 -48q-95 0 -153 36q-48 29 -30 70q10 20 29 22q18 2 36 -6q80 -26 116 -26q49 0 74 22q24 22 24 58q0 10 -2 19q-3 9 -5 16q-3 8 -10 15t-11 12q-5 5 -15 11q-11 6 -16 10
q-5 3 -18 9l-18 7l-20 8q-15 5 -19 7q-82 32 -124 75q-43 42 -43 110q0 106 107 162q-70 51 -70 140zM169 240q0 -40 24 -64q23 -24 69 -44q10 -5 31 -13q20 -8 29 -12q71 34 71 101q0 40 -23 64q-24 24 -70 44l-61 24q-70 -33 -70 -100z" />
    <glyph glyph-name="dieresis" unicode="&#xa8;" horiz-adv-x="519" 
d="M101 618q0 28 17 45q16 16 46 16q29 0 46 -17t17 -44q0 -28 -17 -44q-17 -17 -46 -17q-30 0 -46 16q-17 16 -17 45zM292 618q0 28 17 45q16 16 45 16t46 -17t17 -44q0 -28 -17 -44q-17 -17 -46 -17q-30 0 -46 16t-16 45z" />
    <glyph glyph-name="copyright" unicode="&#xa9;" horiz-adv-x="776" 
d="M405 456q-41 0 -63 -28q-23 -29 -23 -83q0 -53 22 -80q22 -28 61 -28q22 0 63 18q36 16 57 -9q23 -30 -9 -61q-19 -17 -51 -28q-33 -11 -65 -11q-92 0 -139 53q-48 52 -48 146q0 96 52 149t138 53q65 0 101 -28q30 -23 16 -54t-54 -19q-32 10 -58 10zM37 345
q0 156 94 256q94 99 256 99t257 -99q95 -100 95 -256t-95 -255q-95 -100 -257 -100t-256 100q-94 99 -94 255zM122 345q0 -125 72 -199q71 -75 193 -75q123 0 195 75q72 74 72 199q0 124 -72 199q-73 75 -195 75t-193 -75q-72 -75 -72 -199z" />
    <glyph glyph-name="ordfeminine" unicode="&#xaa;" horiz-adv-x="401" 
d="M108 601q-13 -4 -26 1q-14 5 -19 21q-11 34 31 53q50 24 114 24q159 0 159 -134v-183q0 -53 -51 -53q-41 0 -50 39q-34 -49 -108 -49q-57 0 -90 31t-33 86q0 62 44 96q43 34 114 34q30 0 73 -9v6q0 29 -14 43q-15 13 -50 13q-18 0 -94 -19zM188 395q43 0 61 29
q17 28 17 63v11q-27 8 -59 8q-33 0 -50 -18t-17 -47q0 -21 15 -33q14 -13 33 -13z" />
    <glyph glyph-name="guillemotleft" unicode="&#xab;" horiz-adv-x="552" 
d="M461 433q19 20 41 23q21 2 39 -16q31 -35 -12 -78l-115 -113l118 -118q20 -20 23 -42q2 -22 -15 -39q-18 -15 -39 -12t-39 20l-140 140q-48 49 2 97zM245 433q19 20 41 23q21 2 39 -16q31 -35 -12 -78l-115 -113l118 -118q20 -20 23 -42q2 -22 -15 -39q-18 -15 -39 -12
t-39 20l-140 140q-48 49 2 97z" />
    <glyph glyph-name="logicalnot" unicode="&#xac;" horiz-adv-x="515" 
d="M363 280h-265q-53 0 -53 48q0 23 15 36q14 12 38 12h318q26 0 40 -14t14 -40v-113q0 -25 -13 -41q-14 -17 -41 -17t-40 17q-13 16 -13 41v71z" />
    <glyph glyph-name="uni00AD" unicode="&#xad;" horiz-adv-x="358" 
d="M57 217q-24 0 -39 13t-15 37q0 23 15 37q15 13 39 13h244q24 0 39 -13q15 -14 15 -37q0 -24 -15 -37t-39 -13h-244z" />
    <glyph glyph-name="registered" unicode="&#xae;" horiz-adv-x="666" 
d="M245 524q0 21 6 29q5 8 20 13q25 7 58 7q44 0 71 -20t27 -59q0 -54 -47 -73l44 -66q17 -28 -4 -40q-23 -12 -41 17l-47 77h-18q-16 0 -22 1v-71q0 -28 -23 -28q-24 0 -24 28v185zM75 440q0 115 71 188q70 72 187 72q118 0 188 -72q70 -73 70 -188t-70 -187
q-70 -73 -188 -73q-117 0 -187 73q-71 72 -71 187zM157 440q0 -82 48 -132t128 -50t128 50q47 50 47 132t-47 132q-48 49 -128 49t-128 -49q-48 -50 -48 -132zM321 450q31 0 44 10q12 9 12 33q0 38 -53 38q-18 0 -32 -4v-76q7 -1 29 -1z" />
    <glyph glyph-name="macron" unicode="&#xaf;" horiz-adv-x="519" 
d="M145 568q-47 0 -47 40t47 40h229q47 0 47 -40t-47 -40h-229z" />
    <glyph glyph-name="degree" unicode="&#xb0;" horiz-adv-x="550" 
d="M116 541q0 72 43 116q42 43 116 43q73 0 116 -43q42 -44 42 -116q0 -73 -42 -116q-43 -44 -116 -44q-74 0 -116 44q-43 43 -43 116zM201 541q0 -38 20 -58q19 -20 54 -20t54 20t19 58q0 77 -73 77q-35 0 -54 -19q-20 -20 -20 -58z" />
    <glyph glyph-name="plusminus" unicode="&#xb1;" horiz-adv-x="515" 
d="M205 300h-107q-53 0 -53 48q0 23 15 36q14 12 38 12h107v97q0 59 52 59t52 -59v-97h108q24 0 39 -12q14 -13 14 -36q0 -48 -53 -48h-108v-19q0 -58 -52 -58t-52 58v19zM98 115q-53 0 -53 48q0 23 15 36q14 12 38 12h319q24 0 39 -12q14 -13 14 -36q0 -48 -53 -48h-319z
" />
    <glyph glyph-name="twosuperior" unicode="&#xb2;" horiz-adv-x="311" 
d="M248 415q50 0 50 -42q0 -43 -50 -43h-182q-42 0 -42 44q0 38 17 68q16 30 40 49q23 19 47 35q24 15 41 31q16 15 16 31q0 25 -33 25q-22 0 -72 -20q-36 -14 -52 13q-8 15 -3 31t20 27q46 36 116 36q60 0 93 -28t33 -75q0 -31 -14 -55q-15 -24 -36 -39q-21 -16 -42 -29
q-22 -13 -39 -28q-18 -15 -22 -31h114z" />
    <glyph glyph-name="threesuperior" unicode="&#xb3;" horiz-adv-x="331" 
d="M162 406q55 0 55 42t-77 42q-32 0 -37 24q-6 24 13 38l70 57h-87q-50 0 -50 41q0 40 50 40h165q34 0 41 -30q6 -30 -20 -49l-79 -62q52 -4 83 -30q30 -27 30 -73q0 -62 -42 -94t-113 -32q-72 0 -107 27q-32 24 -18 57q12 27 45 18q54 -16 78 -16z" />
    <glyph glyph-name="acute" unicode="&#xb4;" horiz-adv-x="519" 
d="M249 560q-43 -31 -66 2q-26 36 21 67l120 78q43 28 65 -5q21 -35 -24 -66z" />
    <glyph glyph-name="mu" unicode="&#xb5;" horiz-adv-x="552" 
d="M60 432q0 25 15 42q15 16 42 16t42 -16q14 -17 14 -42v-230q0 -112 85 -112q35 0 60 17q24 17 37 49q12 31 18 66q5 35 6 81v129q0 25 15 42q15 16 42 16t42 -16q14 -17 14 -42v-374q0 -25 -14 -41q-15 -17 -42 -17t-42 17q-15 16 -15 41v15q-33 -83 -118 -83
q-55 0 -88 35v-167q0 -25 -15 -42q-15 -16 -42 -16t-41 16q-15 17 -15 42v574z" />
    <glyph glyph-name="paragraph" unicode="&#xb6;" horiz-adv-x="456" 
d="M146 290q-61 4 -101 61q-40 56 -40 139q0 85 51 143q50 57 128 57q30 0 43 -13q13 -14 13 -42v-695q0 -22 -12 -36t-35 -14t-35 14t-12 36v350zM285 639q0 22 13 37q12 14 35 14t36 -14q12 -15 12 -37v-699q0 -22 -12 -36q-13 -14 -36 -14t-35 14q-13 14 -13 36v699z" />
    <glyph glyph-name="periodcentered" unicode="&#xb7;" horiz-adv-x="239" 
d="M50 329q0 29 19 50q18 20 50 20t51 -20q19 -21 19 -50q0 -30 -18 -49q-19 -20 -52 -20t-51 20q-18 19 -18 49z" />
    <glyph glyph-name="cedilla" unicode="&#xb8;" horiz-adv-x="405" 
d="M132 -164q36 -9 53 -9q43 0 43 32q0 18 -13 26q-14 9 -46 14q-16 2 -21 12q-6 10 -3 23l16 70q9 36 43 31t26 -42l-7 -36q55 -3 79 -31t24 -66q0 -43 -31 -72q-31 -28 -94 -28q-58 0 -90 17q-14 7 -19 20t1 25q9 22 39 14z" />
    <glyph glyph-name="onesuperior" unicode="&#xb9;" horiz-adv-x="281" 
d="M129 566l-50 -45q-11 -11 -26 -14t-31 10q-12 11 -10 28q1 16 16 31l100 99q23 25 52 25q44 0 44 -53v-265q0 -52 -48 -52q-47 0 -47 52v184z" />
    <glyph glyph-name="ordmasculine" unicode="&#xba;" horiz-adv-x="370" 
d="M23 509q0 89 43 140q42 51 119 51t120 -51q42 -51 42 -140q0 -88 -42 -138q-43 -51 -120 -51t-119 51q-43 50 -43 138zM249 509q0 108 -64 108t-64 -108q0 -106 64 -106t64 106z" />
    <glyph glyph-name="guillemotright" unicode="&#xbb;" horiz-adv-x="552" 
d="M370 60q-19 -20 -40 -22q-22 -3 -40 15q-31 35 12 78l115 113l-118 118q-20 20 -22 42q-3 22 14 39q18 15 39 12t39 -20l140 -140q48 -49 -2 -97zM154 60q-19 -20 -40 -22q-22 -3 -40 15q-31 35 12 78l115 113l-118 118q-20 20 -22 42q-3 22 14 39q18 15 39 12t39 -20
l140 -140q48 -49 -2 -97z" />
    <glyph glyph-name="onequarter" unicode="&#xbc;" horiz-adv-x="724" 
d="M652 48q0 -48 -44 -48q-43 0 -43 48v43h-124q-35 0 -44 28q-9 27 12 52l147 174q25 30 52 30q44 0 44 -53v-159h15q38 0 38 -36t-38 -36h-15v-43zM490 163h78v88zM279 4q-20 -56 -64 -41q-38 13 -18 71l233 661q19 58 62 42q38 -13 18 -71zM129 566l-50 -45
q-11 -11 -26 -14t-31 10q-12 11 -10 28q1 16 16 31l100 99q23 25 52 25q44 0 44 -53v-265q0 -52 -48 -52q-47 0 -47 52v184z" />
    <glyph glyph-name="onehalf" unicode="&#xbd;" horiz-adv-x="755" 
d="M689 85q50 0 50 -42q0 -43 -50 -43h-182q-42 0 -42 44q0 38 17 68q16 30 40 49q23 19 47 35q24 15 41 31q16 15 16 31q0 25 -33 25q-22 0 -72 -20q-36 -14 -52 13q-8 15 -3 31t20 27q46 36 116 36q60 0 93 -28t33 -75q0 -31 -14 -55q-15 -24 -36 -39q-21 -16 -42 -29
q-22 -13 -39 -28q-18 -15 -22 -31h114zM275 4q-20 -56 -64 -41q-38 13 -18 71l233 661q19 58 62 42q38 -13 18 -71zM129 566l-50 -45q-11 -11 -26 -14t-31 10q-12 11 -10 28q1 16 16 31l100 99q23 25 52 25q44 0 44 -53v-265q0 -52 -48 -52q-47 0 -47 52v184z" />
    <glyph glyph-name="threequarters" unicode="&#xbe;" horiz-adv-x="763" 
d="M704 48q0 -48 -44 -48q-43 0 -43 48v43h-124q-35 0 -44 28q-9 27 12 52l147 174q25 30 52 30q44 0 44 -53v-159h15q38 0 38 -36t-38 -36h-15v-43zM542 163h78v88zM162 406q55 0 55 42t-77 42q-32 0 -37 24q-6 24 13 38l70 57h-87q-50 0 -50 41q0 40 50 40h165
q34 0 41 -30q6 -30 -20 -49l-79 -62q52 -4 83 -30q30 -27 30 -73q0 -62 -42 -94t-113 -32q-72 0 -107 27q-32 24 -18 57q12 27 45 18q54 -16 78 -16zM334 4q-20 -56 -64 -41q-38 13 -18 71l233 661q19 58 62 42q38 -13 18 -71z" />
    <glyph glyph-name="questiondown" unicode="&#xbf;" horiz-adv-x="412" 
d="M202 -10q-90 0 -136 45q-47 45 -47 108q0 37 15 70t31 52t47 48q37 35 53 60q15 24 15 61q0 56 51 56q50 0 50 -56q0 -49 -19 -85q-20 -37 -57 -74q-26 -26 -38 -40t-21 -35q-10 -21 -10 -45q0 -29 21 -49q20 -20 58 -20q35 0 92 25q49 22 68 -12q10 -15 3 -35
q-7 -21 -32 -36q-63 -38 -144 -38zM299 626q0 -29 -18 -47t-51 -18t-51 18q-19 18 -19 47t19 47q18 17 51 17t51 -17q18 -18 18 -47z" />
    <glyph glyph-name="Agrave" unicode="&#xc0;" horiz-adv-x="611" 
d="M453 195h-257l-52 -141q-25 -72 -82 -49q-44 19 -20 82l225 564q19 49 61 49q40 0 58 -43l232 -569q11 -22 5 -48q-7 -26 -32 -35q-28 -10 -49 2q-22 11 -33 40zM228 289h191l-97 252zM188 805q-52 26 -33 65q17 35 67 12l143 -67q53 -24 31 -64q-18 -34 -69 -10z" />
    <glyph glyph-name="Aacute" unicode="&#xc1;" horiz-adv-x="611" 
d="M453 195h-257l-52 -141q-25 -72 -82 -49q-44 19 -20 82l225 564q19 49 61 49q40 0 58 -43l232 -569q11 -22 5 -48q-7 -26 -32 -35q-28 -10 -49 2q-22 11 -33 40zM228 289h191l-97 252zM349 741q-53 -24 -69 10q-21 40 31 64l143 67q50 23 67 -12q19 -39 -33 -65z" />
    <glyph glyph-name="Acircumflex" unicode="&#xc2;" horiz-adv-x="611" 
d="M453 195h-257l-52 -141q-25 -72 -82 -49q-44 19 -20 82l225 564q19 49 61 49q40 0 58 -43l232 -569q11 -22 5 -48q-7 -26 -32 -35q-28 -10 -49 2q-22 11 -33 40zM228 289h191l-97 252zM290 873q32 18 65 0l120 -65q44 -23 23 -62q-18 -35 -61 -11l-116 64l-108 -61
q-20 -11 -36 -8q-17 3 -25 20q-16 36 29 61z" />
    <glyph glyph-name="Atilde" unicode="&#xc3;" horiz-adv-x="611" 
d="M453 195h-257l-52 -141q-25 -72 -82 -49q-44 19 -20 82l225 564q19 49 61 49q40 0 58 -43l232 -569q11 -22 5 -48q-7 -26 -32 -35q-28 -10 -49 2q-22 11 -33 40zM228 289h191l-97 252zM401 812q18 0 44 21q32 29 58 7q27 -24 -6 -63q-40 -46 -96 -46q-32 0 -76 22t-59 22
q-20 0 -48 -23q-31 -24 -53 -7q-14 11 -12 30t17 34q41 46 95 46q31 0 77 -21q46 -22 59 -22z" />
    <glyph glyph-name="Adieresis" unicode="&#xc4;" horiz-adv-x="611" 
d="M453 195h-257l-52 -141q-25 -72 -82 -49q-44 19 -20 82l225 564q19 49 61 49q40 0 58 -43l232 -569q11 -22 5 -48q-7 -26 -32 -35q-28 -10 -49 2q-22 11 -33 40zM228 289h191l-97 252zM149 796q0 28 21 44q20 16 51 16q33 0 54 -16q20 -16 20 -44t-20 -43
q-21 -15 -54 -15q-32 0 -52 15t-20 43zM357 796q0 28 20 44t53 16q32 0 53 -16q20 -16 20 -44t-20 -43q-21 -15 -53 -15q-33 0 -53 15t-20 43z" />
    <glyph glyph-name="Aring" unicode="&#xc5;" horiz-adv-x="611" 
d="M357 674q5 -7 9 -17l232 -568q11 -22 5 -47q-7 -26 -31 -36q-28 -12 -50 0q-22 11 -33 40l-56 149h-258l-51 -141q-10 -30 -31 -45q-22 -16 -52 -4q-21 9 -25 33q-5 24 6 49l225 564q6 14 12 23q-70 18 -70 88q0 43 31 68t88 25t88 -25t31 -68q0 -33 -18 -56
q-19 -24 -52 -32zM208 289h191l-97 252zM263 762q0 -19 12 -31q12 -13 33 -13t34 13q12 12 12 31q0 18 -13 31q-13 12 -33 12q-21 0 -33 -12t-12 -31z" />
    <glyph glyph-name="AE" unicode="&#xc6;" horiz-adv-x="867" 
d="M397 175h-201l-86 -133q-10 -16 -23 -27q-14 -12 -33 -15t-37 11q-21 19 -20 42q2 22 17 45l380 554q24 38 65 38h323q26 0 42 -14q15 -15 15 -40q0 -24 -15 -38q-16 -15 -42 -15h-271v-175h215q27 0 43 -14q15 -14 15 -39q0 -24 -15 -39q-16 -15 -43 -15h-215v-194h281
q26 0 42 -14q15 -15 15 -40q0 -24 -15 -38q-16 -15 -42 -15h-331q-28 0 -46 18t-18 45v112zM252 267h145v223z" />
    <glyph glyph-name="Ccedilla" unicode="&#xc7;" horiz-adv-x="634" 
d="M368 593q-92 0 -144 -67q-53 -68 -53 -180q0 -116 57 -182q56 -67 143 -67q69 0 142 43q51 29 76 -7q13 -17 8 -41q-6 -24 -31 -43q-77 -56 -191 -59l-6 -33q55 -3 79 -31t24 -66q0 -43 -31 -72q-31 -28 -94 -28q-58 0 -90 17q-14 7 -19 20t1 25q9 22 39 14q36 -9 53 -9
q43 0 43 32q0 18 -13 26q-14 9 -46 14q-16 2 -21 12q-6 10 -3 23l13 60q-128 17 -193 110q-66 93 -66 241q0 162 85 259q85 96 236 96q119 0 185 -46q44 -30 24 -73q-17 -38 -76 -16q-73 28 -131 28z" />
    <glyph glyph-name="Egrave" unicode="&#xc8;" horiz-adv-x="561" 
d="M75 628q0 27 16 45q16 17 45 17h338q26 0 42 -14q15 -15 15 -40q0 -24 -15 -38q-16 -15 -42 -15h-279v-175h223q27 0 43 -14q15 -14 15 -39q0 -24 -15 -39q-16 -15 -43 -15h-223v-194h289q26 0 42 -14q15 -15 15 -40q0 -24 -15 -38q-16 -15 -42 -15h-347q-29 0 -45 18
q-17 17 -17 44v566zM177 805q-52 26 -33 65q17 35 67 12l143 -67q53 -24 31 -64q-18 -34 -69 -10z" />
    <glyph glyph-name="Eacute" unicode="&#xc9;" horiz-adv-x="561" 
d="M75 628q0 27 16 45q16 17 45 17h338q26 0 42 -14q15 -15 15 -40q0 -24 -15 -38q-16 -15 -42 -15h-279v-175h223q27 0 43 -14q15 -14 15 -39q0 -24 -15 -39q-16 -15 -43 -15h-223v-194h289q26 0 42 -14q15 -15 15 -40q0 -24 -15 -38q-16 -15 -42 -15h-347q-29 0 -45 18
q-17 17 -17 44v566zM308 741q-53 -24 -69 10q-21 40 31 64l143 67q50 23 67 -12q19 -39 -33 -65z" />
    <glyph glyph-name="Ecircumflex" unicode="&#xca;" horiz-adv-x="561" 
d="M75 628q0 27 16 45q16 17 45 17h338q26 0 42 -14q15 -15 15 -40q0 -24 -15 -38q-16 -15 -42 -15h-279v-175h223q27 0 43 -14q15 -14 15 -39q0 -24 -15 -39q-16 -15 -43 -15h-223v-194h289q26 0 42 -14q15 -15 15 -40q0 -24 -15 -38q-16 -15 -42 -15h-347q-29 0 -45 18
q-17 17 -17 44v566zM265 873q32 18 65 0l120 -65q44 -23 23 -62q-18 -35 -61 -11l-116 64l-108 -61q-20 -11 -36 -8q-17 3 -25 20q-16 36 29 61z" />
    <glyph glyph-name="Edieresis" unicode="&#xcb;" horiz-adv-x="561" 
d="M75 628q0 27 16 45q16 17 45 17h338q26 0 42 -14q15 -15 15 -40q0 -24 -15 -38q-16 -15 -42 -15h-279v-175h223q27 0 43 -14q15 -14 15 -39q0 -24 -15 -39q-16 -15 -43 -15h-223v-194h289q26 0 42 -14q15 -15 15 -40q0 -24 -15 -38q-16 -15 -42 -15h-347q-29 0 -45 18
q-17 17 -17 44v566zM115 796q0 28 21 44q20 16 51 16q33 0 54 -16q20 -16 20 -44t-20 -43q-21 -15 -54 -15q-32 0 -52 15t-20 43zM323 796q0 28 20 44t53 16q32 0 53 -16q20 -16 20 -44t-20 -43q-21 -15 -53 -15q-33 0 -53 15t-20 43z" />
    <glyph glyph-name="Igrave" unicode="&#xcc;" horiz-adv-x="270" 
d="M-2 805q-52 26 -33 65q17 35 67 12l143 -67q53 -24 31 -64q-18 -34 -69 -10zM94 628q0 27 16 45q15 17 44 17q28 0 44 -17q16 -18 16 -45v-567q0 -27 -16 -44t-44 -17q-29 0 -44 17q-16 17 -16 44v567z" />
    <glyph glyph-name="Iacute" unicode="&#xcd;" horiz-adv-x="270" 
d="M165 741q-53 -24 -69 10q-21 40 31 64l143 67q50 23 67 -12q19 -39 -33 -65zM95 628q0 27 16 45q15 17 44 17q28 0 44 -17q16 -18 16 -45v-567q0 -27 -16 -44t-44 -17q-29 0 -44 17q-16 17 -16 44v567z" />
    <glyph glyph-name="Icircumflex" unicode="&#xce;" horiz-adv-x="270" 
d="M114 873q32 18 65 0l120 -65q44 -23 23 -62q-18 -35 -61 -11l-116 64l-108 -61q-20 -11 -36 -8q-17 3 -25 20q-16 36 29 61zM91 628q0 27 16 45q15 17 44 17q28 0 44 -17q16 -18 16 -45v-567q0 -27 -16 -44t-44 -17q-29 0 -44 17q-16 17 -16 44v567z" />
    <glyph glyph-name="Idieresis" unicode="&#xcf;" horiz-adv-x="270" 
d="M75 628q0 27 16 45q15 17 44 17q28 0 44 -17q16 -18 16 -45v-567q0 -27 -16 -44t-44 -17q-29 0 -44 17q-16 17 -16 44v567zM-42 796q0 28 20 44q21 16 52 16q33 0 54 -16q20 -16 20 -44t-20 -43q-21 -15 -54 -15q-32 0 -52 15t-20 43zM166 796q0 28 20 44t53 16
q32 0 53 -16q20 -16 20 -44t-20 -43q-21 -15 -53 -15q-33 0 -53 15t-20 43z" />
    <glyph glyph-name="Eth" unicode="&#xd0;" horiz-adv-x="711" 
d="M90 317h-44q-41 0 -41 38q0 39 41 39h44v218q0 59 55 69q66 14 168 14q353 0 353 -347q0 -166 -89 -259q-90 -94 -263 -94q-109 0 -168 10q-56 10 -56 64v248zM314 102q226 0 226 246q0 240 -227 240q-45 0 -103 -6v-188h133q41 0 41 -39q0 -38 -41 -38h-133v-210
q44 -5 104 -5z" />
    <glyph glyph-name="Ntilde" unicode="&#xd1;" horiz-adv-x="708" 
d="M522 628q0 62 54 62q55 0 55 -62v-567q0 -27 -15 -44q-16 -17 -42 -17q-30 0 -54 30l-334 443v-412q0 -61 -55 -61q-54 0 -54 61v566q0 63 56 63q35 0 59 -33l330 -444v415zM425 812q18 0 44 21q32 29 58 7q27 -24 -6 -63q-40 -46 -96 -46q-32 0 -76 22t-59 22
q-20 0 -48 -23q-31 -24 -53 -7q-14 11 -12 30t17 34q41 46 95 46q31 0 77 -21q46 -22 59 -22z" />
    <glyph glyph-name="Ograve" unicode="&#xd2;" horiz-adv-x="747" 
d="M45 345q0 155 86 255q85 100 242 100t243 -100t86 -255q0 -156 -86 -255q-86 -100 -243 -100t-242 100q-86 99 -86 255zM171 345q0 -109 53 -178q52 -70 149 -70q98 0 151 70q52 69 52 178t-52 179q-53 69 -151 69q-97 0 -149 -69q-53 -70 -53 -179zM251 805
q-52 26 -33 65q17 35 67 12l143 -67q53 -24 31 -64q-18 -34 -69 -10z" />
    <glyph glyph-name="Oacute" unicode="&#xd3;" horiz-adv-x="747" 
d="M45 345q0 155 86 255q85 100 242 100t243 -100t86 -255q0 -156 -86 -255q-86 -100 -243 -100t-242 100q-86 99 -86 255zM171 345q0 -109 53 -178q52 -70 149 -70q98 0 151 70q52 69 52 178t-52 179q-53 69 -151 69q-97 0 -149 -69q-53 -70 -53 -179zM377 741
q-53 -24 -69 10q-21 40 31 64l143 67q50 23 67 -12q19 -39 -33 -65z" />
    <glyph glyph-name="Ocircumflex" unicode="&#xd4;" horiz-adv-x="747" 
d="M336 873q32 18 65 0l120 -65q44 -23 23 -62q-18 -35 -61 -11l-116 64l-108 -61q-20 -11 -36 -8q-17 3 -25 20q-16 36 29 61zM45 345q0 155 86 255q85 100 242 100t243 -100t86 -255q0 -156 -86 -255q-86 -100 -243 -100t-242 100q-86 99 -86 255zM171 345q0 -109 53 -178
q52 -70 149 -70q98 0 151 70q52 69 52 178t-52 179q-53 69 -151 69q-97 0 -149 -69q-53 -70 -53 -179z" />
    <glyph glyph-name="Otilde" unicode="&#xd5;" horiz-adv-x="747" 
d="M45 345q0 155 86 255q85 100 242 100t243 -100t86 -255q0 -156 -86 -255q-86 -100 -243 -100t-242 100q-86 99 -86 255zM171 345q0 -109 53 -178q52 -70 149 -70q98 0 151 70q52 69 52 178t-52 179q-53 69 -151 69q-97 0 -149 -69q-53 -70 -53 -179zM445 812q18 0 44 21
q32 29 58 7q27 -24 -6 -63q-40 -46 -96 -46q-32 0 -76 22t-59 22q-20 0 -48 -23q-31 -24 -53 -7q-14 11 -12 30t17 34q41 46 95 46q31 0 77 -21q46 -22 59 -22z" />
    <glyph glyph-name="Odieresis" unicode="&#xd6;" horiz-adv-x="747" 
d="M45 345q0 155 86 255q85 100 242 100t243 -100t86 -255q0 -156 -86 -255q-86 -100 -243 -100t-242 100q-86 99 -86 255zM171 345q0 -109 53 -178q52 -70 149 -70q98 0 151 70q52 69 52 178t-52 179q-53 69 -151 69q-97 0 -149 -69q-53 -70 -53 -179zM192 796q0 28 21 44
q20 16 51 16q33 0 54 -16q20 -16 20 -44t-20 -43q-21 -15 -54 -15q-32 0 -52 15t-20 43zM400 796q0 28 20 44t53 16q32 0 53 -16q20 -16 20 -44t-20 -43q-21 -15 -53 -15q-33 0 -53 15t-20 43z" />
    <glyph glyph-name="multiply" unicode="&#xd7;" horiz-adv-x="515" 
d="M439 252q40 -40 6 -78q-20 -19 -40 -16q-20 2 -39 19l-76 75l-76 -76q-17 -18 -36 -20q-19 -3 -36 14q-34 34 3 72l76 77l-76 75q-41 41 -7 79q33 39 80 -4l76 -75l75 76q38 39 71 6q34 -35 -4 -73l-73 -76z" />
    <glyph glyph-name="Oslash" unicode="&#xd8;" horiz-adv-x="747" 
d="M45 345q0 155 86 255q85 100 242 100q35 0 69 -8l13 35q19 54 65 39q40 -13 22 -69l-12 -32q83 -41 128 -126q44 -85 44 -194q0 -156 -86 -255q-86 -100 -243 -100q-42 0 -80 8l-13 -35q-8 -23 -25 -34t-39 -4q-43 13 -22 70l12 35q-78 43 -119 126q-42 83 -42 189z
M576 345q0 70 -23 127q-24 56 -68 87l-163 -456q24 -6 51 -6q98 0 151 70q52 69 52 178zM171 345q0 -65 22 -121q22 -57 60 -87l159 452q-17 4 -39 4q-95 0 -148 -68q-54 -69 -54 -180z" />
    <glyph glyph-name="Ugrave" unicode="&#xd9;" horiz-adv-x="679" 
d="M489 628q0 27 15 45q14 17 42 17t43 -17q15 -18 15 -45v-347q0 -62 -13 -112t-42 -91q-29 -42 -82 -65t-126 -23q-141 0 -203 80q-63 79 -63 209v349q0 27 16 45q15 17 43 17q29 0 45 -17q16 -18 16 -45v-354q0 -177 147 -177t147 179v352zM236 805q-52 26 -33 65
q17 35 67 12l143 -67q53 -24 31 -64q-18 -34 -69 -10z" />
    <glyph glyph-name="Uacute" unicode="&#xda;" horiz-adv-x="679" 
d="M489 628q0 27 15 45q14 17 42 17t43 -17q15 -18 15 -45v-347q0 -62 -13 -112t-42 -91q-29 -42 -82 -65t-126 -23q-141 0 -203 80q-63 79 -63 209v349q0 27 16 45q15 17 43 17q29 0 45 -17q16 -18 16 -45v-354q0 -177 147 -177t147 179v352zM362 741q-53 -24 -69 10
q-21 40 31 64l143 67q50 23 67 -12q19 -39 -33 -65z" />
    <glyph glyph-name="Ucircumflex" unicode="&#xdb;" horiz-adv-x="679" 
d="M308 873q32 18 65 0l120 -65q44 -23 23 -62q-18 -35 -61 -11l-116 64l-108 -61q-20 -11 -36 -8q-17 3 -25 20q-16 36 29 61zM489 628q0 27 15 45q14 17 42 17t43 -17q15 -18 15 -45v-347q0 -62 -13 -112t-42 -91q-29 -42 -82 -65t-126 -23q-141 0 -203 80q-63 79 -63 209
v349q0 27 16 45q15 17 43 17q29 0 45 -17q16 -18 16 -45v-354q0 -177 147 -177t147 179v352z" />
    <glyph glyph-name="Udieresis" unicode="&#xdc;" horiz-adv-x="679" 
d="M489 628q0 27 15 45q14 17 42 17t43 -17q15 -18 15 -45v-347q0 -62 -13 -112t-42 -91q-29 -42 -82 -65t-126 -23q-141 0 -203 80q-63 79 -63 209v349q0 27 16 45q15 17 43 17q29 0 45 -17q16 -18 16 -45v-354q0 -177 147 -177t147 179v352zM164 796q0 28 21 44
q20 16 51 16q33 0 54 -16q20 -16 20 -44t-20 -43q-21 -15 -54 -15q-32 0 -52 15t-20 43zM372 796q0 28 20 44t53 16q32 0 53 -16q20 -16 20 -44t-20 -43q-21 -15 -53 -15q-33 0 -53 15t-20 43z" />
    <glyph glyph-name="Yacute" unicode="&#xdd;" horiz-adv-x="566" 
d="M267 299l-197 282q-42 65 6 99q30 17 53 7t41 -38l161 -242l156 242q17 26 38 36t51 -5q22 -18 22 -40q-1 -22 -17 -46l-194 -290v-242q0 -27 -16 -44t-44 -17q-29 0 -44 17q-16 17 -16 44v237zM340 741q-53 -24 -69 10q-21 40 31 64l143 67q50 23 67 -12q19 -39 -33 -65
z" />
    <glyph glyph-name="Thorn" unicode="&#xde;" horiz-adv-x="579" 
d="M75 628q0 27 16 45q15 17 44 17q28 0 44 -17q16 -18 16 -45v-11q53 7 91 7q263 0 263 -219q0 -78 -37 -131q-38 -53 -96 -75q-59 -23 -135 -23q-58 0 -86 4v-119q0 -27 -16 -44t-44 -17q-29 0 -44 17q-16 17 -16 44v567zM282 519q-33 0 -87 -6v-230q25 -3 78 -3
q150 2 150 124q0 115 -141 115z" />
    <glyph glyph-name="germandbls" unicode="&#xdf;" 
d="M60 476q0 110 48 167t156 57q94 0 148 -38q53 -38 53 -107q0 -34 -16 -65t-35 -50q-20 -19 -36 -38q-16 -20 -16 -34t17 -29q17 -16 42 -32q24 -16 49 -36t42 -52q17 -33 17 -73q0 -67 -43 -111q-44 -45 -134 -45q-68 0 -108 22q-22 12 -30 32t1 38q15 30 62 14
q47 -15 74 -15q32 0 48 18q16 17 16 44q0 30 -26 56t-57 43t-57 47q-26 29 -26 65q0 29 16 56t35 44t35 42q16 24 16 49q0 29 -22 44q-23 15 -63 15q-53 0 -73 -34t-20 -111v-601q0 -25 -15 -42q-15 -16 -42 -16t-41 16q-15 17 -15 42v618z" />
    <glyph glyph-name="agrave" unicode="&#xe0;" horiz-adv-x="503" 
d="M335 76q-49 -86 -160 -86q-75 0 -117 40q-43 40 -43 107q0 85 62 125q61 39 153 39q63 0 105 -7v11q0 48 -21 75q-21 26 -81 26q-13 0 -25 -1t-24 -4q-13 -3 -21 -5l-24 -8q-16 -5 -24 -7q-18 -6 -34 0q-17 6 -23 23q-12 35 25 59q55 37 163 37q197 0 197 -186v-256
q0 -26 -13 -42q-14 -16 -41 -16t-40 17q-14 16 -14 41v18zM205 78q60 0 95 40q35 39 35 90v17q-32 5 -89 5q-120 0 -120 -84q0 -31 21 -49q21 -19 58 -19zM121 638q-46 31 -24 65q22 33 66 4l121 -80q46 -30 20 -65q-23 -32 -66 -1z" />
    <glyph glyph-name="aacute" unicode="&#xe1;" horiz-adv-x="503" 
d="M335 76q-49 -86 -160 -86q-75 0 -117 40q-43 40 -43 107q0 85 62 125q61 39 153 39q63 0 105 -7v11q0 48 -21 75q-21 26 -81 26q-13 0 -25 -1t-24 -4q-13 -3 -21 -5l-24 -8q-16 -5 -24 -7q-18 -6 -34 0q-17 6 -23 23q-12 35 25 59q55 37 163 37q197 0 197 -186v-256
q0 -26 -13 -42q-14 -16 -41 -16t-40 17q-14 16 -14 41v18zM205 78q60 0 95 40q35 39 35 90v17q-32 5 -89 5q-120 0 -120 -84q0 -31 21 -49q21 -19 58 -19zM248 560q-43 -31 -66 2q-26 36 21 67l120 78q43 28 65 -5q21 -35 -24 -66z" />
    <glyph glyph-name="acircumflex" unicode="&#xe2;" horiz-adv-x="503" 
d="M335 76q-49 -86 -160 -86q-75 0 -117 40q-43 40 -43 107q0 85 62 125q61 39 153 39q63 0 105 -7v11q0 48 -21 75q-21 26 -81 26q-13 0 -25 -1t-24 -4q-13 -3 -21 -5l-24 -8q-16 -5 -24 -7q-18 -6 -34 0q-17 6 -23 23q-12 35 25 59q55 37 163 37q197 0 197 -186v-256
q0 -26 -13 -42q-14 -16 -41 -16t-40 17q-14 16 -14 41v18zM205 78q60 0 95 40q35 39 35 90v17q-32 5 -89 5q-120 0 -120 -84q0 -31 21 -49q21 -19 58 -19zM240 632l-92 -71q-38 -28 -59 1q-21 31 16 58l105 77q33 25 68 0l110 -79q18 -13 20 -31t-8 -28q-22 -28 -58 -2z" />
    <glyph glyph-name="atilde" unicode="&#xe3;" horiz-adv-x="503" 
d="M335 76q-49 -86 -160 -86q-75 0 -117 40q-43 40 -43 107q0 85 62 125q61 39 153 39q63 0 105 -7v11q0 48 -21 75q-21 26 -81 26q-13 0 -25 -1t-24 -4q-13 -3 -21 -5l-24 -8q-16 -5 -24 -7q-18 -6 -34 0q-17 6 -23 23q-12 35 25 59q55 37 163 37q197 0 197 -186v-256
q0 -26 -13 -42q-14 -16 -41 -16t-40 17q-14 16 -14 41v18zM205 78q60 0 95 40q35 39 35 90v17q-32 5 -89 5q-120 0 -120 -84q0 -31 21 -49q21 -19 58 -19zM298 633q14 0 39 21q31 27 58 4q12 -12 11 -29q-2 -17 -15 -33q-38 -48 -94 -48q-31 0 -69 22q-39 21 -54 21
q-17 0 -42 -22q-30 -24 -54 -4q-13 11 -11 29q1 18 15 35q42 47 92 47q32 0 72 -21q40 -22 52 -22z" />
    <glyph glyph-name="adieresis" unicode="&#xe4;" horiz-adv-x="503" 
d="M335 76q-49 -86 -160 -86q-75 0 -117 40q-43 40 -43 107q0 85 62 125q61 39 153 39q63 0 105 -7v11q0 48 -21 75q-21 26 -81 26q-13 0 -25 -1t-24 -4q-13 -3 -21 -5l-24 -8q-16 -5 -24 -7q-18 -6 -34 0q-17 6 -23 23q-12 35 25 59q55 37 163 37q197 0 197 -186v-256
q0 -26 -13 -42q-14 -16 -41 -16t-40 17q-14 16 -14 41v18zM205 78q60 0 95 40q35 39 35 90v17q-32 5 -89 5q-120 0 -120 -84q0 -31 21 -49q21 -19 58 -19zM86 618q0 28 17 45q17 16 46 16t46 -17t17 -44q0 -28 -17 -44q-17 -17 -46 -17q-30 0 -46 16q-17 16 -17 45zM277 618
q0 28 17 45q16 16 45 16t46 -17t17 -44q0 -28 -17 -44q-17 -17 -46 -17q-30 0 -46 16t-16 45z" />
    <glyph glyph-name="aring" unicode="&#xe5;" horiz-adv-x="503" 
d="M335 76q-49 -86 -160 -86q-75 0 -117 40q-43 40 -43 107q0 85 62 125q61 39 153 39q63 0 105 -7v11q0 48 -21 75q-21 26 -81 26q-13 0 -25 -1t-24 -4q-13 -3 -21 -5l-24 -8q-16 -5 -24 -7q-18 -6 -34 0q-17 6 -23 23q-12 35 25 59q55 37 163 37q197 0 197 -186v-256
q0 -26 -13 -42q-14 -16 -41 -16t-40 17q-14 16 -14 41v18zM205 78q60 0 95 40q35 39 35 90v17q-32 5 -89 5q-120 0 -120 -84q0 -31 21 -49q21 -19 58 -19zM240 729q50 0 80 -26q29 -27 29 -71q0 -45 -29 -71q-30 -26 -80 -26t-79 26q-30 26 -30 71q0 44 30 71q29 26 79 26z
M193 632q0 -20 14 -32q13 -13 33 -13t34 13q13 12 13 32t-13 33q-14 12 -34 12t-33 -12q-14 -13 -14 -33z" />
    <glyph glyph-name="ae" unicode="&#xe6;" horiz-adv-x="788" 
d="M10 133q0 158 219 158h99v27q0 40 -24 64t-76 24q-15 0 -31 -2q-17 -2 -27 -4q-10 -3 -29 -8l-30 -9q-47 -11 -58 21q-14 43 40 68q63 28 148 28q123 0 152 -84q57 84 174 84q88 0 138 -51q50 -52 50 -130q0 -49 -15 -74q-16 -25 -64 -25h-247q4 -139 130 -139
q47 0 111 26q40 16 56 -15q10 -18 3 -36q-8 -19 -29 -32q-56 -34 -146 -34q-136 0 -189 112q-56 -112 -195 -112q-75 0 -117 39q-43 38 -43 104zM201 78q60 0 94 39q33 38 33 90v13h-88q-58 0 -88 -16q-31 -17 -31 -61q0 -31 22 -48t58 -17zM552 409q-50 0 -82 -30
q-33 -30 -38 -88h217q3 16 3 37q0 36 -25 59q-26 22 -75 22z" />
    <glyph glyph-name="ccedilla" unicode="&#xe7;" horiz-adv-x="461" 
d="M420 37q-56 -44 -144 -47l-7 -33q55 -3 79 -31t24 -66q0 -42 -32 -71q-33 -29 -93 -29q-58 0 -90 17q-14 7 -19 20t1 25q9 22 39 14q36 -9 53 -9q43 0 43 32q0 18 -13 26q-14 9 -46 14q-16 2 -21 12q-6 10 -3 23l14 62q-81 17 -125 81q-45 63 -45 164q0 120 64 190
q63 69 173 69q81 0 129 -28q44 -26 25 -67q-17 -36 -66 -21q-51 15 -85 15q-58 0 -91 -42t-33 -116q0 -70 35 -110q34 -40 90 -40q40 0 96 28q48 23 68 -10q23 -37 -20 -72z" />
    <glyph glyph-name="egrave" unicode="&#xe8;" horiz-adv-x="506" 
d="M147 204q2 -57 37 -90t93 -33q44 0 106 26q44 18 62 -14q9 -15 4 -33q-6 -19 -25 -31q-58 -39 -158 -39q-112 0 -171 66q-60 66 -60 187q0 117 63 187t170 70q96 0 151 -54q54 -55 54 -145q0 -29 -5 -47q-7 -26 -22 -38t-44 -12h-255zM268 409q-53 0 -84 -32
q-32 -33 -37 -94h221q1 10 1 25q0 45 -25 73q-26 28 -76 28zM156 638q-46 31 -24 65q22 33 66 4l121 -80q46 -30 20 -65q-23 -32 -66 -1z" />
    <glyph glyph-name="eacute" unicode="&#xe9;" horiz-adv-x="506" 
d="M147 204q2 -57 37 -90t93 -33q44 0 106 26q44 18 62 -14q9 -15 4 -33q-6 -19 -25 -31q-58 -39 -158 -39q-112 0 -171 66q-60 66 -60 187q0 117 63 187t170 70q96 0 151 -54q54 -55 54 -145q0 -29 -5 -47q-7 -26 -22 -38t-44 -12h-255zM268 409q-53 0 -84 -32
q-32 -33 -37 -94h221q1 10 1 25q0 45 -25 73q-26 28 -76 28zM273 560q-43 -31 -66 2q-26 36 21 67l120 78q43 28 65 -5q21 -35 -24 -66z" />
    <glyph glyph-name="ecircumflex" unicode="&#xea;" horiz-adv-x="506" 
d="M147 204q2 -57 37 -90t93 -33q44 0 106 26q44 18 62 -14q9 -15 4 -33q-6 -19 -25 -31q-58 -39 -158 -39q-112 0 -171 66q-60 66 -60 187q0 117 63 187t170 70q96 0 151 -54q54 -55 54 -145q0 -29 -5 -47q-7 -26 -22 -38t-44 -12h-255zM268 409q-53 0 -84 -32
q-32 -33 -37 -94h221q1 10 1 25q0 45 -25 73q-26 28 -76 28zM265 632l-92 -71q-38 -28 -59 1q-21 31 16 58l105 77q33 25 68 0l110 -79q18 -13 20 -31t-8 -28q-22 -28 -58 -2z" />
    <glyph glyph-name="edieresis" unicode="&#xeb;" horiz-adv-x="506" 
d="M147 204q2 -57 37 -90t93 -33q44 0 106 26q44 18 62 -14q9 -15 4 -33q-6 -19 -25 -31q-58 -39 -158 -39q-112 0 -171 66q-60 66 -60 187q0 117 63 187t170 70q96 0 151 -54q54 -55 54 -145q0 -29 -5 -47q-7 -26 -22 -38t-44 -12h-255zM268 409q-53 0 -84 -32
q-32 -33 -37 -94h221q1 10 1 25q0 45 -25 73q-26 28 -76 28zM109 618q0 28 17 45q16 16 46 16q29 0 46 -17t17 -44q0 -28 -17 -44q-17 -17 -46 -17q-30 0 -46 16q-17 16 -17 45zM300 618q0 28 17 45q16 16 45 16t46 -17t17 -44q0 -28 -17 -44q-17 -17 -46 -17q-30 0 -46 16
t-16 45z" />
    <glyph glyph-name="igrave" unicode="&#xec;" horiz-adv-x="233" 
d="M22 638q-46 31 -24 65q22 33 66 4l121 -80q46 -30 20 -65q-23 -32 -66 -1zM82 432q0 25 15 42q14 16 41 16t42 -16q15 -17 15 -42v-374q0 -25 -15 -41q-15 -17 -42 -17t-41 17q-15 16 -15 41v374z" />
    <glyph glyph-name="iacute" unicode="&#xed;" horiz-adv-x="233" 
d="M152 560q-43 -31 -66 2q-26 36 21 67l120 78q43 28 65 -5q21 -35 -24 -66zM84 432q0 25 15 42q14 16 41 16t42 -16q15 -17 15 -42v-374q0 -25 -15 -41q-15 -17 -42 -17t-41 17q-15 16 -15 41v374z" />
    <glyph glyph-name="icircumflex" unicode="&#xee;" horiz-adv-x="233" 
d="M132 632l-92 -71q-38 -28 -59 1q-21 31 16 58l105 77q33 25 68 0l110 -79q18 -13 20 -31t-8 -28q-22 -28 -58 -2zM81 432q0 25 15 42q14 16 41 16t42 -16q15 -17 15 -42v-374q0 -25 -15 -41q-15 -17 -42 -17t-41 17q-15 16 -15 41v374z" />
    <glyph glyph-name="idieresis" unicode="&#xef;" horiz-adv-x="233" 
d="M-41 618q0 28 16 45q17 16 47 16q29 0 46 -17t17 -44q0 -28 -17 -44q-17 -17 -46 -17q-30 0 -47 16q-16 16 -16 45zM150 618q0 28 17 45q16 16 45 16t46 -17t17 -44q0 -28 -17 -44q-17 -17 -46 -17q-30 0 -46 16t-16 45zM60 432q0 25 15 42q14 16 41 16t42 -16
q15 -17 15 -42v-374q0 -25 -15 -41q-15 -17 -42 -17t-41 17q-15 16 -15 41v374z" />
    <glyph glyph-name="eth" unicode="&#xf0;" horiz-adv-x="541" 
d="M357 641q79 -50 114 -129t35 -194q0 -150 -59 -239t-176 -89q-113 0 -174 67q-62 67 -62 184q0 109 53 179q53 69 156 69q104 0 156 -70q-6 48 -36 90q-31 42 -74 63l-52 -46q-10 -10 -22 -12q-13 -2 -26 8q-21 21 7 47l32 27q-24 6 -79 16q-49 10 -43 51q7 43 71 36
q72 -7 123 -30l42 37q25 23 46 3q9 -12 7 -24q-3 -12 -12 -21zM270 86q37 0 62 17q24 16 37 48t18 69t5 87q-36 86 -121 86q-60 0 -90 -39t-30 -112q0 -70 32 -113t87 -43z" />
    <glyph glyph-name="ntilde" unicode="&#xf1;" horiz-adv-x="552" 
d="M60 432q0 25 15 42q14 16 41 16t42 -16q15 -17 15 -42v-15q22 41 62 62q39 21 86 21q93 0 132 -54t39 -160v-228q0 -25 -15 -41q-15 -17 -42 -17t-41 17q-15 16 -15 41v230q0 112 -85 112q-35 0 -59 -17q-25 -17 -37 -48q-13 -32 -18 -67q-6 -35 -7 -81v-129
q0 -25 -15 -41q-15 -17 -42 -17t-41 17q-15 16 -15 41v374zM340 633q14 0 39 21q31 27 58 4q12 -12 11 -29q-2 -17 -15 -33q-38 -48 -94 -48q-31 0 -69 22q-39 21 -54 21q-17 0 -42 -22q-30 -24 -54 -4q-13 11 -11 29q1 18 15 35q42 47 92 47q32 0 72 -21q40 -22 52 -22z
" />
    <glyph glyph-name="ograve" unicode="&#xf2;" horiz-adv-x="549" 
d="M35 245q0 113 63 184t176 71t177 -71q63 -72 63 -184t-63 -183q-64 -72 -177 -72t-176 71t-63 184zM151 245q0 -71 32 -115t91 -44q60 0 92 44t32 115t-32 115t-92 44q-59 0 -91 -44q-32 -45 -32 -115zM155 638q-46 31 -24 65q22 33 66 4l121 -80q46 -30 20 -65
q-23 -32 -66 -1z" />
    <glyph glyph-name="oacute" unicode="&#xf3;" horiz-adv-x="549" 
d="M35 245q0 113 63 184t176 71t177 -71q63 -72 63 -184t-63 -183q-64 -72 -177 -72t-176 71t-63 184zM151 245q0 -71 32 -115t91 -44q60 0 92 44t32 115t-32 115t-92 44q-59 0 -91 -44q-32 -45 -32 -115zM288 560q-43 -31 -66 2q-26 36 21 67l120 78q43 28 65 -5
q21 -35 -24 -66z" />
    <glyph glyph-name="ocircumflex" unicode="&#xf4;" horiz-adv-x="549" 
d="M270 632l-92 -71q-38 -28 -59 1q-21 31 16 58l105 77q33 25 68 0l110 -79q18 -13 20 -31t-8 -28q-22 -28 -58 -2zM35 245q0 113 63 184t176 71t177 -71q63 -72 63 -184t-63 -183q-64 -72 -177 -72t-176 71t-63 184zM151 245q0 -71 32 -115t91 -44q60 0 92 44t32 115
t-32 115t-92 44q-59 0 -91 -44q-32 -45 -32 -115z" />
    <glyph glyph-name="otilde" unicode="&#xf5;" horiz-adv-x="549" 
d="M35 245q0 113 63 184t176 71t177 -71q63 -72 63 -184t-63 -183q-64 -72 -177 -72t-176 71t-63 184zM151 245q0 -71 32 -115t91 -44q60 0 92 44t32 115t-32 115t-92 44q-59 0 -91 -44q-32 -45 -32 -115zM336 633q14 0 39 21q31 27 58 4q12 -12 11 -29q-2 -17 -15 -33
q-38 -48 -94 -48q-31 0 -69 22q-39 21 -54 21q-17 0 -42 -22q-30 -24 -54 -4q-13 11 -11 29q1 18 15 35q42 47 92 47q32 0 72 -21q40 -22 52 -22z" />
    <glyph glyph-name="odieresis" unicode="&#xf6;" horiz-adv-x="549" 
d="M35 245q0 113 63 184t176 71t177 -71q63 -72 63 -184t-63 -183q-64 -72 -177 -72t-176 71t-63 184zM151 245q0 -71 32 -115t91 -44q60 0 92 44t32 115t-32 115t-92 44q-59 0 -91 -44q-32 -45 -32 -115zM116 618q0 28 17 45q17 16 46 16t46 -17t17 -44q0 -28 -17 -44
q-17 -17 -46 -17q-30 0 -46 16q-17 16 -17 45zM307 618q0 28 17 45q16 16 45 16t46 -17t17 -44q0 -28 -17 -44q-17 -17 -46 -17q-30 0 -46 16t-16 45z" />
    <glyph glyph-name="divide" unicode="&#xf7;" horiz-adv-x="515" 
d="M188 495q0 30 18 49t51 19t52 -19q18 -19 18 -49q0 -29 -18 -47q-19 -19 -52 -19t-51 19q-18 18 -18 47zM188 150q0 30 18 49t51 19t52 -19q18 -19 18 -49q0 -29 -18 -47q-19 -19 -52 -19t-51 19q-18 18 -18 47zM98 275q-53 0 -53 48q0 23 15 36q14 12 38 12h319
q24 0 39 -12q14 -13 14 -36q0 -48 -53 -48h-319z" />
    <glyph glyph-name="oslash" unicode="&#xf8;" horiz-adv-x="549" 
d="M35 245q0 113 63 184t176 71q15 0 39 -4l14 37q19 54 65 39q40 -13 22 -69l-13 -36q54 -31 84 -89q29 -59 29 -133q0 -112 -63 -183q-64 -72 -177 -72q-15 0 -43 4l-13 -38q-8 -23 -25 -35q-18 -11 -39 -3q-41 14 -22 70l12 36q-53 32 -81 90t-28 131zM398 245
q0 87 -45 129l-103 -286q7 -2 24 -2q60 0 92 44t32 115zM151 245q0 -86 43 -127l100 284q-10 2 -20 2q-60 0 -91 -44q-32 -45 -32 -115z" />
    <glyph glyph-name="ugrave" unicode="&#xf9;" horiz-adv-x="552" 
d="M492 58q0 -25 -14 -41q-15 -17 -42 -17t-42 17q-15 16 -15 41v15q-22 -41 -61 -62q-40 -21 -87 -21q-93 0 -132 54t-39 160v228q0 25 15 42q15 16 42 16t42 -16q14 -17 14 -42v-230q0 -112 85 -112q35 0 60 17q24 17 37 49q12 31 18 66q5 35 6 81v129q0 25 15 42
q15 16 42 16t42 -16q14 -17 14 -42v-374zM165 638q-46 31 -24 65q22 33 66 4l121 -80q46 -30 20 -65q-23 -32 -66 -1z" />
    <glyph glyph-name="uacute" unicode="&#xfa;" horiz-adv-x="552" 
d="M492 58q0 -25 -14 -41q-15 -17 -42 -17t-42 17q-15 16 -15 41v15q-22 -41 -61 -62q-40 -21 -87 -21q-93 0 -132 54t-39 160v228q0 25 15 42q15 16 42 16t42 -16q14 -17 14 -42v-230q0 -112 85 -112q35 0 60 17q24 17 37 49q12 31 18 66q5 35 6 81v129q0 25 15 42
q15 16 42 16t42 -16q14 -17 14 -42v-374zM299 560q-43 -31 -66 2q-26 36 21 67l120 78q43 28 65 -5q21 -35 -24 -66z" />
    <glyph glyph-name="ucircumflex" unicode="&#xfb;" horiz-adv-x="552" 
d="M274 632l-92 -71q-38 -28 -59 1q-21 31 16 58l105 77q33 25 68 0l110 -79q18 -13 20 -31t-8 -28q-22 -28 -58 -2zM492 58q0 -25 -14 -41q-15 -17 -42 -17t-42 17q-15 16 -15 41v15q-22 -41 -61 -62q-40 -21 -87 -21q-93 0 -132 54t-39 160v228q0 25 15 42q15 16 42 16
t42 -16q14 -17 14 -42v-230q0 -112 85 -112q35 0 60 17q24 17 37 49q12 31 18 66q5 35 6 81v129q0 25 15 42q15 16 42 16t42 -16q14 -17 14 -42v-374z" />
    <glyph glyph-name="udieresis" unicode="&#xfc;" horiz-adv-x="552" 
d="M492 58q0 -25 -14 -41q-15 -17 -42 -17t-42 17q-15 16 -15 41v15q-22 -41 -61 -62q-40 -21 -87 -21q-93 0 -132 54t-39 160v228q0 25 15 42q15 16 42 16t42 -16q14 -17 14 -42v-230q0 -112 85 -112q35 0 60 17q24 17 37 49q12 31 18 66q5 35 6 81v129q0 25 15 42
q15 16 42 16t42 -16q14 -17 14 -42v-374zM119 618q0 28 17 45q16 16 46 16q29 0 46 -17t17 -44q0 -28 -17 -44q-17 -17 -46 -17q-30 0 -46 16q-17 16 -17 45zM310 618q0 28 17 45q16 16 45 16t46 -17t17 -44q0 -28 -17 -44q-17 -17 -46 -17q-30 0 -46 16t-16 45z" />
    <glyph glyph-name="yacute" unicode="&#xfd;" horiz-adv-x="465" 
d="M40 401q-12 23 -6 49q6 25 32 35q55 21 79 -41l117 -310l103 306q21 65 74 46q45 -15 22 -78l-156 -413q-44 -118 -84 -162q-41 -43 -106 -43q-48 0 -81 18q-50 28 -31 70q15 33 59 20q38 -12 54 -12q32 0 52 28q20 29 42 86zM268 560q-43 -31 -66 2q-26 36 21 67l120 78
q43 28 65 -5q21 -35 -24 -66z" />
    <glyph glyph-name="thorn" unicode="&#xfe;" horiz-adv-x="544" 
d="M60 632q0 25 15 42q14 16 41 16t42 -16q15 -17 15 -42v-208q45 76 146 76q92 0 141 -65q49 -66 49 -175q0 -122 -56 -196q-57 -74 -169 -74q-64 0 -111 19v-151q0 -25 -15 -42q-15 -16 -42 -16t-41 16q-15 17 -15 42v774zM296 404q-123 0 -123 -217v-78q40 -23 99 -23
q121 0 121 176q0 142 -97 142z" />
    <glyph glyph-name="ydieresis" unicode="&#xff;" horiz-adv-x="465" 
d="M40 401q-12 23 -6 49q6 25 32 35q55 21 79 -41l117 -310l103 306q21 65 74 46q45 -15 22 -78l-156 -413q-44 -118 -84 -162q-41 -43 -106 -43q-48 0 -81 18q-50 28 -31 70q15 33 59 20q38 -12 54 -12q32 0 52 28q20 29 42 86zM98 618q0 28 17 45q16 16 46 16q29 0 46 -17
t17 -44q0 -28 -17 -44q-17 -17 -46 -17q-30 0 -46 16q-17 16 -17 45zM289 618q0 28 17 45q16 16 45 16t46 -17t17 -44q0 -28 -17 -44q-17 -17 -46 -17q-30 0 -46 16t-16 45z" />
    <glyph glyph-name="Amacron" unicode="&#x100;" horiz-adv-x="611" 
d="M453 195h-257l-52 -141q-25 -72 -82 -49q-44 19 -20 82l225 564q19 49 61 49q40 0 58 -43l232 -569q11 -22 5 -48q-7 -26 -32 -35q-28 -10 -49 2q-22 11 -33 40zM228 289h191l-97 252zM203 748q-48 0 -48 39q0 40 48 40h245q48 0 48 -40q0 -39 -48 -39h-245z" />
    <glyph glyph-name="amacron" unicode="&#x101;" horiz-adv-x="503" 
d="M335 76q-49 -86 -160 -86q-75 0 -117 40q-43 40 -43 107q0 85 62 125q61 39 153 39q63 0 105 -7v11q0 48 -21 75q-21 26 -81 26q-13 0 -25 -1t-24 -4q-13 -3 -21 -5l-24 -8q-16 -5 -24 -7q-18 -6 -34 0q-17 6 -23 23q-12 35 25 59q55 37 163 37q197 0 197 -186v-256
q0 -26 -13 -42q-14 -16 -41 -16t-40 17q-14 16 -14 41v18zM205 78q60 0 95 40q35 39 35 90v17q-32 5 -89 5q-120 0 -120 -84q0 -31 21 -49q21 -19 58 -19zM129 568q-47 0 -47 40t47 40h229q47 0 47 -40t-47 -40h-229z" />
    <glyph glyph-name="Abreve" unicode="&#x102;" horiz-adv-x="611" 
d="M453 195h-257l-52 -141q-25 -72 -82 -49q-44 19 -20 82l225 564q19 49 61 49q40 0 58 -43l232 -569q11 -22 5 -48q-7 -26 -32 -35q-28 -10 -49 2q-22 11 -33 40zM228 289h191l-97 252zM329 734q-54 0 -96 19q-42 18 -62 45q-27 36 0 61q27 26 65 -10q39 -38 93 -38t92 37
q36 36 65 11q27 -23 -1 -61q-20 -28 -61 -46t-95 -18z" />
    <glyph glyph-name="abreve" unicode="&#x103;" horiz-adv-x="503" 
d="M335 76q-49 -86 -160 -86q-75 0 -117 40q-43 40 -43 107q0 85 62 125q61 39 153 39q63 0 105 -7v11q0 48 -21 75q-21 26 -81 26q-13 0 -25 -1t-24 -4q-13 -3 -21 -5l-24 -8q-16 -5 -24 -7q-18 -6 -34 0q-17 6 -23 23q-12 35 25 59q55 37 163 37q197 0 197 -186v-256
q0 -26 -13 -42q-14 -16 -41 -16t-40 17q-14 16 -14 41v18zM205 78q60 0 95 40q35 39 35 90v17q-32 5 -89 5q-120 0 -120 -84q0 -31 21 -49q21 -19 58 -19zM243 548q-52 0 -89 21t-55 52q-9 16 -7 33t15 26q32 21 62 -16q34 -41 74 -41q24 0 41 11q16 10 34 31q29 36 62 15
q28 -19 6 -58q-44 -74 -143 -74z" />
    <glyph glyph-name="Aogonek" unicode="&#x104;" horiz-adv-x="611" 
d="M572 -17q-55 -55 -55 -101q0 -44 39 -44q12 0 35 7q25 8 36 -11q8 -12 3 -29q-6 -16 -22 -26q-30 -19 -75 -19q-55 0 -88 29q-34 29 -34 80q0 93 87 155l-65 171h-258l-51 -141q-10 -30 -31 -45q-22 -16 -52 -4q-22 8 -26 33q-4 24 7 49l225 564q19 49 61 49q40 0 58 -43
l232 -572q12 -22 10 -41q-3 -20 -10 -31t-26 -30zM208 289h191l-97 252z" />
    <glyph glyph-name="aogonek" unicode="&#x105;" horiz-adv-x="498" 
d="M330 76q-49 -86 -160 -86q-75 0 -117 40q-43 40 -43 107q0 85 62 125q61 39 153 39q63 0 105 -7v11q0 48 -21 75q-21 26 -81 26q-37 0 -118 -24q-44 -13 -57 22q-13 34 25 59q56 37 163 37q197 0 197 -186v-268q0 -35 -23 -59q-56 -62 -56 -109q0 -40 39 -40q12 0 35 7
q25 8 36 -11q8 -12 3 -29q-6 -16 -22 -26q-30 -19 -75 -19q-56 0 -89 28t-33 80q0 83 77 149v59zM200 78q60 0 95 40q35 39 35 90v17q-32 5 -89 5q-120 0 -120 -84q0 -31 21 -49q21 -19 58 -19z" />
    <glyph glyph-name="Cacute" unicode="&#x106;" horiz-adv-x="629" 
d="M368 593q-92 0 -144 -67q-53 -68 -53 -180q0 -116 57 -182q56 -67 143 -67q69 0 142 43q51 29 76 -7q13 -17 8 -41q-6 -24 -31 -43q-80 -59 -204 -59q-157 0 -237 96q-80 95 -80 259q0 162 85 259q85 96 236 96q119 0 185 -46q44 -30 24 -73q-17 -38 -76 -16
q-73 28 -131 28zM367 741q-53 -24 -69 10q-21 40 31 64l143 67q50 23 67 -12q19 -39 -33 -65z" />
    <glyph glyph-name="cacute" unicode="&#x107;" horiz-adv-x="461" 
d="M420 36q-58 -46 -155 -46q-108 0 -169 66t-61 185q0 120 64 190q63 69 173 69q85 0 129 -28q43 -27 25 -67q-17 -36 -66 -21q-51 15 -85 15q-58 0 -91 -42t-33 -116q0 -70 35 -110q34 -40 90 -40q40 0 96 28q48 23 68 -10q23 -38 -20 -73zM272 560q-43 -31 -66 2
q-26 36 21 67l120 78q43 28 65 -5q21 -35 -24 -66z" />
    <glyph glyph-name="Ccircumflex" unicode="&#x108;" horiz-adv-x="629" 
d="M323 873q32 18 65 0l120 -65q44 -23 23 -62q-18 -35 -61 -11l-116 64l-108 -61q-20 -11 -36 -8q-17 3 -25 20q-16 36 29 61zM368 593q-92 0 -144 -67q-53 -68 -53 -180q0 -116 57 -182q56 -67 143 -67q69 0 142 43q51 29 76 -7q13 -17 8 -41q-6 -24 -31 -43
q-80 -59 -204 -59q-157 0 -237 96q-80 95 -80 259q0 162 85 259q85 96 236 96q119 0 185 -46q44 -30 24 -73q-17 -38 -76 -16q-73 28 -131 28z" />
    <glyph glyph-name="ccircumflex" unicode="&#x109;" horiz-adv-x="461" 
d="M261 632l-92 -71q-38 -28 -59 1q-21 31 16 58l105 77q33 25 68 0l110 -79q18 -13 20 -31t-8 -28q-22 -28 -58 -2zM420 36q-58 -46 -155 -46q-108 0 -169 66t-61 185q0 120 64 190q63 69 173 69q85 0 129 -28q43 -27 25 -67q-17 -36 -66 -21q-51 15 -85 15q-58 0 -91 -42
t-33 -116q0 -70 35 -110q34 -40 90 -40q40 0 96 28q48 23 68 -10q23 -38 -20 -73z" />
    <glyph glyph-name="Cdotaccent" unicode="&#x10a;" horiz-adv-x="629" 
d="M368 593q-92 0 -144 -67q-53 -68 -53 -180q0 -116 57 -182q56 -67 143 -67q69 0 142 43q51 29 76 -7q13 -17 8 -41q-6 -24 -31 -43q-80 -59 -204 -59q-157 0 -237 96q-80 95 -80 259q0 162 85 259q85 96 236 96q119 0 185 -46q44 -30 24 -73q-17 -38 -76 -16
q-73 28 -131 28zM284 804q0 32 23 48q22 16 57 16q34 0 57 -16t23 -48t-23 -47q-23 -16 -57 -16q-35 0 -57 16q-23 15 -23 47z" />
    <glyph glyph-name="cdotaccent" unicode="&#x10b;" horiz-adv-x="461" 
d="M420 36q-58 -46 -155 -46q-108 0 -169 66t-61 185q0 120 64 190q63 69 173 69q85 0 129 -28q43 -27 25 -67q-17 -36 -66 -21q-51 15 -85 15q-58 0 -91 -42t-33 -116q0 -70 35 -110q34 -40 90 -40q40 0 96 28q48 23 68 -10q23 -38 -20 -73zM195 619q0 28 18 45
q18 16 48 16t48 -16q18 -17 18 -45q0 -29 -18 -45t-48 -16q-31 0 -48 16q-18 16 -18 45z" />
    <glyph glyph-name="Ccaron" unicode="&#x10c;" horiz-adv-x="629" 
d="M401 739q-32 -18 -65 0l-120 65q-21 11 -27 29q-7 18 4 35q19 32 61 9l118 -66l106 63q20 11 37 8q16 -3 24 -20q18 -35 -29 -61zM368 593q-92 0 -144 -67q-53 -68 -53 -180q0 -116 57 -182q56 -67 143 -67q69 0 142 43q51 29 76 -7q13 -17 8 -41q-6 -24 -31 -43
q-80 -59 -204 -59q-157 0 -237 96q-80 95 -80 259q0 162 85 259q85 96 236 96q119 0 185 -46q44 -30 24 -73q-17 -38 -76 -16q-73 28 -131 28z" />
    <glyph glyph-name="ccaron" unicode="&#x10d;" horiz-adv-x="461" 
d="M270 624l93 70q37 27 59 -1q10 -11 6 -27q-4 -17 -22 -30l-105 -78q-33 -25 -68 0l-108 78q-38 28 -15 59q11 14 28 15q17 0 31 -11zM420 36q-58 -46 -155 -46q-108 0 -169 66t-61 185q0 120 64 190q63 69 173 69q85 0 129 -28q43 -27 25 -67q-17 -36 -66 -21
q-51 15 -85 15q-58 0 -91 -42t-33 -116q0 -70 35 -110q34 -40 90 -40q40 0 96 28q48 23 68 -10q23 -38 -20 -73z" />
    <glyph glyph-name="Dcaron" unicode="&#x10e;" horiz-adv-x="696" 
d="M351 739q-32 -18 -65 0l-120 65q-21 11 -27 29q-7 18 4 35q19 32 61 9l118 -66l106 63q20 11 37 8q16 -3 24 -20q18 -35 -29 -61zM75 612q0 59 55 69q66 14 168 14q175 0 264 -88t89 -259q0 -165 -90 -259t-262 -94q-109 0 -168 10q-56 10 -56 64v543zM299 102
q226 0 226 246q0 240 -227 240q-45 0 -103 -6v-475q44 -5 104 -5z" />
    <glyph glyph-name="dcaron" unicode="&#x10f;" horiz-adv-x="656" 
d="M547 538q27 26 27 52q0 18 -28 31q-37 18 -21 54q14 33 63 22q34 -8 53 -32q18 -24 18 -56q0 -66 -54 -108q-18 -15 -38 -19t-33 9q-14 19 13 47zM484 58q0 -25 -14 -41q-15 -17 -42 -17t-42 17q-15 16 -15 41v8q-45 -76 -146 -76q-92 0 -141 66q-49 65 -49 174
q0 122 57 196q56 74 168 74q64 0 111 -19v151q0 25 15 42q15 16 42 16t42 -16q14 -17 14 -42v-574zM248 86q123 0 123 217v78q-40 23 -99 23q-121 0 -121 -176q0 -142 97 -142z" />
    <glyph glyph-name="Dcroat" unicode="&#x110;" horiz-adv-x="711" 
d="M90 317h-44q-41 0 -41 38q0 39 41 39h44v218q0 59 55 69q66 14 168 14q353 0 353 -347q0 -166 -89 -259q-90 -94 -263 -94q-109 0 -168 10q-56 10 -56 64v248zM314 102q226 0 226 246q0 240 -227 240q-45 0 -103 -6v-188h133q41 0 41 -39q0 -38 -41 -38h-133v-210
q44 -5 104 -5z" />
    <glyph glyph-name="dcroat" unicode="&#x111;" horiz-adv-x="564" 
d="M484 618h44q41 0 41 -34q0 -35 -41 -35h-44v-491q0 -25 -14 -41q-15 -17 -42 -17t-42 17q-15 16 -15 41v8q-45 -76 -146 -76q-92 0 -141 66q-49 65 -49 174q0 122 57 196q56 74 168 74q64 0 111 -19v68h-126q-41 0 -41 35q0 34 41 34h126v14q0 25 15 42q15 16 42 16
t42 -16q14 -17 14 -42v-14zM248 86q123 0 123 217v78q-40 23 -99 23q-121 0 -121 -176q0 -142 97 -142z" />
    <glyph glyph-name="Emacron" unicode="&#x112;" horiz-adv-x="561" 
d="M75 628q0 27 16 45q16 17 45 17h338q26 0 42 -14q15 -15 15 -40q0 -24 -15 -38q-16 -15 -42 -15h-279v-175h223q27 0 43 -14q15 -14 15 -39q0 -24 -15 -39q-16 -15 -43 -15h-223v-194h289q26 0 42 -14q15 -15 15 -40q0 -24 -15 -38q-16 -15 -42 -15h-347q-29 0 -45 18
q-17 17 -17 44v566zM176 748q-48 0 -48 39q0 40 48 40h245q48 0 48 -40q0 -39 -48 -39h-245z" />
    <glyph glyph-name="emacron" unicode="&#x113;" horiz-adv-x="506" 
d="M147 204q2 -57 37 -90t93 -33q44 0 106 26q44 18 62 -14q9 -15 4 -33q-6 -19 -25 -31q-58 -39 -158 -39q-112 0 -171 66q-60 66 -60 187q0 117 63 187t170 70q96 0 151 -54q54 -55 54 -145q0 -29 -5 -47q-7 -26 -22 -38t-44 -12h-255zM268 409q-53 0 -84 -32
q-32 -33 -37 -94h221q1 10 1 25q0 45 -25 73q-26 28 -76 28zM155 568q-47 0 -47 40t47 40h229q47 0 47 -40t-47 -40h-229z" />
    <glyph glyph-name="Edotaccent" unicode="&#x116;" horiz-adv-x="561" 
d="M75 628q0 27 16 45q16 17 45 17h338q26 0 42 -14q15 -15 15 -40q0 -24 -15 -38q-16 -15 -42 -15h-279v-175h223q27 0 43 -14q15 -14 15 -39q0 -24 -15 -39q-16 -15 -43 -15h-223v-194h289q26 0 42 -14q15 -15 15 -40q0 -24 -15 -38q-16 -15 -42 -15h-347q-29 0 -45 18
q-17 17 -17 44v566zM214 804q0 32 23 48q22 16 57 16q34 0 57 -16t23 -48t-23 -47q-23 -16 -57 -16q-35 0 -57 16q-23 15 -23 47z" />
    <glyph glyph-name="edotaccent" unicode="&#x117;" horiz-adv-x="506" 
d="M147 204q2 -57 37 -90t93 -33q44 0 106 26q44 18 62 -14q9 -15 4 -33q-6 -19 -25 -31q-58 -39 -158 -39q-112 0 -171 66q-60 66 -60 187q0 117 63 187t170 70q96 0 151 -54q54 -55 54 -145q0 -29 -5 -47q-7 -26 -22 -38t-44 -12h-255zM268 409q-53 0 -84 -32
q-32 -33 -37 -94h221q1 10 1 25q0 45 -25 73q-26 28 -76 28zM200 619q0 28 18 45q18 16 48 16t48 -16q18 -17 18 -45q0 -29 -18 -45t-48 -16q-31 0 -48 16q-18 16 -18 45z" />
    <glyph glyph-name="Eogonek" unicode="&#x118;" horiz-adv-x="561" 
d="M75 628q0 27 16 45q16 17 45 17h338q26 0 42 -14q15 -15 15 -40q0 -24 -15 -38q-16 -15 -42 -15h-279v-175h223q27 0 43 -14q15 -14 15 -39q0 -24 -15 -39q-16 -15 -43 -15h-223v-194h289q26 0 42 -14q15 -15 15 -40q0 -24 -15 -38q-16 -15 -42 -15h-32q-67 -62 -67 -121
q0 -41 39 -41q12 0 35 7q25 8 36 -11q7 -14 2 -29t-21 -26q-30 -19 -75 -19q-53 0 -87 30q-35 31 -35 80q0 73 54 130h-196q-29 0 -45 18q-17 17 -17 44v566z" />
    <glyph glyph-name="eogonek" unicode="&#x119;" horiz-adv-x="506" 
d="M147 204q2 -57 37 -90t93 -33q46 0 106 25q43 18 61 -13q9 -15 4 -34t-24 -31l-21 -11q-26 -22 -50 -59t-24 -78q0 -21 12 -32q12 -10 30 -10q12 0 35 7q25 8 36 -11q8 -12 3 -29q-6 -16 -22 -26q-30 -19 -75 -19q-54 0 -88 30t-34 81q0 67 46 119q-118 0 -177 65
q-60 65 -60 188q0 117 63 187t170 70q96 0 151 -54q54 -55 54 -145q0 -29 -5 -47q-7 -26 -22 -38t-44 -12h-255zM268 409q-53 0 -84 -32q-32 -33 -37 -94h221q1 10 1 25q0 45 -25 73q-26 28 -76 28z" />
    <glyph glyph-name="Ecaron" unicode="&#x11a;" horiz-adv-x="561" 
d="M342 739q-32 -18 -65 0l-120 65q-21 11 -27 29q-7 18 4 35q19 32 61 9l118 -66l106 63q20 11 37 8q16 -3 24 -20q18 -35 -29 -61zM75 628q0 27 16 45q16 17 45 17h338q26 0 42 -14q15 -15 15 -40q0 -24 -15 -38q-16 -15 -42 -15h-279v-175h223q27 0 43 -14q15 -14 15 -39
q0 -24 -15 -39q-16 -15 -43 -15h-223v-194h289q26 0 42 -14q15 -15 15 -40q0 -24 -15 -38q-16 -15 -42 -15h-347q-29 0 -45 18q-17 17 -17 44v566z" />
    <glyph glyph-name="ecaron" unicode="&#x11b;" horiz-adv-x="506" 
d="M147 204q2 -57 37 -90t93 -33q44 0 106 26q44 18 62 -14q9 -15 4 -33q-6 -19 -25 -31q-58 -39 -158 -39q-112 0 -171 66q-60 66 -60 187q0 117 63 187t170 70q96 0 151 -54q54 -55 54 -145q0 -29 -5 -47q-7 -26 -22 -38t-44 -12h-255zM268 409q-53 0 -84 -32
q-32 -33 -37 -94h221q1 10 1 25q0 45 -25 73q-26 28 -76 28zM274 624l93 70q37 27 59 -1q10 -11 6 -27q-4 -17 -22 -30l-105 -78q-33 -25 -68 0l-108 78q-38 28 -15 59q11 14 28 15q17 0 31 -11z" />
    <glyph glyph-name="Gcircumflex" unicode="&#x11c;" horiz-adv-x="667" 
d="M373 700q118 0 183 -44q47 -32 25 -73q-20 -37 -77 -16q-68 26 -130 26q-97 0 -150 -68q-53 -69 -53 -182q0 -118 54 -182q53 -64 151 -64q92 0 148 39v134h-113q-53 0 -53 46t53 46h151q60 0 60 -52v-190q0 -43 -32 -66q-36 -27 -95 -45q-60 -19 -127 -19
q-164 0 -243 95q-80 94 -80 261q0 161 88 258q88 96 240 96zM329 873q32 18 65 0l120 -65q44 -23 23 -62q-18 -35 -61 -11l-116 64l-108 -61q-20 -11 -36 -8q-17 3 -25 20q-16 36 29 61z" />
    <glyph glyph-name="gcircumflex" unicode="&#x11d;" horiz-adv-x="513" 
d="M50 331q0 77 52 123t148 46q40 0 78 -10h138q46 0 46 -40q0 -39 -46 -39h-35q20 -40 20 -80q0 -75 -52 -121q-53 -46 -149 -46q-54 0 -95 15q-27 -17 -27 -41q0 -22 33 -34t120 -16q101 -4 156 -32q54 -29 54 -95q0 -76 -65 -124q-65 -47 -186 -47t-173 40
q-52 41 -52 101q0 70 72 111q-47 26 -47 79q0 52 54 96q-44 44 -44 114zM249 4q-43 3 -78 9q-54 -25 -54 -69q0 -28 30 -48q29 -19 92 -19q73 0 109 21q35 21 35 54q0 25 -29 36q-30 11 -105 16zM151 331q0 -37 27 -59q26 -22 72 -22t73 22q26 22 26 59t-26 60
q-27 23 -73 23t-72 -23q-27 -23 -27 -60zM249 632l-92 -71q-38 -28 -59 1q-21 31 16 58l105 77q33 25 68 0l110 -79q18 -13 20 -31t-8 -28q-22 -28 -58 -2z" />
    <glyph glyph-name="Gbreve" unicode="&#x11e;" horiz-adv-x="667" 
d="M373 700q118 0 183 -44q47 -32 25 -73q-20 -37 -77 -16q-68 26 -130 26q-97 0 -150 -68q-53 -69 -53 -182q0 -118 54 -182q53 -64 151 -64q92 0 148 39v134h-113q-53 0 -53 46t53 46h151q60 0 60 -52v-190q0 -43 -32 -66q-36 -27 -95 -45q-60 -19 -127 -19
q-164 0 -243 95q-80 94 -80 261q0 161 88 258q88 96 240 96zM364 734q-54 0 -96 19q-42 18 -62 45q-27 36 0 61q27 26 65 -10q39 -38 93 -38t92 37q36 36 65 11q27 -23 -1 -61q-20 -28 -61 -46t-95 -18z" />
    <glyph glyph-name="gbreve" unicode="&#x11f;" horiz-adv-x="513" 
d="M50 331q0 77 52 123t148 46q40 0 78 -10h138q46 0 46 -40q0 -39 -46 -39h-35q20 -40 20 -80q0 -75 -52 -121q-53 -46 -149 -46q-54 0 -95 15q-27 -17 -27 -41q0 -22 33 -34t120 -16q101 -4 156 -32q54 -29 54 -95q0 -76 -65 -124q-65 -47 -186 -47t-173 40
q-52 41 -52 101q0 70 72 111q-47 26 -47 79q0 52 54 96q-44 44 -44 114zM249 4q-43 3 -78 9q-54 -25 -54 -69q0 -28 30 -48q29 -19 92 -19q73 0 109 21q35 21 35 54q0 25 -29 36q-30 11 -105 16zM151 331q0 -37 27 -59q26 -22 72 -22t73 22q26 22 26 59t-26 60
q-27 23 -73 23t-72 -23q-27 -23 -27 -60zM253 548q-52 0 -89 21t-55 52q-9 16 -7 33t15 26q32 21 62 -16q34 -41 74 -41q24 0 41 11q16 10 34 31q29 36 62 15q28 -19 6 -58q-44 -74 -143 -74z" />
    <glyph glyph-name="Gdotaccent" unicode="&#x120;" horiz-adv-x="667" 
d="M373 700q118 0 183 -44q47 -32 25 -73q-20 -37 -77 -16q-68 26 -130 26q-97 0 -150 -68q-53 -69 -53 -182q0 -118 54 -182q53 -64 151 -64q92 0 148 39v134h-113q-53 0 -53 46t53 46h151q60 0 60 -52v-190q0 -43 -32 -66q-36 -27 -95 -45q-60 -19 -127 -19
q-164 0 -243 95q-80 94 -80 261q0 161 88 258q88 96 240 96zM280 804q0 32 23 48q22 16 57 16q34 0 57 -16t23 -48t-23 -47q-23 -16 -57 -16q-35 0 -57 16q-23 15 -23 47z" />
    <glyph glyph-name="gdotaccent" unicode="&#x121;" horiz-adv-x="513" 
d="M50 331q0 77 52 123t148 46q40 0 78 -10h138q46 0 46 -40q0 -39 -46 -39h-35q20 -40 20 -80q0 -75 -52 -121q-53 -46 -149 -46q-54 0 -95 15q-27 -17 -27 -41q0 -22 33 -34t120 -16q101 -4 156 -32q54 -29 54 -95q0 -76 -65 -124q-65 -47 -186 -47t-173 40
q-52 41 -52 101q0 70 72 111q-47 26 -47 79q0 52 54 96q-44 44 -44 114zM249 4q-43 3 -78 9q-54 -25 -54 -69q0 -28 30 -48q29 -19 92 -19q73 0 109 21q35 21 35 54q0 25 -29 36q-30 11 -105 16zM151 331q0 -37 27 -59q26 -22 72 -22t73 22q26 22 26 59t-26 60
q-27 23 -73 23t-72 -23q-27 -23 -27 -60zM186 619q0 28 18 45q18 16 48 16t48 -16q18 -17 18 -45q0 -29 -18 -45t-48 -16q-31 0 -48 16q-18 16 -18 45z" />
    <glyph glyph-name="Gcommaaccent" unicode="&#x122;" horiz-adv-x="667" 
d="M333 -216q34 34 34 63q0 23 -30 35q-37 19 -23 55q13 34 62 24q37 -7 58 -34q21 -26 21 -63q0 -72 -62 -120q-20 -14 -40 -19t-35 8q-14 18 15 51zM373 700q118 0 183 -44q47 -32 25 -73q-20 -37 -77 -16q-68 26 -130 26q-97 0 -150 -68q-53 -69 -53 -182q0 -118 54 -182
q53 -64 151 -64q92 0 148 39v134h-113q-53 0 -53 46t53 46h151q60 0 60 -52v-190q0 -43 -32 -66q-36 -27 -95 -45q-60 -19 -127 -19q-164 0 -243 95q-80 94 -80 261q0 161 88 258q88 96 240 96z" />
    <glyph glyph-name="gcommaaccent" unicode="&#x123;" horiz-adv-x="513" 
d="M287 717q-35 -32 -35 -60q0 -25 31 -35q35 -19 23 -52q-15 -33 -62 -22q-33 7 -53 31q-21 24 -21 59q0 71 61 116q18 14 38 18t32 -9q13 -19 -14 -46zM50 331q0 77 52 123t148 46q40 0 78 -10h138q46 0 46 -40q0 -39 -46 -39h-35q20 -40 20 -80q0 -75 -52 -121
q-53 -46 -149 -46q-54 0 -95 15q-27 -17 -27 -41q0 -22 33 -34t120 -16q101 -4 156 -32q54 -29 54 -95q0 -76 -65 -124q-65 -47 -186 -47t-173 40q-52 41 -52 101q0 70 72 111q-47 26 -47 79q0 52 54 96q-44 44 -44 114zM249 4q-43 3 -78 9q-54 -25 -54 -69q0 -28 30 -48
q29 -19 92 -19q73 0 109 21q35 21 35 54q0 25 -29 36q-30 11 -105 16zM151 331q0 -37 27 -59q26 -22 72 -22t73 22q26 22 26 59t-26 60q-27 23 -73 23t-72 -23q-27 -23 -27 -60z" />
    <glyph glyph-name="Hcircumflex" unicode="&#x124;" horiz-adv-x="708" 
d="M317 873q32 18 65 0l120 -65q44 -23 23 -62q-18 -35 -61 -11l-116 64l-108 -61q-20 -11 -36 -8q-17 3 -25 20q-16 36 29 61zM513 299h-318v-238q0 -27 -16 -44t-44 -17q-29 0 -44 17q-16 17 -16 44v567q0 27 16 45q15 17 44 17q28 0 44 -17q16 -18 16 -45v-222h318v222
q0 27 16 45q15 17 44 17q28 0 44 -17q16 -18 16 -45v-567q0 -27 -16 -44t-44 -17q-29 0 -44 17q-16 17 -16 44v238z" />
    <glyph glyph-name="hcircumflex" unicode="&#x125;" horiz-adv-x="552" 
d="M76 632q0 25 15 42q14 16 41 16t42 -16q15 -17 15 -42v-215q22 41 62 62q39 21 86 21q93 0 132 -54t39 -160v-228q0 -25 -15 -41q-15 -17 -42 -17t-41 17q-15 16 -15 41v230q0 112 -85 112q-35 0 -59 -17q-25 -17 -37 -48q-13 -32 -18 -67q-6 -35 -7 -81v-129
q0 -25 -15 -41q-15 -17 -42 -17t-41 17q-15 16 -15 41v574zM101 873q32 18 65 0l120 -65q44 -23 23 -62q-18 -35 -61 -11l-116 64l-108 -61q-20 -11 -37 -8q-16 3 -24 20q-16 36 29 61z" />
    <glyph glyph-name="Hbar" unicode="&#x126;" horiz-adv-x="722" 
d="M520 299h-318v-238q0 -27 -16 -44t-44 -17q-29 0 -44 17q-16 17 -16 44v447h-36q-41 0 -41 37q0 38 41 38h36v45q0 27 16 45q15 17 44 17q28 0 44 -17q16 -18 16 -45v-45h318v45q0 27 16 45q15 17 44 17q28 0 44 -17q16 -18 16 -45v-45h36q41 0 41 -38q0 -37 -41 -37h-36
v-447q0 -27 -16 -44t-44 -17q-29 0 -44 17q-16 17 -16 44v238zM520 406v102h-318v-102h318z" />
    <glyph glyph-name="hbar" unicode="&#x127;" horiz-adv-x="578" 
d="M86 540h-50q-41 0 -41 35q0 34 41 34h50v23q0 25 15 42q14 16 41 16t42 -16q15 -17 15 -42v-23h140q42 0 42 -34q0 -35 -42 -35h-140v-123q22 41 62 62q39 21 86 21q93 0 132 -54t39 -160v-228q0 -25 -15 -41q-15 -17 -42 -17t-41 17q-15 16 -15 41v230q0 112 -85 112
q-35 0 -59 -17q-25 -17 -37 -48q-13 -32 -18 -67q-6 -35 -7 -81v-129q0 -25 -15 -41q-15 -17 -42 -17t-41 17q-15 16 -15 41v482z" />
    <glyph glyph-name="Imacron" unicode="&#x12a;" horiz-adv-x="270" 
d="M75 628q0 27 16 45q15 17 44 17q28 0 44 -17q16 -18 16 -45v-567q0 -27 -16 -44t-44 -17q-29 0 -44 17q-16 17 -16 44v567zM12 748q-48 0 -48 39q0 40 48 40h245q48 0 48 -40q0 -39 -48 -39h-245z" />
    <glyph glyph-name="imacron" unicode="&#x12b;" horiz-adv-x="233" 
d="M60 432q0 25 15 42q14 16 41 16t42 -16q15 -17 15 -42v-374q0 -25 -15 -41q-15 -17 -42 -17t-41 17q-15 16 -15 41v374zM2 568q-47 0 -47 40t47 40h229q47 0 47 -40t-47 -40h-229z" />
    <glyph glyph-name="Iogonek" unicode="&#x12e;" horiz-adv-x="274" 
d="M170 -13q-59 -65 -59 -109q0 -40 39 -40q12 0 35 7q25 8 36 -11q8 -12 3 -29q-6 -16 -22 -26q-30 -19 -75 -19q-56 0 -89 28t-33 80q0 88 72 149v611q0 27 16 45q15 17 44 17q28 0 44 -17q16 -18 16 -45v-577q0 -35 -27 -64z" />
    <glyph glyph-name="iogonek" unicode="&#x12f;" horiz-adv-x="237" 
d="M152 -13q-59 -65 -59 -109q0 -40 39 -40q12 0 35 7q25 8 36 -11q8 -12 3 -29q-6 -16 -22 -26q-30 -19 -75 -19q-56 0 -89 28t-33 80q0 85 75 149v415q0 25 15 42q14 16 41 16t42 -16q15 -17 15 -42v-386q0 -35 -23 -59zM53 619q0 28 18 45q17 16 47 16t48 -16
q18 -17 18 -45q0 -29 -18 -45t-48 -16t-47 16q-18 15 -18 45z" />
    <glyph glyph-name="Idotaccent" unicode="&#x130;" horiz-adv-x="270" 
d="M75 628q0 27 16 45q15 17 44 17q28 0 44 -17q16 -18 16 -45v-567q0 -27 -16 -44t-44 -17q-29 0 -44 17q-16 17 -16 44v567zM53 804q0 32 23 48q22 16 57 16q34 0 57 -16t23 -48t-23 -47q-23 -16 -57 -16q-35 0 -57 16q-23 15 -23 47z" />
    <glyph glyph-name="dotlessi" unicode="&#x131;" horiz-adv-x="233" 
d="M60 432q0 25 15 42q14 16 41 16t42 -16q15 -17 15 -42v-374q0 -25 -15 -41q-15 -17 -42 -17t-41 17q-15 16 -15 41v374z" />
    <glyph glyph-name="Jcircumflex" unicode="&#x134;" horiz-adv-x="388" 
d="M234 873q32 18 65 0l120 -65q44 -23 23 -62q-18 -35 -61 -11l-116 64l-108 -61q-20 -11 -36 -8q-17 3 -25 20q-16 36 29 61zM2 97q17 39 70 19q46 -19 73 -19q69 0 69 74v457q0 27 16 45q15 17 44 17q28 0 44 -17q16 -18 16 -45v-459q0 -85 -43 -132t-127 -47
q-81 0 -125 25q-58 32 -37 82z" />
    <glyph glyph-name="jcircumflex" unicode="&#x135;" horiz-adv-x="237" 
d="M76 432q0 24 15 41t42 17t42 -16q14 -17 14 -42v-466q0 -176 -155 -176q-65 0 -103 19q-46 22 -32 66q11 35 57 26q44 -10 61 -10q35 0 47 21t12 65v455zM129 632l-92 -71q-38 -28 -59 1q-21 31 16 58l105 77q33 25 68 0l110 -79q18 -13 20 -31t-8 -28q-22 -28 -58 -2z
" />
    <glyph glyph-name="Kcommaaccent" unicode="&#x136;" horiz-adv-x="571" 
d="M256 -216q34 34 34 63q0 23 -30 35q-38 20 -24 55q15 34 62 24q37 -7 58 -34q21 -26 21 -63t-18 -69q-18 -31 -44 -51q-19 -14 -39 -19q-21 -5 -35 8q-15 19 15 51zM75 628q0 27 16 45q15 17 44 17q28 0 44 -17q16 -18 16 -45v-252l245 281q48 55 89 18q20 -20 17 -44
q-4 -24 -24 -45l-213 -230l228 -241q23 -24 27 -49q4 -26 -15 -47q-44 -43 -97 13l-257 283v-254q0 -27 -16 -44t-44 -17q-29 0 -44 17q-16 17 -16 44v567z" />
    <glyph glyph-name="kcommaaccent" unicode="&#x137;" horiz-adv-x="462" 
d="M203 -213q35 33 35 63q0 20 -31 34q-37 17 -23 53q14 35 63 23q35 -8 56 -33q20 -24 20 -60q0 -71 -62 -117q-19 -15 -39 -20q-21 -4 -34 10q-13 19 15 47zM60 632q0 25 15 42q14 16 40 16q27 0 42 -16q14 -17 14 -42v-365l170 194q45 51 84 14q15 -15 13 -36t-21 -41
l-141 -150l158 -150q19 -18 22 -40q2 -23 -13 -39q-39 -42 -87 8l-185 188v-157q0 -25 -14 -41q-15 -17 -42 -17t-41 17q-14 16 -14 41v574z" />
    <glyph glyph-name="Lacute" unicode="&#x139;" horiz-adv-x="533" 
d="M165 741q-53 -24 -69 10q-21 40 31 64l143 67q50 23 67 -12q19 -39 -33 -65zM139 0q-28 0 -43 18q-15 17 -15 43v567q0 27 16 45q15 17 44 17q28 0 44 -17q16 -18 16 -45v-521h276q26 0 42 -14q15 -15 15 -39q0 -25 -15 -39q-16 -15 -42 -15h-338z" />
    <glyph glyph-name="lacute" unicode="&#x13a;" horiz-adv-x="340" 
d="M60 632q0 25 15 42q14 16 41 16t42 -16q15 -17 15 -42v-462q0 -42 13 -61t44 -19q24 0 53 12q19 8 37 3q17 -5 24 -22q17 -44 -32 -71q-38 -22 -101 -22q-151 0 -151 164v478zM152 741q-53 -24 -69 10q-21 40 31 64l143 67q50 23 67 -12q19 -39 -33 -65z" />
    <glyph glyph-name="Lcommaaccent" unicode="&#x13b;" horiz-adv-x="533" 
d="M244 -216q34 34 34 63q0 23 -30 35q-38 20 -24 55q15 34 62 24q37 -7 58 -34q21 -26 21 -63t-18 -69q-18 -31 -44 -51q-19 -14 -39 -19q-21 -5 -35 8q-15 19 15 51zM133 0q-28 0 -43 18q-15 17 -15 43v567q0 27 16 45q15 17 44 17q28 0 44 -17q16 -18 16 -45v-521h276
q26 0 42 -14q15 -15 15 -39q0 -25 -15 -39q-16 -15 -42 -15h-338z" />
    <glyph glyph-name="lcommaaccent" unicode="&#x13c;" horiz-adv-x="340" 
d="M153 -213q35 33 35 63q0 20 -31 34q-37 17 -23 53q14 35 63 23q35 -8 56 -33q20 -24 20 -60q0 -71 -62 -117q-19 -15 -39 -20q-21 -4 -34 10q-13 19 15 47zM60 632q0 25 15 42q14 16 41 16t42 -16q15 -17 15 -42v-462q0 -42 13 -61t44 -19q24 0 53 12q19 8 37 3
q17 -5 24 -22q17 -44 -32 -71q-38 -22 -101 -22q-151 0 -151 164v478z" />
    <glyph glyph-name="Lcaron" unicode="&#x13d;" horiz-adv-x="533" 
d="M328 518q33 33 33 61q0 20 -29 34q-38 17 -23 55q14 33 61 23q36 -8 57 -33q21 -26 21 -61q0 -71 -61 -118q-19 -14 -39 -19t-35 8q-14 19 15 50zM133 0q-28 0 -43 18q-15 17 -15 43v567q0 27 16 45q15 17 44 17q28 0 44 -17q16 -18 16 -45v-521h276q26 0 42 -14
q15 -15 15 -39q0 -25 -15 -39q-16 -15 -42 -15h-338z" />
    <glyph glyph-name="lcaron" unicode="&#x13e;" horiz-adv-x="353" 
d="M238 538q26 26 26 52q0 20 -27 31q-36 19 -22 54q14 33 63 22q35 -8 53 -32t18 -56q0 -65 -53 -108q-19 -15 -39 -19t-33 9q-14 19 14 47zM55 632q0 25 15 42q14 16 41 16t42 -16q15 -17 15 -42v-462q0 -42 13 -61t44 -19q24 0 53 12q19 8 37 3q17 -5 24 -22
q17 -44 -32 -71q-39 -22 -101 -22q-151 0 -151 164v478z" />
    <glyph glyph-name="Ldot" unicode="&#x13f;" horiz-adv-x="533" 
d="M133 0q-28 0 -43 18q-15 17 -15 43v567q0 27 16 45q15 17 44 17q28 0 44 -17q16 -18 16 -45v-521h276q26 0 42 -14q15 -15 15 -39q0 -25 -15 -39q-16 -15 -42 -15h-338zM309 392q0 29 19 50q18 20 50 20t51 -20q19 -21 19 -50q0 -30 -18 -49q-19 -20 -52 -20t-51 20
q-18 19 -18 49z" />
    <glyph glyph-name="ldot" unicode="&#x140;" horiz-adv-x="360" 
d="M219 369q0 31 18 49q18 17 49 17t50 -17q18 -18 18 -49t-18 -48q-19 -18 -50 -18q-32 0 -49 18q-18 17 -18 48zM55 632q0 25 15 42q14 16 41 16t42 -16q15 -17 15 -42v-462q0 -42 13 -61t44 -19q24 0 53 12q19 8 37 3q17 -5 24 -22q17 -44 -32 -71q-39 -22 -101 -22
q-151 0 -151 164v478z" />
    <glyph glyph-name="Lslash" unicode="&#x141;" horiz-adv-x="546" 
d="M153 0q-28 0 -43 18q-15 17 -15 43v205l-13 -9q-18 -13 -37 -13q-20 -1 -34 17q-12 20 -5 39q6 18 24 31l65 45v252q0 27 16 45q15 17 44 17q28 0 44 -17q16 -18 16 -45v-170l40 28q19 14 41 14q21 0 33 -18q12 -21 5 -40t-27 -31l-92 -63v-241h276q26 0 42 -14
q15 -15 15 -39q0 -25 -15 -39q-16 -15 -42 -15h-338z" />
    <glyph glyph-name="lslash" unicode="&#x142;" horiz-adv-x="348" 
d="M77 249l-3 -2q-18 -13 -37 -13q-19 -1 -34 17q-13 21 -7 39q7 18 26 31l55 38v273q0 25 15 42q14 16 41 16t42 -16q15 -17 15 -42v-196l43 30q46 33 71 -4q13 -21 7 -40q-7 -19 -26 -31l-95 -65v-156q0 -42 13 -61t44 -19q24 0 53 12q19 8 37 3q17 -5 24 -22
q17 -44 -32 -71q-38 -22 -101 -22q-151 0 -151 164v95z" />
    <glyph glyph-name="Nacute" unicode="&#x143;" horiz-adv-x="708" 
d="M522 628q0 62 54 62q55 0 55 -62v-567q0 -27 -15 -44q-16 -17 -42 -17q-30 0 -54 30l-334 443v-412q0 -61 -55 -61q-54 0 -54 61v566q0 63 56 63q35 0 59 -33l330 -444v415zM342 741q-53 -24 -69 10q-21 40 31 64l143 67q50 23 67 -12q19 -39 -33 -65z" />
    <glyph glyph-name="nacute" unicode="&#x144;" horiz-adv-x="552" 
d="M60 432q0 25 15 42q14 16 41 16t42 -16q15 -17 15 -42v-15q22 41 62 62q39 21 86 21q93 0 132 -54t39 -160v-228q0 -25 -15 -41q-15 -17 -42 -17t-41 17q-15 16 -15 41v230q0 112 -85 112q-35 0 -59 -17q-25 -17 -37 -48q-13 -32 -18 -67q-6 -35 -7 -81v-129
q0 -25 -15 -41q-15 -17 -42 -17t-41 17q-15 16 -15 41v374zM287 560q-43 -31 -66 2q-26 36 21 67l120 78q43 28 65 -5q21 -35 -24 -66z" />
    <glyph glyph-name="Ncommaaccent" unicode="&#x145;" horiz-adv-x="708" 
d="M301 -216q34 34 34 63q0 21 -30 35q-37 17 -24 55q13 35 62 25q36 -7 58 -34q21 -27 21 -64t-18 -69q-18 -31 -44 -51q-19 -14 -39 -19q-21 -5 -35 8q-15 19 15 51zM522 628q0 62 54 62q55 0 55 -62v-567q0 -27 -15 -44q-16 -17 -42 -17q-30 0 -54 30l-334 443v-412
q0 -61 -55 -61q-54 0 -54 61v566q0 63 56 63q35 0 59 -33l330 -444v415z" />
    <glyph glyph-name="ncommaaccent" unicode="&#x146;" horiz-adv-x="552" 
d="M219 -213q35 33 35 63q0 22 -31 34q-36 19 -23 53q14 35 63 23q35 -8 56 -33q20 -24 20 -60q0 -71 -62 -117q-19 -15 -39 -20q-21 -4 -34 10q-13 19 15 47zM60 432q0 25 15 42q14 16 41 16t42 -16q15 -17 15 -42v-15q22 41 62 62q39 21 86 21q93 0 132 -54t39 -160v-228
q0 -25 -15 -41q-15 -17 -42 -17t-41 17q-15 16 -15 41v230q0 112 -85 112q-35 0 -59 -17q-25 -17 -37 -48q-13 -32 -18 -67q-6 -35 -7 -81v-129q0 -25 -15 -41q-15 -17 -42 -17t-41 17q-15 16 -15 41v374z" />
    <glyph glyph-name="Ncaron" unicode="&#x147;" horiz-adv-x="708" 
d="M392 739q-32 -18 -65 0l-120 65q-21 11 -27 29q-7 18 4 35q19 32 61 9l118 -66l106 63q20 11 37 8q16 -3 24 -20q18 -35 -29 -61zM522 628q0 62 54 62q55 0 55 -62v-567q0 -27 -15 -44q-16 -17 -42 -17q-30 0 -54 30l-334 443v-412q0 -61 -55 -61q-54 0 -54 61v566
q0 63 56 63q35 0 59 -33l330 -444v415z" />
    <glyph glyph-name="ncaron" unicode="&#x148;" horiz-adv-x="552" 
d="M284 624l93 70q37 27 59 -1q10 -11 6 -27q-4 -17 -22 -30l-105 -78q-33 -25 -68 0l-108 78q-38 28 -15 59q11 14 28 15q17 0 31 -11zM60 432q0 25 15 42q14 16 41 16t42 -16q15 -17 15 -42v-15q22 41 62 62q39 21 86 21q93 0 132 -54t39 -160v-228q0 -25 -15 -41
q-15 -17 -42 -17t-41 17q-15 16 -15 41v230q0 112 -85 112q-35 0 -59 -17q-25 -17 -37 -48q-13 -32 -18 -67q-6 -35 -7 -81v-129q0 -25 -15 -41q-15 -17 -42 -17t-41 17q-15 16 -15 41v374z" />
    <glyph glyph-name="Omacron" unicode="&#x14c;" horiz-adv-x="747" 
d="M45 345q0 155 86 255q85 100 242 100t243 -100t86 -255q0 -156 -86 -255q-86 -100 -243 -100t-242 100q-86 99 -86 255zM171 345q0 -109 53 -178q52 -70 149 -70q98 0 151 70q52 69 52 178t-52 179q-53 69 -151 69q-97 0 -149 -69q-53 -70 -53 -179zM251 748
q-48 0 -48 39q0 40 48 40h245q48 0 48 -40q0 -39 -48 -39h-245z" />
    <glyph glyph-name="omacron" unicode="&#x14d;" horiz-adv-x="549" 
d="M35 245q0 113 63 184t176 71t177 -71q63 -72 63 -184t-63 -183q-64 -72 -177 -72t-176 71t-63 184zM151 245q0 -71 32 -115t91 -44q60 0 92 44t32 115t-32 115t-92 44q-59 0 -91 -44q-32 -45 -32 -115zM160 568q-47 0 -47 40t47 40h229q47 0 47 -40t-47 -40h-229z" />
    <glyph glyph-name="Obreve" unicode="&#x14e;" horiz-adv-x="747" 
d="M45 345q0 155 86 255q85 100 242 100t243 -100t86 -255q0 -156 -86 -255q-86 -100 -243 -100t-242 100q-86 99 -86 255zM171 345q0 -109 53 -178q52 -70 149 -70q98 0 151 70q52 69 52 178t-52 179q-53 69 -151 69q-97 0 -149 -69q-53 -70 -53 -179zM374 734
q-54 0 -96 19q-42 18 -62 45q-27 36 0 61q27 26 65 -10q39 -38 93 -38t92 37q36 36 65 11q27 -23 -1 -61q-20 -28 -61 -46t-95 -18z" />
    <glyph glyph-name="obreve" unicode="&#x14f;" horiz-adv-x="549" 
d="M35 245q0 113 63 184t176 71t177 -71q63 -72 63 -184t-63 -183q-64 -72 -177 -72t-176 71t-63 184zM151 245q0 -71 32 -115t91 -44q60 0 92 44t32 115t-32 115t-92 44q-59 0 -91 -44q-32 -45 -32 -115zM273 548q-52 0 -89 21t-55 52q-9 16 -7 33t15 26q32 21 62 -16
q34 -41 74 -41q24 0 41 11q16 10 34 31q29 36 62 15q28 -19 6 -58q-44 -74 -143 -74z" />
    <glyph glyph-name="Ohungarumlaut" unicode="&#x150;" horiz-adv-x="747" 
d="M271 741q-53 -24 -69 10q-21 40 31 64l143 67q50 23 67 -12q20 -41 -33 -65zM497 741q-53 -24 -69 10q-21 40 31 64l143 67q50 23 67 -12q20 -41 -33 -65zM45 345q0 155 86 255q85 100 242 100t243 -100t86 -255q0 -156 -86 -255q-86 -100 -243 -100t-242 100
q-86 99 -86 255zM171 345q0 -109 53 -178q52 -70 149 -70q98 0 151 70q52 69 52 178t-52 179q-53 69 -151 69q-97 0 -149 -69q-53 -70 -53 -179z" />
    <glyph glyph-name="ohungarumlaut" unicode="&#x151;" horiz-adv-x="549" 
d="M209 571q-40 -27 -62 1q-11 13 -7 30t26 31l112 75q42 27 63 -4q20 -31 -24 -61zM376 571q-40 -27 -62 1q-11 13 -7 30t26 31l112 75q42 27 63 -4q20 -31 -24 -61zM35 245q0 113 63 184t176 71t177 -71q63 -72 63 -184t-63 -183q-64 -72 -177 -72t-176 71t-63 184z
M151 245q0 -71 32 -115t91 -44q60 0 92 44t32 115t-32 115t-92 44q-59 0 -91 -44q-32 -45 -32 -115z" />
    <glyph glyph-name="OE" unicode="&#x152;" horiz-adv-x="964" 
d="M542 0q-26 0 -42 13q-59 -23 -127 -23q-157 0 -242 100q-86 99 -86 255q0 155 86 255q85 100 242 100q71 0 128 -23q16 13 40 13h336q26 0 42 -14q15 -15 15 -40q0 -24 -15 -38q-16 -15 -42 -15h-277v-175h221q27 0 43 -14q15 -14 15 -39q0 -24 -15 -39q-16 -15 -43 -15
h-221v-194h287q26 0 42 -14q15 -15 15 -40q0 -24 -15 -38q-16 -15 -42 -15h-345zM373 97q61 0 107 24v448q-45 24 -107 24q-97 0 -149 -69q-53 -70 -53 -179t53 -178q52 -70 149 -70z" />
    <glyph glyph-name="oe" unicode="&#x153;" horiz-adv-x="809" 
d="M452 204q2 -57 36 -90t92 -33q46 0 106 25q43 18 61 -13q9 -15 4 -34t-24 -31q-58 -38 -158 -38q-96 0 -154 49q-63 -49 -146 -49q-113 0 -173 70q-61 70 -61 185q0 113 62 184t175 71q88 0 148 -52q61 52 151 52q96 0 151 -54q54 -55 54 -145q0 -29 -5 -47
q-7 -26 -22 -38t-44 -12h-253zM276 86q49 0 87 25q-23 57 -23 132q0 72 25 130q-36 31 -89 31q-60 0 -92 -43q-33 -43 -33 -116t33 -116q32 -43 92 -43zM571 409q-53 0 -83 -32q-31 -33 -36 -94h219q1 10 1 25q0 45 -25 73q-26 28 -76 28z" />
    <glyph glyph-name="Racute" unicode="&#x154;" horiz-adv-x="612" 
d="M75 613q0 57 56 69q59 13 150 13q259 0 259 -208q0 -71 -34 -120t-92 -69l127 -193q18 -27 15 -54q-3 -28 -26 -42q-53 -30 -91 33l-142 234q-13 -2 -43 -2q-32 0 -59 4v-217q0 -27 -16 -44t-44 -17q-29 0 -44 17q-16 17 -16 44v552zM263 364q77 0 114 28q37 27 37 88
q0 108 -143 108q-26 0 -76 -6v-214q31 -4 68 -4zM278 741q-53 -24 -69 10q-21 40 31 64l143 67q50 23 67 -12q19 -39 -33 -65z" />
    <glyph glyph-name="racute" unicode="&#x155;" horiz-adv-x="367" 
d="M60 432q0 25 15 42q14 16 41 16t42 -16q15 -17 15 -38q16 29 44 47q28 17 61 17q58 0 82 -29q23 -29 9 -60q-17 -38 -63 -22q-27 9 -47 9q-86 0 -86 -171v-169q0 -25 -15 -41q-15 -17 -42 -17t-41 17q-15 16 -15 41v374zM344 636q45 31 24 66q-22 33 -65 5l-120 -78
q-47 -31 -21 -67q23 -33 66 -2z" />
    <glyph glyph-name="Rcommaaccent" unicode="&#x156;" horiz-adv-x="612" 
d="M276 -216q34 34 34 63q0 23 -30 35q-38 20 -24 55q15 34 62 24q37 -7 58 -34q21 -26 21 -63t-18 -69q-18 -31 -44 -51q-19 -14 -39 -19q-21 -5 -35 8q-15 19 15 51zM75 613q0 57 56 69q59 13 150 13q259 0 259 -208q0 -71 -34 -120t-92 -69l127 -193q18 -27 15 -54
q-3 -28 -26 -42q-53 -30 -91 33l-142 234q-13 -2 -43 -2q-32 0 -59 4v-217q0 -27 -16 -44t-44 -17q-29 0 -44 17q-16 17 -16 44v552zM263 364q77 0 114 28q37 27 37 88q0 108 -143 108q-26 0 -76 -6v-214q31 -4 68 -4z" />
    <glyph glyph-name="rcommaaccent" unicode="&#x157;" horiz-adv-x="367" 
d="M91 -213q36 34 36 63q0 22 -32 34q-35 19 -23 53q15 34 63 23q36 -8 57 -33q20 -24 20 -60q0 -72 -63 -117q-19 -15 -39 -20q-20 -4 -33 10q-13 18 14 47zM68 432q0 25 15 42q14 16 41 16t42 -16q15 -17 15 -38q16 29 44 47q28 17 61 17q58 0 82 -29q23 -29 9 -60
q-17 -38 -63 -22q-27 9 -47 9q-86 0 -86 -171v-169q0 -25 -15 -41q-15 -17 -42 -17t-41 17q-15 16 -15 41v374z" />
    <glyph glyph-name="Rcaron" unicode="&#x158;" horiz-adv-x="612" 
d="M75 613q0 57 56 69q59 13 150 13q259 0 259 -208q0 -71 -34 -120t-92 -69l127 -193q18 -27 15 -54q-3 -28 -26 -42q-53 -30 -91 33l-142 234q-13 -2 -43 -2q-32 0 -59 4v-217q0 -27 -16 -44t-44 -17q-29 0 -44 17q-16 17 -16 44v552zM263 364q77 0 114 28q37 27 37 88
q0 108 -143 108q-26 0 -76 -6v-214q31 -4 68 -4zM316 739q-32 -18 -65 0l-120 65q-21 11 -27 29q-7 18 4 35q19 32 61 9l118 -66l106 63q20 11 37 8q16 -3 24 -20q18 -35 -29 -61z" />
    <glyph glyph-name="rcaron" unicode="&#x159;" horiz-adv-x="367" 
d="M83 432q0 25 15 42q14 16 41 16t42 -16q15 -17 15 -38q16 29 44 47q28 17 61 17q58 0 82 -29q23 -29 9 -60q-17 -38 -63 -22q-27 9 -47 9q-86 0 -86 -171v-169q0 -25 -15 -41q-15 -17 -42 -17t-41 17q-15 16 -15 41v374zM137 699q-14 11 -31 11q-17 -1 -28 -15
q-23 -31 15 -59l108 -78q35 -25 68 0l105 78q18 13 22 30q4 16 -6 27q-22 28 -59 1l-93 -70z" />
    <glyph glyph-name="Sacute" unicode="&#x15a;" horiz-adv-x="551" 
d="M280 590q-99 0 -99 -72q0 -32 26 -54q26 -23 65 -35q38 -12 84 -30q45 -18 84 -38q38 -20 64 -61t26 -98q0 -97 -61 -154q-61 -58 -184 -58q-110 0 -190 41q-34 18 -45 43q-12 25 2 51q20 39 86 12q80 -37 150 -37q56 0 89 22q32 22 32 65q0 42 -36 68t-87 42t-102 37
q-52 20 -88 65t-36 115q0 86 59 136q58 50 170 50q101 0 174 -42q61 -33 35 -84q-22 -43 -95 -11q-64 27 -123 27zM279 741q-53 -24 -69 10q-21 40 31 64l143 67q50 23 67 -12q19 -39 -33 -65z" />
    <glyph glyph-name="sacute" unicode="&#x15b;" horiz-adv-x="433" 
d="M238 500q86 0 143 -33q46 -26 28 -66q-16 -34 -63 -19q-69 27 -104 27q-67 0 -67 -45q0 -25 26 -41q26 -17 63 -28q37 -12 74 -27t63 -47t26 -79q0 -73 -49 -112q-50 -40 -149 -40q-98 0 -156 38q-42 30 -23 69q18 37 73 12q63 -28 116 -28q74 0 74 51q0 26 -26 43
q-26 16 -63 28t-74 27t-63 48t-26 82q0 68 48 104t129 36zM242 560q-43 -31 -66 2q-26 36 21 67l120 78q43 28 65 -5q21 -35 -24 -66z" />
    <glyph glyph-name="Scircumflex" unicode="&#x15c;" horiz-adv-x="551" 
d="M280 590q-99 0 -99 -72q0 -32 26 -54q26 -23 65 -35q38 -12 84 -30q45 -18 84 -38q38 -20 64 -61t26 -98q0 -97 -61 -154q-61 -58 -184 -58q-110 0 -190 41q-34 18 -45 43q-12 25 2 51q20 39 86 12q80 -37 150 -37q56 0 89 22q32 22 32 65q0 42 -36 68t-87 42t-102 37
q-52 20 -88 65t-36 115q0 86 59 136q58 50 170 50q101 0 174 -42q61 -33 35 -84q-22 -43 -95 -11q-64 27 -123 27zM257 873q32 18 65 0l120 -65q44 -23 23 -62q-18 -35 -61 -11l-116 64l-108 -61q-20 -11 -36 -8q-17 3 -25 20q-16 36 29 61z" />
    <glyph glyph-name="scircumflex" unicode="&#x15d;" horiz-adv-x="433" 
d="M238 500q86 0 143 -33q46 -26 28 -66q-16 -34 -63 -19q-69 27 -104 27q-67 0 -67 -45q0 -25 26 -41q26 -17 63 -28q37 -12 74 -27t63 -47t26 -79q0 -73 -49 -112q-50 -40 -149 -40q-98 0 -156 38q-42 30 -23 69q18 37 73 12q63 -28 116 -28q74 0 74 51q0 26 -26 43
q-26 16 -63 28t-74 27t-63 48t-26 82q0 68 48 104t129 36zM241 632l-92 -71q-38 -28 -59 1q-21 31 16 58l105 77q33 25 68 0l110 -79q18 -13 20 -31t-8 -28q-22 -28 -58 -2z" />
    <glyph glyph-name="Scedilla" unicode="&#x15e;" horiz-adv-x="551" 
d="M203 -164q36 -9 53 -9q43 0 43 32q0 18 -13 26q-14 9 -46 14q-16 2 -21 12q-6 10 -3 23l13 59q-80 8 -134 36q-34 18 -45 44q-12 26 2 52q20 39 86 12q80 -37 150 -37q56 0 89 22q32 22 32 65q0 42 -36 68t-87 42t-102 37q-52 20 -88 65t-36 115q0 86 59 136
q58 50 170 50q103 0 174 -41q62 -33 35 -85q-22 -43 -95 -11q-64 27 -123 27q-99 0 -99 -72q0 -32 26 -54q26 -23 65 -35q38 -12 84 -30q45 -18 84 -38q38 -20 64 -61t26 -98q0 -94 -57 -151t-173 -61l-6 -33q103 -9 103 -94q0 -44 -31 -74q-31 -29 -94 -29q-58 0 -90 17
q-14 7 -19 20t1 25q9 22 39 14z" />
    <glyph glyph-name="scedilla" unicode="&#x15f;" horiz-adv-x="433" 
d="M238 500q86 0 143 -33q46 -26 28 -66q-16 -34 -63 -19q-69 27 -104 27q-67 0 -67 -45q0 -25 26 -41q26 -17 63 -28q37 -12 74 -27t63 -47t26 -79q0 -141 -172 -151l-6 -34q55 -3 79 -31t24 -66q0 -43 -31 -72q-31 -28 -94 -28q-58 0 -90 17q-14 7 -19 20t1 25q9 22 39 14
q36 -9 53 -9q43 0 43 32q0 18 -13 26q-14 9 -46 14q-16 2 -21 12q-6 10 -3 23l13 59q-71 9 -111 35q-42 30 -23 69q18 37 73 12q63 -28 116 -28q74 0 74 51q0 26 -26 43q-26 16 -63 28t-74 27t-63 48t-26 82q0 68 48 104t129 36z" />
    <glyph glyph-name="Scaron" unicode="&#x160;" horiz-adv-x="551" 
d="M280 590q-99 0 -99 -72q0 -32 26 -54q26 -23 65 -35q38 -12 84 -30q45 -18 84 -38q38 -20 64 -61t26 -98q0 -97 -61 -154q-61 -58 -184 -58q-110 0 -190 41q-34 18 -45 43q-12 25 2 51q20 39 86 12q80 -37 150 -37q56 0 89 22q32 22 32 65q0 42 -36 68t-87 42t-102 37
q-52 20 -88 65t-36 115q0 86 59 136q58 50 170 50q101 0 174 -42q61 -33 35 -84q-22 -43 -95 -11q-64 27 -123 27zM329 739q-32 -18 -65 0l-120 65q-21 11 -27 29q-7 18 4 35q19 32 61 9l118 -66l106 63q20 11 37 8q16 -3 24 -20q18 -35 -29 -61z" />
    <glyph glyph-name="scaron" unicode="&#x161;" horiz-adv-x="433" 
d="M238 500q86 0 143 -33q46 -26 28 -66q-16 -34 -63 -19q-69 27 -104 27q-67 0 -67 -45q0 -25 26 -41q26 -17 63 -28q37 -12 74 -27t63 -47t26 -79q0 -73 -49 -112q-50 -40 -149 -40q-98 0 -156 38q-42 30 -23 69q18 37 73 12q63 -28 116 -28q74 0 74 51q0 26 -26 43
q-26 16 -63 28t-74 27t-63 48t-26 82q0 68 48 104t129 36zM254 624l93 70q37 27 59 -1q10 -11 6 -27q-4 -17 -22 -30l-105 -78q-33 -25 -68 0l-108 78q-38 28 -15 59q11 14 28 15q17 0 31 -11z" />
    <glyph glyph-name="Tcommaaccent" unicode="&#x162;" horiz-adv-x="599" 
d="M261 -216q34 34 34 63q0 23 -30 35q-37 19 -23 55q13 34 62 24q37 -7 58 -34q21 -26 21 -63q0 -72 -62 -120q-20 -14 -40 -19t-35 8q-14 18 15 51zM536 690q27 0 43 -14q15 -14 15 -39q0 -24 -15 -39q-16 -15 -43 -15h-177v-522q0 -27 -15 -44q-16 -17 -45 -17t-44 17
q-16 17 -16 44v522h-177q-26 0 -41 15q-16 15 -16 39q0 25 16 39q15 14 41 14h474z" />
    <glyph glyph-name="tcommaaccent" unicode="&#x163;" horiz-adv-x="337" 
d="M157 -213q35 33 35 63q0 22 -31 34q-36 19 -23 53q14 35 63 23q35 -8 56 -33q20 -24 20 -60q0 -71 -62 -117q-19 -15 -39 -20q-21 -4 -34 10q-13 19 15 47zM60 557q0 25 15 42q14 16 41 16t42 -16q15 -17 15 -42v-62h85q54 0 54 -48t-54 -48h-85v-223q0 -43 13 -62
t44 -19q24 0 53 12q19 8 36 3t24 -22q17 -42 -31 -70q-40 -23 -100 -23q-152 0 -152 169v393z" />
    <glyph glyph-name="Tcaron" unicode="&#x164;" horiz-adv-x="599" 
d="M336 739q-32 -18 -65 0l-120 65q-21 11 -27 29q-7 18 4 35q19 32 61 9l118 -66l106 63q20 11 37 8q16 -3 24 -20q18 -35 -29 -61zM536 690q27 0 43 -14q15 -14 15 -39q0 -24 -15 -39q-16 -15 -43 -15h-177v-522q0 -27 -15 -44q-16 -17 -45 -17t-44 17q-16 17 -16 44v522
h-177q-26 0 -41 15q-16 15 -16 39q0 25 16 39q15 14 41 14h474z" />
    <glyph glyph-name="tcaron" unicode="&#x165;" horiz-adv-x="355" 
d="M249 557q22 23 22 47q0 18 -23 28q-32 14 -17 47q12 27 56 19q30 -5 48 -28t18 -51q0 -58 -49 -97q-17 -12 -35 -15q-18 -4 -29 8q-14 18 9 42zM55 552q0 25 15 42q14 16 41 16t42 -16q15 -17 15 -42v-62h85q54 0 54 -48t-54 -48h-85v-223q0 -43 13 -62t44 -19
q24 0 53 12q19 8 36 3t24 -22q17 -42 -31 -70q-40 -23 -100 -23q-152 0 -152 169v393z" />
    <glyph glyph-name="Umacron" unicode="&#x16a;" horiz-adv-x="679" 
d="M489 628q0 27 15 45q14 17 42 17t43 -17q15 -18 15 -45v-347q0 -62 -13 -112t-42 -91q-29 -42 -82 -65t-126 -23q-141 0 -203 80q-63 79 -63 209v349q0 27 16 45q15 17 43 17q29 0 45 -17q16 -18 16 -45v-354q0 -177 147 -177t147 179v352zM223 748q-48 0 -48 39
q0 40 48 40h245q48 0 48 -40q0 -39 -48 -39h-245z" />
    <glyph glyph-name="umacron" unicode="&#x16b;" horiz-adv-x="552" 
d="M492 58q0 -25 -14 -41q-15 -17 -42 -17t-42 17q-15 16 -15 41v15q-22 -41 -61 -62q-40 -21 -87 -21q-93 0 -132 54t-39 160v228q0 25 15 42q15 16 42 16t42 -16q14 -17 14 -42v-230q0 -112 85 -112q35 0 60 17q24 17 37 49q12 31 18 66q5 35 6 81v129q0 25 15 42
q15 16 42 16t42 -16q14 -17 14 -42v-374zM162 568q-47 0 -47 40t47 40h229q47 0 47 -40t-47 -40h-229z" />
    <glyph glyph-name="Ubreve" unicode="&#x16c;" horiz-adv-x="679" 
d="M489 628q0 27 15 45q14 17 42 17t43 -17q15 -18 15 -45v-347q0 -62 -13 -112t-42 -91q-29 -42 -82 -65t-126 -23q-141 0 -203 80q-63 79 -63 209v349q0 27 16 45q15 17 43 17q29 0 45 -17q16 -18 16 -45v-354q0 -177 147 -177t147 179v352zM346 734q-54 0 -96 19
q-42 18 -62 45q-27 36 0 61q27 26 65 -10q39 -38 93 -38t92 37q36 36 65 11q27 -23 -1 -61q-20 -28 -61 -46t-95 -18z" />
    <glyph glyph-name="ubreve" unicode="&#x16d;" horiz-adv-x="552" 
d="M492 58q0 -25 -14 -41q-15 -17 -42 -17t-42 17q-15 16 -15 41v15q-22 -41 -61 -62q-40 -21 -87 -21q-93 0 -132 54t-39 160v228q0 25 15 42q15 16 42 16t42 -16q14 -17 14 -42v-230q0 -112 85 -112q35 0 60 17q24 17 37 49q12 31 18 66q5 35 6 81v129q0 25 15 42
q15 16 42 16t42 -16q14 -17 14 -42v-374zM276 548q-52 0 -89 21t-55 52q-9 16 -7 33t15 26q32 21 62 -16q34 -41 74 -41q24 0 41 11q16 10 34 31q29 36 62 15q28 -19 6 -58q-44 -74 -143 -74z" />
    <glyph glyph-name="Uring" unicode="&#x16e;" horiz-adv-x="679" 
d="M357 875q57 0 88 -25t31 -68t-31 -68q-31 -26 -88 -26t-88 26q-31 25 -31 68t31 68t88 25zM312 782q0 -19 12 -31q12 -13 33 -13t34 13q12 12 12 31q0 18 -13 31q-13 12 -33 12q-21 0 -33 -12t-12 -31zM489 628q0 27 15 45q14 17 42 17t43 -17q15 -18 15 -45v-347
q0 -62 -13 -112t-42 -91q-29 -42 -82 -65t-126 -23q-141 0 -203 80q-63 79 -63 209v349q0 27 16 45q15 17 43 17q29 0 45 -17q16 -18 16 -45v-354q0 -177 147 -177t147 179v352z" />
    <glyph glyph-name="uring" unicode="&#x16f;" horiz-adv-x="552" 
d="M492 58q0 -25 -14 -41q-15 -17 -42 -17t-42 17q-15 16 -15 41v15q-22 -41 -61 -62q-40 -21 -87 -21q-93 0 -132 54t-39 160v228q0 25 15 42q15 16 42 16t42 -16q14 -17 14 -42v-230q0 -112 85 -112q35 0 60 17q24 17 37 49q12 31 18 66q5 35 6 81v129q0 25 15 42
q15 16 42 16t42 -16q14 -17 14 -42v-374zM277 729q50 0 80 -26q29 -27 29 -71q0 -45 -29 -71q-30 -26 -80 -26t-79 26q-30 26 -30 71q0 44 30 71q29 26 79 26zM230 632q0 -20 14 -32q13 -13 33 -13t34 13q13 12 13 32t-13 33q-14 12 -34 12t-33 -12q-14 -13 -14 -33z" />
    <glyph glyph-name="Uhungarumlaut" unicode="&#x170;" horiz-adv-x="679" 
d="M251 741q-53 -24 -69 10q-21 40 31 64l143 67q50 23 67 -12q20 -41 -33 -65zM477 741q-53 -24 -69 10q-21 40 31 64l143 67q50 23 67 -12q20 -41 -33 -65zM489 628q0 27 15 45q14 17 42 17t43 -17q15 -18 15 -45v-347q0 -62 -13 -112t-42 -91q-29 -42 -82 -65t-126 -23
q-141 0 -203 80q-63 79 -63 209v349q0 27 16 45q15 17 43 17q29 0 45 -17q16 -18 16 -45v-354q0 -177 147 -177t147 179v352z" />
    <glyph glyph-name="uhungarumlaut" unicode="&#x171;" horiz-adv-x="552" 
d="M208 571q-40 -27 -62 1q-11 13 -7 30t26 31l112 75q42 27 63 -4q20 -31 -24 -61zM375 571q-40 -27 -62 1q-11 13 -7 30t26 31l112 75q42 27 63 -4q20 -31 -24 -61zM492 58q0 -25 -14 -41q-15 -17 -42 -17t-42 17q-15 16 -15 41v15q-22 -41 -61 -62q-40 -21 -87 -21
q-93 0 -132 54t-39 160v228q0 25 15 42q15 16 42 16t42 -16q14 -17 14 -42v-230q0 -112 85 -112q35 0 60 17q24 17 37 49q12 31 18 66q5 35 6 81v129q0 25 15 42q15 16 42 16t42 -16q14 -17 14 -42v-374z" />
    <glyph glyph-name="Uogonek" unicode="&#x172;" horiz-adv-x="679" 
d="M489 628q0 27 15 45q14 17 42 17t43 -17q15 -18 15 -45v-348q0 -94 -27 -158q-28 -65 -96 -103q-55 -29 -80 -58q-38 -44 -38 -82q0 -41 39 -41q12 0 35 7q25 8 36 -11q8 -12 3 -29q-6 -16 -22 -26q-30 -19 -75 -19q-54 0 -88 29q-34 30 -34 79q0 70 61 123
q-128 7 -185 87q-58 79 -58 203v347q0 27 16 45q15 17 43 17q29 0 45 -17q16 -18 16 -45v-352q0 -80 35 -129q34 -50 112 -50q147 0 147 179v352z" />
    <glyph glyph-name="uogonek" unicode="&#x173;" horiz-adv-x="552" 
d="M492 46q0 -35 -23 -59q-59 -65 -59 -109q0 -40 39 -40q12 0 35 7q25 8 36 -11q8 -12 3 -29q-6 -16 -22 -26q-30 -19 -75 -19q-56 0 -89 28t-33 80q0 85 75 149v56q-22 -41 -62 -62q-41 -21 -88 -21q-93 0 -131 54t-38 160v228q0 25 15 42q15 16 42 16t42 -16
q14 -17 14 -42v-230q0 -112 83 -112q119 0 123 213v129q0 25 15 42q15 16 42 16t42 -16q14 -17 14 -42v-386z" />
    <glyph glyph-name="Ydieresis" unicode="&#x178;" horiz-adv-x="566" 
d="M267 299l-197 282q-42 65 6 99q30 17 53 7t41 -38l161 -242l156 242q17 26 38 36t51 -5q22 -18 22 -40q-1 -22 -17 -46l-194 -290v-242q0 -27 -16 -44t-44 -17q-29 0 -44 17q-16 17 -16 44v237zM152 796q0 28 21 44q20 16 51 16q33 0 54 -16q20 -16 20 -44t-20 -43
q-21 -15 -54 -15q-32 0 -52 15t-20 43zM360 796q0 28 20 44t53 16q32 0 53 -16q20 -16 20 -44t-20 -43q-21 -15 -53 -15q-33 0 -53 15t-20 43z" />
    <glyph glyph-name="Zacute" unicode="&#x179;" horiz-adv-x="574" 
d="M96 0q-46 0 -57 36q-12 35 12 64l350 483h-293q-27 0 -42 15q-16 15 -16 39q0 25 16 39q15 14 42 14h384q45 0 58 -32q13 -33 -12 -65l-350 -486h316q27 0 42 -14q15 -15 15 -40q0 -24 -15 -38q-16 -15 -42 -15h-408zM313 741q-53 -24 -69 10q-21 40 31 64l143 67
q50 23 67 -12q19 -39 -33 -65z" />
    <glyph glyph-name="zacute" unicode="&#x17a;" horiz-adv-x="453" 
d="M376 490q44 0 55 -32t-14 -61l-242 -301h213q53 0 53 -48t-53 -48h-296q-41 0 -52 32q-11 31 13 60l246 302h-197q-53 0 -53 48t53 48h274zM244 560q-43 -31 -66 2q-26 36 21 67l120 78q43 28 65 -5q21 -35 -24 -66z" />
    <glyph glyph-name="Zdotaccent" unicode="&#x17b;" horiz-adv-x="574" 
d="M96 0q-46 0 -57 36q-12 35 12 64l350 483h-293q-27 0 -42 15q-16 15 -16 39q0 25 16 39q15 14 42 14h384q45 0 58 -32q13 -33 -12 -65l-350 -486h316q27 0 42 -14q15 -15 15 -40q0 -24 -15 -38q-16 -15 -42 -15h-408zM230 804q0 32 23 48q22 16 57 16q34 0 57 -16t23 -48
t-23 -47q-23 -16 -57 -16q-35 0 -57 16q-23 15 -23 47z" />
    <glyph glyph-name="zdotaccent" unicode="&#x17c;" horiz-adv-x="453" 
d="M376 490q44 0 55 -32t-14 -61l-242 -301h213q53 0 53 -48t-53 -48h-296q-41 0 -52 32q-11 31 13 60l246 302h-197q-53 0 -53 48t53 48h274zM173 619q0 28 18 45q18 16 48 16t48 -16q18 -17 18 -45q0 -29 -18 -45t-48 -16q-31 0 -48 16q-18 16 -18 45z" />
    <glyph glyph-name="Zcaron" unicode="&#x17d;" horiz-adv-x="574" 
d="M339 739q-32 -18 -65 0l-120 65q-21 11 -27 29q-7 18 4 35q19 32 61 9l118 -66l106 63q20 11 37 8q16 -3 24 -20q18 -35 -29 -61zM96 0q-46 0 -57 36q-12 35 12 64l350 483h-293q-27 0 -42 15q-16 15 -16 39q0 25 16 39q15 14 42 14h384q45 0 58 -32q13 -33 -12 -65
l-350 -486h316q27 0 42 -14q15 -15 15 -40q0 -24 -15 -38q-16 -15 -42 -15h-408z" />
    <glyph glyph-name="zcaron" unicode="&#x17e;" horiz-adv-x="453" 
d="M250 624l93 70q37 27 59 -1q10 -11 6 -27q-4 -17 -22 -30l-105 -78q-33 -25 -68 0l-108 78q-38 28 -15 59q11 14 28 15q17 0 31 -11zM376 490q44 0 55 -32t-14 -61l-242 -301h213q53 0 53 -48t-53 -48h-296q-41 0 -52 32q-11 31 13 60l246 302h-197q-53 0 -53 48t53 48
h274z" />
    <glyph glyph-name="uni018F" unicode="&#x18f;" horiz-adv-x="656" 
d="M312 593q-58 0 -141 -30q-60 -21 -77 14q-23 47 35 80q77 43 187 43q295 0 295 -354q0 -54 -8 -102q-9 -49 -29 -96q-21 -48 -53 -81q-33 -34 -84 -55t-116 -21q-140 0 -208 83q-68 82 -68 214q0 45 7 72q6 26 25 38q18 12 36 15q18 2 54 2h322q-5 84 -49 131t-128 47z
M324 95q164 0 166 220h-324q-4 -35 -1 -60q4 -76 47 -118q42 -42 112 -42z" />
    <glyph glyph-name="florin" unicode="&#x192;" 
d="M322 490h79q54 0 54 -48t-54 -48h-93l-53 -373q-19 -130 -64 -181q-46 -50 -132 -50q-65 0 -103 25t-21 63q13 30 47 24q1 0 29 -7q28 -6 45 -7q42 0 58 23q16 24 24 83l67 474q15 124 61 178t139 54q66 0 104 -27q35 -26 19 -62q-12 -27 -46 -23q-8 1 -37 8q-29 6 -44 6
q-35 0 -52 -20t-23 -63z" />
    <glyph glyph-name="uni01CF" unicode="&#x1cf;" horiz-adv-x="274" 
d="M179 739q-32 -18 -65 0l-120 65q-21 11 -28 29q-6 18 5 35q19 32 61 9l118 -66l106 63q20 11 37 8q16 -3 24 -20q18 -35 -29 -61zM84 628q0 27 16 45q15 17 44 17q28 0 44 -17q16 -18 16 -45v-567q0 -27 -16 -44t-44 -17q-29 0 -44 17q-16 17 -16 44v567z" />
    <glyph glyph-name="uni01D0" unicode="&#x1d0;" horiz-adv-x="237" 
d="M146 624l93 70q37 27 59 -1q10 -11 6 -27q-4 -17 -22 -30l-105 -78q-33 -25 -68 0l-108 78q-38 28 -15 59q11 14 28 15q17 0 31 -11zM85 432q0 25 15 42q14 16 41 16t42 -16q15 -17 15 -42v-374q0 -25 -15 -41q-15 -17 -42 -17t-41 17q-15 16 -15 41v374z" />
    <glyph glyph-name="uni01DD" unicode="&#x1dd;" horiz-adv-x="497" 
d="M35 203q0 46 17 67t56 21h242q-6 118 -114 118q-44 0 -101 -20q-52 -18 -66 14q-19 43 33 69q55 28 139 28q111 0 166 -68q55 -69 55 -185q0 -117 -57 -187t-165 -70q-97 0 -151 57q-54 56 -54 156zM244 81q54 0 80 37q26 36 27 98h-212q-4 -135 105 -135z" />
    <glyph glyph-name="Gcaron" unicode="&#x1e6;" horiz-adv-x="667" 
d="M373 700q118 0 183 -44q47 -32 25 -73q-20 -37 -77 -16q-68 26 -130 26q-97 0 -150 -68q-53 -69 -53 -182q0 -118 54 -182q53 -64 151 -64q92 0 148 39v134h-113q-53 0 -53 46t53 46h151q60 0 60 -52v-190q0 -43 -32 -66q-36 -27 -95 -45q-60 -19 -127 -19
q-164 0 -243 95q-80 94 -80 261q0 161 88 258q88 96 240 96zM402 739q-32 -18 -65 0l-120 65q-21 11 -27 29q-7 18 4 35q19 32 61 9l118 -66l106 63q20 11 37 8q16 -3 24 -20q18 -35 -29 -61z" />
    <glyph glyph-name="gcaron" unicode="&#x1e7;" horiz-adv-x="513" 
d="M50 331q0 77 52 123t148 46q40 0 78 -10h138q46 0 46 -40q0 -39 -46 -39h-35q20 -40 20 -80q0 -75 -52 -121q-53 -46 -149 -46q-54 0 -95 15q-27 -17 -27 -41q0 -22 33 -34t120 -16q101 -4 156 -32q54 -29 54 -95q0 -76 -65 -124q-65 -47 -186 -47t-173 40
q-52 41 -52 101q0 70 72 111q-47 26 -47 79q0 52 54 96q-44 44 -44 114zM249 4q-43 3 -78 9q-54 -25 -54 -69q0 -28 30 -48q29 -19 92 -19q73 0 109 21q35 21 35 54q0 25 -29 36q-30 11 -105 16zM151 331q0 -37 27 -59q26 -22 72 -22t73 22q26 22 26 59t-26 60
q-27 23 -73 23t-72 -23q-27 -23 -27 -60zM259 624l93 70q37 27 59 -1q10 -11 6 -27q-4 -17 -22 -30l-105 -78q-33 -25 -68 0l-108 78q-38 28 -15 59q11 14 28 15q17 0 31 -11z" />
    <glyph glyph-name="Scommaaccent" unicode="&#x218;" horiz-adv-x="551" 
d="M247 -216q34 34 34 63q0 23 -30 35q-38 20 -24 55q15 34 62 24q37 -7 58 -34q21 -26 21 -63t-18 -69q-18 -31 -44 -51q-19 -14 -39 -19q-21 -5 -35 8q-15 19 15 51zM280 590q-99 0 -99 -72q0 -32 26 -54q26 -23 65 -35q38 -12 84 -30q45 -18 84 -38q38 -20 64 -61t26 -98
q0 -97 -61 -154q-61 -58 -184 -58q-110 0 -190 41q-34 18 -45 43q-12 25 2 51q20 39 86 12q80 -37 150 -37q56 0 89 22q32 22 32 65q0 42 -36 68t-87 42t-102 37q-52 20 -88 65t-36 115q0 86 59 136q58 50 170 50q101 0 174 -42q61 -33 35 -84q-22 -43 -95 -11
q-64 27 -123 27z" />
    <glyph glyph-name="scommaaccent" unicode="&#x219;" horiz-adv-x="433" 
d="M204 -213q36 34 36 63q0 22 -32 34q-35 19 -23 53q15 34 63 23q36 -8 57 -33q20 -24 20 -60q0 -72 -63 -117q-19 -15 -39 -20q-20 -4 -33 10q-13 18 14 47zM238 500q86 0 143 -33q46 -26 28 -66q-16 -34 -63 -19q-69 27 -104 27q-67 0 -67 -45q0 -25 26 -41
q26 -17 63 -28q37 -12 74 -27t63 -47t26 -79q0 -73 -49 -112q-50 -40 -149 -40q-98 0 -156 38q-42 30 -23 69q18 37 73 12q63 -28 116 -28q74 0 74 51q0 26 -26 43q-26 16 -63 28t-74 27t-63 48t-26 82q0 68 48 104t129 36z" />
    <glyph glyph-name="uni021A" unicode="&#x21a;" horiz-adv-x="599" 
d="M259 -216q34 34 34 63q0 23 -30 35q-37 19 -23 55q13 34 62 24q37 -7 58 -34q21 -26 21 -63q0 -72 -62 -120q-20 -14 -40 -19t-35 8q-14 18 15 51zM536 690q27 0 43 -14q15 -14 15 -39q0 -24 -15 -39q-16 -15 -43 -15h-177v-522q0 -27 -15 -44q-16 -17 -45 -17t-44 17
q-16 17 -16 44v522h-177q-26 0 -41 15q-16 15 -16 39q0 25 16 39q15 14 41 14h474z" />
    <glyph glyph-name="uni021B" unicode="&#x21b;" horiz-adv-x="337" 
d="M157 -213q35 33 35 63q0 22 -31 34q-36 19 -23 53q14 35 63 23q35 -8 56 -33q20 -24 20 -60q0 -71 -62 -117q-19 -15 -39 -20q-21 -4 -34 10q-13 19 15 47zM60 557q0 25 15 42q14 16 41 16t42 -16q15 -17 15 -42v-62h85q54 0 54 -48t-54 -48h-85v-223q0 -43 13 -62
t44 -19q24 0 53 12q19 8 36 3t24 -22q17 -42 -31 -70q-40 -23 -100 -23q-152 0 -152 169v393z" />
    <glyph glyph-name="uni0259" unicode="&#x259;" horiz-adv-x="497" 
d="M35 203q0 46 17 67t56 21h242q-6 118 -114 118q-44 0 -101 -20q-52 -18 -66 14q-19 43 33 69q55 28 139 28q111 0 166 -68q55 -69 55 -185q0 -117 -57 -187t-165 -70q-97 0 -151 57q-54 56 -54 156zM244 81q54 0 80 37q26 36 27 98h-212q-4 -135 105 -135z" />
    <glyph glyph-name="circumflex" unicode="&#x2c6;" horiz-adv-x="519" 
d="M276 632l-92 -71q-38 -28 -59 1q-21 31 16 58l105 77q33 25 68 0l110 -79q18 -13 20 -31t-8 -28q-22 -28 -58 -2z" />
    <glyph glyph-name="caron" unicode="&#x2c7;" horiz-adv-x="519" 
d="M287 624l93 70q37 27 59 -1q10 -11 6 -27q-4 -17 -22 -30l-105 -78q-33 -25 -68 0l-108 78q-38 28 -15 59q11 14 28 15q17 0 31 -11z" />
    <glyph glyph-name="breve" unicode="&#x2d8;" horiz-adv-x="519" 
d="M261 548q-52 0 -89 21t-55 52q-9 16 -7 33t15 26q32 21 62 -16q34 -41 74 -41q24 0 41 11q16 10 34 31q29 36 62 15q28 -19 6 -58q-44 -74 -143 -74z" />
    <glyph glyph-name="dotaccent" unicode="&#x2d9;" horiz-adv-x="519" 
d="M193 619q0 28 18 45q18 16 48 16t48 -16q18 -17 18 -45q0 -29 -18 -45t-48 -16q-31 0 -48 16q-18 16 -18 45z" />
    <glyph glyph-name="ring" unicode="&#x2da;" horiz-adv-x="519" 
d="M259 729q50 0 80 -26q29 -27 29 -71q0 -45 -29 -71q-30 -26 -80 -26t-79 26q-30 26 -30 71q0 44 30 71q29 26 79 26zM212 632q0 -20 14 -32q13 -13 33 -13t34 13q13 12 13 32t-13 33q-14 12 -34 12t-33 -12q-14 -13 -14 -33z" />
    <glyph glyph-name="ogonek" unicode="&#x2db;" horiz-adv-x="386" 
d="M244 -22q-55 -55 -55 -99q0 -41 39 -41q15 0 35 6q26 8 36 -10q8 -11 4 -28q-5 -16 -23 -27q-31 -19 -75 -19q-54 0 -88 29q-34 30 -34 79q0 47 28 90q28 44 72 69q18 10 37 12q18 2 31 -10q21 -23 -7 -51z" />
    <glyph glyph-name="tilde" unicode="&#x2dc;" horiz-adv-x="519" 
d="M322 633q14 0 39 21q31 27 58 4q12 -12 11 -29q-2 -17 -15 -33q-38 -48 -94 -48q-31 0 -69 22q-39 21 -54 21q-17 0 -42 -22q-30 -24 -54 -4q-13 11 -11 29q1 18 15 35q42 47 92 47q32 0 72 -21q40 -22 52 -22z" />
    <glyph glyph-name="hungarumlaut" unicode="&#x2dd;" horiz-adv-x="519" 
d="M146 571q-40 -27 -62 1q-11 13 -7 30t26 31l112 75q42 27 63 -4q20 -31 -24 -61zM313 571q-40 -27 -62 1q-11 13 -7 30t26 31l112 75q42 27 63 -4q20 -31 -24 -61z" />
    <glyph glyph-name="pi" unicode="&#x3c0;" horiz-adv-x="568" 
d="M497 490q54 0 54 -51q0 -49 -54 -49h-9v-332q0 -25 -15 -41q-15 -17 -42 -17t-41 17q-15 16 -15 41v332h-182v-332q0 -25 -15 -41q-15 -17 -42 -17t-41 17q-15 16 -15 41v332h-10q-53 0 -53 49q0 51 53 51h427z" />
    <glyph glyph-name="afii10023" unicode="&#x401;" horiz-adv-x="561" 
d="M75 628q0 27 16 45q16 17 45 17h338q26 0 42 -14q15 -15 15 -40q0 -24 -15 -38q-16 -15 -42 -15h-279v-175h223q27 0 43 -14q15 -14 15 -39q0 -24 -15 -39q-16 -15 -43 -15h-223v-194h289q26 0 42 -14q15 -15 15 -40q0 -24 -15 -38q-16 -15 -42 -15h-347q-29 0 -45 18
q-17 17 -17 44v566zM121 796q0 28 21 44q20 16 51 16q33 0 54 -16q20 -16 20 -44t-20 -43q-21 -15 -54 -15q-32 0 -52 15t-20 43zM329 796q0 28 20 44t53 16q32 0 53 -16q20 -16 20 -44t-20 -43q-21 -15 -53 -15q-33 0 -53 15t-20 43z" />
    <glyph glyph-name="afii10051" unicode="&#x402;" horiz-adv-x="764" 
d="M516 93q87 0 87 120q0 121 -140 121q-56 0 -104 -10v-263q0 -27 -15 -44q-16 -17 -45 -17t-44 17q-16 17 -16 44v522h-177q-26 0 -41 15q-16 15 -16 39q0 25 16 39q15 14 41 14h474q27 0 43 -14q15 -14 15 -39q0 -24 -15 -39q-16 -15 -43 -15h-177v-155q54 13 118 13
q113 0 183 -53q69 -54 69 -169q0 -109 -53 -169q-54 -60 -159 -60q-72 0 -106 22q-33 21 -24 61q10 40 54 32q67 -12 75 -12z" />
    <glyph glyph-name="afii10052" unicode="&#x403;" horiz-adv-x="494" 
d="M241 741q-53 -24 -69 10q-21 40 31 64l143 67q50 23 67 -12q19 -39 -33 -65zM75 628q0 27 16 45q15 17 44 17h297q26 0 42 -14q15 -15 15 -40q0 -24 -15 -38q-16 -15 -42 -15h-237v-522q0 -27 -16 -44t-44 -17q-29 0 -44 17q-16 17 -16 44v567z" />
    <glyph glyph-name="afii10053" unicode="&#x404;" horiz-adv-x="634" 
d="M368 593q-81 0 -131 -51q-51 -52 -63 -142h273q24 0 38 -12q14 -13 14 -35q0 -23 -14 -36q-14 -14 -38 -14h-274q10 -98 65 -152q54 -54 133 -54q69 0 142 43q51 29 76 -7q13 -17 8 -41q-6 -24 -31 -43q-80 -59 -204 -59q-157 0 -237 96q-80 95 -80 259q0 161 86 258
q85 97 235 97q118 0 185 -47q46 -32 24 -72q-20 -37 -76 -16q-73 28 -131 28z" />
    <glyph glyph-name="afii10054" unicode="&#x405;" horiz-adv-x="551" 
d="M280 590q-99 0 -99 -72q0 -32 26 -54q26 -23 65 -35q38 -12 84 -30q45 -18 84 -38q38 -20 64 -61t26 -98q0 -97 -61 -154q-61 -58 -184 -58q-110 0 -190 41q-34 18 -45 43q-12 25 2 51q20 39 86 12q80 -37 150 -37q56 0 89 22q32 22 32 65q0 42 -36 68t-87 42t-102 37
q-52 20 -88 65t-36 115q0 86 59 136q58 50 170 50q101 0 174 -42q61 -33 35 -84q-22 -43 -95 -11q-64 27 -123 27z" />
    <glyph glyph-name="afii10055" unicode="&#x406;" horiz-adv-x="270" 
d="M75 628q0 27 16 45q15 17 44 17q28 0 44 -17q16 -18 16 -45v-567q0 -27 -16 -44t-44 -17q-29 0 -44 17q-16 17 -16 44v567z" />
    <glyph glyph-name="afii10056" unicode="&#x407;" horiz-adv-x="270" 
d="M75 628q0 27 16 45q15 17 44 17q28 0 44 -17q16 -18 16 -45v-567q0 -27 -16 -44t-44 -17q-29 0 -44 17q-16 17 -16 44v567zM-42 796q0 28 20 44q21 16 52 16q33 0 54 -16q20 -16 20 -44t-20 -43q-21 -15 -54 -15q-32 0 -52 15t-20 43zM166 796q0 28 20 44t53 16
q32 0 53 -16q20 -16 20 -44t-20 -43q-21 -15 -53 -15q-33 0 -53 15t-20 43z" />
    <glyph glyph-name="afii10057" unicode="&#x408;" horiz-adv-x="388" 
d="M2 97q17 39 70 19q46 -19 73 -19q69 0 69 74v457q0 27 16 45q15 17 44 17q28 0 44 -17q16 -18 16 -45v-459q0 -85 -43 -132t-127 -47q-81 0 -125 25q-58 32 -37 82z" />
    <glyph glyph-name="afii10058" unicode="&#x409;" horiz-adv-x="933" 
d="M498 690q29 0 45 -17q15 -18 15 -45v-195q40 8 90 8q127 0 195 -51t68 -172q0 -109 -72 -166t-192 -57q-97 0 -153 12q-56 13 -56 69v507h-181q-5 -282 -47 -433q-19 -67 -58 -111q-40 -44 -96 -44q-42 0 -62 23q-20 22 -12 55q9 36 58 36q44 0 64 67q38 123 43 452
q1 29 16 46q15 16 41 16h294zM637 334q-35 0 -79 -6v-220q44 -6 86 -6q141 0 141 118q0 64 -39 89q-40 25 -109 25z" />
    <glyph glyph-name="afii10059" unicode="&#x40a;" horiz-adv-x="1014" 
d="M511 299h-316v-238q0 -27 -16 -44t-44 -17q-29 0 -44 17q-16 17 -16 44v567q0 27 16 45q15 17 44 17q28 0 44 -17q16 -18 16 -45v-222h316v223q0 27 16 44q15 17 44 17q28 0 44 -17t16 -44v-196q40 8 90 8q127 0 195 -51t68 -172q0 -109 -72 -166t-192 -57q-97 0 -153 12
q-56 13 -56 69v223zM710 334q-35 0 -79 -6v-220q44 -6 86 -6q141 0 141 118q0 64 -39 89q-40 25 -109 25z" />
    <glyph glyph-name="afii10060" unicode="&#x40b;" horiz-adv-x="768" 
d="M359 62q0 -27 -15 -44q-16 -18 -45 -18t-44 18q-16 17 -16 44v521h-177q-26 0 -41 15q-16 15 -16 39q0 25 16 39q15 14 41 14h472q27 0 43 -14q15 -14 15 -39q0 -24 -15 -39q-16 -15 -43 -15h-175v-175q70 48 159 48q107 0 161 -54t54 -185v-155q0 -26 -16 -44t-44 -18
q-29 0 -44 18q-16 18 -16 44v149q0 78 -26 110q-27 31 -86 31q-68 0 -142 -51v-239z" />
    <glyph glyph-name="afii10061" unicode="&#x40c;" horiz-adv-x="571" 
d="M75 628q0 27 16 45q15 17 44 17q28 0 44 -17q16 -18 16 -45v-252l245 281q48 55 89 18q20 -20 17 -44q-4 -24 -24 -45l-213 -230l228 -241q23 -24 27 -49q4 -26 -15 -47q-44 -43 -97 13l-257 283v-254q0 -27 -16 -44t-44 -17q-29 0 -44 17q-16 17 -16 44v567zM309 741
q-53 -24 -69 10q-21 40 31 64l143 67q50 23 67 -12q19 -39 -33 -65z" />
    <glyph glyph-name="afii10062" unicode="&#x40e;" horiz-adv-x="585" 
d="M34 583q-17 28 -15 57q2 28 27 42q27 14 50 4q23 -11 40 -43l189 -349l141 342q28 68 80 49q49 -19 22 -84l-172 -402q-47 -110 -89 -159q-43 -50 -109 -50q-60 0 -96 20q-53 29 -35 77q16 42 65 26q5 -1 18 -6q12 -5 22 -7q9 -2 20 -2q25 0 43 21q18 20 34 62zM292 734
q-54 0 -96 19q-42 18 -62 45q-27 36 0 61q27 26 65 -10q39 -38 93 -38t92 37q36 36 65 11q27 -23 -1 -61q-20 -28 -61 -46t-95 -18z" />
    <glyph glyph-name="afii10145" unicode="&#x40f;" horiz-adv-x="686" 
d="M75 629q0 27 16 44q15 17 44 17q28 0 44 -17t16 -44v-522h296v522q0 27 16 44q15 17 44 17t45 -17q15 -17 15 -44v-567q0 -27 -15 -44q-16 -18 -45 -18h-152v-85q0 -27 -14 -44t-42 -17t-42 17q-15 17 -15 44v85h-152q-28 0 -43 18q-16 17 -16 44v567z" />
    <glyph glyph-name="afii10017" unicode="&#x410;" horiz-adv-x="611" 
d="M453 195h-257l-52 -141q-25 -72 -82 -49q-44 19 -20 82l225 564q19 49 61 49q40 0 58 -43l232 -569q11 -22 5 -48q-7 -26 -32 -35q-28 -10 -49 2q-22 11 -33 40zM228 289h191l-97 252z" />
    <glyph glyph-name="afii10018" unicode="&#x411;" horiz-adv-x="597" 
d="M448 690q26 0 41 -14q15 -15 15 -40q0 -24 -15 -38q-15 -15 -41 -15h-253v-166q48 8 102 8q250 0 250 -205q0 -111 -67 -168t-197 -57q-85 0 -151 10q-57 9 -57 65v559q0 26 16 44q16 17 43 17h314zM287 326q-54 0 -92 -7v-220q36 -5 85 -5q141 0 141 121q0 57 -36 84
t-98 27z" />
    <glyph glyph-name="afii10019" unicode="&#x412;" horiz-adv-x="623" 
d="M75 616q0 57 57 67q71 12 161 12q252 0 252 -181q0 -46 -24 -86q-25 -40 -67 -59q58 -18 91 -60q33 -43 33 -102q0 -212 -277 -212q-99 0 -170 11q-56 8 -56 64v546zM190 308v-208q48 -6 116 -6q74 0 112 25q37 25 37 83q0 106 -150 106h-115zM282 595q-44 0 -92 -5v-192
h102q130 0 130 104q0 93 -140 93z" />
    <glyph glyph-name="afii10020" unicode="&#x413;" horiz-adv-x="494" 
d="M75 628q0 27 16 45q15 17 44 17h297q26 0 42 -14q15 -15 15 -40q0 -24 -15 -38q-16 -15 -42 -15h-237v-522q0 -27 -16 -44t-44 -17q-29 0 -44 17q-16 17 -16 44v567z" />
    <glyph glyph-name="afii10021" unicode="&#x414;" horiz-adv-x="722" 
d="M574 0h-446v-85q0 -27 -14 -44q-15 -17 -43 -17t-42 17t-14 44v133q0 26 14 43q14 16 40 16h29q65 126 75 521q1 62 57 62h308q30 0 45 -18t15 -43v-522h35q26 0 40 -16q14 -17 14 -43v-133q0 -27 -14 -44t-42 -17t-42 17q-15 17 -15 44v85zM478 107v476h-193
q-5 -315 -68 -476h261z" />
    <glyph glyph-name="afii10022" unicode="&#x415;" horiz-adv-x="561" 
d="M75 628q0 27 16 45q16 17 45 17h338q26 0 42 -14q15 -15 15 -40q0 -24 -15 -38q-16 -15 -42 -15h-279v-175h223q27 0 43 -14q15 -14 15 -39q0 -24 -15 -39q-16 -15 -43 -15h-223v-194h289q26 0 42 -14q15 -15 15 -40q0 -24 -15 -38q-16 -15 -42 -15h-347q-29 0 -45 18
q-17 17 -17 44v566z" />
    <glyph glyph-name="afii10024" unicode="&#x416;" horiz-adv-x="840" 
d="M367 323l-246 -289q-52 -59 -96 -15q-18 21 -15 44q3 22 21 42l227 245l-201 238q-18 20 -20 44q-3 24 15 43q20 20 46 14t48 -35l221 -281v255q0 27 14 45q14 17 42 17t42 -17q14 -18 14 -45v-258l223 283q47 61 91 22q36 -33 -5 -84l-199 -237l226 -248q18 -20 21 -44
q3 -25 -14 -44q-22 -21 -47 -17q-25 3 -46 28l-250 295v-263q0 -27 -14 -44t-42 -17q-56 0 -56 61v262z" />
    <glyph glyph-name="afii10025" unicode="&#x417;" horiz-adv-x="580" 
d="M275 97q68 0 106 28t38 81q0 96 -144 99h-75q-22 0 -35 13q-14 12 -14 34q0 21 14 34q13 13 35 13h62q64 0 100 26q35 26 35 76q0 42 -29 67q-30 25 -89 25q-52 0 -125 -25q-62 -21 -79 14q-11 22 -2 43q9 20 35 34q76 41 183 41t170 -46q62 -47 62 -135q0 -49 -26 -91
q-26 -43 -77 -63q60 -16 93 -57q32 -41 32 -99q0 -112 -75 -165q-76 -54 -194 -54q-113 0 -184 37q-26 14 -36 35t0 47q18 40 85 15q71 -27 134 -27z" />
    <glyph glyph-name="afii10026" unicode="&#x418;" horiz-adv-x="708" 
d="M195 209l323 447q25 34 58 34q57 0 57 -62v-567q0 -27 -15 -44t-44 -17q-30 0 -45 18q-16 17 -16 43v418l-325 -444q-27 -35 -56 -35q-27 0 -42 16t-15 45v567q0 27 15 45q15 17 45 17q29 0 45 -17q15 -18 15 -45v-419z" />
    <glyph glyph-name="afii10027" unicode="&#x419;" horiz-adv-x="708" 
d="M195 209l323 447q25 34 58 34q57 0 57 -62v-567q0 -27 -15 -44t-44 -17q-30 0 -45 18q-16 17 -16 43v418l-325 -444q-27 -35 -56 -35q-27 0 -42 16t-15 45v567q0 27 15 45q15 17 45 17q29 0 45 -17q15 -18 15 -45v-419zM350 734q-54 0 -96 19q-42 18 -62 45q-27 36 0 61
q27 26 65 -10q39 -38 93 -38t92 37q36 36 65 11q27 -23 -1 -61q-20 -28 -61 -46t-95 -18z" />
    <glyph glyph-name="afii10028" unicode="&#x41a;" horiz-adv-x="571" 
d="M75 628q0 27 16 45q15 17 44 17q28 0 44 -17q16 -18 16 -45v-252l245 281q48 55 89 18q20 -20 17 -44q-4 -24 -24 -45l-213 -230l228 -241q23 -24 27 -49q4 -26 -15 -47q-44 -43 -97 13l-257 283v-254q0 -27 -16 -44t-44 -17q-29 0 -44 17q-16 17 -16 44v567z" />
    <glyph glyph-name="afii10029" unicode="&#x41b;" horiz-adv-x="627" 
d="M500 690q29 0 45 -17q15 -18 15 -45v-567q0 -27 -15 -44q-16 -17 -45 -17t-44 17q-16 17 -16 44v522h-185q-5 -288 -46 -435q-19 -67 -58 -110t-95 -43q-42 0 -62 23q-20 22 -12 55q9 36 58 36q43 0 63 67q37 119 42 452q1 29 16 46q15 16 41 16h298z" />
    <glyph glyph-name="afii10030" unicode="&#x41c;" horiz-adv-x="787" 
d="M397 329l200 323q24 38 59 38q27 0 42 -17q14 -17 14 -45v-567q0 -27 -15 -44q-16 -17 -45 -17q-28 0 -44 17t-16 44v407l-146 -236q-22 -36 -55 -36q-34 0 -56 35l-148 232v-402q0 -61 -56 -61t-56 61v566q0 32 16 48q15 15 40 15q38 0 62 -39z" />
    <glyph glyph-name="afii10031" unicode="&#x41d;" horiz-adv-x="708" 
d="M513 299h-318v-238q0 -27 -16 -44t-44 -17q-29 0 -44 17q-16 17 -16 44v567q0 27 16 45q15 17 44 17q28 0 44 -17q16 -18 16 -45v-222h318v222q0 27 16 45q15 17 44 17q28 0 44 -17q16 -18 16 -45v-567q0 -27 -16 -44t-44 -17q-29 0 -44 17q-16 17 -16 44v238z" />
    <glyph glyph-name="afii10032" unicode="&#x41e;" horiz-adv-x="747" 
d="M45 345q0 155 86 255q85 100 242 100t243 -100t86 -255q0 -156 -86 -255q-86 -100 -243 -100t-242 100q-86 99 -86 255zM171 345q0 -109 53 -178q52 -70 149 -70q98 0 151 70q52 69 52 178t-52 179q-53 69 -151 69q-97 0 -149 -69q-53 -70 -53 -179z" />
    <glyph glyph-name="afii10033" unicode="&#x41f;" horiz-adv-x="686" 
d="M75 628q0 27 16 45q15 17 43 17h417q29 0 45 -17q15 -18 15 -45v-567q0 -27 -15 -44q-16 -17 -45 -17t-44 17q-16 17 -16 44v522h-296v-522q0 -27 -16 -44t-44 -17q-29 0 -44 17q-16 17 -16 44v567z" />
    <glyph glyph-name="afii10034" unicode="&#x420;" horiz-adv-x="579" 
d="M75 612q0 59 56 70q66 13 154 13q123 0 194 -53q70 -54 70 -168q0 -116 -74 -175t-193 -59q-57 0 -87 5v-184q0 -27 -16 -44t-44 -17q-29 0 -44 17q-16 17 -16 44v551zM275 344q148 0 148 127q0 119 -141 119q-43 0 -87 -6v-236q29 -4 80 -4z" />
    <glyph glyph-name="afii10035" unicode="&#x421;" horiz-adv-x="629" 
d="M368 593q-92 0 -144 -67q-53 -68 -53 -180q0 -116 57 -182q56 -67 143 -67q69 0 142 43q51 29 76 -7q13 -17 8 -41q-6 -24 -31 -43q-80 -59 -204 -59q-157 0 -237 96q-80 95 -80 259q0 162 85 259q85 96 236 96q119 0 185 -46q44 -30 24 -73q-17 -38 -76 -16
q-73 28 -131 28z" />
    <glyph glyph-name="afii10036" unicode="&#x422;" horiz-adv-x="599" 
d="M536 690q27 0 43 -14q15 -14 15 -39q0 -24 -15 -39q-16 -15 -43 -15h-177v-522q0 -27 -15 -44q-16 -17 -45 -17t-44 17q-16 17 -16 44v522h-177q-26 0 -41 15q-16 15 -16 39q0 25 16 39q15 14 41 14h474z" />
    <glyph glyph-name="afii10037" unicode="&#x423;" horiz-adv-x="585" 
d="M34 583q-17 28 -15 57q2 28 27 42q27 14 50 4q23 -11 40 -43l189 -349l141 342q28 68 80 49q49 -19 22 -84l-172 -402q-47 -110 -89 -159q-43 -50 -109 -50q-60 0 -96 20q-53 29 -35 77q16 42 65 26q5 -1 18 -6q12 -5 22 -7q9 -2 20 -2q25 0 43 21q18 20 34 62z" />
    <glyph glyph-name="afii10038" unicode="&#x424;" horiz-adv-x="787" 
d="M45 364q0 130 77 201q77 70 212 70v38q0 27 16 44q15 17 44 17q28 0 44 -17t16 -44v-38q134 0 211 -70q77 -71 77 -201q0 -129 -77 -199q-77 -71 -211 -71v-50q0 -27 -16 -45q-16 -17 -44 -17q-29 0 -44 17q-16 18 -16 45v50q-134 0 -211 71q-78 70 -78 199zM625 364
q0 86 -50 132t-130 46v-354q81 0 131 44q49 44 49 132zM163 364q0 -88 50 -132q49 -44 130 -44v354q-81 0 -130 -46q-50 -46 -50 -132z" />
    <glyph glyph-name="afii10039" unicode="&#x425;" horiz-adv-x="603" 
d="M305 442l154 212q39 56 84 24q41 -29 3 -83l-176 -233l197 -261q16 -21 15 -47t-22 -42q-25 -16 -47 -10q-23 6 -40 29l-178 242l-168 -236q-40 -58 -86 -27q-21 18 -21 40t16 43l194 262l-177 232q-16 22 -16 48q0 25 21 42q29 18 52 11q23 -8 40 -33z" />
    <glyph glyph-name="afii10040" unicode="&#x426;" horiz-adv-x="730" 
d="M606 107h35q26 0 40 -16q14 -17 14 -43v-133q0 -27 -14 -44t-42 -17t-42 17q-15 17 -15 44v85h-448q-28 0 -43 17q-16 17 -16 44v567q0 27 16 45q15 17 43 17q29 0 45 -17q16 -18 16 -45v-521h291v521q0 27 16 45q15 17 44 17q28 0 44 -17q16 -18 16 -45v-521z" />
    <glyph glyph-name="afii10041" unicode="&#x427;" horiz-adv-x="606" 
d="M411 628q0 27 16 45q15 17 44 17t45 -17q15 -18 15 -45v-567q0 -27 -15 -44q-16 -17 -45 -17t-44 17q-16 17 -16 44v221q-70 -48 -160 -48q-107 0 -161 53q-55 52 -55 186v155q0 26 16 44t44 18q29 0 45 -18q15 -18 15 -44v-149q0 -78 27 -109q27 -32 86 -32q69 0 143 51
v239z" />
    <glyph glyph-name="afii10042" unicode="&#x428;" horiz-adv-x="921" 
d="M846 62q0 -28 -16 -45t-46 -17h-650q-28 0 -43 17q-16 17 -16 44v567q0 27 16 45q15 17 43 17q29 0 45 -17q16 -18 16 -45v-521h205v521q0 27 16 45q15 17 44 17t45 -17q15 -18 15 -45v-521h206v521q0 27 16 45q15 17 44 17q28 0 44 -17q16 -18 16 -45v-566z" />
    <glyph glyph-name="afii10043" unicode="&#x429;" horiz-adv-x="970" 
d="M846 107h35q26 0 40 -16q14 -17 14 -43v-133q0 -27 -14 -44t-42 -17t-42 17q-15 17 -15 44v85h-688q-28 0 -43 17q-16 17 -16 44v567q0 27 16 45q15 17 43 17q29 0 45 -17q16 -18 16 -45v-521h205v521q0 27 16 45q15 17 44 17t45 -17q15 -18 15 -45v-521h206v521
q0 27 16 45q15 17 44 17q28 0 44 -17q16 -18 16 -45v-521z" />
    <glyph glyph-name="afii10044" unicode="&#x42a;" horiz-adv-x="679" 
d="M168 583h-115q-26 0 -41 15q-16 14 -16 38q0 25 16 40q15 14 41 14h175q28 0 44 -17t16 -44v-196q40 8 92 8q127 0 195 -51q68 -52 68 -172q0 -109 -72 -166t-192 -57q-99 0 -155 12q-56 13 -56 69v507zM369 334q-37 0 -81 -6v-220q43 -6 88 -6q141 0 141 118
q0 64 -39 89q-40 25 -109 25z" />
    <glyph glyph-name="afii10045" unicode="&#x42b;" horiz-adv-x="822" 
d="M75 629q0 27 16 44q15 17 44 17q28 0 44 -17t16 -44v-195q34 7 90 7q124 0 187 -52t63 -171q0 -107 -68 -165t-186 -58q-94 0 -150 12q-56 13 -56 69v553zM271 334q-32 0 -76 -6v-220q44 -6 83 -6q131 0 131 118q0 62 -36 88t-102 26zM627 628q0 27 16 45q15 17 44 17
q28 0 44 -17q16 -18 16 -45v-567q0 -27 -16 -44t-44 -17q-29 0 -44 17q-16 17 -16 44v567z" />
    <glyph glyph-name="afii10046" unicode="&#x42c;" horiz-adv-x="581" 
d="M75 629q0 27 16 44q15 17 44 17q28 0 44 -17t16 -44v-196q40 8 92 8q127 0 195 -51t68 -172q0 -109 -72 -166t-192 -57q-99 0 -155 12q-56 13 -56 69v553zM276 334q-37 0 -81 -6v-220q44 -6 88 -6q141 0 141 118q0 64 -39 89q-40 25 -109 25z" />
    <glyph glyph-name="afii10047" unicode="&#x42d;" horiz-adv-x="642" 
d="M298 593q-59 0 -137 -31q-61 -21 -79 14q-25 51 45 86q76 38 175 38q158 0 233 -92t75 -253q0 -166 -80 -265q-80 -100 -241 -100q-121 0 -186 39q-55 34 -36 80q16 40 70 22q4 -1 22 -7q17 -7 24 -9q6 -2 22 -6q16 -5 27 -7q10 -2 25 -3q15 -2 30 -2q98 0 146 56
q48 55 52 149h-280q-55 0 -55 49q0 48 55 48h281q-5 90 -54 142t-134 52z" />
    <glyph glyph-name="afii10048" unicode="&#x42e;" horiz-adv-x="980" 
d="M75 628q0 27 16 45q15 17 44 17q28 0 44 -17q16 -18 16 -45v-225h104q13 134 94 216q81 81 222 81q156 0 238 -99t82 -256t-82 -256t-238 -99q-144 0 -225 84t-93 222h-102v-235q0 -27 -16 -44t-44 -17q-29 0 -44 17q-16 17 -16 44v567zM421 345q0 -110 49 -179t145 -69
t145 69t49 179t-49 179q-50 69 -145 69t-144 -69q-50 -69 -50 -179z" />
    <glyph glyph-name="afii10049" unicode="&#x42f;" horiz-adv-x="613" 
d="M356 695q80 0 130 -14q56 -16 56 -70v-550q0 -27 -15 -44q-16 -17 -45 -17q-28 0 -44 17t-16 44v198q-21 -4 -55 -4q-28 0 -49 3l-126 -212q-19 -31 -43 -42t-55 5q-20 13 -24 37t16 58l114 174q-120 46 -120 190q0 109 72 168t204 59zM350 588q-67 0 -105 -30
q-39 -30 -39 -92q0 -120 151 -120q44 0 65 3v235q-42 4 -72 4z" />
    <glyph glyph-name="afii10065" unicode="&#x430;" horiz-adv-x="503" 
d="M335 76q-49 -86 -160 -86q-75 0 -117 40q-43 40 -43 107q0 85 62 125q61 39 153 39q63 0 105 -7v11q0 48 -21 75q-21 26 -81 26q-13 0 -25 -1t-24 -4q-13 -3 -21 -5l-24 -8q-16 -5 -24 -7q-18 -6 -34 0q-17 6 -23 23q-12 35 25 59q55 37 163 37q197 0 197 -186v-256
q0 -26 -13 -42q-14 -16 -41 -16t-40 17q-14 16 -14 41v18zM205 78q60 0 95 40q35 39 35 90v17q-32 5 -89 5q-120 0 -120 -84q0 -31 21 -49q21 -19 58 -19z" />
    <glyph glyph-name="afii10066" unicode="&#x431;" horiz-adv-x="543" 
d="M305 560q-82 -31 -115 -57q-64 -51 -67 -136q27 48 75 72q48 23 99 23q99 0 155 -63q56 -64 56 -169q0 -104 -64 -172t-171 -68q-118 0 -178 76q-60 75 -60 216q0 155 50 235q50 79 184 131l116 43q64 23 79 -19q15 -43 -37 -67q-15 -7 -56 -21t-66 -24zM392 226
q0 66 -31 103t-88 37q-54 0 -86 -38t-32 -104q0 -65 31 -101q31 -37 86 -37q57 0 89 37q31 37 31 103z" />
    <glyph glyph-name="afii10067" unicode="&#x432;" horiz-adv-x="507" 
d="M60 420q0 55 51 65q48 9 133 9q101 0 150 -36q48 -37 48 -97q0 -36 -18 -65t-51 -42q43 -8 69 -36q25 -29 25 -72q0 -151 -220 -151q-84 0 -134 9q-53 8 -53 61v355zM170 210v-121q35 -4 83 -4q100 0 100 66q0 59 -93 59h-90zM244 404q-43 0 -74 -4v-119h74q89 0 89 62
q0 61 -89 61z" />
    <glyph glyph-name="afii10068" unicode="&#x433;" horiz-adv-x="390" 
d="M340 490q54 0 54 -51q0 -49 -54 -49h-167v-332q0 -25 -15 -41q-15 -17 -42 -17t-41 17q-15 16 -15 41v374q0 24 15 41t41 17h224z" />
    <glyph glyph-name="afii10069" unicode="&#x434;" 
d="M98 0v-62q0 -24 -12 -39q-13 -15 -37 -15q-48 0 -48 54v100q0 23 12 38q12 14 35 14h5q9 0 17 10q8 9 14 27q6 17 11 38q5 20 8 48l6 51q2 23 4 53q2 29 3 47t2 41t1 27q3 58 59 58h226q27 0 42 -16t15 -42v-342h26q24 0 36 -15t12 -37v-100q0 -54 -48 -54q-24 0 -36 15
q-13 15 -13 39v62h-340zM350 90v304h-133q-5 -211 -40 -304h173z" />
    <glyph glyph-name="afii10070" unicode="&#x435;" horiz-adv-x="506" 
d="M147 204q2 -57 37 -90t93 -33q44 0 106 26q44 18 62 -14q9 -15 4 -33q-6 -19 -25 -31q-58 -39 -158 -39q-112 0 -171 66q-60 66 -60 187q0 117 63 187t170 70q96 0 151 -54q54 -55 54 -145q0 -29 -5 -47q-7 -26 -22 -38t-44 -12h-255zM268 409q-53 0 -84 -32
q-32 -33 -37 -94h221q1 10 1 25q0 45 -25 73q-26 28 -76 28z" />
    <glyph glyph-name="afii10072" unicode="&#x436;" horiz-adv-x="643" 
d="M276 218l-169 -191q-21 -23 -43 -26q-23 -3 -43 18q-14 16 -10 38q3 21 22 41l145 150l-134 151q-37 43 -4 76q17 18 39 14t42 -29l155 -192v164q0 58 49 58t49 -58v-165l155 192q20 25 43 29q22 3 37 -14q31 -31 -7 -75l-129 -148l145 -155q18 -19 21 -40t-11 -38
q-17 -19 -40 -17q-23 1 -43 24l-171 193v-160q0 -58 -49 -58t-49 58v160z" />
    <glyph glyph-name="afii10073" unicode="&#x437;" horiz-adv-x="451" 
d="M227 404q-39 0 -97 -22q-49 -18 -66 15q-18 40 25 66q60 37 152 37q85 0 130 -36q44 -37 44 -96q0 -38 -22 -69q-22 -32 -58 -43q42 -9 67 -38q25 -30 25 -74q0 -71 -49 -112q-50 -42 -144 -42q-105 0 -159 32q-40 25 -24 65q14 35 61 20q69 -21 111 -21q90 0 90 63
q0 62 -99 62h-40q-48 0 -48 38q0 39 48 39h36q91 0 91 61q0 55 -74 55z" />
    <glyph glyph-name="afii10074" unicode="&#x438;" 
d="M381 311l-216 -283q-21 -28 -51 -28q-27 0 -40 16q-14 16 -14 42v374q0 25 15 42q15 16 42 16t42 -16q14 -17 14 -42v-255l212 280q23 33 55 33q27 0 41 -16q13 -16 13 -42v-374q0 -26 -14 -42q-15 -16 -43 -16q-27 0 -41 16q-15 16 -15 42v253z" />
    <glyph glyph-name="afii10075" unicode="&#x439;" 
d="M381 311l-216 -283q-21 -28 -51 -28q-27 0 -40 16q-14 16 -14 42v374q0 25 15 42q15 16 42 16t42 -16q14 -17 14 -42v-255l212 280q23 33 55 33q27 0 41 -16q13 -16 13 -42v-374q0 -26 -14 -42q-15 -16 -43 -16q-27 0 -41 16q-15 16 -15 42v253zM278 548q-52 0 -89 21
t-55 52q-9 16 -7 33t15 26q32 21 62 -16q34 -41 74 -41q24 0 41 11q16 10 34 31q29 36 62 15q28 -19 6 -58q-44 -74 -143 -74z" />
    <glyph glyph-name="afii10076" unicode="&#x43a;" horiz-adv-x="463" 
d="M60 432q0 25 15 42q14 16 40 16q27 0 42 -16q14 -17 14 -42v-164l170 193q45 51 84 14q15 -15 13 -36t-21 -41l-142 -151l159 -149q19 -18 22 -40q2 -23 -13 -39q-39 -42 -87 8l-185 188v-157q0 -25 -14 -41q-15 -17 -42 -17t-41 17q-14 16 -14 41v374z" />
    <glyph glyph-name="afii10077" unicode="&#x43b;" horiz-adv-x="504" 
d="M332 390h-120q-6 -190 -36 -285q-33 -108 -126 -108q-30 0 -49 14t-18 42q1 46 49 46q34 0 47 46q21 74 30 287q1 29 18 44q17 14 41 14h220q27 0 42 -17t15 -41v-374q0 -25 -15 -41q-15 -17 -42 -17t-41 17q-15 16 -15 41v332z" />
    <glyph glyph-name="afii10078" unicode="&#x43c;" horiz-adv-x="611" 
d="M60 431q0 59 50 59q33 0 58 -36l134 -191l144 194q23 33 56 33q49 0 49 -59v-373q0 -26 -14 -42t-41 -16t-40 17q-14 16 -14 41v250l-78 -107q-32 -43 -65 -43q-34 0 -65 41l-73 101v-242q0 -58 -51 -58q-50 0 -50 58v373z" />
    <glyph glyph-name="afii10079" unicode="&#x43d;" horiz-adv-x="550" 
d="M377 203h-204v-145q0 -25 -15 -41q-15 -17 -42 -17t-41 17q-15 16 -15 41v374q0 25 15 42q14 16 41 16t42 -16q15 -17 15 -42v-129h204v129q0 25 15 42q14 16 41 16t42 -16q15 -17 15 -42v-374q0 -25 -15 -41q-15 -17 -42 -17t-41 17q-15 16 -15 41v145z" />
    <glyph glyph-name="afii10080" unicode="&#x43e;" horiz-adv-x="549" 
d="M35 245q0 113 63 184t176 71t177 -71q63 -72 63 -184t-63 -183q-64 -72 -177 -72t-176 71t-63 184zM151 245q0 -71 32 -115t91 -44q60 0 92 44t32 115t-32 115t-92 44q-59 0 -91 -44q-32 -45 -32 -115z" />
    <glyph glyph-name="afii10081" unicode="&#x43f;" horiz-adv-x="538" 
d="M365 390h-192v-332q0 -25 -15 -41q-15 -17 -42 -17t-41 17q-15 16 -15 41v374q0 24 15 41t41 17h305q27 0 42 -17t15 -41v-374q0 -25 -15 -41q-15 -17 -42 -17t-41 17q-15 16 -15 41v332z" />
    <glyph glyph-name="afii10082" unicode="&#x440;" horiz-adv-x="544" 
d="M60 432q0 25 15 42q14 16 41 16t42 -16q15 -17 15 -42v-8q45 76 146 76q92 0 141 -65q49 -66 49 -175q0 -122 -56 -196q-57 -74 -169 -74q-64 0 -111 19v-151q0 -25 -15 -42q-15 -16 -42 -16t-41 16q-15 17 -15 42v574zM296 404q-123 0 -123 -217v-78q40 -23 99 -23
q121 0 121 176q0 142 -97 142z" />
    <glyph glyph-name="afii10083" unicode="&#x441;" horiz-adv-x="461" 
d="M420 36q-58 -46 -155 -46q-108 0 -169 66t-61 185q0 120 64 190q63 69 173 69q85 0 129 -28q43 -27 25 -67q-17 -36 -66 -21q-51 15 -85 15q-58 0 -91 -42t-33 -116q0 -70 35 -110q34 -40 90 -40q40 0 96 28q48 23 68 -10q23 -38 -20 -73z" />
    <glyph glyph-name="afii10084" unicode="&#x442;" horiz-adv-x="439" 
d="M389 490q54 0 54 -51q0 -49 -54 -49h-111v-331q0 -26 -15 -42q-16 -17 -44 -17q-27 0 -43 17q-16 16 -16 42v331h-111q-53 0 -53 49q0 51 53 51h340z" />
    <glyph glyph-name="afii10085" unicode="&#x443;" horiz-adv-x="465" 
d="M40 401q-12 23 -6 49q6 25 32 35q55 21 79 -41l117 -310l103 306q21 65 74 46q45 -15 22 -78l-156 -413q-44 -118 -84 -162q-41 -43 -106 -43q-48 0 -81 18q-50 28 -31 70q15 33 59 20q38 -12 54 -12q32 0 52 28q20 29 42 86z" />
    <glyph glyph-name="afii10086" unicode="&#x444;" horiz-adv-x="674" 
d="M296 414h-18q-67 0 -102 -44q-36 -45 -36 -125t36 -125t102 -45h18v339zM376 75h19q66 0 102 45t36 125t-35 125q-36 44 -103 44h-19v-339zM282 500v132q0 25 14 42q14 16 40 16q27 0 41 -16q13 -16 13 -42v-132h10q110 0 176 -67q65 -67 65 -188t-65 -188
q-66 -67 -176 -67h-10v-132q0 -26 -13 -42q-14 -16 -41 -16t-40 16q-14 17 -14 42v132h-9q-110 0 -175 67t-65 188q0 122 65 189q65 66 175 66h9z" />
    <glyph glyph-name="afii10087" unicode="&#x445;" horiz-adv-x="464" 
d="M242 325l105 134q15 22 36 29q20 6 42 -10q34 -29 -5 -78l-115 -142l134 -163q17 -21 17 -43q0 -23 -19 -39q-44 -36 -85 18l-119 149l-113 -149q-41 -54 -83 -17q-16 17 -13 38q3 20 19 40l129 156l-115 143q-41 51 0 86q23 17 46 11t40 -30z" />
    <glyph glyph-name="afii10088" unicode="&#x446;" horiz-adv-x="569" 
d="M364 432q0 25 15 42q14 16 41 16t42 -16q15 -17 15 -42v-332h19q24 0 36 -15t12 -37v-110q0 -54 -48 -54q-24 0 -36 15q-13 15 -13 39v62h-331q-26 0 -41 17t-15 41v374q0 25 15 42q14 16 41 16t42 -16q15 -17 15 -42v-332h191v332z" />
    <glyph glyph-name="afii10089" unicode="&#x447;" horiz-adv-x="478" 
d="M305 182q-51 -31 -112 -31q-85 0 -126 43q-42 43 -42 151v87q0 25 15 42q14 16 41 16t42 -16q15 -17 15 -42v-70q0 -58 16 -86q15 -29 59 -29q52 0 92 28v157q0 25 15 42q14 16 41 16t42 -16q15 -17 15 -42v-374q0 -25 -15 -41q-15 -17 -42 -17t-41 17q-15 16 -15 41v124
z" />
    <glyph glyph-name="afii10090" unicode="&#x448;" horiz-adv-x="743" 
d="M60 432q0 25 15 42q14 16 40 16q27 0 42 -16q14 -17 14 -42v-336h145v336q0 25 15 42q14 16 40 16q27 0 42 -16q14 -17 14 -42v-336h145v336q0 25 15 42q14 16 40 16q27 0 42 -16q14 -17 14 -42v-373q0 -26 -15 -42q-15 -17 -43 -17h-509q-27 0 -41 16q-15 16 -15 43v373
z" />
    <glyph glyph-name="afii10091" unicode="&#x449;" horiz-adv-x="775" 
d="M116 0q-27 0 -41 16q-15 16 -15 43v373q0 25 15 42q14 16 40 16q27 0 42 -16q14 -17 14 -42v-336h145v336q0 25 15 42q14 16 40 16q27 0 42 -16q14 -17 14 -42v-336h145v336q0 25 15 42q14 16 40 16q27 0 42 -16q14 -17 14 -42v-336h19q24 0 36 -15t12 -37v-106
q0 -54 -48 -54q-24 0 -36 15q-13 15 -13 39v62h-537z" />
    <glyph glyph-name="afii10092" unicode="&#x44a;" horiz-adv-x="536" 
d="M118 390h-69q-53 0 -53 49q0 51 53 51h125q25 0 41 -15q16 -16 16 -43v-108q38 6 78 6q97 0 147 -42q49 -42 49 -122q0 -171 -238 -171q-66 0 -102 9q-47 12 -47 65v321zM286 88q105 0 105 79q0 40 -24 58t-73 18q-23 0 -63 -5v-147q24 -3 55 -3z" />
    <glyph glyph-name="afii10093" unicode="&#x44b;" horiz-adv-x="653" 
d="M226 88q95 0 95 79q0 39 -20 58q-20 18 -67 18q-21 0 -61 -5v-147q24 -3 53 -3zM60 433q0 27 16 42t40 15q25 0 41 -15q16 -16 16 -43v-108q38 6 76 6q186 0 186 -164q0 -39 -12 -69q-13 -30 -34 -49t-51 -31t-62 -17t-69 -5q-64 0 -100 9q-47 12 -47 65v364zM480 432
q0 25 15 42q14 16 41 16t42 -16q15 -17 15 -42v-374q0 -25 -15 -41q-15 -17 -42 -17t-41 17q-15 16 -15 41v374z" />
    <glyph glyph-name="afii10094" unicode="&#x44c;" horiz-adv-x="478" 
d="M228 88q105 0 105 79q0 40 -24 58t-73 18q-23 0 -63 -5v-147q24 -3 55 -3zM60 433q0 27 16 42t40 15q25 0 41 -15q16 -16 16 -43v-108q38 6 78 6q97 0 147 -42q49 -42 49 -122q0 -171 -238 -171q-66 0 -102 9q-47 12 -47 65v364z" />
    <glyph glyph-name="afii10095" unicode="&#x44d;" horiz-adv-x="483" 
d="M343 288q-5 54 -35 85q-31 31 -86 31q-45 0 -96 -19q-49 -18 -66 15q-9 19 -2 37q7 17 27 29q58 34 154 34q107 0 166 -69q58 -70 58 -182q0 -119 -62 -189t-177 -70q-102 0 -151 33q-39 25 -24 64q14 36 63 20q61 -21 105 -21q58 0 91 33q32 32 35 89h-170q-49 0 -49 40
t49 40h170z" />
    <glyph glyph-name="afii10096" unicode="&#x44e;" horiz-adv-x="730" 
d="M60 432q0 25 15 42q14 16 40 16q27 0 42 -16q14 -17 14 -42v-136h72q12 93 69 149q56 55 155 55q112 0 170 -70q58 -71 58 -185t-58 -184q-58 -71 -170 -71q-100 0 -157 58q-58 57 -68 152h-71v-142q0 -25 -14 -41q-15 -17 -42 -17t-41 17q-14 16 -14 41v374zM351 245
q0 -72 29 -115q28 -44 86 -44t86 43t28 116q0 72 -28 116q-28 43 -86 43t-86 -43q-29 -44 -29 -116z" />
    <glyph glyph-name="afii10097" unicode="&#x44f;" horiz-adv-x="495" 
d="M323 162q-41 -4 -79 0l-81 -122q-19 -29 -44 -37t-52 11q-15 13 -16 35t16 45l69 90q-77 38 -77 144q0 28 9 54q8 25 29 53q21 27 66 43t110 16q72 0 114 -10q28 -6 39 -22q10 -17 10 -45v-359q0 -25 -15 -41q-15 -17 -42 -17t-41 17q-15 16 -15 41v104zM272 393
q-99 0 -99 -76q0 -70 87 -73q29 -2 63 2v143q-30 4 -51 4z" />
    <glyph glyph-name="afii10071" unicode="&#x451;" horiz-adv-x="506" 
d="M147 204q2 -57 37 -90t93 -33q44 0 106 26q44 18 62 -14q9 -15 4 -33q-6 -19 -25 -31q-58 -39 -158 -39q-112 0 -171 66q-60 66 -60 187q0 117 63 187t170 70q96 0 151 -54q54 -55 54 -145q0 -29 -5 -47q-7 -26 -22 -38t-44 -12h-255zM268 409q-53 0 -84 -32
q-32 -33 -37 -94h221q1 10 1 25q0 45 -25 73q-26 28 -76 28zM109 618q0 28 17 45q16 16 46 16q29 0 46 -17t17 -44q0 -28 -17 -44q-17 -17 -46 -17q-30 0 -46 16q-17 16 -17 45zM300 618q0 28 17 45q16 16 45 16t46 -17t17 -44q0 -28 -17 -44q-17 -17 -46 -17q-30 0 -46 16
t-16 45z" />
    <glyph glyph-name="afii10099" unicode="&#x452;" horiz-adv-x="590" 
d="M211 421v-133q22 41 62 62q39 21 86 21q93 0 132 -54q39 -55 39 -160v-182q0 -185 -158 -185q-56 0 -89 20q-39 23 -29 65q4 18 20 26q15 8 34 4q47 -9 51 -9q35 0 47 19q11 20 11 65v178q0 113 -85 113q-35 0 -59 -16q-25 -17 -37 -47q-13 -31 -18 -66q-6 -35 -7 -81v-4
q0 -25 -15 -41t-42 -16t-41 17q-15 16 -15 41v363h-61q-41 0 -41 34q0 35 41 35h61v142q0 25 15 42q14 16 41 16t42 -16q15 -17 15 -42v-142h129q42 0 42 -35q0 -34 -42 -34h-129z" />
    <glyph glyph-name="afii10100" unicode="&#x453;" horiz-adv-x="390" 
d="M340 490q54 0 54 -51q0 -49 -54 -49h-167v-332q0 -25 -15 -41q-15 -17 -42 -17t-41 17q-15 16 -15 41v374q0 24 15 41t41 17h224zM340 636q45 31 24 66q-22 33 -65 5l-120 -78q-47 -31 -21 -67q23 -33 66 -2z" />
    <glyph glyph-name="afii10101" unicode="&#x454;" horiz-adv-x="469" 
d="M420 37q-59 -47 -155 -47q-108 0 -169 66t-61 185q0 120 64 190q63 69 173 69q81 0 129 -28q44 -26 25 -67q-17 -36 -66 -21q-51 15 -85 15q-49 0 -81 -30q-33 -31 -40 -85h174q46 0 46 -38q0 -37 -46 -37h-175q6 -56 40 -87q33 -31 83 -31q40 0 96 28q48 23 68 -10
q23 -37 -20 -72z" />
    <glyph glyph-name="afii10102" unicode="&#x455;" horiz-adv-x="433" 
d="M238 500q86 0 143 -33q46 -26 28 -66q-16 -34 -63 -19q-69 27 -104 27q-67 0 -67 -45q0 -25 26 -41q26 -17 63 -28q37 -12 74 -27t63 -47t26 -79q0 -73 -49 -112q-50 -40 -149 -40q-98 0 -156 38q-42 30 -23 69q18 37 73 12q63 -28 116 -28q74 0 74 51q0 26 -26 43
q-26 16 -63 28t-74 27t-63 48t-26 82q0 68 48 104t129 36z" />
    <glyph glyph-name="afii10103" unicode="&#x456;" horiz-adv-x="233" 
d="M60 432q0 25 15 42q14 16 41 16t42 -16q15 -17 15 -42v-374q0 -25 -15 -41q-15 -17 -42 -17t-41 17q-15 16 -15 41v374zM51 619q0 28 18 45q17 16 47 16t48 -16q18 -17 18 -45q0 -29 -18 -45t-48 -16t-47 16q-18 15 -18 45z" />
    <glyph glyph-name="afii10104" unicode="&#x457;" horiz-adv-x="233" 
d="M-41 618q0 28 16 45q17 16 47 16q29 0 46 -17t17 -44q0 -28 -17 -44q-17 -17 -46 -17q-30 0 -47 16q-16 16 -16 45zM150 618q0 28 17 45q16 16 45 16t46 -17t17 -44q0 -28 -17 -44q-17 -17 -46 -17q-30 0 -46 16t-16 45zM60 432q0 25 15 42q14 16 41 16t42 -16
q15 -17 15 -42v-374q0 -25 -15 -41q-15 -17 -42 -17t-41 17q-15 16 -15 41v374z" />
    <glyph glyph-name="afii10105" unicode="&#x458;" horiz-adv-x="237" 
d="M78 432q0 24 15 41t42 17t42 -16q14 -17 14 -42v-466q0 -176 -155 -176q-65 0 -103 19q-46 22 -32 66q11 35 57 26q44 -10 61 -10q35 0 47 21t12 65v455zM69 619q0 28 18 45q17 16 47 16t48 -16q18 -17 18 -45q0 -29 -18 -45t-48 -16t-47 16q-18 15 -18 45z" />
    <glyph glyph-name="afii10106" unicode="&#x459;" horiz-adv-x="745" 
d="M330 390h-116q-6 -186 -37 -285q-33 -108 -127 -108q-31 0 -49 14q-19 14 -18 42q3 46 49 46q35 0 48 46q22 78 31 287q1 29 18 44q17 14 41 14h216q27 0 42 -17t15 -41v-108q38 6 76 6q97 0 147 -42q49 -42 49 -122q0 -171 -238 -171q-64 0 -100 9q-47 12 -47 65v321z
M496 88q105 0 105 79q0 40 -24 58t-73 18q-21 0 -61 -5v-147q24 -3 53 -3z" />
    <glyph glyph-name="afii10107" unicode="&#x45a;" horiz-adv-x="791" 
d="M376 203h-203v-145q0 -25 -15 -41q-15 -17 -42 -17t-41 17q-15 16 -15 41v374q0 25 15 42q14 16 41 16t42 -16q15 -17 15 -42v-129h203v130q0 27 16 42t40 15q25 0 41 -15q16 -16 16 -43v-108q38 6 76 6q97 0 146 -42t49 -122q0 -171 -237 -171q-64 0 -100 9
q-47 12 -47 65v134zM542 88q104 0 104 79q0 40 -23 58q-24 18 -73 18q-21 0 -61 -5v-147q24 -3 53 -3z" />
    <glyph glyph-name="afii10108" unicode="&#x45b;" horiz-adv-x="590" 
d="M211 421v-133q22 41 62 62q39 21 86 21q93 0 132 -54t39 -160v-99q0 -25 -15 -41q-15 -17 -42 -17t-41 17q-15 16 -15 41v101q0 112 -85 112q-35 0 -59 -16q-25 -17 -37 -47q-13 -31 -18 -66q-6 -35 -7 -81v-4q0 -25 -15 -41t-42 -16t-41 17q-15 16 -15 41v363h-61
q-41 0 -41 34q0 35 41 35h61v142q0 25 15 42q14 16 41 16t42 -16q15 -17 15 -42v-142h129q42 0 42 -35q0 -34 -42 -34h-129z" />
    <glyph glyph-name="afii10109" unicode="&#x45c;" horiz-adv-x="463" 
d="M60 432q0 25 15 42q14 16 40 16q27 0 42 -16q14 -17 14 -42v-164l170 193q45 51 84 14q15 -15 13 -36t-21 -41l-142 -151l159 -149q19 -18 22 -40q2 -23 -13 -39q-39 -42 -87 8l-185 188v-157q0 -25 -14 -41q-15 -17 -42 -17t-41 17q-14 16 -14 41v374zM254 560
q-43 -31 -66 2q-26 36 21 67l120 78q43 28 65 -5q21 -35 -24 -66z" />
    <glyph glyph-name="afii10110" unicode="&#x45e;" horiz-adv-x="465" 
d="M40 401q-12 23 -6 49q6 25 32 35q55 21 79 -41l117 -310l103 306q21 65 74 46q45 -15 22 -78l-156 -413q-44 -118 -84 -162q-41 -43 -106 -43q-48 0 -81 18q-50 28 -31 70q15 33 59 20q38 -12 54 -12q32 0 52 28q20 29 42 86zM254 548q-52 0 -89 21t-55 52q-9 16 -7 33
t15 26q32 21 62 -16q34 -41 74 -41q24 0 41 11q16 10 34 31q29 36 62 15q28 -19 6 -58q-44 -74 -143 -74z" />
    <glyph glyph-name="afii10193" unicode="&#x45f;" horiz-adv-x="538" 
d="M365 432q0 25 15 42q14 16 41 16t42 -16q15 -17 15 -42v-374q0 -24 -15 -41t-42 -17h-104v-62q0 -54 -48 -54q-24 0 -36 15q-13 15 -13 39v62h-104q-26 0 -41 17t-15 41v374q0 25 15 42q14 16 41 16t42 -16q15 -17 15 -42v-332h192v332z" />
    <glyph glyph-name="afii10146" unicode="&#x462;" horiz-adv-x="679" 
d="M51 492q-55 0 -55 48t55 48h117v41q0 27 16 44q15 17 44 17q28 0 44 -17t16 -44v-41h137q56 0 56 -48t-56 -48h-137v-59q40 8 92 8q127 0 195 -51t68 -172q0 -109 -72 -166t-192 -57q-99 0 -155 12q-56 13 -56 69v416h-117zM369 334q-37 0 -81 -6v-220q43 -6 88 -6
q141 0 141 118q0 64 -39 89q-40 25 -109 25z" />
    <glyph glyph-name="afii10194" unicode="&#x463;" horiz-adv-x="541" 
d="M324 490q53 0 53 -48q0 -46 -53 -46h-93v-72q38 6 78 6q97 0 147 -42q49 -42 49 -122q0 -171 -238 -171q-66 0 -102 9q-47 12 -47 65v327h-69q-53 0 -53 46q0 48 53 48h69v142q0 25 15 42q14 16 41 16t42 -16q15 -17 15 -42v-142h93zM286 88q105 0 105 79q0 40 -24 58
t-73 18q-23 0 -63 -5v-147q24 -3 55 -3z" />
    <glyph glyph-name="afii10147" unicode="&#x472;" horiz-adv-x="747" 
d="M45 345q0 155 86 255q85 100 242 100t243 -100t86 -255q0 -156 -86 -255q-86 -100 -243 -100t-242 100q-86 99 -86 255zM373 97q87 0 140 56q52 56 60 146h-400q8 -90 61 -146q52 -56 139 -56zM373 593q-84 0 -136 -53q-53 -54 -62 -139h397q-10 86 -62 139t-137 53z" />
    <glyph glyph-name="afii10195" unicode="&#x473;" horiz-adv-x="549" 
d="M35 245q0 113 63 184t176 71t177 -71q63 -72 63 -184t-63 -183q-64 -72 -177 -72t-176 71t-63 184zM274 86q53 0 86 32q32 32 37 86h-245q5 -53 38 -85q32 -33 84 -33zM274 404q-51 0 -83 -31q-33 -32 -39 -83h244q-5 51 -37 83q-33 31 -85 31z" />
    <glyph glyph-name="afii10148" unicode="&#x474;" horiz-adv-x="646" 
d="M367 36q-17 -46 -60 -46q-41 0 -59 42l-225 550q-15 30 -10 61t36 42q57 21 88 -60l178 -455l143 385q31 83 67 114t90 31q51 0 82 -25q30 -25 17 -61q-12 -33 -46 -28q-4 0 -19 4q-15 3 -27 3q-25 0 -41 -22t-38 -81z" />
    <glyph glyph-name="afii10196" unicode="&#x475;" horiz-adv-x="497" 
d="M293 46q-8 -19 -13 -28q-6 -10 -18 -19t-29 -9q-39 0 -62 54l-152 345q-7 16 -9 33q-3 16 3 35q6 18 24 26q58 25 88 -54l113 -276l85 218q23 59 52 91t78 32q53 0 79 -29q21 -23 10 -50q-12 -32 -45 -24q-2 0 -12 3q-11 3 -19 3q-18 0 -29 -15q-12 -16 -32 -61z" />
    <glyph glyph-name="afii10050" unicode="&#x490;" horiz-adv-x="489" 
d="M380 690v60q0 25 13 41t39 16t39 -16t13 -41v-113q0 -25 -15 -39q-16 -15 -44 -15h-230v-522q0 -27 -16 -44t-44 -17q-29 0 -44 17q-16 17 -16 44v567q0 26 16 44q15 18 42 18h247z" />
    <glyph glyph-name="afii10098" unicode="&#x491;" horiz-adv-x="383" 
d="M60 431q0 25 16 42t43 17h173v51q0 53 48 53q47 0 47 -53v-98q0 -25 -14 -39q-15 -14 -42 -14h-153v-331q0 -26 -16 -42q-16 -17 -43 -17t-43 17q-16 16 -16 42v372z" />
    <glyph glyph-name="uni0492" unicode="&#x492;" horiz-adv-x="512" 
d="M92 325h-50q-41 0 -41 39q0 40 41 40h50v224q0 27 16 45q15 17 44 17h297q26 0 42 -14q15 -15 15 -40q0 -24 -15 -38q-16 -15 -42 -15h-237v-179h198q41 0 41 -40q0 -39 -41 -39h-198v-264q0 -27 -16 -44t-44 -17q-29 0 -44 17q-16 17 -16 44v264z" />
    <glyph glyph-name="uni0493" unicode="&#x493;" horiz-adv-x="406" 
d="M356 490q54 0 54 -51q0 -49 -54 -49h-167v-119h143q42 0 42 -37q0 -36 -42 -36h-143v-140q0 -25 -15 -41q-15 -17 -42 -17t-41 17q-15 16 -15 41v140h-39q-41 0 -41 36q0 37 41 37h39v161q0 24 15 41t41 17h224z" />
    <glyph glyph-name="uni0494" unicode="&#x494;" horiz-adv-x="597" 
d="M343 -4q97 0 97 143q0 65 -38 100q-39 35 -106 35q-56 0 -101 -10v-200q0 -27 -16 -45q-16 -19 -44 -19q-29 0 -44 17q-16 17 -16 44v567q0 26 16 44q15 18 42 18h299q26 0 42 -14q15 -15 15 -40q0 -24 -15 -38q-16 -15 -42 -15h-237v-214q55 12 112 12q122 0 191 -58
q68 -58 68 -177q0 -116 -53 -185q-54 -68 -163 -68q-64 0 -104 22q-17 9 -26 27q-9 19 -2 39q13 36 55 27q54 -12 70 -12z" />
    <glyph glyph-name="uni0495" unicode="&#x495;" horiz-adv-x="515" 
d="M254 163q-36 0 -76 -10v-96q0 -25 -15 -41q-16 -16 -44 -16q-27 0 -43 17q-16 16 -16 42v372q0 25 16 42t43 17h222q54 0 54 -51q0 -50 -54 -50h-163v-141q46 14 95 14q211 0 211 -229q0 -49 -9 -90q-9 -40 -29 -76q-21 -36 -59 -57q-39 -20 -93 -20q-55 0 -90 16
q-52 24 -36 70q12 38 58 26q40 -11 63 -11q81 0 81 141q0 71 -27 101q-28 30 -89 30z" />
    <glyph glyph-name="uni0496" unicode="&#x496;" horiz-adv-x="896" 
d="M854 107q27 0 42 -15q14 -16 14 -42v-135q0 -27 -14 -44t-42 -17t-42 17q-15 17 -15 44v85h-16q-26 0 -52 29l-250 295v-263q0 -27 -14 -44t-42 -17q-56 0 -56 61v262l-246 -289q-52 -59 -96 -15q-18 21 -15 44q3 22 21 42l228 245l-202 238q-18 20 -20 44q-3 24 15 43
q20 20 46 14q25 -6 47 -35l222 -281v255q0 27 14 45q14 17 42 17t42 -17q14 -18 14 -45v-258l224 283q47 61 90 22q36 -33 -5 -84l-200 -237l225 -247h41z" />
    <glyph glyph-name="uni0497" unicode="&#x497;" horiz-adv-x="668" 
d="M648 100q24 0 36 -15t12 -37v-110q0 -54 -48 -54q-24 0 -36 15q-13 15 -13 39v62h-7q-26 0 -47 25l-171 193v-160q0 -58 -49 -58t-49 58v160l-169 -191q-21 -23 -43 -26q-23 -3 -43 18q-14 16 -10 38q3 21 22 41l145 151l-134 151q-36 43 -4 75q17 18 39 14t42 -29
l155 -192v164q0 58 49 58t49 -58v-165l155 192q20 25 43 29q22 3 37 -14q30 -30 -7 -74l-129 -148l140 -152h35z" />
    <glyph glyph-name="uni0498" unicode="&#x498;" horiz-adv-x="580" 
d="M275 97q68 0 106 28t38 81q0 96 -144 99h-75q-22 0 -35 13q-14 12 -14 34q0 21 14 34q13 13 35 13h62q64 0 100 26q35 26 35 76q0 42 -29 67q-30 25 -89 25q-52 0 -125 -25q-62 -21 -79 14q-11 22 -2 43q9 20 35 34q76 41 183 41t170 -46q62 -47 62 -135q0 -49 -26 -91
q-26 -43 -77 -63q60 -16 93 -57q32 -41 32 -99q0 -95 -54 -147q-55 -53 -145 -67v-80q0 -27 -14 -44t-42 -17t-42 17q-15 17 -15 44v77q-88 6 -141 35q-26 14 -36 35t0 47q18 40 85 15q71 -27 134 -27z" />
    <glyph glyph-name="uni0499" unicode="&#x499;" horiz-adv-x="451" 
d="M227 404q-39 0 -97 -22q-49 -18 -66 15q-18 40 25 66q60 37 152 37q85 0 130 -36q44 -37 44 -96q0 -38 -22 -69q-22 -32 -58 -43q42 -9 67 -38q25 -30 25 -74q0 -61 -37 -100q-37 -40 -108 -50v-56q0 -54 -48 -54q-24 0 -36 15q-13 15 -13 39v54q-72 7 -110 30
q-40 25 -24 65q14 35 61 20q69 -21 111 -21q90 0 90 63q0 62 -99 62h-40q-48 0 -48 38q0 39 48 39h36q91 0 91 61q0 55 -74 55z" />
    <glyph glyph-name="uni049A" unicode="&#x49a;" horiz-adv-x="624" 
d="M579 107q27 0 42 -15q14 -16 14 -42v-135q0 -27 -14 -44t-42 -17t-42 17q-15 17 -15 44v85h-16q-24 0 -54 32l-257 283v-254q0 -27 -16 -44t-44 -17q-29 0 -44 17q-16 17 -16 44v567q0 27 16 45q15 17 44 17q28 0 44 -17q16 -18 16 -45v-252l245 281q48 55 89 18
q20 -20 17 -44q-4 -24 -24 -45l-215 -230l236 -249h36z" />
    <glyph glyph-name="uni049B" unicode="&#x49b;" horiz-adv-x="482" 
d="M459 100q24 0 36 -15t12 -37v-110q0 -54 -48 -54q-24 0 -36 15q-13 15 -13 39v62h-10q-17 0 -44 27l-185 188v-157q0 -25 -14 -41q-15 -17 -42 -17t-41 17q-14 16 -14 41v374q0 25 15 42q14 16 40 16q27 0 42 -16q14 -17 14 -42v-164l170 193q45 51 84 14q15 -15 13 -36
t-21 -41l-142 -151l157 -147h27z" />
    <glyph glyph-name="uni049C" unicode="&#x49c;" horiz-adv-x="641" 
d="M236 299h-41v-238q0 -27 -16 -44t-44 -17q-29 0 -44 17q-16 17 -16 44v567q0 27 16 45q15 17 44 17q28 0 44 -17q16 -18 16 -45v-241h41v79q0 42 35 42q37 0 37 -42v-79h30l165 261q39 61 84 32q43 -28 4 -86l-160 -237l186 -257q19 -29 17 -52t-19 -35q-49 -35 -87 21
l-184 265h-36v-105q0 -42 -37 -42q-35 0 -35 42v105z" />
    <glyph glyph-name="uni049D" unicode="&#x49d;" horiz-adv-x="515" 
d="M60 432q0 25 15 42q14 16 40 16q27 0 42 -16q14 -17 14 -42v-150h33v79q0 33 29 33t29 -33v-79h23l116 175q35 52 73 23q33 -25 4 -69l-108 -159l126 -165q12 -16 13 -38q0 -22 -18 -38q-42 -28 -82 26l-121 165h-26v-74q0 -34 -29 -34t-29 34v74h-33v-144q0 -25 -14 -41
q-15 -17 -42 -17t-41 17q-14 16 -14 41v374z" />
    <glyph glyph-name="uni04A0" unicode="&#x4a0;" horiz-adv-x="664" 
d="M168 583h-115q-26 0 -41 15q-16 14 -16 38q0 25 16 40q15 14 41 14h175q28 0 44 -17q16 -18 16 -45v-252l245 281q48 55 89 18q20 -20 17 -44q-4 -24 -24 -45l-215 -230l230 -241q23 -24 27 -49q4 -26 -15 -47q-44 -43 -97 14l-257 282v-254q0 -27 -16 -44t-44 -17
q-29 0 -44 17q-16 17 -16 44v522z" />
    <glyph glyph-name="uni04A1" unicode="&#x4a1;" horiz-adv-x="521" 
d="M119 390h-70q-53 0 -53 49q0 51 53 51h125q27 0 42 -16q14 -17 14 -42v-164l171 193q45 51 83 14q15 -15 13 -36t-21 -41l-142 -151l159 -149q19 -18 22 -40q2 -23 -13 -39q-39 -42 -87 8l-185 188v-157q0 -25 -14 -41q-15 -17 -42 -17t-41 17q-14 16 -14 41v332z" />
    <glyph glyph-name="uni04A2" unicode="&#x4a2;" horiz-adv-x="757" 
d="M513 299h-318v-238q0 -27 -16 -44t-44 -17q-29 0 -44 17q-16 17 -16 44v567q0 27 16 45q15 17 44 17q28 0 44 -17q16 -18 16 -45v-222h318v222q0 27 16 45q15 17 44 17q28 0 44 -17q16 -18 16 -45v-521h35q26 0 40 -16q14 -17 14 -43v-133q0 -27 -14 -44t-42 -17t-42 17
q-15 17 -15 44v85h-36q-29 0 -44 17q-16 17 -16 44v238z" />
    <glyph glyph-name="uni04A3" unicode="&#x4a3;" horiz-adv-x="582" 
d="M377 203h-204v-145q0 -25 -15 -41q-15 -17 -42 -17t-41 17q-15 16 -15 41v374q0 25 15 42q14 16 41 16t42 -16q15 -17 15 -42v-129h204v129q0 25 15 42q14 16 41 16t42 -16q15 -17 15 -42v-332h19q24 0 36 -15t12 -37v-110q0 -54 -48 -54q-24 0 -36 15q-13 15 -13 39v62
h-27q-27 0 -41 17q-15 16 -15 41v145z" />
    <glyph glyph-name="uni04A4" unicode="&#x4a4;" horiz-adv-x="928" 
d="M511 299h-316v-238q0 -27 -16 -44t-44 -17q-29 0 -44 17q-16 17 -16 44v567q0 27 16 45q15 17 44 17q28 0 44 -17q16 -18 16 -45v-222h316v222q0 27 16 45q15 17 44 17h295q26 0 42 -14q15 -15 15 -40q0 -24 -15 -38q-16 -15 -42 -15h-235v-522q0 -27 -16 -44t-44 -17
q-29 0 -44 17q-16 17 -16 44v238z" />
    <glyph glyph-name="uni04A5" unicode="&#x4a5;" horiz-adv-x="703" 
d="M653 490q54 0 54 -51q0 -49 -54 -49h-165v-332q0 -25 -15 -41q-15 -17 -42 -17t-41 17q-15 16 -15 41v145h-202v-145q0 -25 -15 -41q-15 -17 -42 -17t-41 17q-15 16 -15 41v374q0 25 15 42q14 16 41 16t42 -16q15 -17 15 -42v-129h202v129q0 24 15 41t41 17h222z" />
    <glyph glyph-name="uni04AA" unicode="&#x4aa;" horiz-adv-x="634" 
d="M368 593q-92 0 -144 -67q-53 -68 -53 -180q0 -116 57 -182q56 -67 143 -67q69 0 142 43q51 29 76 -7q13 -17 8 -41q-6 -24 -31 -43q-64 -47 -158 -57v-77q0 -27 -14 -44t-42 -17t-42 17q-15 17 -15 44v80q-124 20 -187 112t-63 238q0 162 85 259q85 96 236 96
q119 0 185 -46q44 -30 24 -73q-17 -38 -76 -16q-73 28 -131 28z" />
    <glyph glyph-name="uni04AB" unicode="&#x4ab;" horiz-adv-x="461" 
d="M420 37q-43 -35 -111 -44v-55q0 -54 -48 -54q-24 0 -36 15q-13 15 -13 39v57q-84 15 -130 79q-47 64 -47 167q0 120 64 190q63 69 173 69q81 0 129 -28q44 -26 25 -67q-17 -36 -66 -21q-51 15 -85 15q-58 0 -91 -42t-33 -116q0 -70 35 -110q34 -40 90 -40q40 0 96 28
q48 23 68 -10q23 -37 -20 -72z" />
    <glyph glyph-name="uni04AE" unicode="&#x4ae;" horiz-adv-x="566" 
d="M267 299l-197 282q-42 65 6 99q30 17 53 7t41 -38l161 -242l156 242q17 26 38 36t51 -5q22 -18 22 -40q-1 -22 -17 -46l-194 -290v-242q0 -27 -16 -44t-44 -17q-29 0 -44 17q-16 17 -16 44v237z" />
    <glyph glyph-name="uni04AF" unicode="&#x4af;" horiz-adv-x="466" 
d="M295 33v-175q0 -25 -15 -42q-15 -16 -42 -16t-41 16q-15 17 -15 42v174l-153 368q-12 22 -6 49q5 26 31 36t47 -1q20 -12 30 -39l109 -298l111 296q22 62 74 42q48 -19 22 -77z" />
    <glyph glyph-name="uni04B0" unicode="&#x4b0;" horiz-adv-x="566" 
d="M226 215h-77q-54 0 -54 44q0 45 54 45h73l-191 274q-18 28 -19 55q-1 26 23 47q27 16 52 8q24 -9 43 -38l160 -246l156 245q17 26 38 36t51 -5q22 -15 22 -39q0 -25 -16 -48l-195 -289h76q56 0 56 -45q0 -44 -56 -44h-76v-153q0 -27 -16 -44t-44 -17q-29 0 -44 17
q-16 17 -16 44v153z" />
    <glyph glyph-name="uni04B1" unicode="&#x4b1;" horiz-adv-x="466" 
d="M307 69h71q42 0 42 -35q0 -34 -42 -34h-83v-142q0 -25 -15 -42q-15 -16 -42 -16t-41 16q-15 17 -15 42v142h-85q-41 0 -41 34q0 35 41 35h72l-140 331q-12 22 -6 49q5 26 31 36t47 -1q20 -12 30 -39l109 -300l111 298q22 62 74 42q48 -19 22 -77z" />
    <glyph glyph-name="uni04B2" unicode="&#x4b2;" horiz-adv-x="649" 
d="M305 442l154 212q39 56 84 24q41 -29 3 -83l-176 -233l192 -255h42q27 0 42 -15q14 -16 14 -42v-135q0 -27 -14 -44t-42 -17t-42 17q-15 17 -15 44v85h-16q-37 0 -58 31l-178 242l-168 -236q-40 -58 -86 -27q-21 18 -21 40t16 43l194 262l-177 232q-16 22 -16 48
q0 25 21 42q29 18 52 11q23 -8 40 -33z" />
    <glyph glyph-name="uni04B3" unicode="&#x4b3;" horiz-adv-x="482" 
d="M242 324l106 134q15 22 35 29q19 6 42 -10q34 -29 -5 -78l-115 -142l129 -157h33q24 0 36 -15t12 -37v-110q0 -54 -48 -54q-24 0 -36 15q-13 15 -13 39v62h-13q-28 0 -53 31l-119 148l-113 -149q-41 -54 -83 -17q-16 17 -13 38q3 20 19 40l129 156l-115 143q-41 51 0 86
q23 17 46 11t40 -30z" />
    <glyph glyph-name="uni04B6" unicode="&#x4b6;" horiz-adv-x="655" 
d="M411 628q0 27 16 45q15 17 44 17t45 -17q15 -18 15 -45v-521h35q26 0 40 -16q14 -17 14 -43v-133q0 -27 -14 -44t-42 -17t-42 17q-15 17 -15 44v85h-36q-29 0 -44 17q-16 17 -16 44v221q-70 -48 -160 -48q-108 0 -162 53q-54 52 -54 186v155q0 26 16 44t44 18
q29 0 45 -18q15 -18 15 -44v-149q0 -78 27 -109q27 -32 86 -32q69 0 143 51v239z" />
    <glyph glyph-name="uni04B7" unicode="&#x4b7;" horiz-adv-x="510" 
d="M305 182q-51 -31 -112 -31q-81 0 -124 45q-44 44 -44 149v87q0 25 15 42q14 16 41 16t42 -16q15 -17 15 -42v-70q0 -58 16 -86q15 -29 59 -29q52 0 92 28v157q0 25 15 42q14 16 41 16t42 -16q15 -17 15 -42v-332h19q24 0 36 -15t12 -37v-110q0 -54 -48 -54q-24 0 -36 15
q-13 15 -13 39v62h-27q-27 0 -41 17q-15 16 -15 41v124z" />
    <glyph glyph-name="uni04B8" unicode="&#x4b8;" horiz-adv-x="634" 
d="M255 234q-109 1 -164 54q-56 52 -56 184v156q0 26 16 44t44 18q29 0 45 -18q15 -18 15 -44v-154q0 -70 25 -102q24 -32 75 -37v101q0 18 10 30t29 12q40 0 40 -42v-93q63 18 105 55v230q0 27 16 45q15 17 44 17t45 -17q15 -18 15 -45v-567q0 -27 -15 -44q-16 -17 -45 -17
t-44 17q-16 17 -16 44v230q-41 -31 -105 -47v-80q0 -43 -40 -43q-19 0 -29 12t-10 31v70z" />
    <glyph glyph-name="uni04B9" unicode="&#x4b9;" horiz-adv-x="503" 
d="M210 151h-14q-83 0 -127 40q-44 39 -44 139v102q0 25 15 42q14 16 41 16t42 -16q15 -17 15 -42v-105q0 -44 17 -64t55 -21v78q0 35 31 35q30 0 30 -35v-69q34 12 59 35v146q0 25 15 42q14 16 41 16t42 -16q15 -17 15 -42v-374q0 -25 -15 -41q-15 -17 -42 -17t-41 17
q-15 16 -15 41v136q-25 -17 -59 -30v-64q0 -35 -30 -35q-31 0 -31 35v51z" />
    <glyph glyph-name="uni04BA" unicode="&#x4ba;" horiz-adv-x="606" 
d="M189 62q0 -27 -15 -44q-16 -18 -45 -18t-44 18q-16 17 -16 44v567q0 27 16 44q15 17 44 17t45 -17q15 -17 15 -44v-221q70 48 160 48q107 0 162 -52q54 -53 54 -187v-155q0 -26 -16 -44t-44 -18q-29 0 -44 18q-16 18 -16 44v149q0 78 -27 110q-27 31 -86 31
q-69 0 -143 -51v-239z" />
    <glyph glyph-name="uni04BB" unicode="&#x4bb;" horiz-adv-x="552" 
d="M60 632q0 25 15 42q14 16 41 16t42 -16q15 -17 15 -42v-215q22 41 62 62q39 21 86 21q93 0 132 -54t39 -160v-228q0 -25 -15 -41q-15 -17 -42 -17t-41 17q-15 16 -15 41v230q0 112 -85 112q-35 0 -59 -17q-25 -17 -37 -48q-13 -32 -18 -67q-6 -35 -7 -81v-129
q0 -25 -15 -41q-15 -17 -42 -17t-41 17q-15 16 -15 41v574z" />
    <glyph glyph-name="uni04C0" unicode="&#x4c0;" horiz-adv-x="270" 
d="M75 628q0 27 16 45q15 17 44 17q28 0 44 -17q16 -18 16 -45v-567q0 -27 -16 -44t-44 -17q-29 0 -44 17q-16 17 -16 44v567z" />
    <glyph glyph-name="uni04C3" unicode="&#x4c3;" horiz-adv-x="600" 
d="M75 628q0 27 16 45q15 17 44 17q28 0 44 -17q16 -18 16 -45v-245h55l204 270q43 59 89 23q19 -18 17 -41q-2 -24 -21 -47l-180 -219q97 -29 159 -111q61 -82 61 -192q0 -119 -58 -198q-59 -78 -171 -78q-66 0 -101 17q-23 12 -33 32q-10 21 -1 44q15 36 60 27
q53 -11 74 -11q114 0 114 163q0 97 -63 162q-64 65 -161 65h-44v-228q0 -27 -16 -44t-44 -17q-29 0 -44 17q-16 17 -16 44v567z" />
    <glyph glyph-name="uni04C4" unicode="&#x4c4;" horiz-adv-x="504" 
d="M62 432q0 25 14 42q14 16 40 16t40 -16q14 -17 14 -42v-154h49l127 178q37 52 77 23q37 -27 -2 -77l-107 -139q78 -22 122 -89q44 -68 44 -161q0 -98 -47 -161q-47 -62 -142 -62q-59 0 -94 17q-51 25 -35 69q14 37 60 25q37 -10 61 -10q83 0 83 124q0 68 -40 122
q-41 54 -111 55h-45v-134q0 -25 -13 -41q-14 -17 -41 -17t-40 17q-14 16 -14 41v374z" />
    <glyph glyph-name="uni04C7" unicode="&#x4c7;" horiz-adv-x="708" 
d="M513 299h-318v-238q0 -27 -16 -44t-44 -17q-29 0 -44 17q-16 17 -16 44v567q0 27 16 45q15 17 44 17q28 0 44 -17q16 -18 16 -45v-222h318v222q0 27 16 45q15 17 44 17q28 0 44 -17q16 -18 16 -45v-613q0 -112 -35 -169q-35 -56 -126 -56q-54 0 -88 15q-54 23 -41 71
q11 40 55 33q42 -10 58 -10q35 0 46 20t11 64v316z" />
    <glyph glyph-name="uni04C8" unicode="&#x4c8;" horiz-adv-x="550" 
d="M377 203h-204v-145q0 -25 -15 -41q-15 -17 -42 -17t-41 17q-15 16 -15 41v374q0 25 15 42q14 16 41 16t42 -16q15 -17 15 -42v-129h204v129q0 25 15 42q14 16 41 16t42 -16q15 -17 15 -42v-429q0 -106 -33 -160q-33 -53 -119 -53q-49 0 -81 13q-48 22 -37 67q4 17 18 25
t32 4q42 -8 52 -8q34 0 45 18q10 18 10 60v234z" />
    <glyph glyph-name="uni04D0" unicode="&#x4d0;" horiz-adv-x="611" 
d="M453 195h-257l-52 -141q-25 -72 -82 -49q-44 19 -20 82l225 564q19 49 61 49q40 0 58 -43l232 -569q11 -22 5 -48q-7 -26 -32 -35q-28 -10 -49 2q-22 11 -33 40zM228 289h191l-97 252zM327 734q-54 0 -96 19q-42 18 -62 45q-27 36 0 61q27 26 65 -10q39 -38 93 -38t92 37
q36 36 65 11q27 -23 -1 -61q-20 -28 -61 -46t-95 -18z" />
    <glyph glyph-name="uni04D1" unicode="&#x4d1;" horiz-adv-x="503" 
d="M335 76q-49 -86 -160 -86q-75 0 -117 40q-43 40 -43 107q0 85 62 125q61 39 153 39q63 0 105 -7v11q0 48 -21 75q-21 26 -81 26q-13 0 -25 -1t-24 -4q-13 -3 -21 -5l-24 -8q-16 -5 -24 -7q-18 -6 -34 0q-17 6 -23 23q-12 35 25 59q55 37 163 37q197 0 197 -186v-256
q0 -26 -13 -42q-14 -16 -41 -16t-40 17q-14 16 -14 41v18zM205 78q60 0 95 40q35 39 35 90v17q-32 5 -89 5q-120 0 -120 -84q0 -31 21 -49q21 -19 58 -19zM245 548q-52 0 -89 21t-55 52q-9 16 -7 33t15 26q32 21 62 -16q34 -41 74 -41q24 0 41 11q16 10 34 31q29 36 62 15
q28 -19 6 -58q-44 -74 -143 -74z" />
    <glyph glyph-name="uni04D2" unicode="&#x4d2;" horiz-adv-x="611" 
d="M453 195h-257l-52 -141q-25 -72 -82 -49q-44 19 -20 82l225 564q19 49 61 49q40 0 58 -43l232 -569q11 -22 5 -48q-7 -26 -32 -35q-28 -10 -49 2q-22 11 -33 40zM228 289h191l-97 252zM149 796q0 28 21 44q20 16 51 16q33 0 54 -16q20 -16 20 -44t-20 -43
q-21 -15 -54 -15q-32 0 -52 15t-20 43zM357 796q0 28 20 44t53 16q32 0 53 -16q20 -16 20 -44t-20 -43q-21 -15 -53 -15q-33 0 -53 15t-20 43z" />
    <glyph glyph-name="uni04D3" unicode="&#x4d3;" horiz-adv-x="503" 
d="M335 76q-49 -86 -160 -86q-75 0 -117 40q-43 40 -43 107q0 85 62 125q61 39 153 39q63 0 105 -7v11q0 48 -21 75q-21 26 -81 26q-13 0 -25 -1t-24 -4q-13 -3 -21 -5l-24 -8q-16 -5 -24 -7q-18 -6 -34 0q-17 6 -23 23q-12 35 25 59q55 37 163 37q197 0 197 -186v-256
q0 -26 -13 -42q-14 -16 -41 -16t-40 17q-14 16 -14 41v18zM205 78q60 0 95 40q35 39 35 90v17q-32 5 -89 5q-120 0 -120 -84q0 -31 21 -49q21 -19 58 -19zM85 618q0 28 17 45q16 16 46 16q29 0 46 -17t17 -44q0 -28 -17 -44q-17 -17 -46 -17q-30 0 -46 16q-17 16 -17 45z
M276 618q0 28 17 45q16 16 45 16t46 -17t17 -44q0 -28 -17 -44q-17 -17 -46 -17q-30 0 -46 16t-16 45z" />
    <glyph glyph-name="uni04D4" unicode="&#x4d4;" horiz-adv-x="872" 
d="M401 175h-201l-86 -133q-10 -16 -23 -27q-14 -12 -33 -15t-37 11q-21 19 -19 42q1 22 16 45l380 554q24 38 65 38h323q26 0 42 -14q15 -15 15 -40q0 -24 -15 -38q-16 -15 -42 -15h-271v-175h215q27 0 43 -14q15 -14 15 -39q0 -24 -15 -39q-16 -15 -43 -15h-215v-194h281
q26 0 42 -14q15 -15 15 -40q0 -24 -15 -38q-16 -15 -42 -15h-331q-28 0 -46 18t-18 45v112zM256 267h145v223z" />
    <glyph glyph-name="uni04D5" unicode="&#x4d5;" horiz-adv-x="788" 
d="M10 133q0 158 219 158h99v27q0 40 -24 64t-76 24q-15 0 -31 -2q-17 -2 -27 -4q-10 -3 -29 -8l-30 -9q-47 -11 -58 21q-14 43 40 68q63 28 148 28q123 0 152 -84q57 84 174 84q88 0 138 -51q50 -52 50 -130q0 -49 -15 -74q-16 -25 -64 -25h-247q4 -139 130 -139
q47 0 111 26q40 16 56 -15q10 -18 3 -36q-8 -19 -29 -32q-56 -34 -146 -34q-136 0 -189 112q-56 -112 -195 -112q-75 0 -117 39q-43 38 -43 104zM201 78q60 0 94 39q33 38 33 90v13h-88q-58 0 -88 -16q-31 -17 -31 -61q0 -31 22 -48t58 -17zM552 409q-50 0 -82 -30
q-33 -30 -38 -88h217q3 16 3 37q0 36 -25 59q-26 22 -75 22z" />
    <glyph glyph-name="uni04D6" unicode="&#x4d6;" horiz-adv-x="561" 
d="M75 628q0 27 16 45q16 17 45 17h338q26 0 42 -14q15 -15 15 -40q0 -24 -15 -38q-16 -15 -42 -15h-279v-175h223q27 0 43 -14q15 -14 15 -39q0 -24 -15 -39q-16 -15 -43 -15h-223v-194h289q26 0 42 -14q15 -15 15 -40q0 -24 -15 -38q-16 -15 -42 -15h-347q-29 0 -45 18
q-17 17 -17 44v566zM301 734q-54 0 -96 19q-42 18 -62 45q-27 36 0 61q27 26 65 -10q39 -38 93 -38t92 37q36 36 65 11q27 -23 -1 -61q-20 -28 -61 -46t-95 -18z" />
    <glyph glyph-name="uni04D7" unicode="&#x4d7;" horiz-adv-x="506" 
d="M147 204q2 -57 37 -90t93 -33q44 0 106 26q44 18 62 -14q9 -15 4 -33q-6 -19 -25 -31q-58 -39 -158 -39q-112 0 -171 66q-60 66 -60 187q0 117 63 187t170 70q96 0 151 -54q54 -55 54 -145q0 -29 -5 -47q-7 -26 -22 -38t-44 -12h-255zM268 409q-53 0 -84 -32
q-32 -33 -37 -94h221q1 10 1 25q0 45 -25 73q-26 28 -76 28zM264 548q-52 0 -89 21t-55 52q-9 16 -7 33t15 26q32 21 62 -16q34 -41 74 -41q24 0 41 11q16 10 34 31q29 36 62 15q28 -19 6 -58q-44 -74 -143 -74z" />
    <glyph glyph-name="uni04D8" unicode="&#x4d8;" horiz-adv-x="656" 
d="M312 593q-58 0 -141 -30q-60 -21 -77 14q-23 47 35 80q77 43 187 43q295 0 295 -354q0 -54 -8 -102q-9 -49 -29 -96q-21 -48 -53 -81q-33 -34 -84 -55t-116 -21q-140 0 -208 83q-68 82 -68 214q0 45 7 72q6 26 25 38q18 12 36 15q18 2 54 2h322q-5 84 -49 131t-128 47z
M324 95q164 0 166 220h-324q-4 -35 -1 -60q4 -76 47 -118q42 -42 112 -42z" />
    <glyph glyph-name="uni04D9" unicode="&#x4d9;" horiz-adv-x="497" 
d="M35 203q0 46 17 67t56 21h242q-6 118 -114 118q-44 0 -101 -20q-52 -18 -66 14q-19 43 33 69q55 28 139 28q111 0 166 -68q55 -69 55 -185q0 -117 -57 -187t-165 -70q-97 0 -151 57q-54 56 -54 156zM244 81q54 0 80 37q26 36 27 98h-212q-4 -135 105 -135z" />
    <glyph glyph-name="uni04DA" unicode="&#x4da;" horiz-adv-x="656" 
d="M312 593q-58 0 -141 -30q-60 -21 -77 14q-23 47 35 80q77 43 187 43q295 0 295 -354q0 -54 -8 -102q-9 -49 -29 -96q-21 -48 -53 -81q-33 -34 -84 -55t-116 -21q-140 0 -208 83q-68 82 -68 214q0 45 7 72q6 26 25 38q18 12 36 15q18 2 54 2h322q-5 84 -49 131t-128 47z
M324 95q164 0 166 220h-324q-4 -35 -1 -60q4 -76 47 -118q42 -42 112 -42zM138 796q0 28 21 44q20 16 51 16q33 0 54 -16q20 -16 20 -44t-20 -43q-21 -15 -54 -15q-32 0 -52 15t-20 43zM346 796q0 28 20 44t53 16q32 0 53 -16q20 -16 20 -44t-20 -43q-21 -15 -53 -15
q-33 0 -53 15t-20 43z" />
    <glyph glyph-name="uni04DB" unicode="&#x4db;" horiz-adv-x="497" 
d="M35 203q0 46 17 67t56 21h242q-6 118 -114 118q-44 0 -101 -20q-52 -18 -66 14q-19 43 33 69q55 28 139 28q111 0 166 -68q55 -69 55 -185q0 -117 -57 -187t-165 -70q-97 0 -151 57q-54 56 -54 156zM244 81q54 0 80 37q26 36 27 98h-212q-4 -135 105 -135zM86 618
q0 28 17 45q17 16 46 16t46 -17t17 -44q0 -28 -17 -44q-17 -17 -46 -17q-30 0 -46 16q-17 16 -17 45zM277 618q0 28 17 45q16 16 45 16t46 -17t17 -44q0 -28 -17 -44q-17 -17 -46 -17q-30 0 -46 16t-16 45z" />
    <glyph glyph-name="uni04DC" unicode="&#x4dc;" horiz-adv-x="840" 
d="M367 323l-246 -289q-52 -59 -96 -15q-18 21 -15 44q3 22 21 42l227 245l-201 238q-18 20 -20 44q-3 24 15 43q20 20 46 14t48 -35l221 -281v255q0 27 14 45q14 17 42 17t42 -17q14 -18 14 -45v-258l223 283q47 61 91 22q36 -33 -5 -84l-199 -237l226 -248q18 -20 21 -44
q3 -25 -14 -44q-22 -21 -47 -17q-25 3 -46 28l-250 295v-263q0 -27 -14 -44t-42 -17q-56 0 -56 61v262zM247 796q0 28 21 44q20 16 51 16q33 0 54 -16q20 -16 20 -44t-20 -43q-21 -15 -54 -15q-32 0 -52 15t-20 43zM455 796q0 28 20 44t53 16q32 0 53 -16q20 -16 20 -44
t-20 -43q-21 -15 -53 -15q-33 0 -53 15t-20 43z" />
    <glyph glyph-name="uni04DD" unicode="&#x4dd;" horiz-adv-x="643" 
d="M276 218l-169 -191q-21 -23 -43 -26q-23 -3 -43 18q-14 16 -10 38q3 21 22 41l145 150l-134 151q-37 43 -4 76q17 18 39 14t42 -29l155 -192v164q0 58 49 58t49 -58v-165l155 192q20 25 43 29q22 3 37 -14q31 -31 -7 -75l-129 -148l145 -155q18 -19 21 -40t-11 -38
q-17 -19 -40 -17q-23 1 -43 24l-171 193v-160q0 -58 -49 -58t-49 58v160zM169 618q0 28 17 45q17 16 46 16t46 -17t17 -44q0 -28 -17 -44q-17 -17 -46 -17q-30 0 -46 16q-17 16 -17 45zM360 618q0 28 17 45q16 16 45 16t46 -17t17 -44q0 -28 -17 -44q-17 -17 -46 -17
q-30 0 -46 16t-16 45z" />
    <glyph glyph-name="uni04DE" unicode="&#x4de;" horiz-adv-x="580" 
d="M275 97q68 0 106 28t38 81q0 96 -144 99h-75q-22 0 -35 13q-14 12 -14 34q0 21 14 34q13 13 35 13h62q64 0 100 26q35 26 35 76q0 42 -29 67q-30 25 -89 25q-52 0 -125 -25q-62 -21 -79 14q-11 22 -2 43q9 20 35 34q76 41 183 41t170 -46q62 -47 62 -135q0 -49 -26 -91
q-26 -43 -77 -63q60 -16 93 -57q32 -41 32 -99q0 -112 -75 -165q-76 -54 -194 -54q-113 0 -184 37q-26 14 -36 35t0 47q18 40 85 15q71 -27 134 -27zM114 796q0 28 21 44q20 16 51 16q33 0 54 -16q20 -16 20 -44t-20 -43q-21 -15 -54 -15q-32 0 -52 15t-20 43zM322 796
q0 28 20 44t53 16q32 0 53 -16q20 -16 20 -44t-20 -43q-21 -15 -53 -15q-33 0 -53 15t-20 43z" />
    <glyph glyph-name="uni04DF" unicode="&#x4df;" horiz-adv-x="451" 
d="M227 404q-39 0 -97 -22q-49 -18 -66 15q-18 40 25 66q60 37 152 37q85 0 130 -36q44 -37 44 -96q0 -38 -22 -69q-22 -32 -58 -43q42 -9 67 -38q25 -30 25 -74q0 -71 -49 -112q-50 -42 -144 -42q-105 0 -159 32q-40 25 -24 65q14 35 61 20q69 -21 111 -21q90 0 90 63
q0 62 -99 62h-40q-48 0 -48 38q0 39 48 39h36q91 0 91 61q0 55 -74 55zM77 618q0 28 17 45q16 16 46 16q29 0 46 -17t17 -44q0 -28 -17 -44q-17 -17 -46 -17q-30 0 -46 16q-17 16 -17 45zM268 618q0 28 17 45q16 16 45 16t46 -17t17 -44q0 -28 -17 -44q-17 -17 -46 -17
q-30 0 -46 16t-16 45z" />
    <glyph glyph-name="uni04E2" unicode="&#x4e2;" horiz-adv-x="708" 
d="M195 209l323 447q25 34 58 34q57 0 57 -62v-567q0 -27 -15 -44t-44 -17q-30 0 -45 18q-16 17 -16 43v418l-325 -444q-27 -35 -56 -35q-27 0 -42 16t-15 45v567q0 27 15 45q15 17 45 17q29 0 45 -17q15 -18 15 -45v-419zM228 748q-48 0 -48 39q0 40 48 40h245q48 0 48 -40
q0 -39 -48 -39h-245z" />
    <glyph glyph-name="uni04E3" unicode="&#x4e3;" 
d="M381 311l-216 -283q-21 -28 -51 -28q-27 0 -40 16q-14 16 -14 42v374q0 25 15 42q15 16 42 16t42 -16q14 -17 14 -42v-255l212 280q23 33 55 33q27 0 41 -16q13 -16 13 -42v-374q0 -26 -14 -42q-15 -16 -43 -16q-27 0 -41 16q-15 16 -15 42v253zM163 568q-47 0 -47 40
t47 40h229q47 0 47 -40t-47 -40h-229z" />
    <glyph glyph-name="uni04E4" unicode="&#x4e4;" horiz-adv-x="708" 
d="M195 209l323 447q25 34 58 34q57 0 57 -62v-567q0 -27 -15 -44t-44 -17q-30 0 -45 18q-16 17 -16 43v418l-325 -444q-27 -35 -56 -35q-27 0 -42 16t-15 45v567q0 27 15 45q15 17 45 17q29 0 45 -17q15 -18 15 -45v-419zM173 796q0 28 21 44q20 16 51 16q33 0 54 -16
q20 -16 20 -44t-20 -43q-21 -15 -54 -15q-32 0 -52 15t-20 43zM381 796q0 28 20 44t53 16q32 0 53 -16q20 -16 20 -44t-20 -43q-21 -15 -53 -15q-33 0 -53 15t-20 43z" />
    <glyph glyph-name="uni04E5" unicode="&#x4e5;" 
d="M381 311l-216 -283q-21 -28 -51 -28q-27 0 -40 16q-14 16 -14 42v374q0 25 15 42q15 16 42 16t42 -16q14 -17 14 -42v-255l212 280q23 33 55 33q27 0 41 -16q13 -16 13 -42v-374q0 -26 -14 -42q-15 -16 -43 -16q-27 0 -41 16q-15 16 -15 42v253zM120 618q0 28 17 45
q17 16 46 16t46 -17t17 -44q0 -28 -17 -44q-17 -17 -46 -17q-30 0 -46 16q-17 16 -17 45zM311 618q0 28 17 45q16 16 45 16t46 -17t17 -44q0 -28 -17 -44q-17 -17 -46 -17q-30 0 -46 16t-16 45z" />
    <glyph glyph-name="uni04E6" unicode="&#x4e6;" horiz-adv-x="747" 
d="M45 345q0 155 86 255q85 100 242 100t243 -100t86 -255q0 -156 -86 -255q-86 -100 -243 -100t-242 100q-86 99 -86 255zM171 345q0 -109 53 -178q52 -70 149 -70q98 0 151 70q52 69 52 178t-52 179q-53 69 -151 69q-97 0 -149 -69q-53 -70 -53 -179zM192 796q0 28 21 44
q20 16 51 16q33 0 54 -16q20 -16 20 -44t-20 -43q-21 -15 -54 -15q-32 0 -52 15t-20 43zM400 796q0 28 20 44t53 16q32 0 53 -16q20 -16 20 -44t-20 -43q-21 -15 -53 -15q-33 0 -53 15t-20 43z" />
    <glyph glyph-name="uni04E7" unicode="&#x4e7;" horiz-adv-x="549" 
d="M35 245q0 113 63 184t176 71t177 -71q63 -72 63 -184t-63 -183q-64 -72 -177 -72t-176 71t-63 184zM151 245q0 -71 32 -115t91 -44q60 0 92 44t32 115t-32 115t-92 44q-59 0 -91 -44q-32 -45 -32 -115zM116 618q0 28 17 45q17 16 46 16t46 -17t17 -44q0 -28 -17 -44
q-17 -17 -46 -17q-30 0 -46 16q-17 16 -17 45zM307 618q0 28 17 45q16 16 45 16t46 -17t17 -44q0 -28 -17 -44q-17 -17 -46 -17q-30 0 -46 16t-16 45z" />
    <glyph glyph-name="uni04E8" unicode="&#x4e8;" horiz-adv-x="747" 
d="M45 345q0 155 86 255q85 100 242 100t243 -100t86 -255q0 -156 -86 -255q-86 -100 -243 -100t-242 100q-86 99 -86 255zM373 97q87 0 140 56q52 56 60 146h-400q8 -90 61 -146q52 -56 139 -56zM373 593q-84 0 -136 -53q-53 -54 -62 -139h397q-10 86 -62 139t-137 53z" />
    <glyph glyph-name="uni04E9" unicode="&#x4e9;" horiz-adv-x="549" 
d="M35 245q0 113 63 184t176 71t177 -71q63 -72 63 -184t-63 -183q-64 -72 -177 -72t-176 71t-63 184zM274 86q53 0 86 32q32 32 37 86h-245q5 -53 38 -85q32 -33 84 -33zM274 404q-51 0 -83 -31q-33 -32 -39 -83h244q-5 51 -37 83q-33 31 -85 31z" />
    <glyph glyph-name="uni04EA" unicode="&#x4ea;" horiz-adv-x="747" 
d="M45 345q0 155 86 255q85 100 242 100t243 -100t86 -255q0 -156 -86 -255q-86 -100 -243 -100t-242 100q-86 99 -86 255zM373 97q87 0 140 56q52 56 60 146h-400q8 -90 61 -146q52 -56 139 -56zM373 593q-84 0 -136 -53q-53 -54 -62 -139h397q-10 86 -62 139t-137 53z
M196 796q0 28 21 44q20 16 51 16q33 0 54 -16q20 -16 20 -44t-20 -43q-21 -15 -54 -15q-32 0 -52 15t-20 43zM404 796q0 28 20 44t53 16q32 0 53 -16q20 -16 20 -44t-20 -43q-21 -15 -53 -15q-33 0 -53 15t-20 43z" />
    <glyph glyph-name="uni04EB" unicode="&#x4eb;" horiz-adv-x="549" 
d="M116 618q0 28 17 45q17 16 46 16t46 -17t17 -44q0 -28 -17 -44q-17 -17 -46 -17q-30 0 -46 16q-17 16 -17 45zM307 618q0 28 17 45q16 16 45 16t46 -17t17 -44q0 -28 -17 -44q-17 -17 -46 -17q-30 0 -46 16t-16 45zM35 245q0 113 63 184t176 71t177 -71q63 -72 63 -184
t-63 -183q-64 -72 -177 -72t-176 71t-63 184zM274 86q53 0 86 32q32 32 37 86h-245q5 -53 38 -85q32 -33 84 -33zM274 404q-51 0 -83 -31q-33 -32 -39 -83h244q-5 51 -37 83q-33 31 -85 31z" />
    <glyph glyph-name="uni04EE" unicode="&#x4ee;" horiz-adv-x="585" 
d="M34 583q-17 28 -15 57q2 28 27 42q27 14 50 4q23 -11 40 -43l189 -349l141 342q28 68 80 49q49 -19 22 -84l-172 -402q-47 -110 -89 -159q-43 -50 -109 -50q-60 0 -96 20q-53 29 -35 77q16 42 65 26q5 -1 18 -6q12 -5 22 -7q9 -2 20 -2q25 0 43 21q18 20 34 62zM179 748
q-48 0 -48 39q0 40 48 40h245q48 0 48 -40q0 -39 -48 -39h-245z" />
    <glyph glyph-name="uni04EF" unicode="&#x4ef;" horiz-adv-x="465" 
d="M40 401q-12 23 -6 49q6 25 32 35q55 21 79 -41l117 -310l103 306q21 65 74 46q45 -15 22 -78l-156 -413q-44 -118 -84 -162q-41 -43 -106 -43q-48 0 -81 18q-50 28 -31 70q15 33 59 20q38 -12 54 -12q32 0 52 28q20 29 42 86zM137 568q-47 0 -47 40t47 40h229
q47 0 47 -40t-47 -40h-229z" />
    <glyph glyph-name="uni04F0" unicode="&#x4f0;" horiz-adv-x="585" 
d="M34 583q-17 28 -15 57q2 28 27 42q27 14 50 4q23 -11 40 -43l189 -349l141 342q28 68 80 49q49 -19 22 -84l-172 -402q-47 -110 -89 -159q-43 -50 -109 -50q-60 0 -96 20q-53 29 -35 77q16 42 65 26q5 -1 18 -6q12 -5 22 -7q9 -2 20 -2q25 0 43 21q18 20 34 62zM123 796
q0 28 21 44q20 16 51 16q33 0 54 -16q20 -16 20 -44t-20 -43q-21 -15 -54 -15q-32 0 -52 15t-20 43zM331 796q0 28 20 44t53 16q32 0 53 -16q20 -16 20 -44t-20 -43q-21 -15 -53 -15q-33 0 -53 15t-20 43z" />
    <glyph glyph-name="uni04F1" unicode="&#x4f1;" horiz-adv-x="465" 
d="M40 401q-12 23 -6 49q6 25 32 35q55 21 79 -41l117 -310l103 306q21 65 74 46q45 -15 22 -78l-156 -413q-44 -118 -84 -162q-41 -43 -106 -43q-48 0 -81 18q-50 28 -31 70q15 33 59 20q38 -12 54 -12q32 0 52 28q20 29 42 86zM99 618q0 28 17 45q17 16 46 16t46 -17
t17 -44q0 -28 -17 -44q-17 -17 -46 -17q-30 0 -46 16q-17 16 -17 45zM290 618q0 28 17 45q16 16 45 16t46 -17t17 -44q0 -28 -17 -44q-17 -17 -46 -17q-30 0 -46 16t-16 45z" />
    <glyph glyph-name="uni04F2" unicode="&#x4f2;" horiz-adv-x="585" 
d="M34 583q-17 28 -15 57q2 28 27 42q27 14 50 4q23 -11 40 -43l189 -349l141 342q28 68 80 49q49 -19 22 -84l-172 -402q-47 -110 -89 -159q-43 -50 -109 -50q-60 0 -96 20q-53 29 -35 77q16 42 65 26q5 -1 18 -6q12 -5 22 -7q9 -2 20 -2q25 0 43 21q18 20 34 62zM193 741
q-53 -24 -69 10q-21 40 31 64l143 67q50 23 67 -12q20 -41 -33 -65zM419 741q-53 -24 -69 10q-21 40 31 64l143 67q50 23 67 -12q20 -41 -33 -65z" />
    <glyph glyph-name="uni04F3" unicode="&#x4f3;" horiz-adv-x="465" 
d="M40 401q-12 23 -6 49q6 25 32 35q55 21 79 -41l117 -310l103 306q21 65 74 46q45 -15 22 -78l-156 -413q-44 -118 -84 -162q-41 -43 -106 -43q-48 0 -81 18q-50 28 -31 70q15 33 59 20q38 -12 54 -12q32 0 52 28q20 29 42 86zM185 571q-40 -27 -62 1q-11 13 -7 30t26 31
l112 75q42 27 63 -4q20 -31 -24 -61zM352 571q-40 -27 -62 1q-11 13 -7 30t26 31l112 75q42 27 63 -4q20 -31 -24 -61z" />
    <glyph glyph-name="uni04F4" unicode="&#x4f4;" horiz-adv-x="606" 
d="M411 628q0 27 16 45q15 17 44 17t45 -17q15 -18 15 -45v-567q0 -27 -15 -44q-16 -17 -45 -17t-44 17q-16 17 -16 44v221q-70 -48 -160 -48q-107 0 -161 53q-55 52 -55 186v155q0 26 16 44t44 18q29 0 45 -18q15 -18 15 -44v-149q0 -78 27 -109q27 -32 86 -32q69 0 143 51
v239zM106 796q0 28 21 44q20 16 51 16q33 0 54 -16q20 -16 20 -44t-20 -43q-21 -15 -54 -15q-32 0 -52 15t-20 43zM314 796q0 28 20 44t53 16q32 0 53 -16q20 -16 20 -44t-20 -43q-21 -15 -53 -15q-33 0 -53 15t-20 43z" />
    <glyph glyph-name="uni04F5" unicode="&#x4f5;" horiz-adv-x="478" 
d="M305 182q-51 -31 -112 -31q-85 0 -126 43q-42 43 -42 151v87q0 25 15 42q14 16 41 16t42 -16q15 -17 15 -42v-70q0 -58 16 -86q15 -29 59 -29q52 0 92 28v157q0 25 15 42q14 16 41 16t42 -16q15 -17 15 -42v-374q0 -25 -15 -41q-15 -17 -42 -17t-41 17q-15 16 -15 41v124
zM63 618q0 28 17 45q16 16 46 16q29 0 46 -17t17 -44q0 -28 -17 -44q-17 -17 -46 -17q-30 0 -46 16q-17 16 -17 45zM254 618q0 28 17 45q16 16 45 16t46 -17t17 -44q0 -28 -17 -44q-17 -17 -46 -17q-30 0 -46 16t-16 45z" />
    <glyph glyph-name="uni04F8" unicode="&#x4f8;" horiz-adv-x="822" 
d="M75 629q0 27 16 44q15 17 44 17q28 0 44 -17t16 -44v-195q34 7 90 7q124 0 187 -52t63 -171q0 -107 -68 -165t-186 -58q-94 0 -150 12q-56 13 -56 69v553zM271 334q-32 0 -76 -6v-220q44 -6 83 -6q131 0 131 118q0 62 -36 88t-102 26zM627 628q0 27 16 45q15 17 44 17
q28 0 44 -17q16 -18 16 -45v-567q0 -27 -16 -44t-44 -17q-29 0 -44 17q-16 17 -16 44v567zM234 796q0 28 21 44q20 16 51 16q33 0 54 -16q20 -16 20 -44t-20 -43q-21 -15 -54 -15q-32 0 -52 15t-20 43zM442 796q0 28 20 44t53 16q32 0 53 -16q20 -16 20 -44t-20 -43
q-21 -15 -53 -15q-33 0 -53 15t-20 43z" />
    <glyph glyph-name="uni04F9" unicode="&#x4f9;" horiz-adv-x="653" 
d="M226 88q95 0 95 79q0 39 -20 58q-20 18 -67 18q-21 0 -61 -5v-147q24 -3 53 -3zM60 69v364q0 27 16 42t40 15q25 0 41 -15q16 -16 16 -43v-108q38 6 76 6q186 0 186 -164q0 -39 -12 -69q-13 -30 -34 -49t-51 -31t-62 -17t-69 -5q-64 0 -100 9q-47 12 -47 65zM480 58
q0 -25 15 -41q14 -17 41 -17t42 17q15 16 15 41v374q0 25 -15 42q-15 16 -42 16t-41 -16q-15 -17 -15 -42v-374zM168 618q0 -29 17 -45q16 -16 46 -16q29 0 46 17q17 16 17 44q0 27 -17 44t-46 17t-46 -16q-17 -17 -17 -45zM359 618q0 -29 16 -45t46 -16q29 0 46 17
q17 16 17 44q0 27 -17 44t-46 17t-45 -16q-17 -17 -17 -45z" />
    <glyph glyph-name="endash" unicode="&#x2013;" horiz-adv-x="362" 
d="M59 217q-24 0 -39 13t-15 37q0 23 15 37q15 13 39 13h244q24 0 39 -13q15 -14 15 -37q0 -24 -15 -37t-39 -13h-244z" />
    <glyph glyph-name="emdash" unicode="&#x2014;" horiz-adv-x="574" 
d="M59 217q-24 0 -39 13t-15 37q0 23 15 37q15 13 39 13h456q24 0 39 -13q15 -14 15 -37q0 -24 -15 -37t-39 -13h-456z" />
    <glyph glyph-name="quoteleft" unicode="&#x2018;" horiz-adv-x="234" 
d="M62 666q-12 16 -9 39t24 34q44 23 71 -30l80 -150q28 -52 -13 -74q-45 -24 -73 30z" />
    <glyph glyph-name="quoteright" unicode="&#x2019;" horiz-adv-x="234" 
d="M121 515q-28 -54 -73 -30q-41 22 -13 74l80 150q27 53 71 30q21 -11 24 -34t-9 -39z" />
    <glyph glyph-name="quotesinglbase" unicode="&#x201a;" horiz-adv-x="234" 
d="M121 -96q-28 -54 -73 -30q-41 22 -13 74l80 150q27 53 71 30q21 -11 24 -34t-9 -39z" />
    <glyph glyph-name="quotedblleft" unicode="&#x201c;" horiz-adv-x="388" 
d="M216 666q-12 16 -9 39t24 34q44 23 71 -30l80 -150q28 -52 -13 -74q-45 -24 -73 30zM62 666q-12 16 -9 39t24 34q44 23 71 -30l80 -150q28 -52 -13 -74q-45 -24 -73 30z" />
    <glyph glyph-name="quotedblright" unicode="&#x201d;" horiz-adv-x="388" 
d="M275 515q-28 -54 -73 -30q-41 22 -13 74l80 150q27 53 71 30q21 -11 24 -34t-9 -39zM121 515q-28 -54 -73 -30q-41 22 -13 74l80 150q27 53 71 30q21 -11 24 -34t-9 -39z" />
    <glyph glyph-name="quotedblbase" unicode="&#x201e;" horiz-adv-x="388" 
d="M275 -96q-28 -54 -73 -30q-41 22 -13 74l80 150q27 53 71 30q21 -11 24 -34t-9 -39zM121 -96q-28 -54 -73 -30q-41 22 -13 74l80 150q27 53 71 30q21 -11 24 -34t-9 -39z" />
    <glyph glyph-name="dagger" unicode="&#x2020;" horiz-adv-x="380" 
d="M142 490v149q0 22 13 37q12 14 35 14t35 -14q12 -15 12 -37v-149h90q23 0 36 -13q12 -13 12 -34q0 -20 -12 -33q-13 -13 -36 -13h-90v-547q0 -22 -12 -36t-35 -14t-35 14q-13 14 -13 36v547h-90q-23 0 -35 13q-12 12 -12 33t12 34t35 13h90z" />
    <glyph glyph-name="daggerdbl" unicode="&#x2021;" horiz-adv-x="380" 
d="M142 490v149q0 22 13 37q12 14 35 14t35 -14q12 -15 12 -37v-149h90q23 0 36 -13q12 -13 12 -34q0 -20 -12 -33q-13 -13 -36 -13h-90v-287h90q23 0 36 -13q12 -13 12 -34q0 -20 -12 -33q-13 -13 -36 -13h-90v-167q0 -22 -12 -36t-35 -14t-35 14q-13 14 -13 36v167h-90
q-23 0 -35 13q-12 12 -12 33t12 34t35 13h90v287h-90q-23 0 -35 13q-12 12 -12 33t12 34t35 13h90z" />
    <glyph glyph-name="bullet" unicode="&#x2022;" horiz-adv-x="426" 
d="M85 309q0 56 33 93q32 36 94 36t96 -37q33 -37 33 -92q0 -56 -33 -91q-34 -36 -96 -36t-94 35q-33 35 -33 92z" />
    <glyph glyph-name="ellipsis" unicode="&#x2026;" horiz-adv-x="678" 
d="M50 68q0 30 19 50q18 20 50 20q33 0 52 -20q18 -20 18 -50t-18 -49q-19 -19 -52 -19t-51 19t-18 49zM269 68q0 30 19 50q18 20 50 20q33 0 52 -20q18 -20 18 -50t-18 -49q-19 -19 -52 -19t-51 19t-18 49zM489 68q0 30 18 50t51 20q32 0 51 -20q18 -20 18 -50t-18 -49
t-51 -19t-51 19t-18 49z" />
    <glyph glyph-name="perthousand" unicode="&#x2030;" horiz-adv-x="1189" 
d="M852 179q0 89 43 140q42 51 119 51t120 -51q42 -51 42 -140q0 -88 -42 -138q-43 -51 -120 -51t-119 51q-43 50 -43 138zM1078 179q0 108 -64 108t-64 -108q0 -106 64 -106t64 106zM23 509q0 89 43 140q42 51 119 51t120 -51q42 -51 42 -140q0 -88 -42 -138
q-43 -51 -120 -51t-119 51q-43 50 -43 138zM249 509q0 108 -64 108t-64 -108q0 -106 64 -106t64 106zM488 179q0 89 43 140q42 51 119 51t120 -51q42 -51 42 -140q0 -88 -42 -138q-43 -51 -120 -51t-119 51q-43 50 -43 138zM714 179q0 108 -64 108t-64 -108q0 -106 64 -106
t64 106zM343 4q-20 -56 -64 -41q-38 13 -18 71l233 661q19 58 62 42q38 -13 18 -71z" />
    <glyph glyph-name="guilsinglleft" unicode="&#x2039;" horiz-adv-x="336" 
d="M245 433q19 20 41 23q21 2 39 -16q31 -35 -12 -78l-115 -113l118 -118q20 -20 23 -42q2 -22 -15 -39q-18 -15 -39 -12t-39 20l-140 140q-48 49 2 97z" />
    <glyph glyph-name="guilsinglright" unicode="&#x203a;" horiz-adv-x="336" 
d="M154 60q-19 -20 -40 -22q-22 -3 -40 15q-31 35 12 78l115 113l-118 118q-20 20 -22 42q-3 22 14 39q18 15 39 12t39 -20l140 -140q48 -49 -2 -97z" />
    <glyph glyph-name="fraction" unicode="&#x2044;" horiz-adv-x="118" 
d="M4 4q-20 -56 -64 -41q-38 13 -18 71l233 661q19 58 62 42q38 -13 18 -71z" />
    <glyph glyph-name="uni2070" unicode="&#x2070;" horiz-adv-x="370" 
d="M23 509q0 89 43 140q42 51 119 51t120 -51q42 -51 42 -140q0 -88 -42 -138q-43 -51 -120 -51t-119 51q-43 50 -43 138zM249 509q0 108 -64 108t-64 -108q0 -106 64 -106t64 106z" />
    <glyph glyph-name="uni2074" unicode="&#x2074;" horiz-adv-x="332" 
d="M268 373q0 -48 -44 -48q-43 0 -43 48v43h-124q-35 0 -44 28q-9 27 12 52l147 174q25 30 52 30q44 0 44 -53v-159h15q38 0 38 -36t-38 -36h-15v-43zM106 488h78v88z" />
    <glyph glyph-name="uni2075" unicode="&#x2075;" horiz-adv-x="334" 
d="M235 690q47 0 47 -41q0 -38 -47 -38h-99l-5 -45q21 3 48 3q59 0 91 -34q31 -35 31 -83q0 -63 -41 -97q-41 -35 -110 -35q-71 0 -107 29q-13 10 -16 26q-4 15 3 28q14 27 45 16q50 -16 68 -16q56 0 56 50q0 44 -54 44q-7 0 -23 -1q-17 -1 -29 -1t-20 2q-24 8 -21 43l10 91
q4 34 17 47q13 12 49 12h107z" />
    <glyph glyph-name="uni2076" unicode="&#x2076;" horiz-adv-x="338" 
d="M239 616q-45 9 -52 9q-35 0 -54 -24q-20 -24 -22 -65q33 35 88 35q51 0 84 -33q32 -34 32 -89t-39 -92t-102 -37q-73 0 -111 45q-39 45 -39 128q0 98 43 153q42 54 121 54q52 0 78 -17q27 -18 18 -46q-9 -29 -45 -21zM119 457q0 -29 15 -46q15 -18 37 -18q21 0 35 15
q13 14 13 37q0 26 -13 39q-14 13 -34 13q-19 0 -36 -12t-17 -28z" />
    <glyph glyph-name="uni2077" unicode="&#x2077;" horiz-adv-x="268" 
d="M150 374q-24 -57 -68 -39q-40 16 -14 72l94 190h-114q-22 0 -36 12q-15 11 -15 34t15 35q14 12 36 12h172q35 0 47 -24q11 -24 -4 -55z" />
    <glyph glyph-name="uni2078" unicode="&#x2078;" horiz-adv-x="370" 
d="M51 600q0 47 36 74q36 26 98 26q60 0 97 -25q37 -26 37 -73q0 -24 -14 -46t-33 -33q62 -36 62 -91q0 -53 -42 -82q-43 -30 -107 -30q-67 0 -108 27q-41 26 -41 81q0 59 64 95q-49 30 -49 77zM132 433q0 -19 15 -31q14 -12 37 -12q24 0 39 12t15 31q0 35 -67 59
q-39 -27 -39 -59zM143 597q0 -27 54 -50q30 24 30 49q0 15 -11 24q-12 9 -31 9q-42 0 -42 -32z" />
    <glyph glyph-name="uni2079" unicode="&#x2079;" horiz-adv-x="338" 
d="M98 404q45 -9 52 -9q35 0 55 24q19 24 21 65q-33 -35 -88 -35q-51 0 -83 34q-33 33 -33 88t39 92t102 37q73 0 112 -45q38 -45 38 -128q0 -98 -42 -152q-43 -55 -122 -55q-53 0 -78 17q-27 18 -18 46q9 29 45 21zM218 563q0 29 -15 47q-15 17 -37 17q-21 0 -34 -14
q-14 -15 -14 -38q0 -26 14 -39q13 -13 33 -13q19 0 36 12t17 28z" />
    <glyph glyph-name="uni2080" unicode="&#x2080;" horiz-adv-x="370" 
d="M23 179q0 89 43 140q42 51 119 51t120 -51q42 -51 42 -140q0 -88 -42 -138q-43 -51 -120 -51t-119 51q-43 50 -43 138zM249 179q0 108 -64 108t-64 -108q0 -106 64 -106t64 106z" />
    <glyph glyph-name="uni2081" unicode="&#x2081;" horiz-adv-x="281" 
d="M129 236l-50 -45q-11 -11 -26 -14t-31 10q-12 11 -10 28q1 16 16 31l100 99q23 25 52 25q44 0 44 -53v-265q0 -52 -48 -52q-47 0 -47 52v184z" />
    <glyph glyph-name="uni2082" unicode="&#x2082;" horiz-adv-x="311" 
d="M248 85q50 0 50 -42q0 -43 -50 -43h-182q-42 0 -42 44q0 38 17 68q16 30 40 49q23 19 47 35q24 15 41 31q16 15 16 31q0 25 -33 25q-22 0 -72 -20q-36 -14 -52 13q-8 15 -3 31t20 27q46 36 116 36q60 0 93 -28t33 -75q0 -31 -14 -55q-15 -24 -36 -39q-21 -16 -42 -29
q-22 -13 -39 -28q-18 -15 -22 -31h114z" />
    <glyph glyph-name="uni2083" unicode="&#x2083;" horiz-adv-x="331" 
d="M162 76q55 0 55 42t-77 42q-32 0 -37 24q-6 24 13 38l70 57h-87q-50 0 -50 41q0 40 50 40h165q34 0 41 -30q6 -30 -20 -49l-79 -62q52 -4 83 -30q30 -27 30 -73q0 -62 -42 -94t-113 -32q-72 0 -107 27q-32 24 -18 57q12 27 45 18q54 -16 78 -16z" />
    <glyph glyph-name="uni2084" unicode="&#x2084;" horiz-adv-x="332" 
d="M268 48q0 -48 -44 -48q-43 0 -43 48v43h-124q-35 0 -44 28q-9 27 12 52l147 174q25 30 52 30q44 0 44 -53v-159h15q38 0 38 -36t-38 -36h-15v-43zM106 163h78v88z" />
    <glyph glyph-name="uni2085" unicode="&#x2085;" horiz-adv-x="334" 
d="M227 360q47 0 47 -41q0 -38 -47 -38h-99l-5 -45q21 3 48 3q59 0 91 -34q31 -35 31 -83q0 -63 -41 -97q-41 -35 -110 -35q-71 0 -107 29q-13 10 -16 26q-4 15 3 28q14 27 45 16q50 -16 68 -16q56 0 56 50q0 44 -54 44q-7 0 -23 -1q-17 -1 -29 -1t-20 2q-24 8 -21 43l10 91
q4 34 17 47q13 12 49 12h107z" />
    <glyph glyph-name="uni2086" unicode="&#x2086;" horiz-adv-x="338" 
d="M239 286q-45 9 -52 9q-35 0 -54 -24q-20 -24 -22 -65q33 35 88 35q51 0 84 -33q32 -34 32 -89t-39 -92t-102 -37q-73 0 -111 45q-39 45 -39 128q0 98 43 153q42 54 121 54q52 0 78 -17q27 -18 18 -46q-9 -29 -45 -21zM119 127q0 -29 15 -46q15 -18 37 -18q21 0 35 15
q13 14 13 37q0 26 -13 39q-14 13 -34 13q-19 0 -36 -12t-17 -28z" />
    <glyph glyph-name="uni2087" unicode="&#x2087;" horiz-adv-x="268" 
d="M150 44q-24 -57 -68 -39q-40 16 -14 72l94 190h-114q-22 0 -36 12q-15 11 -15 34t15 35q14 12 36 12h172q35 0 47 -24q11 -24 -4 -55z" />
    <glyph glyph-name="uni2088" unicode="&#x2088;" horiz-adv-x="370" 
d="M51 280q0 47 36 74q36 26 98 26q60 0 97 -25q37 -26 37 -73q0 -24 -14 -46t-33 -33q62 -36 62 -91q0 -53 -42 -82q-43 -30 -107 -30q-67 0 -108 27q-41 26 -41 81q0 59 64 95q-49 30 -49 77zM132 113q0 -19 15 -31q14 -12 37 -12q24 0 39 12t15 31q0 35 -67 59
q-39 -27 -39 -59zM143 277q0 -27 54 -50q30 24 30 49q0 15 -11 24q-12 9 -31 9q-42 0 -42 -32z" />
    <glyph glyph-name="uni2089" unicode="&#x2089;" horiz-adv-x="338" 
d="M98 74q45 -9 52 -9q35 0 55 24q19 24 21 65q-33 -35 -88 -35q-51 0 -83 34q-33 33 -33 88t39 92t102 37q73 0 112 -45q38 -45 38 -128q0 -98 -42 -152q-43 -55 -122 -55q-53 0 -78 17q-27 18 -18 46q9 29 45 21zM218 233q0 29 -15 47q-15 17 -37 17q-21 0 -34 -14
q-14 -15 -14 -38q0 -26 14 -39q13 -13 33 -13q19 0 36 12t17 28z" />
    <glyph glyph-name="Euro" unicode="&#x20ac;" 
d="M86 458q24 114 99 178t195 64q87 0 141 -31q47 -25 30 -66q-14 -33 -67 -18q-59 18 -106 18q-145 0 -184 -145h213q40 0 40 -38t-40 -38h-225q-1 -13 -1 -39v-29h226q40 0 40 -38t-40 -38h-215q37 -151 185 -151q54 0 109 26q52 24 71 -9q11 -20 2 -40q-9 -21 -31 -35
q-64 -39 -159 -39q-245 0 -286 248h-45q-40 0 -40 38t40 38h37v30q0 25 1 38h-38q-40 0 -40 38t40 38h48z" />
    <glyph glyph-name="uni20B4" unicode="&#x20b4;" horiz-adv-x="569" 
d="M475 312q45 0 45 -38t-45 -38h-248q-23 -30 -23 -66q0 -83 104 -83q47 0 106 33q58 33 81 -7q11 -18 1 -41q-11 -24 -40 -42q-64 -40 -158 -40q-103 0 -156 45t-53 115q0 47 24 86h-20q-46 0 -46 38t46 38h382zM325 444q50 45 50 93q0 66 -84 66q-50 0 -119 -28
q-55 -21 -70 16q-16 39 34 70q63 39 162 39q98 0 145 -43q47 -44 47 -104q0 -62 -47 -109h32q45 0 45 -38t-45 -38h-382q-46 0 -46 38t46 38h232z" />
    <glyph glyph-name="uni20B6" unicode="&#x20b6;" 
d="M343 223q41 0 41 -41q0 -18 -10 -29q-11 -11 -31 -11h-140v-81q0 -27 -14 -44q-15 -17 -44 -17q-28 0 -43 17t-15 44v81h-40q-20 0 -30 11q-11 11 -11 29q0 41 41 41h40v53h-40q-20 0 -30 11q-11 11 -11 29q0 41 41 41h40v252q0 33 13 50t42 23q62 13 145 13
q118 0 182 -53q63 -54 63 -156q0 -106 -67 -158q-68 -52 -188 -52h-74v-53h140zM270 357q73 0 110 29q36 29 36 95q0 117 -131 117q-43 0 -82 -6v-235h67z" />
    </font>
</defs>
</svg>
