<?xml version="1.0" standalone="no"?>
<!DOCTYPE svg PUBLIC "-//W3C//DTD SVG 1.1//EN" "http://www.w3.org/Graphics/SVG/1.1/DTD/svg11.dtd" >
<svg xmlns="http://www.w3.org/2000/svg" xmlns:xlink="http://www.w3.org/1999/xlink" version="1.1">
<metadata>
Created by FontForge 20161013 at Thu Nov  5 07:42:07 2015
 By ,,,
Copyright (c) 2012 by . All rights reserved.
</metadata>
<defs>
<font id="ALSSchlangesans" horiz-adv-x="530" >
  <font-face 
    font-family="ALSSchlangesans"
    font-weight="400"
    font-stretch="normal"
    units-per-em="1000"
    panose-1="2 0 5 6 3 0 0 2 0 4"
    ascent="769"
    descent="-231"
    x-height="484"
    cap-height="690"
    bbox="-164.7 -280.2 1102 895.308"
    underline-thickness="0"
    underline-position="0"
    unicode-range="U+000D-FB02"
  />
<missing-glyph horiz-adv-x="250" 
 />
    <glyph glyph-name="ff" unicode="ff" horiz-adv-x="510" 
d="M122 490h159v12q0 81 19 123q-31 23 -83 23q-95 0 -95 -119v-39zM432 648q-95 0 -95 -119v-39h128q12 0 20 -7q7 -8 7 -19q0 -26 -27 -26h-128v-606q0 -32 -28 -32t-28 32v606h-159v-606q0 -32 -28 -32t-28 32v670q0 105 36 151q38 47 119 47q66 0 107 -34q39 34 108 34
q61 0 98 -22q22 -14 12 -35q-9 -19 -36 -9q-42 14 -78 14z" />
    <glyph glyph-name="fi" unicode="fi" horiz-adv-x="403" 
d="M331 643q-9 -19 -36 -9q-42 14 -78 14q-95 0 -95 -119v-39h185q30 0 30 -34v-424q0 -32 -28 -32t-28 32v406h-159v-606q0 -32 -28 -32t-28 32v670q0 105 36 151q38 47 119 47q61 0 98 -22q22 -14 12 -35z" />
    <glyph glyph-name="fl" unicode="fl" horiz-adv-x="403" 
d="M281 635q-24 13 -64 13q-95 0 -95 -119v-39h102q12 0 20 -7q7 -8 7 -19q0 -26 -27 -26h-102v-606q0 -32 -28 -32t-28 32v670q0 106 35 150q39 48 120 48q53 0 87 -18q29 -15 29 -45v-605q0 -32 -28 -32t-28 32v603z" />
    <glyph glyph-name=".notdef" horiz-adv-x="250" 
 />
    <glyph glyph-name=".null" horiz-adv-x="0" 
 />
    <glyph glyph-name=".null" horiz-adv-x="0" 
 />
    <glyph glyph-name="nonmarkingreturn" unicode="&#xd;" horiz-adv-x="333" 
 />
    <glyph glyph-name="space" unicode=" " horiz-adv-x="250" 
 />
    <glyph glyph-name="exclam" unicode="!" horiz-adv-x="201" 
d="M72 668q0 32 28 32t28 -32v-456q0 -32 -28 -32t-28 32v456zM56 44q0 19 12 32q11 13 32 13t33 -13t12 -32t-12 -31q-12 -13 -33 -13t-32 13q-12 12 -12 31z" />
    <glyph glyph-name="quotedbl" unicode="&#x22;" horiz-adv-x="276" 
d="M61 668q0 32 27 32t27 -32v-156q0 -32 -27 -32t-27 32v156zM161 668q0 32 27 32t27 -32v-156q0 -32 -27 -32t-27 32v156z" />
    <glyph glyph-name="numbersign" unicode="#" horiz-adv-x="614" 
d="M296 671q12 36 38 27q22 -7 8 -45l-64 -176h144l70 194q12 36 38 27q22 -7 8 -45l-64 -176h72q27 0 27 -23t-27 -23h-88l-61 -170h89q27 0 27 -23t-27 -23h-106l-69 -194q-14 -37 -38 -29q-21 7 -7 48l62 175h-144l-69 -194q-14 -37 -38 -29q-21 7 -7 48l62 175h-64
q-27 0 -27 23t27 23h81l61 170h-82q-27 0 -27 23t27 23h98zM201 261h144l61 170h-144z" />
    <glyph glyph-name="dollar" unicode="$" horiz-adv-x="552" 
d="M300 646q-139 0 -139 -114q0 -35 20 -62q19 -27 51 -43q31 -17 69 -32t76 -32q38 -18 70 -39q31 -22 51 -58q19 -36 19 -83q0 -80 -48 -131t-139 -60v-81q0 -32 -27 -32t-27 32v79q-102 4 -167 44q-43 26 -22 53q15 19 53 -3q71 -40 155 -40q77 0 119 35q41 34 41 95
q0 39 -19 69q-20 29 -51 47q-32 18 -70 34l-76 32q-38 16 -69 37q-32 21 -51 55q-20 34 -20 80q0 72 43 119t134 52v80q0 32 27 32t27 -32v-81q71 -6 128 -40q47 -29 29 -56q-6 -9 -16 -9q-10 -1 -18 3q-8 3 -23 12q-66 38 -130 38z" />
    <glyph glyph-name="percent" unicode="%" horiz-adv-x="773" 
d="M31 514q0 84 39 135q38 51 114 51t114 -51t38 -135q0 -83 -38 -133q-38 -51 -114 -51t-114 51q-39 50 -39 133zM85 514q0 -138 99 -138q98 0 98 138q0 64 -24 102t-74 38q-99 0 -99 -140zM437 174q0 84 39 135q38 51 114 51t114 -51t38 -135q0 -83 -38 -133
q-38 -51 -114 -51t-114 51q-39 50 -39 133zM491 174q0 -138 99 -138q98 0 98 138q0 64 -24 102t-74 38q-99 0 -99 -140zM492 711q12 36 37 28q23 -8 9 -45l-253 -704q-14 -37 -38 -29q-22 7 -7 48z" />
    <glyph glyph-name="ampersand" unicode="&#x26;" horiz-adv-x="679" 
d="M445 580q0 -47 -32 -92q-32 -46 -120 -106q23 -25 68 -69l58 -58q19 -20 72 -71q57 84 75 180q4 19 10 27q6 7 18 7q24 0 21 -32q-8 -104 -87 -217l101 -93q30 -28 13 -48q-18 -21 -52 9q-44 37 -98 88q-103 -115 -243 -115q-85 0 -141 44q-57 44 -57 132q0 70 42 120
q42 49 122 102q-74 86 -74 165q0 66 43 107q42 40 114 40q73 0 110 -34q37 -35 37 -86zM387 210q-131 133 -139 142q-83 -56 -111 -95q-28 -40 -28 -91q0 -48 36 -86t104 -38q119 0 207 98zM195 554q0 -58 66 -136q69 46 99 82t30 78q0 33 -25 54t-69 21t-72 -27
q-29 -27 -29 -72z" />
    <glyph glyph-name="quotesingle" unicode="'" horiz-adv-x="176" 
d="M61 668q0 32 27 32t27 -32v-156q0 -32 -27 -32t-27 32v156z" />
    <glyph glyph-name="parenleft" unicode="(" horiz-adv-x="279" 
d="M51 345q0 119 41 231q40 111 103 171q39 38 58 15q13 -16 -16 -50q-132 -158 -128 -367q-4 -211 128 -367q29 -35 16 -50q-20 -23 -58 15q-63 63 -103 174q-41 110 -41 228z" />
    <glyph glyph-name="parenright" unicode=")" horiz-adv-x="279" 
d="M239 345q0 -118 -40 -228q-41 -111 -104 -174q-38 -38 -58 -15q-13 15 16 50q132 156 128 367q4 209 -128 367q-29 34 -16 50q19 23 58 -15q63 -60 104 -171q40 -112 40 -231z" />
    <glyph glyph-name="asterisk" unicode="*" horiz-adv-x="346" 
d="M264 642q27 19 40 -2t-15 -37l-61 -34l61 -34q27 -15 15 -36q-13 -22 -40 -3l-59 45l4 -70q0 -32 -23 -32t-23 32l4 70l-59 -45q-27 -19 -40 3q-12 21 15 36l61 34l-61 34q-28 16 -15 37t40 2l59 -45l-4 72q0 31 23 31q25 0 23 -31l-4 -72z" />
    <glyph glyph-name="plus" unicode="+" horiz-adv-x="497" 
d="M222 305h-154q-27 0 -27 26q0 11 8 19q7 7 19 7h154v152q0 32 27 32t27 -32v-152h153q12 0 20 -7q7 -8 7 -19q0 -26 -27 -26h-153v-152q0 -32 -27 -32t-27 32v152z" />
    <glyph glyph-name="comma" unicode="," horiz-adv-x="211" 
d="M77 -125q-17 -34 -45 -19q-23 13 -5 47l90 167q7 13 20 18q12 4 23 -3q23 -14 7 -43z" />
    <glyph glyph-name="hyphen" unicode="-" horiz-adv-x="338" 
d="M38 244q-27 0 -27 26q0 11 8 19q7 7 19 7h262q12 0 20 -7q7 -8 7 -19q0 -26 -27 -26h-262z" />
    <glyph glyph-name="period" unicode="." horiz-adv-x="202" 
d="M56 44q0 19 12 32q11 13 32 13t33 -13t12 -32t-12 -31q-12 -13 -33 -13t-32 13q-12 12 -12 31z" />
    <glyph glyph-name="slash" unicode="/" horiz-adv-x="320" 
d="M295 766q15 41 43 32q26 -8 11 -51l-293 -824q-13 -40 -41 -32t-12 54z" />
    <glyph glyph-name="zero" unicode="0" horiz-adv-x="552" 
d="M29 345q0 162 62 259q61 96 185 96t186 -96q61 -97 61 -259t-61 -258q-62 -97 -186 -97t-185 97q-62 96 -62 258zM87 345q0 -142 50 -222q50 -81 139 -81t139 81q50 80 50 222t-50 223q-50 80 -139 80q-95 0 -142 -79t-47 -224z" />
    <glyph glyph-name="one" unicode="1" horiz-adv-x="552" 
d="M303 611l-131 -131q-26 -26 -44 -10q-18 18 6 43l168 169q18 18 32 18q25 0 25 -32v-636q0 -32 -28 -32t-28 32v579z" />
    <glyph glyph-name="two" unicode="2" horiz-adv-x="552" 
d="M144 603q-1 -1 -5 -3l-5 -4l-6 -3q-4 -3 -6 -3q-2 -1 -5 -2q-4 -2 -6 -2h-5q-3 -1 -5 0q-3 1 -5 3q-3 1 -5 3q-20 21 18 50q78 58 176 58q97 0 145 -43q47 -44 47 -117q0 -46 -18 -85q-19 -40 -49 -69q-30 -30 -66 -57l-72 -56q-37 -29 -67 -59q-30 -31 -48 -72
q-19 -42 -19 -90h336q12 0 20 -7t8 -19q0 -11 -8 -18q-8 -8 -20 -8h-359q-34 0 -34 36q0 58 19 108q18 50 48 85q30 34 66 65q36 30 72 57t66 54t49 62q18 34 18 73q0 44 -33 76t-103 32t-139 -45z" />
    <glyph glyph-name="three" unicode="3" horiz-adv-x="552" 
d="M211 361q-27 0 -33 18q-7 18 11 38l197 221h-254q-12 0 -20 7t-8 19q0 11 8 19q8 7 20 7h294q29 0 34 -19q4 -20 -13 -38l-198 -220q111 -2 173 -56t62 -155q0 -97 -63 -154q-63 -58 -164 -58q-102 0 -173 50q-29 20 -14 43q13 20 48 -1q65 -40 141 -40q85 0 126 46
q41 45 41 116q0 75 -53 116t-162 41z" />
    <glyph glyph-name="four" unicode="4" horiz-adv-x="552" 
d="M418 235v-203q0 -32 -28 -32t-28 32v203h-292q-24 0 -29 17q-5 16 8 30l313 399q14 19 30 19q26 0 26 -32v-381h47q31 0 31 -26t-31 -26h-47zM362 287v315l-248 -315h248z" />
    <glyph glyph-name="five" unicode="5" horiz-adv-x="552" 
d="M269 -10q-105 0 -172 50q-31 23 -13 46q13 17 49 -5q63 -39 138 -39q89 0 130 51t41 127q0 68 -39 112t-119 44q-32 0 -76 -13t-52 -13q-28 0 -26 31l20 277q0 32 27 32h266q12 0 20 -7q7 -8 7 -19q0 -26 -27 -26h-242l-16 -230q53 20 105 20q59 0 102 -19t66 -51
q22 -32 32 -65q10 -34 10 -71q0 -110 -65 -171t-166 -61z" />
    <glyph glyph-name="six" unicode="6" horiz-adv-x="552" 
d="M115 235q0 -23 4 -46q4 -24 16 -51q11 -27 29 -47q18 -21 49 -35t71 -14q80 0 120 56q39 55 39 132q0 71 -43 118q-43 46 -115 46q-66 0 -118 -41q-52 -42 -52 -118zM420 634q-44 14 -89 14q-96 0 -150 -67q-63 -77 -71 -231q61 96 185 96q95 0 151 -60q55 -60 55 -155
q0 -99 -56 -170q-57 -71 -165 -71t-166 74q-59 74 -59 224q0 216 80 320q71 92 195 92q78 0 116 -21q25 -13 16 -36q-8 -20 -42 -9z" />
    <glyph glyph-name="seven" unicode="7" horiz-adv-x="552" 
d="M208 27q-16 -36 -43 -25q-12 5 -13 20q-2 14 5 26q4 7 266 590h-341q-12 0 -20 7t-8 19q0 11 8 19q8 7 20 7h377q25 0 31 -15q5 -15 -7 -38z" />
    <glyph glyph-name="eight" unicode="8" horiz-adv-x="552" 
d="M75 541q0 73 59 116q58 43 142 43q87 0 144 -42t57 -120q0 -57 -30 -100t-88 -82q78 -37 114 -78q35 -41 35 -106q0 -78 -66 -130q-67 -52 -166 -52q-64 0 -114 17t-84 59t-34 105q0 121 150 202q-65 36 -92 74q-27 37 -27 94zM102 171q0 -64 50 -96q50 -33 124 -33
q76 0 125 36t49 92q0 32 -16 60q-17 27 -47 49q-31 21 -65 37t-80 32q-82 -39 -111 -83t-29 -94zM131 536q0 -52 50 -89t135 -67q105 65 105 155q0 113 -145 113q-64 0 -104 -29q-41 -30 -41 -83z" />
    <glyph glyph-name="nine" unicode="9" horiz-adv-x="552" 
d="M436 455q0 23 -4 47q-4 23 -15 50q-12 27 -30 48q-18 20 -49 34t-71 14q-80 0 -119 -55q-40 -56 -40 -133q0 -71 43 -117q43 -47 115 -47q66 0 118 42q52 41 52 117zM131 56q44 -14 89 -14q96 0 150 67q63 77 71 231q-61 -96 -185 -96q-95 0 -150 60q-56 60 -56 155
q0 99 57 170q56 71 164 71t167 -74q58 -74 58 -224q0 -216 -80 -320q-71 -92 -195 -92q-77 0 -116 21q-25 13 -16 36q8 20 42 9z" />
    <glyph glyph-name="colon" unicode=":" horiz-adv-x="202" 
d="M56 455q0 19 12 32q11 13 32 13t33 -13t12 -32t-12 -31q-12 -13 -33 -13t-32 13q-12 12 -12 31zM56 44q0 19 12 32q11 13 32 13t33 -13t12 -32t-12 -31q-12 -13 -33 -13t-32 13q-12 12 -12 31z" />
    <glyph glyph-name="semicolon" unicode=";" horiz-adv-x="212" 
d="M77 -125q-17 -34 -45 -19q-23 13 -5 47l90 167q7 13 20 18q12 4 23 -3q23 -14 7 -43zM85 455q0 19 12 32q11 13 32 13t33 -13t12 -32t-12 -31q-12 -13 -33 -13t-32 13q-12 12 -12 31z" />
    <glyph glyph-name="less" unicode="&#x3c;" horiz-adv-x="497" 
d="M342 546q32 23 46 3t-18 -44l-203 -158l204 -161q32 -26 15 -46q-16 -19 -42 2l-221 171q-19 14 -18 32q0 17 20 32z" />
    <glyph glyph-name="equal" unicode="=" horiz-adv-x="497" 
d="M68 345q-27 0 -27 26q0 11 8 19q7 7 19 7h361q12 0 20 -7q7 -8 7 -19q0 -26 -27 -26h-361zM68 205q-27 0 -27 26q0 11 8 19q7 7 19 7h361q12 0 20 -7q7 -8 7 -19q0 -26 -27 -26h-361z" />
    <glyph glyph-name="greater" unicode="&#x3e;" horiz-adv-x="497" 
d="M168 144q-32 -23 -46 -3t18 44l203 158l-204 161q-32 26 -15 46q16 19 42 -2l221 -171q19 -14 19 -31q-1 -18 -21 -33z" />
    <glyph glyph-name="question" unicode="?" horiz-adv-x="403" 
d="M207 700q92 0 136 -45q43 -45 43 -113q0 -34 -7 -61t-26 -52q-20 -26 -29 -35q-9 -10 -37 -37q-28 -26 -40 -40q-13 -14 -26 -42t-13 -59q0 -36 -28 -36t-28 36q0 39 16 74q15 34 32 53q16 19 46 48q27 25 42 42q14 16 27 46q13 29 13 62q0 45 -31 76q-32 31 -91 31
q-49 0 -111 -28q-35 -17 -46 1q-14 24 22 44q61 35 136 35zM136 44q0 19 12 32q11 13 32 13t33 -13t12 -32t-12 -31q-12 -13 -33 -13t-32 13q-12 12 -12 31z" />
    <glyph glyph-name="at" unicode="@" horiz-adv-x="957" 
d="M602 -201q-33 -9 -110 -9q-201 0 -321 115q-120 116 -120 320q0 212 117 331q117 118 326 118q197 0 305 -109q107 -109 107 -292q0 -53 -11 -99q-12 -47 -36 -87q-25 -40 -69 -63q-45 -24 -104 -24h-34q-14 0 -21 10q-8 9 -8 22v83q-52 -125 -182 -125q-93 0 -142 66
q-50 65 -50 174q0 117 59 194q59 76 176 76q80 0 139 -31q8 21 28 21q28 0 28 -32v-406h21q75 0 112 61q36 60 36 155q0 162 -91 258t-263 96q-181 0 -283 -101q-102 -102 -102 -296q0 -180 108 -282q108 -101 275 -101q38 0 72 3q34 4 36 4q24 0 27 -20q3 -23 -25 -30z
M449 42q174 0 174 273v98q-60 35 -140 35q-93 0 -134 -60q-42 -61 -42 -158q0 -86 35 -137t107 -51z" />
    <glyph glyph-name="A" unicode="A" horiz-adv-x="601" 
d="M596 47q12 -32 -11 -44q-30 -14 -44 20l-77 197h-303l-71 -190q-13 -38 -42 -28q-27 10 -12 46l244 624q11 28 34 28q21 0 31 -24zM182 274h262l-133 336z" />
    <glyph glyph-name="B" unicode="B" horiz-adv-x="598" 
d="M269 695q115 0 178 -39t63 -134q0 -53 -26 -95q-27 -42 -77 -62q67 -13 104 -57q36 -45 36 -113q0 -200 -267 -200q-109 0 -169 11q-30 6 -30 36v602q0 34 30 40q64 11 158 11zM141 331v-275q69 -7 139 -7q100 0 153 33q52 32 52 111q0 75 -50 107q-51 31 -154 31h-140z
M252 641q-51 0 -111 -5v-255h125q182 0 182 140q0 67 -50 94q-51 26 -146 26z" />
    <glyph glyph-name="C" unicode="C" horiz-adv-x="634" 
d="M375 646q-123 0 -192 -85q-70 -86 -70 -218q0 -139 71 -219t187 -80q89 0 169 52q32 21 47 2q16 -21 -18 -48q-34 -25 -89 -42q-55 -18 -114 -18q-159 0 -237 96q-78 95 -78 258q0 159 88 258q88 98 238 98q109 0 184 -51q32 -22 17 -45q-14 -22 -49 0q-68 42 -154 42z
" />
    <glyph glyph-name="D" unicode="D" horiz-adv-x="689" 
d="M81 642q0 33 30 39q70 14 173 14q354 0 354 -347q0 -168 -90 -260q-90 -93 -263 -93q-108 0 -174 11q-30 4 -30 34v602zM280 641q-67 0 -139 -9v-575q71 -8 138 -8q150 0 224 77q73 77 73 222q0 293 -296 293z" />
    <glyph glyph-name="E" unicode="E" horiz-adv-x="542" 
d="M116 0q-16 0 -25 10q-10 10 -10 24v623q0 14 9 24q8 9 23 9h365q12 0 20 -8q7 -8 7 -19q0 -12 -7 -19q-8 -8 -20 -8h-337v-249h277q12 0 20 -8q7 -8 7 -19q0 -12 -7 -19q-8 -8 -20 -8h-277v-279h348q12 0 20 -8q7 -8 7 -19q0 -12 -7 -19q-8 -8 -20 -8h-373z" />
    <glyph glyph-name="F" unicode="F" horiz-adv-x="513" 
d="M141 335v-303q0 -14 -8 -23t-22 -9t-22 9t-8 23v626q0 14 8 23t22 9h349q12 0 20 -8q7 -8 7 -19q0 -12 -7 -19q-8 -8 -20 -8h-319v-247h262q12 0 20 -8q7 -8 7 -19q0 -12 -7 -19q-8 -8 -20 -8h-262z" />
    <glyph glyph-name="G" unicode="G" horiz-adv-x="667" 
d="M375 646q-123 0 -192 -85q-70 -86 -70 -218q0 -140 68 -219q68 -80 198 -80q110 0 182 51v193h-163q-12 0 -19 8q-8 7 -8 19q0 11 8 19q7 8 19 8h188q30 0 30 -32v-217q0 -21 -16 -34q-35 -28 -96 -48q-61 -21 -128 -21q-165 0 -245 95q-80 94 -80 259q0 159 88 258
q88 98 238 98q116 -3 186 -52q31 -22 15 -45q-14 -19 -49 1q-76 42 -154 42z" />
    <glyph glyph-name="H" unicode="H" horiz-adv-x="697" 
d="M556 658q0 14 8 23t22 9t22 -9t8 -23v-626q0 -14 -8 -23t-22 -9t-22 9t-8 23v294h-415v-294q0 -14 -8 -23t-22 -9t-22 9t-8 23v626q0 14 8 23t22 9t22 -9t8 -23v-278h415v278z" />
    <glyph glyph-name="I" unicode="I" horiz-adv-x="222" 
d="M81 658q0 14 8 23t22 9t22 -9t8 -23v-626q0 -14 -8 -23t-22 -9t-22 9t-8 23v626z" />
    <glyph glyph-name="J" unicode="J" horiz-adv-x="344" 
d="M-2 55q10 19 44 6q42 -17 80 -17q94 0 94 117v497q0 13 8 23q8 9 22 9t22 -9q8 -10 8 -23v-502q0 -166 -149 -166q-71 0 -113 24q-29 17 -16 41z" />
    <glyph glyph-name="K" unicode="K" horiz-adv-x="531" 
d="M81 658q0 14 8 23t22 9t22 -9t8 -23v-292l306 307q30 28 50 8q20 -21 -8 -49l-285 -279l300 -293q27 -27 9 -49q-20 -23 -53 8l-319 309v-296q0 -14 -8 -23t-22 -9t-22 9t-8 23v626z" />
    <glyph glyph-name="L" unicode="L" horiz-adv-x="512" 
d="M110 0q-29 0 -29 32v626q0 14 8 23t22 9t22 -9t8 -23v-604h333q12 0 20 -8q7 -8 7 -19q0 -12 -7 -19q-8 -8 -20 -8h-364z" />
    <glyph glyph-name="M" unicode="M" horiz-adv-x="777" 
d="M634 667q15 23 34 23q28 0 28 -32v-626q0 -14 -8 -23t-22 -9t-22 9t-8 23v540l-218 -347q-12 -19 -30 -19q-19 0 -32 19l-219 345v-538q0 -32 -28 -32t-28 32v626q0 32 28 32q20 0 36 -25l246 -385z" />
    <glyph glyph-name="N" unicode="N" horiz-adv-x="697" 
d="M560 658q0 32 28 32t28 -32v-626q0 -14 -8 -23t-21 -9q-16 0 -30 16l-420 564v-548q0 -32 -28 -32t-28 32v624q0 14 8 24q7 10 22 10q19 0 33 -19l416 -562v549z" />
    <glyph glyph-name="O" unicode="O" horiz-adv-x="748" 
d="M51 345q0 156 85 256q84 99 238 99t239 -99q84 -100 84 -256t-84 -255q-85 -100 -239 -100t-238 100q-85 99 -85 255zM113 345q0 -132 70 -216q69 -85 191 -85t192 85q69 84 69 216t-69 217q-70 84 -192 84t-191 -84q-70 -85 -70 -217z" />
    <glyph glyph-name="P" unicode="P" horiz-adv-x="551" 
d="M515 490q0 -112 -75 -167q-76 -55 -194 -55q-60 0 -105 9v-245q0 -14 -8 -23t-22 -9t-22 9t-8 23v615q0 34 30 38q69 10 150 10q254 0 254 -205zM261 641q-60 0 -120 -7v-303q52 -9 109 -9q89 0 146 39t57 129q0 151 -192 151z" />
    <glyph glyph-name="Q" unicode="Q" horiz-adv-x="748" 
d="M51 345q0 156 85 256q84 99 238 99t239 -99q84 -100 84 -256q0 -93 -32 -169q-32 -77 -93 -124q18 -18 38 -34l29 -25q9 -7 30 -22l24 -16q32 -22 22 -42q-11 -20 -50 -1q-63 33 -141 110q-64 -32 -150 -32q-154 0 -238 100q-85 99 -85 255zM113 345q0 -132 70 -216
q69 -85 191 -85q64 0 111 22q-53 62 -74 110q-15 33 6 45q21 11 41 -21q38 -63 73 -105q104 83 104 250q0 132 -69 217q-70 84 -192 84t-191 -84q-70 -85 -70 -217z" />
    <glyph glyph-name="R" unicode="R" horiz-adv-x="588" 
d="M81 650q0 31 29 35q61 10 142 10q249 0 249 -193q0 -75 -38 -124t-104 -72l160 -253q20 -31 -3 -47q-14 -9 -27 -4q-14 5 -23 21l-170 268q-25 -4 -61 -4q-53 0 -94 6v-261q0 -14 -8 -23t-22 -9t-22 9t-8 23v618zM246 641q-35 0 -105 -6v-290q48 -6 90 -6q108 0 158 39
t50 123q0 77 -50 109q-51 31 -143 31z" />
    <glyph glyph-name="S" unicode="S" horiz-adv-x="540" 
d="M288 646q-74 0 -111 -32q-38 -33 -38 -84q0 -52 39 -84t95 -50q55 -18 111 -38q55 -21 94 -64t39 -111q0 -88 -62 -140q-62 -53 -175 -53q-103 0 -179 40q-60 33 -42 62q2 4 5 7q3 2 7 3l6 1q3 0 8 -1q4 -1 7 -2l8 -4q5 -3 9 -4q3 -2 9 -5q5 -3 8 -5q70 -38 157 -38
q80 0 126 34q46 33 46 96q0 46 -28 78q-28 31 -70 47l-91 34q-49 19 -91 39q-42 19 -70 59t-28 97q0 75 55 124q54 48 158 48q97 0 168 -44q47 -29 30 -54q-12 -18 -59 7q-3 1 -4 2q-67 35 -137 35z" />
    <glyph glyph-name="T" unicode="T" horiz-adv-x="586" 
d="M323 636v-604q0 -14 -8 -23t-22 -9t-22 9t-8 23v604h-225q-12 0 -19 8q-8 7 -8 19q0 11 8 19q7 8 19 8h510q12 0 20 -8q7 -8 7 -19q0 -12 -7 -19q-8 -8 -20 -8h-225z" />
    <glyph glyph-name="U" unicode="U" horiz-adv-x="671" 
d="M336 44q194 0 194 235v379q0 14 8 23t22 9t22 -9t8 -23v-382q0 -60 -13 -109q-13 -50 -41 -91q-29 -41 -80 -63q-52 -23 -122 -23q-135 0 -194 79t-59 207v382q0 14 8 23t22 9t22 -9t8 -23v-379q0 -235 195 -235z" />
    <glyph glyph-name="V" unicode="V" horiz-adv-x="602" 
d="M39 636q-17 40 13 52q29 12 44 -27l229 -573l216 569q16 40 44 31t12 -49l-244 -622q-10 -27 -32 -27q-21 0 -30 23z" />
    <glyph glyph-name="W" unicode="W" horiz-adv-x="837" 
d="M428 488l-162 -471q-10 -27 -32 -27t-30 28l-177 627q-9 35 19 43q29 8 39 -27l155 -561l157 459q11 31 34 31q24 0 33 -29l154 -460l153 556q11 38 40 32q28 -6 15 -47l-181 -621q-9 -31 -31 -31t-32 30z" />
    <glyph glyph-name="X" unicode="X" horiz-adv-x="599" 
d="M321 404l194 265q25 32 47 15q20 -16 -2 -45l-204 -277l227 -306q22 -32 -1 -49q-12 -8 -25 -5t-22 16l-219 299l-212 -295q-24 -34 -49 -16q-20 15 1 45l226 308l-206 275q-23 31 0 50q25 21 51 -15z" />
    <glyph glyph-name="Y" unicode="Y" horiz-adv-x="555" 
d="M270 303l-226 335q-19 30 3 46q25 17 48 -16l207 -305l201 308q8 13 20 18q12 4 25 -4q21 -15 1 -44l-219 -333v-276q0 -14 -8 -23t-22 -9t-22 9t-8 23v271z" />
    <glyph glyph-name="Z" unicode="Z" horiz-adv-x="571" 
d="M66 0q-23 0 -28 18q-6 17 6 32l417 586h-379q-12 0 -19 8q-8 7 -8 19q0 11 8 19q7 8 19 8h427q23 0 29 -18q5 -18 -8 -35l-415 -583h403q12 0 20 -8q7 -8 7 -19q0 -12 -7 -19q-8 -8 -20 -8h-452z" />
    <glyph glyph-name="bracketleft" unicode="[" horiz-adv-x="279" 
d="M91 -70q-30 0 -30 32v766q0 32 28 32h132q12 0 20 -7q7 -8 7 -19q0 -26 -27 -26h-104v-726h104q12 0 20 -8q7 -7 7 -18q0 -26 -27 -26h-130z" />
    <glyph glyph-name="backslash" unicode="\" horiz-adv-x="320" 
d="M3 745q-16 46 12 54t41 -32l293 -824q15 -43 -11 -51q-28 -9 -43 32z" />
    <glyph glyph-name="bracketright" unicode="]" horiz-adv-x="279" 
d="M56 -70q-27 0 -27 26q0 11 8 18q7 8 19 8h104v726h-104q-27 0 -27 26q0 11 8 19q7 7 19 7h132q28 0 28 -32v-766q0 -32 -30 -32h-130z" />
    <glyph glyph-name="asciicircum" unicode="^" horiz-adv-x="561" 
d="M524 395q21 -30 -1 -45q-23 -16 -43 14l-184 276l-180 -275q-21 -32 -44 -15q-18 13 0 40l189 286q17 24 36 24t37 -24z" />
    <glyph glyph-name="underscore" unicode="_" horiz-adv-x="582" 
d="M38 -81q-27 0 -27 26q0 11 8 18q7 8 19 8h506q12 0 20 -8q7 -7 7 -18q0 -26 -27 -26h-506z" />
    <glyph glyph-name="grave" unicode="`" 
d="M189 664q-25 18 -12 38t41 2l150 -105q28 -19 11 -41q-9 -9 -20 -7q-11 1 -20 8z" />
    <glyph glyph-name="a" unicode="a" horiz-adv-x="496" 
d="M114 420q-36 -15 -45 6q-10 24 17 38q70 36 159 36q185 0 185 -177v-291q0 -32 -28 -32t-28 32v75q-21 -49 -69 -83t-122 -34t-118 38q-44 37 -44 108q0 46 20 80q19 33 52 51t70 26t80 8q59 0 131 -10v28q0 129 -134 129q-54 0 -126 -28zM190 42q86 0 135 57t49 123v19
q-68 10 -123 10q-172 0 -172 -113q0 -44 29 -70t82 -26z" />
    <glyph glyph-name="b" unicode="b" horiz-adv-x="537" 
d="M304 500q94 0 143 -65q49 -66 49 -175q0 -117 -59 -193q-59 -77 -176 -77q-83 0 -139 31q-8 -21 -28 -21q-28 0 -28 32v626q0 32 28 32t28 -32v-281q49 123 182 123zM296 448q-174 0 -174 -273v-98q60 -35 140 -35q93 0 135 61q41 60 41 157q0 86 -35 137t-107 51z" />
    <glyph glyph-name="c" unicode="c" horiz-adv-x="465" 
d="M425 36q-65 -46 -156 -46q-111 0 -169 66q-59 65 -59 186q0 116 69 187q68 71 175 71q73 0 126 -31q30 -17 16 -41q-12 -19 -41 -6q-59 26 -107 26q-77 0 -128 -57q-52 -57 -52 -150q0 -95 45 -147q44 -52 125 -52q66 0 123 34q35 21 48 3q15 -22 -15 -43z" />
    <glyph glyph-name="d" unicode="d" horiz-adv-x="537" 
d="M233 -10q-94 0 -143 66q-49 65 -49 174q0 117 59 194q59 76 176 76q83 0 139 -31v189q0 32 28 32t28 -32v-626q0 -32 -28 -32t-28 32v81q-49 -123 -182 -123zM241 42q174 0 174 273v98q-60 35 -140 35q-93 0 -134 -60q-42 -61 -42 -158q0 -86 35 -137t107 -51z" />
    <glyph glyph-name="e" unicode="e" horiz-adv-x="501" 
d="M272 42q62 0 124 30q29 14 40 -5q12 -21 -12 -38q-59 -39 -152 -39q-115 0 -173 66t-58 186q0 113 61 186q61 72 167 72q93 0 142 -55q49 -56 49 -135q0 -24 -3 -43q-7 -49 -53 -49h-306q6 -85 51 -130q45 -46 123 -46zM265 448q-73 0 -117 -47t-50 -133h307q2 13 2 38
q-2 65 -37 104q-36 38 -105 38z" />
    <glyph glyph-name="f" unicode="f" horiz-adv-x="295" 
d="M331 643q-9 -19 -36 -9q-42 14 -78 14q-95 0 -95 -119v-39h128q12 0 20 -7q7 -8 7 -19q0 -26 -27 -26h-128v-606q0 -32 -28 -32t-28 32v670q0 105 36 151q38 47 119 47q61 0 98 -22q22 -14 12 -35z" />
    <glyph glyph-name="g" unicode="g" horiz-adv-x="513" 
d="M401 446q42 -45 42 -112q0 -72 -49 -118q-50 -47 -142 -47q-65 0 -109 23q-40 -27 -40 -60q0 -60 169 -65q51 -2 86 -7q34 -5 66 -17t48 -35q15 -24 15 -60q0 -71 -64 -115q-64 -43 -185 -43q-217 0 -217 138q0 72 80 116q-52 29 -52 79q0 55 56 97q-44 43 -44 114
q0 74 50 120q49 46 141 46q37 0 74 -10h154q27 0 27 -21q0 -23 -27 -23h-79zM255 14q-55 1 -103 12q-77 -33 -77 -97q0 -38 38 -64q37 -26 124 -26q98 0 147 30t49 72q0 37 -39 53q-40 16 -139 20zM117 334q0 -52 34 -84t101 -32t101 32t34 84t-34 85q-34 32 -101 32
t-101 -32q-34 -33 -34 -85z" />
    <glyph glyph-name="h" unicode="h" horiz-adv-x="541" 
d="M419 286q0 78 -28 120q-29 42 -98 42q-91 0 -131 -76t-40 -197v-143q0 -32 -28 -32t-28 32v626q0 32 28 32t28 -32v-281q24 62 73 93q48 30 103 30q96 0 137 -54q40 -54 40 -158v-256q0 -32 -28 -32t-28 32v254z" />
    <glyph glyph-name="i" unicode="i" horiz-adv-x="188" 
d="M66 458q0 32 28 32t28 -32v-426q0 -32 -28 -32t-28 32v426zM52 618q0 20 12 32q11 11 30 11q20 0 32 -11q11 -12 11 -32q0 -19 -11 -30q-12 -12 -32 -12t-31 11t-11 31z" />
    <glyph glyph-name="j" unicode="j" horiz-adv-x="188" 
d="M-100 -192q-24 11 -16 35q7 21 37 12q45 -13 68 -13q53 0 69 30t16 100v486q0 32 28 32t28 -32v-493q0 -87 -31 -131q-32 -44 -107 -44q-54 0 -92 18zM60 618q0 20 12 32q11 11 30 11q20 0 32 -11q11 -12 11 -32q0 -19 -11 -30q-12 -12 -32 -12t-31 11t-11 31z" />
    <glyph glyph-name="k" unicode="k" horiz-adv-x="424" 
d="M66 658q0 32 28 32t28 -32v-394l217 213q24 24 43 5q18 -18 -5 -41l-201 -190l224 -199q11 -9 13 -22q1 -13 -7 -21q-19 -19 -46 4l-238 214v-195q0 -32 -28 -32t-28 32v626z" />
    <glyph glyph-name="l" unicode="l" horiz-adv-x="303" 
d="M66 658q0 32 28 32t28 -32v-491q0 -68 18 -96q18 -29 67 -29q20 0 54 13t43 -5q10 -20 -17 -38q-34 -22 -90 -22q-70 0 -100 38q-31 38 -31 124v506z" />
    <glyph glyph-name="m" unicode="m" horiz-adv-x="854" 
d="M399 286q0 81 -23 122q-23 40 -88 40q-47 0 -81 -26q-35 -26 -52 -68q-18 -43 -25 -86q-8 -44 -8 -90v-146q0 -32 -28 -32t-28 32v426q0 32 28 32t28 -32v-85q24 64 70 96q45 31 103 31q135 0 150 -136q25 67 74 102q49 34 109 34q88 0 124 -53t36 -154v-261
q0 -32 -28 -32t-28 32v254q0 81 -23 122q-24 40 -88 40q-38 0 -67 -16q-30 -16 -48 -41q-18 -26 -30 -61t-16 -69q-5 -34 -5 -70v-159q0 -32 -28 -32t-28 32v254z" />
    <glyph glyph-name="n" unicode="n" horiz-adv-x="541" 
d="M419 286q0 78 -28 120q-29 42 -98 42q-91 0 -131 -76t-40 -197v-143q0 -32 -28 -32t-28 32v426q0 32 28 32t28 -32v-81q24 62 73 93q48 30 103 30q96 0 137 -54q40 -54 40 -158v-256q0 -32 -28 -32t-28 32v254z" />
    <glyph glyph-name="o" unicode="o" horiz-adv-x="558" 
d="M41 245q0 110 63 183q63 72 175 72t175 -72q63 -73 63 -183t-63 -182q-63 -73 -175 -73t-175 73q-63 72 -63 182zM99 245q0 -93 48 -148t132 -55t132 55t48 148t-48 148t-132 55t-132 -55t-48 -148z" />
    <glyph glyph-name="p" unicode="p" horiz-adv-x="537" 
d="M304 500q94 0 143 -65q49 -66 49 -175q0 -117 -59 -193q-59 -77 -176 -77q-83 0 -139 31v-189q0 -32 -28 -32t-28 32v626q0 32 28 32t28 -32v-81q49 123 182 123zM296 448q-174 0 -174 -273v-98q60 -35 140 -35q93 0 135 61q41 60 41 157q0 86 -35 137t-107 51z" />
    <glyph glyph-name="q" unicode="q" horiz-adv-x="537" 
d="M233 -10q-94 0 -143 66q-49 65 -49 174q0 117 59 194q59 76 176 76q83 0 139 -31q8 21 28 21q28 0 28 -32v-626q0 -32 -28 -32t-28 32v281q-49 -123 -182 -123zM241 42q174 0 174 273v98q-60 35 -140 35q-93 0 -134 -60q-42 -61 -42 -158q0 -86 35 -137t107 -51z" />
    <glyph glyph-name="r" unicode="r" horiz-adv-x="337" 
d="M122 32q0 -32 -28 -32t-28 32v427q0 31 28 31t28 -31v-62q15 48 52 76q36 27 82 27q37 0 63 -16q25 -16 16 -38q-9 -21 -41 -7q-22 9 -45 9q-50 0 -83 -45q-44 -58 -44 -215v-156z" />
    <glyph glyph-name="s" unicode="s" horiz-adv-x="424" 
d="M228 500q81 0 138 -33q32 -18 20 -42q-9 -20 -39 -7q-68 30 -120 30q-53 0 -79 -19q-27 -20 -27 -55t30 -56q29 -21 71 -31q41 -11 83 -24q42 -14 72 -45q29 -32 29 -83q0 -65 -50 -105q-51 -40 -141 -40q-96 0 -152 38q-28 19 -15 41q11 19 43 4q65 -31 132 -31
q55 0 90 24t35 64q0 36 -29 58q-30 21 -71 32q-42 11 -84 24t-71 44q-30 30 -30 80q0 63 45 98q44 34 120 34z" />
    <glyph glyph-name="t" unicode="t" horiz-adv-x="302" 
d="M122 438v-271q0 -68 18 -96q18 -29 67 -29q20 0 51 12q36 15 45 -1q13 -23 -16 -41q-37 -22 -92 -22q-71 0 -100 38t-29 126v424q0 32 28 32t28 -32v-88h128q12 0 20 -7q7 -8 7 -19q0 -26 -27 -26h-128z" />
    <glyph glyph-name="u" unicode="u" horiz-adv-x="541" 
d="M122 204q0 -78 29 -120q28 -42 97 -42q91 0 131 76t40 197v143q0 32 28 32t28 -32v-426q0 -32 -28 -32t-28 32v81q-24 -62 -72 -92q-49 -31 -104 -31q-96 0 -136 54q-41 54 -41 158v256q0 32 28 32t28 -32v-254z" />
    <glyph glyph-name="v" unicode="v" horiz-adv-x="453" 
d="M261 16q-11 -26 -32 -26q-20 0 -29 22l-172 427q-6 12 -4 28q2 15 16 20q27 10 40 -23l152 -385l147 384q14 34 40 24q24 -9 11 -42z" />
    <glyph glyph-name="w" unicode="w" horiz-adv-x="664" 
d="M35 438q-10 42 14 50q29 11 42 -32l116 -376l109 316q9 24 28 24t28 -24l117 -320l109 386q9 33 36 27q28 -6 16 -42l-131 -432q-8 -25 -32 -25q-23 0 -30 22l-116 311l-107 -308q-8 -25 -31 -25t-30 22z" />
    <glyph glyph-name="x" unicode="x" horiz-adv-x="455" 
d="M245 293l139 182q20 27 43 9q9 -9 8 -22q-2 -13 -11 -22l-144 -183l163 -208q8 -10 8 -22t-9 -21q-22 -19 -45 9l-154 197l-151 -196q-25 -29 -45 -10q-18 16 4 44l158 202l-143 185q-22 29 -1 47q22 19 44 -11z" />
    <glyph glyph-name="y" unicode="y" horiz-adv-x="441" 
d="M6 -192q-32 18 -23 42q9 23 50 4q25 -12 52 -12q19 0 35 9q15 9 26 20q11 12 23 37q12 26 19 42l19 52l-181 438q-15 36 12 47t42 -25l157 -393l145 392q14 36 42 26q23 -9 9 -45l-173 -448q-45 -118 -81 -161t-98 -43q-42 0 -75 18z" />
    <glyph glyph-name="z" unicode="z" horiz-adv-x="433" 
d="M52 0q-21 0 -25 17q-5 17 8 33l300 388h-265q-27 0 -27 26q0 11 8 19q7 7 19 7h313q23 0 28 -17t-8 -33l-302 -388h288q12 0 20 -7q7 -8 7 -19q0 -26 -27 -26h-337z" />
    <glyph glyph-name="braceleft" unicode="{" horiz-adv-x="300" 
d="M150 64q0 -45 14 -70q13 -24 50 -24q2 0 38 8q24 6 31 -12q9 -21 -19 -35q-22 -11 -53 -11q-65 0 -91 37q-26 38 -26 105v188q0 46 -28 61q-25 13 -25 34t25 34q28 15 28 61v188q0 67 26 105q26 37 91 37q31 0 53 -11q28 -13 19 -35q-7 -18 -31 -12q-36 8 -38 8
q-37 0 -50 -24q-14 -25 -14 -70v-196q0 -65 -46 -85q46 -20 46 -85v-196z" />
    <glyph glyph-name="bar" unicode="|" horiz-adv-x="188" 
d="M67 768q0 32 27 32t27 -32v-846q0 -32 -27 -32t-27 32v846z" />
    <glyph glyph-name="braceright" unicode="}" horiz-adv-x="300" 
d="M157 260q0 65 46 85q-46 20 -46 85v196q0 45 -13 70q-14 24 -51 24q-2 0 -38 -8q-24 -6 -31 12q-9 22 19 35q22 11 53 11q65 0 91 -37q26 -38 26 -105v-188q0 -46 28 -61q25 -13 25 -34t-25 -34q-28 -15 -28 -61v-188q0 -67 -26 -105q-26 -37 -91 -37q-31 0 -53 11
q-28 14 -19 35q7 18 31 12q36 -8 38 -8q37 0 51 24q13 25 13 70v196z" />
    <glyph glyph-name="asciitilde" unicode="~" horiz-adv-x="497" 
d="M351 261q-33 0 -92 24q-59 23 -83 23q-30 0 -65 -25q-31 -23 -45 -10q-18 18 9 43q47 44 106 44q38 0 99 -23q60 -24 76 -24q32 0 65 25q33 24 47 9q7 -10 4 -21q-4 -11 -15 -21q-47 -44 -106 -44z" />
    <glyph glyph-name="uni00A0" unicode="&#xa0;" horiz-adv-x="250" 
 />
    <glyph glyph-name="exclamdown" unicode="&#xa1;" horiz-adv-x="201" 
d="M72 478q0 32 28 32t28 -32v-456q0 -32 -28 -32t-28 32v456zM56 646q0 19 12 32q11 12 32 12t33 -12q12 -13 12 -32t-12 -32t-33 -13t-32 13q-12 13 -12 32z" />
    <glyph glyph-name="cent" unicode="&#xa2;" horiz-adv-x="552" 
d="M460 36q-51 -36 -126 -44v-81q0 -32 -26 -32t-26 32v80q-101 6 -153 71q-53 65 -53 180q0 105 57 174t149 81v82q0 32 26 32t26 -32v-79q63 -3 112 -31q30 -17 16 -41q-12 -19 -41 -6q-59 26 -107 26q-77 0 -128 -57q-52 -57 -52 -150q0 -95 45 -147q44 -52 125 -52
q66 0 123 34q35 21 48 3q15 -22 -15 -43z" />
    <glyph glyph-name="sterling" unicode="&#xa3;" horiz-adv-x="552" 
d="M298 648q-62 0 -101 -37q-39 -38 -39 -96q0 -22 6 -47q6 -26 12 -41q5 -16 18 -48l18 -44h152q12 0 20 -7q7 -7 7 -18q0 -25 -27 -25h-134q14 -51 14 -94q0 -87 -57 -139h293q12 0 20 -7q7 -8 7 -19q0 -26 -27 -26h-397q-27 0 -27 26q0 11 8 19q7 7 19 7q48 0 76 41
q27 41 27 97q0 48 -14 95h-76q-27 0 -27 25q0 11 8 18q7 7 19 7h56q-3 7 -12 26q-9 18 -12 27q-4 8 -10 26q-7 18 -10 31t-5 32q-3 18 -3 38q0 83 54 134q53 51 145 51q105 -3 175 -52q32 -23 17 -45q-15 -20 -49 1q-72 44 -144 44z" />
    <glyph glyph-name="currency" unicode="&#xa4;" horiz-adv-x="669" 
d="M120 351q0 86 44 144l-75 81q-11 11 -14 25q-3 13 7 24q22 19 50 -11l71 -81q59 45 144 45q86 0 144 -45l72 82q25 30 48 10q22 -19 -4 -46l-78 -84q45 -59 45 -144q0 -86 -45 -145l79 -84q10 -11 12 -23q2 -13 -6 -22q-21 -21 -53 13l-70 78q-59 -44 -144 -44t-144 44
l-68 -77q-31 -34 -53 -14q-20 17 7 48l75 81q-44 58 -44 145zM172 351q0 -85 48 -132q47 -48 127 -48t128 48q47 47 47 132t-47 133q-48 47 -128 47q-78 0 -126 -50q-49 -50 -49 -130z" />
    <glyph glyph-name="yen" unicode="&#xa5;" horiz-adv-x="552" 
d="M309 166v-134q0 -14 -8 -23t-22 -9t-22 9t-8 23v134h-143q-27 0 -27 25q0 11 8 18q7 7 19 7h143v75h-143q-27 0 -27 25q0 11 8 18q7 7 19 7h123l-193 295q-9 11 -9 26q0 14 13 22q25 16 46 -18l194 -310l193 313q18 29 40 16q10 -6 10 -18t-8 -24l-191 -302h129
q12 0 20 -7q7 -7 7 -18q0 -25 -27 -25h-144v-75h144q12 0 20 -7q7 -7 7 -18q0 -25 -27 -25h-144z" />
    <glyph glyph-name="brokenbar" unicode="&#xa6;" horiz-adv-x="188" 
d="M67 258q0 32 27 32t27 -32v-336q0 -32 -27 -32t-27 32v336zM67 768q0 32 27 32t27 -32v-336q0 -32 -27 -32t-27 32v336z" />
    <glyph glyph-name="section" unicode="&#xa7;" horiz-adv-x="547" 
d="M93 531q0 78 53 124q53 45 153 45q75 0 129 -25q51 -23 38 -50q-4 -7 -9 -10q-6 -3 -17 0q-11 2 -14 3q-4 1 -19 7q-58 23 -110 23q-73 0 -109 -32q-37 -32 -37 -85q0 -17 3 -31q3 -15 11 -27l13 -21q6 -9 20 -18l22 -15q7 -5 27 -13q19 -8 26 -10l30 -11l29 -10
q74 -26 114 -62t40 -108q0 -95 -85 -150q53 -48 53 -133q0 -74 -54 -124t-152 -50q-73 0 -129 24q-52 22 -38 51q9 20 54 2q3 -1 5 -2q58 -23 111 -23q73 0 109 32t36 85q0 33 -11 57t-34 41t-44 27q-21 9 -55 21q-92 32 -120 50q-71 44 -71 130q0 95 88 151q-56 48 -56 137
zM119 251q0 -30 11 -52t38 -37q26 -16 45 -23q19 -8 58 -21q57 -19 89 -35q68 44 68 114q0 51 -29 78t-84 46q-106 36 -125 46q-71 -44 -71 -116z" />
    <glyph glyph-name="dieresis" unicode="&#xa8;" 
d="M141 616q0 17 11 30q11 12 30 12t31 -12q11 -13 11 -30t-11 -29q-12 -12 -31 -12t-30 12t-11 29zM306 616q0 17 11 30q11 12 30 12t31 -12q11 -13 11 -30t-11 -29q-12 -12 -31 -12t-30 12t-11 29z" />
    <glyph glyph-name="copyright" unicode="&#xa9;" horiz-adv-x="776" 
d="M41 345q0 154 93 255q93 100 254 100t254 -100q93 -101 93 -255t-93 -254q-93 -101 -254 -101t-254 101q-93 100 -93 254zM96 345q0 -135 78 -219t214 -84t214 84t78 219t-78 220q-78 84 -214 84t-214 -84q-78 -85 -78 -220zM399 496q-60 0 -93 -39q-33 -40 -33 -110
t31 -108t92 -38q47 0 87 26q20 13 33 -3q6 -7 5 -18q-2 -11 -11 -19q-41 -38 -117 -38q-88 0 -133 53q-45 52 -45 145q0 92 51 147q51 54 134 54q64 0 101 -26q22 -16 11 -36q-10 -18 -36 -6q-33 16 -77 16z" />
    <glyph glyph-name="ordfeminine" unicode="&#xaa;" horiz-adv-x="382" 
d="M108 637q-28 -9 -35 7q-9 20 15 31q52 25 114 25q136 0 136 -125v-215q0 -10 -7 -16q-7 -7 -17 -7t-17 6q-8 6 -8 17v43q-16 -30 -50 -51q-35 -22 -79 -22q-56 0 -86 30t-30 79q0 59 42 92t107 33q44 0 96 -9v17q0 44 -20 63t-69 19q-41 0 -92 -17zM166 376q58 0 91 38
q32 38 32 79v15q-45 10 -91 10q-99 0 -99 -79q0 -28 18 -45q17 -18 49 -18z" />
    <glyph glyph-name="guillemotleft" unicode="&#xab;" horiz-adv-x="485" 
d="M214 434q26 26 42 9q15 -17 -9 -44l-152 -151l156 -158q23 -24 6 -41t-40 7l-160 158q-16 19 -15 33q0 14 17 31zM385 434q26 26 42 9q15 -17 -9 -44l-152 -151l156 -158q23 -24 6 -41q-16 -17 -40 7l-160 158q-16 19 -15 33q0 14 17 31z" />
    <glyph glyph-name="logicalnot" unicode="&#xac;" horiz-adv-x="497" 
d="M402 305h-334q-27 0 -27 26q0 11 8 19q7 7 19 7h356q32 0 32 -33v-120q0 -32 -27 -32t-27 32v101z" />
    <glyph glyph-name="uni00AD" unicode="&#xad;" horiz-adv-x="338" 
d="M38 244q-27 0 -27 26q0 11 8 19q7 7 19 7h262q12 0 20 -7q7 -8 7 -19q0 -26 -27 -26h-262z" />
    <glyph glyph-name="registered" unicode="&#xae;" horiz-adv-x="666" 
d="M81 445q0 109 69 182q68 73 183 73q116 0 184 -73t68 -182t-68 -182t-184 -73q-115 0 -183 73q-69 73 -69 182zM131 445q0 -89 53 -148q52 -60 149 -60q98 0 150 60q52 59 52 148q0 90 -52 149t-150 59q-97 0 -149 -59q-53 -59 -53 -149zM336 417q-12 -2 -24 -2
q-19 0 -32 2v-87q0 -25 -21 -25t-21 25v234q0 23 22 28q32 7 65 7q48 0 79 -21q30 -21 30 -67q0 -62 -55 -84l56 -81q7 -11 6 -21q-2 -11 -10 -16q-20 -11 -35 12zM317 560q-19 0 -37 -4v-101q16 -2 28 -2q46 0 64 13t18 44q0 28 -18 39t-55 11z" />
    <glyph glyph-name="macron" unicode="&#xaf;" 
d="M139 592q-26 0 -26 24q0 10 7 18q7 7 19 7h252q12 0 19 -7q7 -8 7 -18q0 -24 -26 -24h-252z" />
    <glyph glyph-name="degree" unicode="&#xb0;" horiz-adv-x="552" 
d="M122 549q0 70 43 111q43 40 111 40t111 -40q43 -41 43 -111t-43 -110q-43 -41 -111 -41t-111 41q-43 40 -43 110zM176 549q0 -51 28 -78q27 -27 72 -27t73 27q27 27 27 78t-27 78q-28 27 -73 27t-72 -27q-28 -27 -28 -78z" />
    <glyph glyph-name="plusminus" unicode="&#xb1;" horiz-adv-x="497" 
d="M222 335h-154q-27 0 -27 26q0 11 8 19q7 7 19 7h154v132q0 32 27 32t27 -32v-132h153q12 0 20 -7q7 -8 7 -19q0 -26 -27 -26h-153v-62q0 -32 -27 -32t-27 32v62zM68 155q-27 0 -27 26q0 11 8 19q7 7 19 7h361q12 0 20 -7q7 -8 7 -19q0 -26 -27 -26h-361z" />
    <glyph glyph-name="twosuperior" unicode="&#xb2;" horiz-adv-x="292" 
d="M57 340q-21 0 -21 22q0 50 28 87t61 56q33 18 61 44t28 55q0 50 -63 50q-34 0 -75 -22q-27 -15 -37 -2q-14 18 12 37q42 33 104 33q53 0 83 -24q30 -25 30 -68q0 -40 -28 -72q-28 -33 -61 -51q-34 -18 -62 -44t-28 -55h169q24 0 24 -23t-24 -23h-201z" />
    <glyph glyph-name="threesuperior" unicode="&#xb3;" horiz-adv-x="307" 
d="M113 510q-25 0 -25 22q0 11 14 25l95 87h-122q-22 0 -22 22q0 11 6 18q6 6 16 6h178q9 0 15 -6t6 -15q0 -13 -14 -25l-103 -92q131 -3 131 -106q0 -55 -37 -85q-38 -31 -102 -31q-55 0 -94 22q-30 17 -18 40q2 4 6 7q4 2 7 3q3 0 9 -1q5 -2 8 -3q2 -1 8 -3q5 -3 6 -3
q35 -16 67 -16q86 0 86 68q0 66 -121 66z" />
    <glyph glyph-name="acute" unicode="&#xb4;" 
d="M222 561q-30 -22 -44 -1q-15 21 16 42l145 101q28 21 42 1q17 -22 -14 -42z" />
    <glyph glyph-name="mu" unicode="&#xb5;" horiz-adv-x="541" 
d="M122 208q0 -166 127 -166q91 0 131 76q39 76 39 197v143q0 32 28 32t28 -32v-426q0 -32 -28 -32t-28 32v81q-24 -62 -70 -92q-46 -31 -101 -31q-88 0 -126 65v-223q0 -32 -28 -32t-28 32v626q0 32 28 32t28 -32v-250z" />
    <glyph glyph-name="paragraph" unicode="&#xb6;" horiz-adv-x="405" 
d="M158 300q-63 0 -105 57t-42 139t48 138t120 56q33 0 33 -34v-734q0 -32 -27 -32t-27 32v378zM270 658q0 32 27 32t27 -32v-736q0 -32 -27 -32t-27 32v736z" />
    <glyph glyph-name="periodcentered" unicode="&#xb7;" horiz-adv-x="201" 
d="M56 324q0 19 12 32q11 13 32 13t33 -13t12 -32t-12 -31q-12 -13 -33 -13t-32 13q-12 12 -12 31z" />
    <glyph glyph-name="cedilla" unicode="&#xb8;" horiz-adv-x="302" 
d="M106 -178q24 -10 52 -10q52 0 52 45q0 43 -75 48q-28 2 -23 25l20 78q7 29 29 25q21 -4 16 -30l-14 -55q52 -5 76 -30q23 -25 23 -59q0 -45 -27 -70q-28 -25 -79 -25q-44 0 -76 17q-27 13 -16 36q9 19 42 5z" />
    <glyph glyph-name="onesuperior" unicode="&#xb9;" horiz-adv-x="245" 
d="M147 622l-77 -77q-22 -22 -38 -7q-15 15 4 37l107 108q17 17 32 17q24 0 24 -25v-308q0 -27 -26 -27t-26 27v255z" />
    <glyph glyph-name="ordmasculine" unicode="&#xba;" horiz-adv-x="367" 
d="M31 514q0 84 39 135q38 51 114 51t114 -51t38 -135q0 -83 -38 -133q-38 -51 -114 -51t-114 51q-39 50 -39 133zM85 514q0 -138 99 -138q98 0 98 138q0 64 -24 102t-74 38q-99 0 -99 -140z" />
    <glyph glyph-name="guillemotright" unicode="&#xbb;" horiz-adv-x="485" 
d="M115 59q-26 -26 -42 -9q-15 17 9 44l152 151l-156 158q-23 24 -6 41q17 16 40 -7l160 -158q16 -19 16 -33q-1 -14 -18 -31zM286 59q-26 -26 -42 -9q-15 17 9 44l152 151l-156 158q-23 24 -6 41q16 16 40 -7l160 -158q16 -19 16 -33q-1 -14 -18 -31z" />
    <glyph glyph-name="onequarter" unicode="&#xbc;" horiz-adv-x="678" 
d="M566 146v140l-114 -140h114zM614 25q0 -25 -24 -25t-24 25v75h-145q-23 0 -27 19q-5 18 8 30l156 192q16 19 33 19q23 0 23 -25v-189h26q22 0 22 -23t-22 -23h-26v-75zM147 622l-77 -77q-22 -22 -38 -7q-15 15 4 37l107 108q17 17 32 17q24 0 24 -25v-308q0 -27 -26 -27
t-26 27v255zM454 711q12 36 37 28q23 -8 9 -45l-253 -704q-14 -37 -38 -29q-22 7 -7 48z" />
    <glyph glyph-name="onehalf" unicode="&#xbd;" horiz-adv-x="722" 
d="M491 0q-21 0 -21 22q0 50 28 87t61 56q33 18 61 44t28 55q0 50 -63 50q-34 0 -75 -22q-27 -15 -37 -2q-14 18 12 37q42 33 104 33q53 0 83 -24q30 -25 30 -68q0 -40 -28 -72q-28 -33 -61 -51q-34 -18 -62 -44t-28 -55h169q24 0 24 -23t-24 -23h-201zM147 622l-77 -77
q-22 -22 -38 -7q-15 15 4 37l107 108q17 17 32 17q24 0 24 -25v-308q0 -27 -26 -27t-26 27v255zM454 711q12 36 37 28q23 -8 9 -45l-253 -704q-14 -37 -38 -29q-22 7 -7 48z" />
    <glyph glyph-name="threequarters" unicode="&#xbe;" horiz-adv-x="720" 
d="M113 510q-25 0 -25 22q0 11 14 25l95 87h-122q-22 0 -22 22q0 11 6 18q6 6 16 6h178q9 0 15 -6t6 -15q0 -13 -14 -25l-103 -92q131 -3 131 -106q0 -55 -37 -85q-38 -31 -102 -31q-55 0 -94 22q-30 17 -18 40q2 4 6 7q4 2 7 3q3 0 9 -1q5 -2 8 -3q2 -1 8 -3q5 -3 6 -3
q35 -16 67 -16q86 0 86 68q0 66 -121 66zM605 146v140l-114 -140h114zM653 25q0 -25 -24 -25t-24 25v75h-145q-23 0 -27 19q-5 18 8 30l156 192q16 19 33 19q23 0 23 -25v-189h26q22 0 22 -23t-22 -23h-26v-75zM491 711q12 36 37 28q23 -8 9 -45l-253 -704q-14 -37 -38 -29
q-22 7 -7 48z" />
    <glyph glyph-name="questiondown" unicode="&#xbf;" horiz-adv-x="403" 
d="M208 -10q-92 0 -135 45q-44 45 -44 113q0 34 7 61t27 53q19 25 28 35q9 9 37 36q28 26 41 40q12 14 25 42t13 59q0 36 28 36t28 -36q0 -39 -15 -73q-16 -35 -32 -54q-17 -19 -47 -48q-27 -25 -41 -41q-15 -17 -28 -46q-13 -30 -13 -63q0 -45 32 -76q31 -31 90 -31
q49 0 111 28q35 17 46 -1q14 -24 -22 -44q-61 -35 -136 -35zM279 646q0 -19 -11 -32q-12 -13 -33 -13t-33 13t-12 32t12 32q12 12 33 12t33 -12q11 -13 11 -32z" />
    <glyph glyph-name="Agrave" unicode="&#xc0;" horiz-adv-x="601" 
d="M596 47q12 -32 -11 -44q-30 -14 -44 20l-77 197h-303l-71 -190q-13 -38 -42 -28q-27 10 -12 46l244 624q11 28 34 28q21 0 31 -24zM182 274h262l-133 336zM138 842q-36 18 -22 42q11 21 46 3l180 -93q33 -17 20 -40q-11 -20 -44 -4z" />
    <glyph glyph-name="Aacute" unicode="&#xc1;" horiz-adv-x="601" 
d="M596 47q12 -32 -11 -44q-30 -14 -44 20l-77 197h-303l-71 -190q-13 -38 -42 -28q-27 10 -12 46l244 624q11 28 34 28q21 0 31 -24zM182 274h262l-133 336zM300 750q-34 -17 -44 4q-12 23 20 40l181 93q34 17 45 -3q14 -24 -22 -42z" />
    <glyph glyph-name="Acircumflex" unicode="&#xc2;" horiz-adv-x="601" 
d="M596 47q12 -32 -11 -44q-30 -14 -44 20l-77 197h-303l-71 -190q-13 -38 -42 -28q-27 10 -12 46l244 624q11 28 34 28q21 0 31 -24zM182 274h262l-133 336zM314 827l-127 -78q-32 -19 -43 2q-10 20 19 38l126 78q27 17 57 0l123 -75q32 -19 17 -42q-12 -19 -43 -1z" />
    <glyph glyph-name="Atilde" unicode="&#xc3;" horiz-adv-x="601" 
d="M596 47q12 -32 -11 -44q-30 -14 -44 20l-77 197h-303l-71 -190q-13 -38 -42 -28q-27 10 -12 46l244 624q11 28 34 28q21 0 31 -24zM182 274h262l-133 336zM387 750q-34 0 -78 27t-60 27q-20 0 -54 -31q-24 -22 -39 -11q-20 16 4 42q41 49 91 49q30 0 76 -27
q45 -27 62 -27q24 0 54 30q23 23 40 10q18 -15 -5 -42q-42 -47 -91 -47z" />
    <glyph glyph-name="Adieresis" unicode="&#xc4;" horiz-adv-x="601" 
d="M596 47q12 -32 -11 -44q-30 -14 -44 20l-77 197h-303l-71 -190q-13 -38 -42 -28q-27 10 -12 46l244 624q11 28 34 28q21 0 31 -24zM182 274h262l-133 336zM175 808q0 21 13 34q12 12 33 12q22 0 35 -12q13 -13 13 -34q0 -44 -48 -44q-46 0 -46 44zM361 808q0 21 13 34
q12 12 34 12q21 0 34 -13t13 -33q0 -21 -12 -32q-13 -12 -35 -12q-47 0 -47 44z" />
    <glyph glyph-name="Aring" unicode="&#xc5;" horiz-adv-x="601" 
d="M273 684q-35 7 -55 31q-20 23 -20 56q0 39 29 65q28 25 75 25t76 -25q28 -26 28 -65q0 -34 -21 -57q-21 -24 -57 -31q1 -1 5 -9l250 -627q12 -32 -11 -44q-30 -14 -44 20l-77 197h-303l-72 -192q-14 -39 -45 -25q-10 4 -12 18t4 27l244 624q4 10 6 12zM169 274h262
l-133 336zM302 821q-25 0 -40 -14q-16 -14 -16 -35q0 -22 15 -36q15 -15 41 -15q25 0 42 15q16 14 16 35t-16 36q-17 14 -42 14z" />
    <glyph glyph-name="AE" unicode="&#xc6;" horiz-adv-x="879" 
d="M485 0q-15 0 -25 10t-10 24v186h-237l-127 -191q-28 -44 -55 -24q-20 15 2 50l414 609q17 26 42 26h346q12 0 20 -8q7 -8 7 -19q0 -12 -7 -19q-8 -8 -20 -8h-325v-249h265q12 0 20 -8q7 -8 7 -19q0 -12 -7 -19q-8 -8 -20 -8h-265v-279h336q12 0 20 -8q7 -8 7 -19
q0 -12 -7 -19q-8 -8 -20 -8h-361zM249 274h201v302z" />
    <glyph glyph-name="Ccedilla" unicode="&#xc7;" horiz-adv-x="634" 
d="M300 -178q24 -10 52 -10q52 0 52 45q0 43 -75 48q-28 2 -23 25l16 62q-137 13 -204 107t-67 245q0 159 88 258q88 98 238 98q109 0 184 -51q32 -22 17 -45q-14 -22 -49 0q-68 42 -154 42q-123 0 -192 -85q-70 -86 -70 -218q0 -139 71 -219t187 -80q89 0 169 52
q32 21 47 2q16 -21 -18 -48q-34 -25 -88 -42t-114 -18l-10 -42q52 -5 76 -30q23 -25 23 -59q0 -45 -27 -70q-28 -25 -79 -25q-44 0 -76 17q-27 13 -16 36q9 19 42 5z" />
    <glyph glyph-name="Egrave" unicode="&#xc8;" horiz-adv-x="542" 
d="M116 0q-16 0 -25 10q-10 10 -10 24v623q0 14 9 24q8 9 23 9h365q12 0 20 -8q7 -8 7 -19q0 -12 -7 -19q-8 -8 -20 -8h-337v-249h277q12 0 20 -8q7 -8 7 -19q0 -12 -7 -19q-8 -8 -20 -8h-277v-279h348q12 0 20 -8q7 -8 7 -19q0 -12 -7 -19q-8 -8 -20 -8h-373zM124 842
q-36 18 -22 42q11 21 46 3l180 -93q33 -17 20 -40q-11 -20 -44 -4z" />
    <glyph glyph-name="Eacute" unicode="&#xc9;" horiz-adv-x="542" 
d="M116 0q-16 0 -25 10q-10 10 -10 24v623q0 14 9 24q8 9 23 9h365q12 0 20 -8q7 -8 7 -19q0 -12 -7 -19q-8 -8 -20 -8h-337v-249h277q12 0 20 -8q7 -8 7 -19q0 -12 -7 -19q-8 -8 -20 -8h-277v-279h348q12 0 20 -8q7 -8 7 -19q0 -12 -7 -19q-8 -8 -20 -8h-373zM286 750
q-34 -17 -44 4q-12 23 20 40l181 93q34 17 45 -3q14 -24 -22 -42z" />
    <glyph glyph-name="Ecircumflex" unicode="&#xca;" horiz-adv-x="542" 
d="M116 0q-16 0 -25 10q-10 10 -10 24v623q0 14 9 24q8 9 23 9h365q12 0 20 -8q7 -8 7 -19q0 -12 -7 -19q-8 -8 -20 -8h-337v-249h277q12 0 20 -8q7 -8 7 -19q0 -12 -7 -19q-8 -8 -20 -8h-277v-279h348q12 0 20 -8q7 -8 7 -19q0 -12 -7 -19q-8 -8 -20 -8h-373zM291 827
l-127 -78q-32 -19 -43 2q-10 20 19 38l126 78q27 17 57 0l123 -75q32 -19 17 -42q-12 -19 -43 -1z" />
    <glyph glyph-name="Edieresis" unicode="&#xcb;" horiz-adv-x="542" 
d="M116 0q-16 0 -25 10q-10 10 -10 24v623q0 14 9 24q8 9 23 9h365q12 0 20 -8q7 -8 7 -19q0 -12 -7 -19q-8 -8 -20 -8h-337v-249h277q12 0 20 -8q7 -8 7 -19q0 -12 -7 -19q-8 -8 -20 -8h-277v-279h348q12 0 20 -8q7 -8 7 -19q0 -12 -7 -19q-8 -8 -20 -8h-373zM148 808
q0 21 13 34q12 12 33 12q22 0 35 -12q13 -13 13 -34q0 -44 -48 -44q-46 0 -46 44zM334 808q0 21 13 34q12 12 34 12q21 0 34 -13t13 -33q0 -21 -12 -32q-13 -12 -35 -12q-47 0 -47 44z" />
    <glyph glyph-name="Igrave" unicode="&#xcc;" horiz-adv-x="222" 
d="M-69 842q-36 18 -22 42q11 21 46 3l180 -93q33 -17 20 -40q-11 -20 -44 -4zM95 658q0 14 8 23t22 9t22 -9t8 -23v-626q0 -14 -8 -23t-22 -9t-22 9t-8 23v626z" />
    <glyph glyph-name="Iacute" unicode="&#xcd;" horiz-adv-x="222" 
d="M137 750q-34 -17 -44 4q-12 23 20 40l181 93q34 17 45 -3q14 -24 -22 -42zM92 658q0 14 8 23t22 9t22 -9t8 -23v-626q0 -14 -8 -23t-22 -9t-22 9t-8 23v626z" />
    <glyph glyph-name="Icircumflex" unicode="&#xce;" horiz-adv-x="222" 
d="M122 827l-127 -78q-32 -19 -43 2q-10 20 19 38l126 78q27 17 57 0l123 -75q32 -19 17 -42q-12 -19 -43 -1zM91 658q0 14 8 23t22 9t22 -9t8 -23v-626q0 -14 -8 -23t-22 -9t-22 9t-8 23v626z" />
    <glyph glyph-name="Idieresis" unicode="&#xcf;" horiz-adv-x="222" 
d="M-4 806q0 18 11 31q11 12 31 12t32 -12q11 -13 11 -31q0 -19 -11 -30q-12 -12 -32 -12t-31 12q-11 11 -11 30zM141 806q0 18 11 31q11 12 31 12t32 -12q11 -13 11 -31q0 -19 -11 -30q-12 -12 -32 -12t-31 12q-11 11 -11 30zM81 658q0 14 8 23t22 9t22 -9t8 -23v-626
q0 -14 -8 -23t-22 -9t-22 9t-8 23v626z" />
    <glyph glyph-name="Eth" unicode="&#xd0;" horiz-adv-x="719" 
d="M111 334h-63q-12 0 -19 8q-8 7 -8 19q0 11 8 19q7 8 19 8h63v254q0 33 30 39q70 14 173 14q354 0 354 -347q0 -168 -90 -260q-90 -93 -263 -93q-108 0 -174 11q-30 4 -30 34v294zM310 641q-67 0 -139 -9v-244h157q12 0 20 -8q7 -8 7 -19q0 -12 -7 -19q-8 -8 -20 -8h-157
v-277q71 -8 138 -8q150 0 224 77q73 77 73 222q0 293 -296 293z" />
    <glyph glyph-name="Ntilde" unicode="&#xd1;" horiz-adv-x="697" 
d="M560 658q0 32 28 32t28 -32v-626q0 -14 -8 -23t-21 -9q-16 0 -30 16l-420 564v-548q0 -32 -28 -32t-28 32v624q0 14 8 24q7 10 22 10q19 0 33 -19l416 -562v549zM425 750q-34 0 -78 27t-60 27q-20 0 -54 -31q-24 -22 -39 -11q-20 16 4 42q41 49 91 49q30 0 76 -27
q45 -27 62 -27q24 0 54 30q23 23 40 10q18 -15 -5 -42q-42 -47 -91 -47z" />
    <glyph glyph-name="Ograve" unicode="&#xd2;" horiz-adv-x="748" 
d="M51 345q0 156 85 256q84 99 238 99t239 -99q84 -100 84 -256t-84 -255q-85 -100 -239 -100t-238 100q-85 99 -85 255zM113 345q0 -132 70 -216q69 -85 191 -85t192 85q69 84 69 216t-69 217q-70 84 -192 84t-191 -84q-70 -85 -70 -217zM214 842q-36 18 -22 42q11 21 46 3
l180 -93q33 -17 20 -40q-11 -20 -44 -4z" />
    <glyph glyph-name="Oacute" unicode="&#xd3;" horiz-adv-x="748" 
d="M51 345q0 156 85 256q84 99 238 99t239 -99q84 -100 84 -256t-84 -255q-85 -100 -239 -100t-238 100q-85 99 -85 255zM113 345q0 -132 70 -216q69 -85 191 -85t192 85q69 84 69 216t-69 217q-70 84 -192 84t-191 -84q-70 -85 -70 -217zM366 750q-34 -17 -44 4
q-12 23 20 40l181 93q34 17 45 -3q14 -24 -22 -42z" />
    <glyph glyph-name="Ocircumflex" unicode="&#xd4;" horiz-adv-x="748" 
d="M375 827l-127 -78q-32 -19 -43 2q-10 20 19 38l126 78q27 17 57 0l123 -75q32 -19 17 -42q-12 -19 -43 -1zM51 345q0 156 85 256q84 99 238 99t239 -99q84 -100 84 -256t-84 -255q-85 -100 -239 -100t-238 100q-85 99 -85 255zM113 345q0 -132 70 -216q69 -85 191 -85
t192 85q69 84 69 216t-69 217q-70 84 -192 84t-191 -84q-70 -85 -70 -217z" />
    <glyph glyph-name="Otilde" unicode="&#xd5;" horiz-adv-x="748" 
d="M51 345q0 156 85 256q84 99 238 99t239 -99q84 -100 84 -256t-84 -255q-85 -100 -239 -100t-238 100q-85 99 -85 255zM113 345q0 -132 70 -216q69 -85 191 -85t192 85q69 84 69 216t-69 217q-70 84 -192 84t-191 -84q-70 -85 -70 -217zM445 750q-34 0 -78 27t-60 27
q-20 0 -54 -31q-24 -22 -39 -11q-20 16 4 42q41 49 91 49q30 0 76 -27q45 -27 62 -27q24 0 54 30q23 23 40 10q18 -15 -5 -42q-42 -47 -91 -47z" />
    <glyph glyph-name="Odieresis" unicode="&#xd6;" horiz-adv-x="748" 
d="M51 345q0 156 85 256q84 99 238 99t239 -99q84 -100 84 -256t-84 -255q-85 -100 -239 -100t-238 100q-85 99 -85 255zM113 345q0 -132 70 -216q69 -85 191 -85t192 85q69 84 69 216t-69 217q-70 84 -192 84t-191 -84q-70 -85 -70 -217zM235 808q0 21 13 34q12 12 33 12
q22 0 35 -12q13 -13 13 -34q0 -44 -48 -44q-46 0 -46 44zM421 808q0 21 13 34q12 12 34 12t35 -13q12 -13 12 -33q0 -21 -12 -32q-13 -12 -35 -12q-47 0 -47 44z" />
    <glyph glyph-name="multiply" unicode="&#xd7;" horiz-adv-x="497" 
d="M220 331l-107 106q-10 10 -12 22t8 22q19 17 42 -6l108 -106l108 106q9 9 21 12q11 2 22 -7q8 -10 7 -21q-2 -12 -12 -22l-108 -106l108 -106q24 -24 5 -43t-43 5l-108 106l-108 -106q-10 -10 -22 -11q-13 -2 -23 8q-15 19 7 41z" />
    <glyph glyph-name="Oslash" unicode="&#xd8;" horiz-adv-x="748" 
d="M51 345q0 156 85 256q84 99 238 99q48 0 97 -13l19 53q12 36 37 28q22 -7 10 -44l-20 -53q87 -40 134 -126q46 -86 46 -200q0 -156 -84 -255q-85 -100 -239 -100q-47 0 -97 12l-18 -49q-13 -36 -37 -29q-22 7 -8 48l17 47q-87 40 -133 126q-47 86 -47 200zM113 345
q0 -93 36 -164q35 -72 101 -108l202 562q-38 11 -78 11q-122 0 -191 -84q-70 -85 -70 -217zM635 345q0 93 -35 164q-36 71 -102 107l-202 -562q34 -10 78 -10q122 0 192 85q69 84 69 216z" />
    <glyph glyph-name="Ugrave" unicode="&#xd9;" horiz-adv-x="671" 
d="M336 44q194 0 194 235v379q0 14 8 23t22 9t22 -9t8 -23v-382q0 -60 -13 -109q-13 -50 -41 -91q-29 -41 -80 -63q-52 -23 -122 -23q-135 0 -194 79t-59 207v382q0 14 8 23t22 9t22 -9t8 -23v-379q0 -235 195 -235zM194 842q-36 18 -22 42q11 21 46 3l180 -93
q33 -17 20 -40q-11 -20 -44 -4z" />
    <glyph glyph-name="Uacute" unicode="&#xda;" horiz-adv-x="671" 
d="M336 44q194 0 194 235v379q0 14 8 23t22 9t22 -9t8 -23v-382q0 -60 -13 -109q-13 -50 -41 -91q-29 -41 -80 -63q-52 -23 -122 -23q-135 0 -194 79t-59 207v382q0 14 8 23t22 9t22 -9t8 -23v-379q0 -235 195 -235zM335 750q-34 -17 -44 4q-12 23 20 40l181 93q34 17 45 -3
q14 -24 -22 -42z" />
    <glyph glyph-name="Ucircumflex" unicode="&#xdb;" horiz-adv-x="671" 
d="M348 827l-127 -78q-32 -19 -43 2q-10 20 19 38l126 78q27 17 57 0l123 -75q32 -19 17 -42q-12 -19 -43 -1zM336 44q194 0 194 235v379q0 14 8 23t22 9t22 -9t8 -23v-382q0 -60 -13 -109q-13 -50 -41 -91q-29 -41 -80 -63q-52 -23 -122 -23q-135 0 -194 79t-59 207v382
q0 14 8 23t22 9t22 -9t8 -23v-379q0 -235 195 -235z" />
    <glyph glyph-name="Udieresis" unicode="&#xdc;" horiz-adv-x="671" 
d="M336 44q194 0 194 235v379q0 14 8 23t22 9t22 -9t8 -23v-382q0 -60 -13 -109q-13 -50 -41 -91q-29 -41 -80 -63q-52 -23 -122 -23q-135 0 -194 79t-59 207v382q0 14 8 23t22 9t22 -9t8 -23v-379q0 -235 195 -235zM208 808q0 21 13 34q12 12 33 12q22 0 35 -12
q13 -13 13 -34q0 -44 -48 -44q-46 0 -46 44zM394 808q0 21 13 34q12 12 34 12q21 0 34 -13t13 -33q0 -21 -12 -32q-13 -12 -35 -12q-47 0 -47 44z" />
    <glyph glyph-name="Yacute" unicode="&#xdd;" horiz-adv-x="555" 
d="M270 303l-226 335q-19 30 3 46q25 17 48 -16l207 -305l201 308q8 13 20 18q12 4 25 -4q21 -15 1 -44l-219 -333v-276q0 -14 -8 -23t-22 -9t-22 9t-8 23v271zM284 750q-34 -17 -44 4q-12 23 20 40l181 93q34 17 45 -3q14 -24 -22 -42z" />
    <glyph glyph-name="Thorn" unicode="&#xde;" horiz-adv-x="551" 
d="M515 413q0 -110 -75 -164q-76 -55 -189 -55q-68 0 -110 7v-169q0 -14 -8 -23t-22 -9t-22 9t-8 23v626q0 14 8 23t22 9t22 -9t8 -23v-45q66 8 120 8q119 0 187 -50q67 -50 67 -158zM261 567q-58 0 -120 -7v-305q41 -7 104 -7q208 2 208 165q0 77 -50 116q-50 38 -142 38z
" />
    <glyph glyph-name="germandbls" unicode="&#xdf;" horiz-adv-x="499" 
d="M243 648q-69 0 -95 -38t-26 -128v-650q0 -32 -28 -32t-28 32v645q0 116 39 170q38 53 139 53q90 0 131 -35q40 -36 40 -92q0 -38 -19 -70t-42 -50q-24 -19 -43 -41q-19 -23 -19 -44q0 -20 28 -42q27 -23 60 -43q33 -21 61 -60q27 -39 27 -88q0 -61 -41 -103t-118 -42
q-63 0 -112 22q-50 22 -31 51q3 4 6 6q2 2 7 3h7q2 0 8 -1l9 -3q2 -1 9 -4t9 -4q42 -18 91 -18q98 0 98 93q0 31 -18 57q-18 25 -43 44l-51 36q-26 17 -44 41q-18 23 -18 51q0 32 19 60q19 27 42 44q22 17 41 45q19 27 19 58q0 77 -114 77z" />
    <glyph glyph-name="agrave" unicode="&#xe0;" horiz-adv-x="496" 
d="M114 420q-36 -15 -45 6q-10 24 17 38q70 36 159 36q185 0 185 -177v-291q0 -32 -28 -32t-28 32v75q-21 -49 -69 -83t-122 -34t-118 38q-44 37 -44 108q0 46 20 80q19 33 52 51t70 26t80 8q59 0 131 -10v28q0 129 -134 129q-54 0 -126 -28zM190 42q86 0 135 57t49 123v19
q-68 10 -123 10q-172 0 -172 -113q0 -44 29 -70t82 -26zM100 664q-25 18 -12 38t41 2l150 -105q28 -19 11 -41q-9 -9 -20 -7q-11 1 -20 8z" />
    <glyph glyph-name="aacute" unicode="&#xe1;" horiz-adv-x="496" 
d="M114 420q-36 -15 -45 6q-10 24 17 38q70 36 159 36q185 0 185 -177v-291q0 -32 -28 -32t-28 32v75q-21 -49 -69 -83t-122 -34t-118 38q-44 37 -44 108q0 46 20 80q19 33 52 51t70 26t80 8q59 0 131 -10v28q0 129 -134 129q-54 0 -126 -28zM190 42q86 0 135 57t49 123v19
q-68 10 -123 10q-172 0 -172 -113q0 -44 29 -70t82 -26zM230 561q-30 -22 -44 -1q-15 21 16 42l145 101q28 21 42 1q17 -22 -14 -42z" />
    <glyph glyph-name="acircumflex" unicode="&#xe2;" horiz-adv-x="496" 
d="M114 420q-36 -15 -45 6q-10 24 17 38q70 36 159 36q185 0 185 -177v-291q0 -32 -28 -32t-28 32v75q-21 -49 -69 -83t-122 -34t-118 38q-44 37 -44 108q0 46 20 80q19 33 52 51t70 26t80 8q59 0 131 -10v28q0 129 -134 129q-54 0 -126 -28zM190 42q86 0 135 57t49 123v19
q-68 10 -123 10q-172 0 -172 -113q0 -44 29 -70t82 -26zM241 652l-105 -87q-32 -25 -45 -7q-14 18 15 42l111 91q13 11 27 11q13 0 27 -11l110 -89q29 -24 13 -44q-15 -19 -42 4z" />
    <glyph glyph-name="atilde" unicode="&#xe3;" horiz-adv-x="496" 
d="M114 420q-36 -15 -45 6q-10 24 17 38q70 36 159 36q185 0 185 -177v-291q0 -32 -28 -32t-28 32v75q-21 -49 -69 -83t-122 -34t-118 38q-44 37 -44 108q0 46 20 80q19 33 52 51t70 26t80 8q59 0 131 -10v28q0 129 -134 129q-54 0 -126 -28zM190 42q86 0 135 57t49 123v19
q-68 10 -123 10q-172 0 -172 -113q0 -44 29 -70t82 -26zM303 562q-34 0 -70 27t-49 27q-9 0 -17 -4q-9 -5 -12 -8l-17 -17q-20 -20 -38 -8q-17 14 0 37q34 49 87 49q30 0 68 -27q37 -27 51 -27q19 0 46 29q20 20 38 8q16 -13 0 -37q-13 -21 -37 -35t-50 -14z" />
    <glyph glyph-name="adieresis" unicode="&#xe4;" horiz-adv-x="496" 
d="M114 420q-36 -15 -45 6q-10 24 17 38q70 36 159 36q185 0 185 -177v-291q0 -32 -28 -32t-28 32v75q-21 -49 -69 -83t-122 -34t-118 38q-44 37 -44 108q0 46 20 80q19 33 52 51t70 26t80 8q59 0 131 -10v28q0 129 -134 129q-54 0 -126 -28zM190 42q86 0 135 57t49 123v19
q-68 10 -123 10q-172 0 -172 -113q0 -44 29 -70t82 -26zM117 616q0 17 11 30q11 12 30 12t31 -12q11 -13 11 -30t-11 -29q-12 -12 -31 -12t-30 12t-11 29zM282 616q0 17 11 30q11 12 30 12t31 -12q11 -13 11 -30t-11 -29q-12 -12 -31 -12t-30 12t-11 29z" />
    <glyph glyph-name="aring" unicode="&#xe5;" horiz-adv-x="496" 
d="M114 420q-36 -15 -45 6q-10 24 17 38q70 36 159 36q185 0 185 -177v-291q0 -32 -28 -32t-28 32v75q-21 -49 -69 -83t-122 -34t-118 38q-44 37 -44 108q0 46 20 80q19 33 52 51t70 26t80 8q59 0 131 -10v28q0 129 -134 129q-54 0 -126 -28zM190 42q86 0 135 57t49 123v19
q-68 10 -123 10q-172 0 -172 -113q0 -44 29 -70t82 -26zM241 731q46 0 72 -27q26 -28 26 -69t-26 -68q-26 -28 -72 -28t-72 28q-26 27 -26 68t26 69q26 27 72 27zM241 691q-24 0 -39 -15q-15 -16 -15 -40t15 -40q15 -17 39 -17t39 16t15 40q0 23 -15 40q-16 16 -39 16z" />
    <glyph glyph-name="ae" unicode="&#xe6;" horiz-adv-x="834" 
d="M605 42q62 0 124 30q29 14 40 -5q12 -21 -12 -38q-59 -39 -152 -39q-81 0 -134 37q-54 36 -73 108q-58 -145 -214 -145q-75 0 -119 36q-44 35 -44 105q0 47 18 79q17 32 50 49t72 24q38 7 90 7h124v29q0 129 -135 129q-60 0 -125 -27q-37 -15 -46 5q-10 23 17 38
q65 36 159 36q153 0 170 -122q55 122 190 122q90 0 139 -52q49 -53 49 -127q0 -25 -5 -47q-8 -34 -49 -34h-311q1 -95 48 -146q46 -52 129 -52zM190 42q87 0 136 56q49 55 49 121v21h-127q-84 0 -126 -22q-43 -22 -43 -85q0 -42 31 -66q30 -25 80 -25zM601 448
q-69 0 -115 -41q-47 -42 -55 -117h309q6 72 -27 115q-34 43 -112 43z" />
    <glyph glyph-name="ccedilla" unicode="&#xe7;" horiz-adv-x="465" 
d="M205 -178q24 -10 52 -10q52 0 52 45q0 43 -75 48q-28 2 -23 25l16 63q-91 11 -138 76q-48 64 -48 173q0 116 69 187q68 71 175 71q73 0 126 -31q30 -17 16 -41q-12 -19 -41 -6q-59 26 -107 26q-77 0 -128 -57q-52 -57 -52 -150q0 -95 45 -147q44 -52 125 -52q66 0 123 34
q35 21 48 3q15 -22 -15 -43q-63 -45 -153 -46l-10 -42q52 -5 76 -30q23 -25 23 -59q0 -45 -27 -70q-28 -25 -79 -25q-44 0 -76 17q-27 13 -16 36q9 19 42 5z" />
    <glyph glyph-name="egrave" unicode="&#xe8;" horiz-adv-x="501" 
d="M272 42q62 0 124 30q29 14 40 -5q12 -21 -12 -38q-59 -39 -152 -39q-115 0 -173 66t-58 186q0 113 61 186q61 72 167 72q93 0 142 -55q49 -56 49 -135q0 -24 -3 -43q-7 -49 -53 -49h-306q6 -85 51 -130q45 -46 123 -46zM265 448q-73 0 -117 -47t-50 -133h307q2 13 2 38
q-2 65 -37 104q-36 38 -105 38zM131 664q-25 18 -12 38t41 2l150 -105q28 -19 11 -41q-9 -9 -20 -7q-11 1 -20 8z" />
    <glyph glyph-name="eacute" unicode="&#xe9;" horiz-adv-x="501" 
d="M272 42q62 0 124 30q29 14 40 -5q12 -21 -12 -38q-59 -39 -152 -39q-115 0 -173 66t-58 186q0 113 61 186q61 72 167 72q93 0 142 -55q49 -56 49 -135q0 -24 -3 -43q-7 -49 -53 -49h-306q6 -85 51 -130q45 -46 123 -46zM265 448q-73 0 -117 -47t-50 -133h307q2 13 2 38
q-2 65 -37 104q-36 38 -105 38zM261 561q-30 -22 -44 -1q-15 21 16 42l145 101q28 21 42 1q17 -22 -14 -42z" />
    <glyph glyph-name="ecircumflex" unicode="&#xea;" horiz-adv-x="501" 
d="M272 42q62 0 124 30q29 14 40 -5q12 -21 -12 -38q-59 -39 -152 -39q-115 0 -173 66t-58 186q0 113 61 186q61 72 167 72q93 0 142 -55q49 -56 49 -135q0 -24 -3 -43q-7 -49 -53 -49h-306q6 -85 51 -130q45 -46 123 -46zM265 448q-73 0 -117 -47t-50 -133h307q2 13 2 38
q-2 65 -37 104q-36 38 -105 38zM270 652l-105 -87q-32 -25 -45 -7q-14 18 15 42l111 91q13 11 27 11q13 0 27 -11l110 -89q29 -24 13 -44q-15 -19 -42 4z" />
    <glyph glyph-name="edieresis" unicode="&#xeb;" horiz-adv-x="501" 
d="M272 42q62 0 124 30q29 14 40 -5q12 -21 -12 -38q-59 -39 -152 -39q-115 0 -173 66t-58 186q0 113 61 186q61 72 167 72q93 0 142 -55q49 -56 49 -135q0 -24 -3 -43q-7 -49 -53 -49h-306q6 -85 51 -130q45 -46 123 -46zM265 448q-73 0 -117 -47t-50 -133h307q2 13 2 38
q-2 65 -37 104q-36 38 -105 38zM144 616q0 17 11 30q11 12 30 12t31 -12q11 -13 11 -30t-11 -29q-12 -12 -31 -12t-30 12t-11 29zM309 616q0 17 11 30q11 12 30 12t31 -12q11 -13 11 -30t-11 -29q-12 -12 -31 -12t-30 12t-11 29z" />
    <glyph glyph-name="igrave" unicode="&#xec;" horiz-adv-x="188" 
d="M-41 664q-25 18 -12 38t41 2l150 -105q28 -19 11 -41q-9 -9 -20 -7q-11 1 -20 8zM79 458q0 32 28 32t28 -32v-426q0 -32 -28 -32t-28 32v426z" />
    <glyph glyph-name="iacute" unicode="&#xed;" horiz-adv-x="188" 
d="M114 561q-30 -22 -44 -1q-15 21 16 42l145 101q28 21 42 1q17 -22 -14 -42zM81 458q0 32 28 32t28 -32v-426q0 -32 -28 -32t-28 32v426z" />
    <glyph glyph-name="icircumflex" unicode="&#xee;" horiz-adv-x="188" 
d="M106 652l-105 -87q-32 -25 -45 -7q-14 18 15 42l111 91q13 11 27 11q13 0 27 -11l110 -89q29 -24 13 -44q-15 -19 -42 4zM80 458q0 32 28 32t28 -32v-426q0 -32 -28 -32t-28 32v426z" />
    <glyph glyph-name="idieresis" unicode="&#xef;" horiz-adv-x="188" 
d="M-16 617q0 17 11 30q11 12 30 12t31 -12q11 -13 11 -30t-11 -29q-12 -12 -31 -12t-30 12t-11 29zM121 617q0 17 11 30q11 12 30 12t31 -12q11 -13 11 -30t-11 -29q-12 -12 -31 -12t-30 12t-11 29zM66 458q0 32 28 32t28 -32v-426q0 -32 -28 -32t-28 32v426z" />
    <glyph glyph-name="eth" unicode="&#xf0;" horiz-adv-x="547" 
d="M158 649q-34 5 -34 27q0 24 28 24q89 -2 174 -45l55 39q24 17 37 -2q12 -18 -10 -34l-39 -28q137 -96 137 -314q0 -147 -57 -236q-58 -90 -174 -90q-110 0 -172 72q-62 71 -62 183q0 109 60 182q59 73 167 73q120 0 184 -97q-11 69 -48 119t-81 75l-77 -55q-24 -17 -37 2
q-14 20 12 37l55 39q-52 20 -118 29zM451 321q-51 127 -176 127q-86 0 -131 -53q-45 -54 -45 -150q0 -91 48 -147q47 -56 128 -56q176 0 176 279z" />
    <glyph glyph-name="ntilde" unicode="&#xf1;" horiz-adv-x="541" 
d="M419 286q0 78 -28 120q-29 42 -98 42q-91 0 -131 -76t-40 -197v-143q0 -32 -28 -32t-28 32v426q0 32 28 32t28 -32v-81q24 62 73 93q48 30 103 30q96 0 137 -54q40 -54 40 -158v-256q0 -32 -28 -32t-28 32v254zM338 562q-34 0 -70 27t-49 27q-9 0 -17 -4q-9 -5 -12 -8
l-17 -17q-20 -20 -38 -8q-17 14 0 37q34 49 87 49q30 0 68 -27q37 -27 51 -27q19 0 46 29q20 20 38 8q16 -13 0 -37q-13 -21 -37 -35t-50 -14z" />
    <glyph glyph-name="ograve" unicode="&#xf2;" horiz-adv-x="558" 
d="M41 245q0 110 63 183q63 72 175 72t175 -72q63 -73 63 -183t-63 -182q-63 -73 -175 -73t-175 73q-63 72 -63 182zM99 245q0 -93 48 -148t132 -55t132 55t48 148t-48 148t-132 55t-132 -55t-48 -148zM140 664q-25 18 -12 38t41 2l150 -105q28 -19 11 -41q-9 -9 -20 -7
q-11 1 -20 8z" />
    <glyph glyph-name="oacute" unicode="&#xf3;" horiz-adv-x="558" 
d="M41 245q0 110 63 183q63 72 175 72t175 -72q63 -73 63 -183t-63 -182q-63 -73 -175 -73t-175 73q-63 72 -63 182zM99 245q0 -93 48 -148t132 -55t132 55t48 148t-48 148t-132 55t-132 -55t-48 -148zM271 561q-30 -22 -44 -1q-15 21 16 42l145 101q28 21 42 1
q17 -22 -14 -42z" />
    <glyph glyph-name="ocircumflex" unicode="&#xf4;" horiz-adv-x="558" 
d="M277 652l-105 -87q-32 -25 -45 -7q-14 18 15 42l111 91q13 11 27 11q13 0 27 -11l110 -89q29 -24 13 -44q-15 -19 -42 4zM41 245q0 110 63 183q63 72 175 72t175 -72q63 -73 63 -183t-63 -182q-63 -73 -175 -73t-175 73q-63 72 -63 182zM99 245q0 -93 48 -148t132 -55
t132 55t48 148t-48 148t-132 55t-132 -55t-48 -148z" />
    <glyph glyph-name="otilde" unicode="&#xf5;" horiz-adv-x="558" 
d="M41 245q0 110 63 183q63 72 175 72t175 -72q63 -73 63 -183t-63 -182q-63 -73 -175 -73t-175 73q-63 72 -63 182zM99 245q0 -93 48 -148t132 -55t132 55t48 148t-48 148t-132 55t-132 -55t-48 -148zM337 562q-34 0 -70 27t-49 27q-9 0 -17 -4q-9 -5 -12 -8l-17 -17
q-20 -20 -38 -8q-17 14 0 37q34 49 87 49q30 0 68 -27q37 -27 51 -27q19 0 46 29q20 20 38 8q16 -13 0 -37q-13 -21 -37 -35t-50 -14z" />
    <glyph glyph-name="odieresis" unicode="&#xf6;" horiz-adv-x="558" 
d="M41 245q0 110 63 183q63 72 175 72t175 -72q63 -73 63 -183t-63 -182q-63 -73 -175 -73t-175 73q-63 72 -63 182zM99 245q0 -93 48 -148t132 -55t132 55t48 148t-48 148t-132 55t-132 -55t-48 -148zM155 616q0 17 11 30q11 12 30 12t31 -12q11 -13 11 -30t-11 -29
q-12 -12 -31 -12t-30 12t-11 29zM320 616q0 17 11 30q11 12 30 12t31 -12q11 -13 11 -30t-11 -29q-12 -12 -31 -12t-30 12t-11 29z" />
    <glyph glyph-name="divide" unicode="&#xf7;" horiz-adv-x="497" 
d="M205 476q0 19 12 32q11 13 32 13t33 -13t12 -32t-12 -31q-12 -13 -33 -13t-32 13q-12 12 -12 31zM205 185q0 19 12 32q11 13 32 13t33 -13t12 -32t-12 -31q-12 -13 -33 -13t-32 13q-12 12 -12 31zM68 305q-27 0 -27 26q0 11 8 19q7 7 19 7h361q12 0 20 -7q7 -8 7 -19
q0 -26 -27 -26h-361z" />
    <glyph glyph-name="oslash" unicode="&#xf8;" horiz-adv-x="558" 
d="M41 245q0 110 63 183q63 72 175 72q32 0 64 -8l20 55q12 35 37 28q22 -7 10 -44l-20 -55q61 -30 94 -91q33 -62 33 -140q0 -110 -63 -182q-63 -73 -175 -73q-32 0 -64 8l-19 -54q-13 -36 -37 -29q-22 7 -8 48l18 50q-62 30 -95 92q-33 61 -33 140zM99 245q0 -133 89 -181
l137 379q-23 5 -46 5q-84 0 -132 -55t-48 -148zM459 245q0 130 -88 180l-138 -379q19 -4 46 -4q84 0 132 55t48 148z" />
    <glyph glyph-name="ugrave" unicode="&#xf9;" horiz-adv-x="541" 
d="M122 204q0 -78 29 -120q28 -42 97 -42q91 0 131 76t40 197v143q0 32 28 32t28 -32v-426q0 -32 -28 -32t-28 32v81q-24 -62 -72 -92q-49 -31 -104 -31q-96 0 -136 54q-41 54 -41 158v256q0 32 28 32t28 -32v-254zM141 664q-25 18 -12 38t41 2l150 -105q28 -19 11 -41
q-9 -9 -20 -7q-11 1 -20 8z" />
    <glyph glyph-name="uacute" unicode="&#xfa;" horiz-adv-x="541" 
d="M122 204q0 -78 29 -120q28 -42 97 -42q91 0 131 76t40 197v143q0 32 28 32t28 -32v-426q0 -32 -28 -32t-28 32v81q-24 -62 -72 -92q-49 -31 -104 -31q-96 0 -136 54q-41 54 -41 158v256q0 32 28 32t28 -32v-254zM276 561q-30 -22 -44 -1q-15 21 16 42l145 101q28 21 42 1
q17 -22 -14 -42z" />
    <glyph glyph-name="ucircumflex" unicode="&#xfb;" horiz-adv-x="541" 
d="M268 652l-105 -87q-32 -25 -45 -7q-14 18 15 42l111 91q13 11 27 11q13 0 27 -11l110 -89q29 -24 13 -44q-15 -19 -42 4zM122 204q0 -78 29 -120q28 -42 97 -42q91 0 131 76t40 197v143q0 32 28 32t28 -32v-426q0 -32 -28 -32t-28 32v81q-24 -62 -72 -92
q-49 -31 -104 -31q-96 0 -136 54q-41 54 -41 158v256q0 32 28 32t28 -32v-254z" />
    <glyph glyph-name="udieresis" unicode="&#xfc;" horiz-adv-x="541" 
d="M122 204q0 -78 29 -120q28 -42 97 -42q91 0 131 76t40 197v143q0 32 28 32t28 -32v-426q0 -32 -28 -32t-28 32v81q-24 -62 -72 -92q-49 -31 -104 -31q-96 0 -136 54q-41 54 -41 158v256q0 32 28 32t28 -32v-254zM146 616q0 17 11 30q11 12 30 12t31 -12q11 -13 11 -30
t-11 -29q-12 -12 -31 -12t-30 12t-11 29zM311 616q0 17 11 30q11 12 30 12t31 -12q11 -13 11 -30t-11 -29q-12 -12 -31 -12t-30 12t-11 29z" />
    <glyph glyph-name="yacute" unicode="&#xfd;" horiz-adv-x="441" 
d="M6 -192q-32 18 -23 42q9 23 50 4q25 -12 52 -12q19 0 35 9q15 9 26 20q11 12 23 37q12 26 19 42l19 52l-181 438q-15 36 12 47t42 -25l157 -393l145 392q14 36 42 26q23 -9 9 -45l-173 -448q-45 -118 -81 -161t-98 -43q-42 0 -75 18zM231 561q-30 -22 -44 -1
q-15 21 16 42l145 101q28 21 42 1q17 -22 -14 -42z" />
    <glyph glyph-name="thorn" unicode="&#xfe;" horiz-adv-x="537" 
d="M304 500q94 0 143 -65q49 -66 49 -175q0 -117 -59 -193q-59 -77 -176 -77q-83 0 -139 31v-189q0 -32 -28 -32t-28 32v826q0 32 28 32t28 -32v-281q49 123 182 123zM296 448q-174 0 -174 -273v-98q60 -35 140 -35q93 0 135 61q41 60 41 157q0 86 -35 137t-107 51z" />
    <glyph glyph-name="ydieresis" unicode="&#xff;" horiz-adv-x="441" 
d="M6 -192q-32 18 -23 42q9 23 50 4q25 -12 52 -12q19 0 35 9q15 9 26 20q11 12 23 37q12 26 19 42l19 52l-181 438q-15 36 12 47t42 -25l157 -393l145 392q14 36 42 26q23 -9 9 -45l-173 -448q-45 -118 -81 -161t-98 -43q-42 0 -75 18zM108 616q0 17 11 30q11 12 30 12
t31 -12q11 -13 11 -30t-11 -29q-12 -12 -31 -12t-30 12t-11 29zM273 616q0 17 11 30q11 12 30 12t31 -12q11 -13 11 -30t-11 -29q-12 -12 -31 -12t-30 12t-11 29z" />
    <glyph glyph-name="Amacron" unicode="&#x100;" horiz-adv-x="601" 
d="M596 47q12 -32 -11 -44q-30 -14 -44 20l-77 197h-303l-71 -190q-13 -38 -42 -28q-27 10 -12 46l244 624q11 28 34 28q21 0 31 -24zM182 274h262l-133 336zM174 777q-26 0 -26 24q0 10 7 18q7 7 19 7h280q12 0 19 -7q7 -8 7 -18q0 -24 -26 -24h-280z" />
    <glyph glyph-name="amacron" unicode="&#x101;" horiz-adv-x="496" 
d="M114 420q-36 -15 -45 6q-10 24 17 38q70 36 159 36q185 0 185 -177v-291q0 -32 -28 -32t-28 32v75q-21 -49 -69 -83t-122 -34t-118 38q-44 37 -44 108q0 46 20 80q19 33 52 51t70 26t80 8q59 0 131 -10v28q0 129 -134 129q-54 0 -126 -28zM190 42q86 0 135 57t49 123v19
q-68 10 -123 10q-172 0 -172 -113q0 -44 29 -70t82 -26zM117 592q-26 0 -26 24q0 10 7 18q7 7 19 7h252q12 0 19 -7q7 -8 7 -18q0 -24 -26 -24h-252z" />
    <glyph glyph-name="Abreve" unicode="&#x102;" horiz-adv-x="601" 
d="M596 47q12 -32 -11 -44q-30 -14 -44 20l-77 197h-303l-71 -190q-13 -38 -42 -28q-27 10 -12 46l244 624q11 28 34 28q21 0 31 -24zM182 274h262l-133 336zM313 750q-52 0 -92 22q-41 22 -58 50q-18 28 0 43q19 15 41 -11q47 -54 109 -54q66 0 110 54q21 26 41 11
q18 -15 0 -43q-17 -28 -58 -50t-93 -22z" />
    <glyph glyph-name="abreve" unicode="&#x103;" horiz-adv-x="496" 
d="M114 420q-36 -15 -45 6q-10 24 17 38q70 36 159 36q185 0 185 -177v-291q0 -32 -28 -32t-28 32v75q-21 -49 -69 -83t-122 -34t-118 38q-44 37 -44 108q0 46 20 80q19 33 52 51t70 26t80 8q59 0 131 -10v28q0 129 -134 129q-54 0 -126 -28zM190 42q86 0 135 57t49 123v19
q-68 10 -123 10q-172 0 -172 -113q0 -44 29 -70t82 -26zM239 561q-53 0 -88 26q-35 25 -48 56q-11 28 8 39q22 12 38 -16q32 -56 90 -56t90 56q16 27 38 16q20 -10 8 -39q-13 -31 -48 -56q-35 -26 -88 -26z" />
    <glyph glyph-name="Aogonek" unicode="&#x104;" horiz-adv-x="601" 
d="M575 -15q-67 -67 -67 -124q0 -49 43 -49q10 0 33 10q19 9 29 -2q15 -18 -10 -38q-22 -18 -57 -18q-42 0 -66 22q-25 22 -25 67t26 90q26 46 62 75l-79 202h-303l-71 -190q-13 -38 -42 -28q-27 10 -12 46l244 624q11 28 34 28q21 0 31 -24l251 -629q6 -18 2 -30
q-5 -13 -23 -32zM182 274h262l-133 336z" />
    <glyph glyph-name="aogonek" unicode="&#x105;" horiz-adv-x="496" 
d="M407 -12q-69 -69 -69 -127q0 -49 43 -49q11 0 33 10q19 9 29 -2q15 -18 -10 -38q-22 -18 -57 -18q-42 0 -66 22q-25 22 -25 67t26 91q26 47 63 79v84q-21 -49 -69 -83t-122 -34t-118 38q-44 37 -44 108q0 46 20 80q19 33 52 51t70 26t80 8q59 0 131 -10v28
q0 129 -134 129q-54 0 -126 -28q-36 -15 -45 6q-10 23 17 38q70 36 159 36q185 0 185 -177v-291q0 -21 -23 -44zM190 42q86 0 135 57t49 123v19q-68 10 -123 10q-172 0 -172 -113q0 -44 29 -70t82 -26z" />
    <glyph glyph-name="Cacute" unicode="&#x106;" horiz-adv-x="634" 
d="M375 646q-123 0 -192 -85q-70 -86 -70 -218q0 -139 71 -219t187 -80q89 0 169 52q32 21 47 2q16 -21 -18 -48q-34 -25 -89 -42q-55 -18 -114 -18q-159 0 -237 96q-78 95 -78 258q0 159 88 258q88 98 238 98q109 0 184 -51q32 -22 17 -45q-14 -22 -49 0q-68 42 -154 42z
M356 750q-34 -17 -44 4q-12 23 20 40l181 93q34 17 45 -3q14 -24 -22 -42z" />
    <glyph glyph-name="cacute" unicode="&#x107;" horiz-adv-x="465" 
d="M425 36q-65 -46 -156 -46q-111 0 -169 66q-59 65 -59 186q0 116 69 187q68 71 175 71q73 0 126 -31q30 -17 16 -41q-12 -19 -41 -6q-59 26 -107 26q-77 0 -128 -57q-52 -57 -52 -150q0 -95 45 -147q44 -52 125 -52q66 0 123 34q35 21 48 3q15 -22 -15 -43zM270 561
q-30 -22 -44 -1q-15 21 16 42l145 101q28 21 42 1q17 -22 -14 -42z" />
    <glyph glyph-name="Ccircumflex" unicode="&#x108;" horiz-adv-x="634" 
d="M370 827l-127 -78q-32 -19 -43 2q-10 20 19 38l126 78q27 17 57 0l123 -75q32 -19 17 -42q-12 -19 -43 -1zM375 646q-123 0 -192 -85q-70 -86 -70 -218q0 -139 71 -219t187 -80q89 0 169 52q32 21 47 2q16 -21 -18 -48q-34 -25 -89 -42q-55 -18 -114 -18q-159 0 -237 96
q-78 95 -78 258q0 159 88 258q88 98 238 98q109 0 184 -51q32 -22 17 -45q-14 -22 -49 0q-68 42 -154 42z" />
    <glyph glyph-name="ccircumflex" unicode="&#x109;" horiz-adv-x="465" 
d="M273 652l-105 -87q-32 -25 -45 -7q-14 18 15 42l111 91q13 11 27 11q13 0 27 -11l110 -89q29 -24 13 -44q-15 -19 -42 4zM425 36q-65 -46 -156 -46q-111 0 -169 66q-59 65 -59 186q0 116 69 187q68 71 175 71q73 0 126 -31q30 -17 16 -41q-12 -19 -41 -6q-59 26 -107 26
q-77 0 -128 -57q-52 -57 -52 -150q0 -95 45 -147q44 -52 125 -52q66 0 123 34q35 21 48 3q15 -22 -15 -43z" />
    <glyph glyph-name="Cdotaccent" unicode="&#x10a;" horiz-adv-x="634" 
d="M375 646q-123 0 -192 -85q-70 -86 -70 -218q0 -139 71 -219t187 -80q89 0 169 52q32 21 47 2q16 -21 -18 -48q-34 -25 -89 -42q-55 -18 -114 -18q-159 0 -237 96q-78 95 -78 258q0 159 88 258q88 98 238 98q109 0 184 -51q32 -22 17 -45q-14 -22 -49 0q-68 42 -154 42z
M317 812q0 25 15 37q14 12 37 12t38 -12t15 -37q0 -48 -53 -48q-52 0 -52 48z" />
    <glyph glyph-name="cdotaccent" unicode="&#x10b;" horiz-adv-x="465" 
d="M425 36q-65 -46 -156 -46q-111 0 -169 66q-59 65 -59 186q0 116 69 187q68 71 175 71q73 0 126 -31q30 -17 16 -41q-12 -19 -41 -6q-59 26 -107 26q-77 0 -128 -57q-52 -57 -52 -150q0 -95 45 -147q44 -52 125 -52q66 0 123 34q35 21 48 3q15 -22 -15 -43zM233 618
q0 20 12 32q11 11 30 11t31 -11q12 -12 12 -32q0 -19 -11 -30q-12 -12 -32 -12q-19 0 -30 11q-12 11 -12 31z" />
    <glyph glyph-name="Ccaron" unicode="&#x10c;" horiz-adv-x="634" 
d="M366 787l127 78q31 19 43 -2t-19 -38l-126 -78q-29 -18 -57 0l-123 75q-15 8 -19 20q-5 12 2 22q12 19 43 1zM375 646q-123 0 -192 -85q-70 -86 -70 -218q0 -139 71 -219t187 -80q89 0 169 52q32 21 47 2q16 -21 -18 -48q-34 -25 -89 -42q-55 -18 -114 -18
q-159 0 -237 96q-78 95 -78 258q0 159 88 258q88 98 238 98q109 0 184 -51q32 -22 17 -45q-14 -22 -49 0q-68 42 -154 42z" />
    <glyph glyph-name="ccaron" unicode="&#x10d;" horiz-adv-x="465" 
d="M277 603l105 87q30 23 44 6q15 -18 -13 -42l-113 -92q-15 -11 -27 -11q-13 0 -27 11l-111 90q-28 25 -12 44q16 17 43 -4zM425 36q-65 -46 -156 -46q-111 0 -169 66q-59 65 -59 186q0 116 69 187q68 71 175 71q73 0 126 -31q30 -17 16 -41q-12 -19 -41 -6q-59 26 -107 26
q-77 0 -128 -57q-52 -57 -52 -150q0 -95 45 -147q44 -52 125 -52q66 0 123 34q35 21 48 3q15 -22 -15 -43z" />
    <glyph glyph-name="Dcaron" unicode="&#x10e;" horiz-adv-x="689" 
d="M313 787l127 78q31 19 43 -2t-19 -38l-126 -78q-29 -18 -57 0l-123 75q-15 8 -19 20q-5 12 2 22q12 19 43 1zM81 642q0 33 30 39q70 14 173 14q354 0 354 -347q0 -168 -90 -260q-90 -93 -263 -93q-108 0 -174 11q-30 4 -30 34v602zM280 641q-67 0 -139 -9v-575
q71 -8 138 -8q150 0 224 77q73 77 73 222q0 293 -296 293z" />
    <glyph glyph-name="dcaron" unicode="&#x10f;" horiz-adv-x="629" 
d="M544 552q34 31 34 64q0 27 -34 36q-27 8 -21 30q5 21 37 17t50 -25t18 -51q0 -61 -49 -101q-31 -25 -46 -6q-12 16 11 36zM233 -10q-94 0 -143 66q-49 65 -49 174q0 117 59 194q59 76 176 76q83 0 139 -31v189q0 32 28 32t28 -32v-626q0 -32 -28 -32t-28 32v81
q-49 -123 -182 -123zM241 42q174 0 174 273v98q-60 35 -140 35q-93 0 -134 -60q-42 -61 -42 -158q0 -86 35 -137t107 -51z" />
    <glyph glyph-name="Dcroat" unicode="&#x110;" horiz-adv-x="719" 
d="M111 334h-63q-12 0 -19 8q-8 7 -8 19q0 11 8 19q7 8 19 8h63v254q0 33 30 39q70 14 173 14q354 0 354 -347q0 -168 -90 -260q-90 -93 -263 -93q-108 0 -174 11q-30 4 -30 34v294zM310 641q-67 0 -139 -9v-244h157q12 0 20 -8q7 -8 7 -19q0 -12 -7 -19q-8 -8 -20 -8h-157
v-277q71 -8 138 -8q150 0 224 77q73 77 73 222q0 293 -296 293z" />
    <glyph glyph-name="dcroat" unicode="&#x111;" horiz-adv-x="566" 
d="M233 -10q-94 0 -143 66q-49 65 -49 174q0 117 59 194q59 76 176 76q83 0 139 -31v100h-164q-26 0 -26 24q0 10 7 17t19 7h164v41q0 32 28 32t28 -32v-41h68q12 0 19 -7t7 -17q0 -24 -26 -24h-68v-537q0 -32 -28 -32t-28 32v81q-49 -123 -182 -123zM241 42q174 0 174 273
v98q-60 35 -140 35q-93 0 -134 -60q-42 -61 -42 -158q0 -86 35 -137t107 -51z" />
    <glyph glyph-name="Emacron" unicode="&#x112;" horiz-adv-x="542" 
d="M116 0q-16 0 -25 10q-10 10 -10 24v623q0 14 9 24q8 9 23 9h365q12 0 20 -8q7 -8 7 -19q0 -12 -7 -19q-8 -8 -20 -8h-337v-249h277q12 0 20 -8q7 -8 7 -19q0 -12 -7 -19q-8 -8 -20 -8h-277v-279h348q12 0 20 -8q7 -8 7 -19q0 -12 -7 -19q-8 -8 -20 -8h-373zM145 777
q-26 0 -26 24q0 10 7 18q7 7 19 7h280q12 0 19 -7q7 -8 7 -18q0 -24 -26 -24h-280z" />
    <glyph glyph-name="emacron" unicode="&#x113;" horiz-adv-x="501" 
d="M272 42q62 0 124 30q29 14 40 -5q12 -21 -12 -38q-59 -39 -152 -39q-115 0 -173 66t-58 186q0 113 61 186q61 72 167 72q93 0 142 -55q49 -56 49 -135q0 -24 -3 -43q-7 -49 -53 -49h-306q6 -85 51 -130q45 -46 123 -46zM265 448q-73 0 -117 -47t-50 -133h307q2 13 2 38
q-2 65 -37 104q-36 38 -105 38zM144 592q-26 0 -26 24q0 10 7 18q7 7 19 7h252q12 0 19 -7q7 -8 7 -18q0 -24 -26 -24h-252z" />
    <glyph glyph-name="Edotaccent" unicode="&#x116;" horiz-adv-x="542" 
d="M116 0q-16 0 -25 10q-10 10 -10 24v623q0 14 9 24q8 9 23 9h365q12 0 20 -8q7 -8 7 -19q0 -12 -7 -19q-8 -8 -20 -8h-337v-249h277q12 0 20 -8q7 -8 7 -19q0 -12 -7 -19q-8 -8 -20 -8h-277v-279h348q12 0 20 -8q7 -8 7 -19q0 -12 -7 -19q-8 -8 -20 -8h-373zM227 812
q0 25 15 37q14 12 37 12t38 -12t15 -37q0 -48 -53 -48q-52 0 -52 48z" />
    <glyph glyph-name="edotaccent" unicode="&#x117;" horiz-adv-x="501" 
d="M272 42q62 0 124 30q29 14 40 -5q12 -21 -12 -38q-59 -39 -152 -39q-115 0 -173 66t-58 186q0 113 61 186q61 72 167 72q93 0 142 -55q49 -56 49 -135q0 -24 -3 -43q-7 -49 -53 -49h-306q6 -85 51 -130q45 -46 123 -46zM265 448q-73 0 -117 -47t-50 -133h307q2 13 2 38
q-2 65 -37 104q-36 38 -105 38zM224 618q0 20 12 32q11 11 30 11q20 0 32 -11q11 -12 11 -32q0 -19 -11 -30q-12 -12 -32 -12t-31 11t-11 31z" />
    <glyph glyph-name="Eogonek" unicode="&#x118;" horiz-adv-x="542" 
d="M441 0q-32 -26 -56 -65q-25 -38 -25 -74q0 -49 43 -49q11 0 33 10q19 9 29 -2q15 -18 -10 -38q-22 -18 -57 -18q-42 0 -66 22q-25 22 -25 67q0 75 70 147h-261q-16 0 -25 10q-10 10 -10 24v623q0 14 9 24q8 9 23 9h365q12 0 20 -8q7 -8 7 -19q0 -12 -7 -19q-8 -8 -20 -8
h-337v-249h277q12 0 20 -8q7 -8 7 -19q0 -12 -7 -19q-8 -8 -20 -8h-277v-279h348q12 0 20 -8q7 -8 7 -19q0 -12 -7 -19q-8 -8 -20 -8h-48z" />
    <glyph glyph-name="eogonek" unicode="&#x119;" horiz-adv-x="501" 
d="M272 42q62 0 124 30q29 14 40 -5q12 -21 -12 -38q-9 -6 -29 -16q-77 -74 -77 -152q0 -49 43 -49q11 0 33 10q19 9 29 -2q15 -18 -10 -38q-22 -18 -57 -18q-42 0 -66 22q-25 22 -25 67q0 76 61 141q-36 -4 -54 -4q-115 0 -173 66t-58 186q0 113 61 186q61 72 167 72
q93 0 142 -55q49 -56 49 -135q0 -24 -3 -43q-7 -49 -53 -49h-306q6 -85 51 -130q45 -46 123 -46zM265 448q-73 0 -117 -47t-50 -133h307q2 13 2 38q-2 65 -37 104q-36 38 -105 38z" />
    <glyph glyph-name="Ecaron" unicode="&#x11a;" horiz-adv-x="542" 
d="M116 0q-16 0 -25 10q-10 10 -10 24v623q0 14 9 24q8 9 23 9h365q12 0 20 -8q7 -8 7 -19q0 -12 -7 -19q-8 -8 -20 -8h-337v-249h277q12 0 20 -8q7 -8 7 -19q0 -12 -7 -19q-8 -8 -20 -8h-277v-279h348q12 0 20 -8q7 -8 7 -19q0 -12 -7 -19q-8 -8 -20 -8h-373zM287 787
l127 78q31 19 43 -2t-19 -38l-126 -78q-29 -18 -57 0l-123 75q-15 8 -19 20q-5 12 2 22q12 19 43 1z" />
    <glyph glyph-name="ecaron" unicode="&#x11b;" horiz-adv-x="501" 
d="M272 42q62 0 124 30q29 14 40 -5q12 -21 -12 -38q-59 -39 -152 -39q-115 0 -173 66t-58 186q0 113 61 186q61 72 167 72q93 0 142 -55q49 -56 49 -135q0 -24 -3 -43q-7 -49 -53 -49h-306q6 -85 51 -130q45 -46 123 -46zM265 448q-73 0 -117 -47t-50 -133h307q2 13 2 38
q-2 65 -37 104q-36 38 -105 38zM267 603l105 87q30 23 44 6q15 -18 -13 -42l-113 -92q-15 -11 -27 -11q-13 0 -27 11l-111 90q-28 25 -12 44q16 17 43 -4z" />
    <glyph glyph-name="Gcircumflex" unicode="&#x11c;" horiz-adv-x="667" 
d="M375 646q-123 0 -192 -85q-70 -86 -70 -218q0 -140 68 -219q68 -80 198 -80q110 0 182 51v193h-163q-12 0 -19 8q-8 7 -8 19q0 11 8 19q7 8 19 8h188q30 0 30 -32v-217q0 -21 -16 -34q-35 -28 -96 -48q-61 -21 -128 -21q-165 0 -245 95q-80 94 -80 259q0 159 88 258
q88 98 238 98q116 -3 186 -52q31 -22 15 -45q-14 -19 -49 1q-76 42 -154 42zM370 827l-127 -78q-32 -19 -43 2q-10 20 19 38l126 78q27 17 57 0l123 -75q32 -19 17 -42q-12 -19 -43 -1z" />
    <glyph glyph-name="gcircumflex" unicode="&#x11d;" horiz-adv-x="513" 
d="M401 446q42 -45 42 -112q0 -72 -49 -118q-50 -47 -142 -47q-65 0 -109 23q-40 -27 -40 -60q0 -60 169 -65q51 -2 86 -7q34 -5 66 -17t48 -35q15 -24 15 -60q0 -71 -64 -115q-64 -43 -185 -43q-217 0 -217 138q0 72 80 116q-52 29 -52 79q0 55 56 97q-44 43 -44 114
q0 74 50 120q49 46 141 46q37 0 74 -10h154q27 0 27 -21q0 -23 -27 -23h-79zM255 14q-55 1 -103 12q-77 -33 -77 -97q0 -38 38 -64q37 -26 124 -26q98 0 147 30t49 72q0 37 -39 53q-40 16 -139 20zM117 334q0 -52 34 -84t101 -32t101 32t34 84t-34 85q-34 32 -101 32
t-101 -32q-34 -33 -34 -85zM255 652l-105 -87q-32 -25 -45 -7q-14 18 15 42l111 91q13 11 27 11q13 0 27 -11l110 -89q29 -24 13 -44q-15 -19 -42 4z" />
    <glyph glyph-name="Gbreve" unicode="&#x11e;" horiz-adv-x="667" 
d="M375 646q-123 0 -192 -85q-70 -86 -70 -218q0 -140 68 -219q68 -80 198 -80q110 0 182 51v193h-163q-12 0 -19 8q-8 7 -8 19q0 11 8 19q7 8 19 8h188q30 0 30 -32v-217q0 -21 -16 -34q-35 -28 -96 -48q-61 -21 -128 -21q-165 0 -245 95q-80 94 -80 259q0 159 88 258
q88 98 238 98q116 -3 186 -52q31 -22 15 -45q-14 -19 -49 1q-76 42 -154 42zM369 750q-52 0 -92 22q-41 22 -58 50q-18 28 0 43q19 15 41 -11q47 -54 109 -54q66 0 110 54q21 26 41 11q18 -15 0 -43q-17 -28 -58 -50t-93 -22z" />
    <glyph glyph-name="gbreve" unicode="&#x11f;" horiz-adv-x="513" 
d="M401 446q42 -45 42 -112q0 -72 -49 -118q-50 -47 -142 -47q-65 0 -109 23q-40 -27 -40 -60q0 -60 169 -65q51 -2 86 -7q34 -5 66 -17t48 -35q15 -24 15 -60q0 -71 -64 -115q-64 -43 -185 -43q-217 0 -217 138q0 72 80 116q-52 29 -52 79q0 55 56 97q-44 43 -44 114
q0 74 50 120q49 46 141 46q37 0 74 -10h154q27 0 27 -21q0 -23 -27 -23h-79zM255 14q-55 1 -103 12q-77 -33 -77 -97q0 -38 38 -64q37 -26 124 -26q98 0 147 30t49 72q0 37 -39 53q-40 16 -139 20zM117 334q0 -52 34 -84t101 -32t101 32t34 84t-34 85q-34 32 -101 32
t-101 -32q-34 -33 -34 -85zM257 561q-53 0 -88 26q-35 25 -48 56q-11 28 8 39q22 12 38 -16q32 -56 90 -56t90 56q16 27 38 16q20 -10 8 -39q-13 -31 -48 -56q-35 -26 -88 -26z" />
    <glyph glyph-name="Gdotaccent" unicode="&#x120;" horiz-adv-x="667" 
d="M375 646q-123 0 -192 -85q-70 -86 -70 -218q0 -140 68 -219q68 -80 198 -80q110 0 182 51v193h-163q-12 0 -19 8q-8 7 -8 19q0 11 8 19q7 8 19 8h188q30 0 30 -32v-217q0 -21 -16 -34q-35 -28 -96 -48q-61 -21 -128 -21q-165 0 -245 95q-80 94 -80 259q0 159 88 258
q88 98 238 98q116 -3 186 -52q31 -22 15 -45q-14 -19 -49 1q-76 42 -154 42zM306 812q0 25 15 37q14 12 37 12t38 -12t15 -37q0 -48 -53 -48q-52 0 -52 48z" />
    <glyph glyph-name="gdotaccent" unicode="&#x121;" horiz-adv-x="513" 
d="M401 446q42 -45 42 -112q0 -72 -49 -118q-50 -47 -142 -47q-65 0 -109 23q-40 -27 -40 -60q0 -60 169 -65q51 -2 86 -7q34 -5 66 -17t48 -35q15 -24 15 -60q0 -71 -64 -115q-64 -43 -185 -43q-217 0 -217 138q0 72 80 116q-52 29 -52 79q0 55 56 97q-44 43 -44 114
q0 74 50 120q49 46 141 46q37 0 74 -10h154q27 0 27 -21q0 -23 -27 -23h-79zM255 14q-55 1 -103 12q-77 -33 -77 -97q0 -38 38 -64q37 -26 124 -26q98 0 147 30t49 72q0 37 -39 53q-40 16 -139 20zM117 334q0 -52 34 -84t101 -32t101 32t34 84t-34 85q-34 32 -101 32
t-101 -32q-34 -33 -34 -85zM214 618q0 20 12 32q11 11 30 11q20 0 32 -11q11 -12 11 -32q0 -19 -11 -30q-12 -12 -32 -12t-31 11t-11 31z" />
    <glyph glyph-name="Gcommaaccent" unicode="&#x122;" horiz-adv-x="667" 
d="M352 -229q49 45 49 86q0 33 -39 44q-29 8 -25 32t35 21q36 -3 60 -29q24 -25 24 -64q0 -35 -20 -70t-46 -55q-36 -27 -52 -9q-15 17 14 44zM375 646q-123 0 -192 -85q-70 -86 -70 -218q0 -140 68 -219q68 -80 198 -80q110 0 182 51v193h-163q-12 0 -19 8q-8 7 -8 19
q0 11 8 19q7 8 19 8h188q30 0 30 -32v-217q0 -21 -16 -34q-35 -28 -96 -48q-61 -21 -128 -21q-165 0 -245 95q-80 94 -80 259q0 159 88 258q88 98 238 98q116 -3 186 -52q31 -22 15 -45q-14 -19 -49 1q-76 42 -154 42z" />
    <glyph glyph-name="gcommaaccent" unicode="&#x123;" horiz-adv-x="513" 
d="M283 727q-52 -44 -52 -86q0 -33 42 -42q27 -6 24 -28q-4 -23 -37 -20t-56 26q-23 22 -23 60q0 35 20 69q20 33 47 51q35 25 48 6q10 -16 -13 -36zM401 446q42 -45 42 -112q0 -72 -49 -118q-50 -47 -142 -47q-65 0 -109 23q-40 -27 -40 -60q0 -60 169 -65q51 -2 86 -7
q34 -5 66 -17t48 -35q15 -24 15 -60q0 -71 -64 -115q-64 -43 -185 -43q-217 0 -217 138q0 72 80 116q-52 29 -52 79q0 55 56 97q-44 43 -44 114q0 74 50 120q49 46 141 46q37 0 74 -10h154q27 0 27 -21q0 -23 -27 -23h-79zM255 14q-55 1 -103 12q-77 -33 -77 -97
q0 -38 38 -64q37 -26 124 -26q98 0 147 30t49 72q0 37 -39 53q-40 16 -139 20zM117 334q0 -52 34 -84t101 -32t101 32t34 84t-34 85q-34 32 -101 32t-101 -32q-34 -33 -34 -85z" />
    <glyph glyph-name="Hcircumflex" unicode="&#x124;" horiz-adv-x="697" 
d="M556 658q0 14 8 23t22 9t22 -9t8 -23v-626q0 -14 -8 -23t-22 -9t-22 9t-8 23v294h-415v-294q0 -14 -8 -23t-22 -9t-22 9t-8 23v626q0 14 8 23t22 9t22 -9t8 -23v-278h415v278zM479 749q31 -18 43 1q15 23 -17 42l-123 75q-30 17 -57 0l-126 -78q-29 -18 -19 -38
q11 -21 43 -2l127 78z" />
    <glyph glyph-name="hcircumflex" unicode="&#x125;" horiz-adv-x="541" 
d="M105 827l-127 -78q-32 -19 -43 2q-10 20 19 38l126 78q27 17 57 0l123 -75q32 -19 17 -42q-12 -19 -43 -1zM429 286q0 78 -28 120q-29 42 -98 42q-91 0 -131 -76t-40 -197v-143q0 -32 -28 -32t-28 32v626q0 32 28 32t28 -32v-281q24 62 73 93q48 30 103 30q96 0 137 -54
q40 -54 40 -158v-256q0 -32 -28 -32t-28 32v254z" />
    <glyph glyph-name="Hbar" unicode="&#x126;" horiz-adv-x="713" 
d="M564 658q0 14 8 23t22 9t22 -9t8 -23v-88h52q12 0 19 -7q7 -8 7 -18q0 -24 -26 -24h-52v-489q0 -14 -8 -23t-22 -9t-22 9t-8 23v294h-415v-294q0 -14 -8 -23t-22 -9t-22 9t-8 23v489h-52q-26 0 -26 24q0 10 7 18q7 7 19 7h52v88q0 14 8 23t22 9t22 -9t8 -23v-88h415v88z
M564 380v141h-415v-141h415z" />
    <glyph glyph-name="hbar" unicode="&#x127;" horiz-adv-x="581" 
d="M459 286q0 78 -28 120q-29 42 -98 42q-91 0 -131 -76t-40 -197v-143q0 -32 -28 -32t-28 32v519h-78q-27 0 -27 24t27 24h78v59q0 32 28 32t28 -32v-59h165q27 0 27 -24t-27 -24h-165v-174q24 62 73 93q48 30 103 30q96 0 137 -54q40 -54 40 -158v-256q0 -32 -28 -32
t-28 32v254z" />
    <glyph glyph-name="Imacron" unicode="&#x12a;" horiz-adv-x="222" 
d="M81 658q0 14 8 23t22 9t22 -9t8 -23v-626q0 -14 -8 -23t-22 -9t-22 9t-8 23v626zM-29 777q-26 0 -26 24q0 10 7 18q7 7 19 7h280q12 0 19 -7q7 -8 7 -18q0 -24 -26 -24h-280z" />
    <glyph glyph-name="imacron" unicode="&#x12b;" horiz-adv-x="188" 
d="M-32 592q-26 0 -26 24q0 10 7 18q7 7 19 7h252q12 0 19 -7q7 -8 7 -18q0 -24 -26 -24h-252zM66 458q0 32 28 32t28 -32v-426q0 -32 -28 -32t-28 32v426z" />
    <glyph glyph-name="Iogonek" unicode="&#x12e;" horiz-adv-x="222" 
d="M116 -12q-69 -69 -69 -127q0 -49 43 -49q10 0 33 10q19 9 29 -2q15 -18 -10 -38q-22 -18 -57 -18q-42 0 -66 22q-25 22 -25 67q0 46 25 92q25 47 62 78v635q0 13 8 23q8 9 22 9t22 -9q8 -10 8 -23v-626q0 -19 -25 -44z" />
    <glyph glyph-name="iogonek" unicode="&#x12f;" horiz-adv-x="188" 
d="M99 -12q-69 -69 -69 -127q0 -49 43 -49q11 0 33 10q19 9 29 -2q15 -18 -10 -38q-22 -18 -57 -18q-42 0 -66 22q-25 22 -25 67t26 91q26 47 63 79v435q0 32 28 32t28 -32v-426q0 -21 -23 -44zM52 618q0 20 12 32q11 11 30 11q20 0 32 -11q11 -12 11 -32q0 -19 -11 -30
q-12 -12 -32 -12t-31 11t-11 31z" />
    <glyph glyph-name="Idotaccent" unicode="&#x130;" horiz-adv-x="222" 
d="M81 658q0 14 8 23t22 9t22 -9t8 -23v-626q0 -14 -8 -23t-22 -9t-22 9t-8 23v626zM56 812q0 25 15 37q14 12 37 12t38 -12t15 -37q0 -48 -53 -48q-52 0 -52 48z" />
    <glyph glyph-name="dotlessi" unicode="&#x131;" horiz-adv-x="188" 
d="M66 458q0 32 28 32t28 -32v-426q0 -32 -28 -32t-28 32v426z" />
    <glyph glyph-name="Jcircumflex" unicode="&#x134;" horiz-adv-x="344" 
d="M-2 55q10 19 44 6q43 -17 80 -17q94 0 94 117v497q0 13 8 23q8 9 22 9t22 -9q8 -10 8 -23v-502q0 -166 -149 -166q-71 0 -113 24q-29 17 -16 41zM375 749q31 -18 43 1q15 23 -17 42l-123 75q-30 17 -57 0l-126 -78q-29 -18 -19 -38q11 -21 43 -2l127 78z" />
    <glyph glyph-name="jcircumflex" unicode="&#x135;" horiz-adv-x="188" 
d="M-100 -192q-24 13 -16 35q7 21 37 12q45 -13 68 -13q53 0 69 30t16 100v486q0 32 28 32t28 -32v-493q0 -87 -31 -131q-32 -44 -107 -44q-58 0 -92 18zM100 652l-105 -87q-32 -25 -45 -7q-14 18 15 42l111 91q13 11 27 11q13 0 27 -11l110 -89q29 -24 13 -44
q-15 -19 -42 4z" />
    <glyph glyph-name="Kcommaaccent" unicode="&#x136;" horiz-adv-x="531" 
d="M251 -229q49 45 49 86q0 33 -39 44q-29 8 -25 32t35 21q36 -3 60 -29q24 -25 24 -64q0 -35 -20 -70t-46 -55q-36 -27 -52 -9q-15 17 14 44zM81 658q0 14 8 23t22 9t22 -9t8 -23v-292l306 307q30 28 50 8q20 -21 -8 -49l-285 -279l300 -293q27 -27 9 -49q-20 -23 -53 8
l-319 309v-296q0 -14 -8 -23t-22 -9t-22 9t-8 23v626z" />
    <glyph glyph-name="kcommaaccent" unicode="&#x137;" horiz-adv-x="424" 
d="M195 -223q52 43 52 86q0 33 -42 42q-27 6 -24 28q4 23 37 20t56 -26q23 -22 23 -60q0 -35 -20 -69q-20 -33 -47 -51q-35 -25 -48 -6q-12 16 13 36zM66 658q0 32 28 32t28 -32v-394l217 213q24 24 43 5q18 -18 -5 -41l-201 -190l224 -199q11 -9 13 -22q1 -13 -7 -21
q-19 -19 -46 4l-238 214v-195q0 -32 -28 -32t-28 32v626z" />
    <glyph glyph-name="Lacute" unicode="&#x139;" horiz-adv-x="512" 
d="M136 750q-34 -17 -44 4q-12 23 20 40l181 93q34 17 45 -3q14 -24 -22 -42zM122 0q-29 0 -29 32v626q0 14 8 23t22 9t22 -9t8 -23v-604h333q12 0 20 -8q7 -8 7 -19q0 -12 -7 -19q-8 -8 -20 -8h-364z" />
    <glyph glyph-name="lacute" unicode="&#x13a;" horiz-adv-x="303" 
d="M118 750q-34 -17 -44 4q-12 23 20 40l181 93q34 17 45 -3q14 -24 -22 -42zM78 658q0 32 28 32t28 -32v-491q0 -68 18 -96q18 -29 67 -29q20 0 54 13t43 -5q10 -20 -17 -38q-34 -22 -90 -22q-70 0 -100 38q-31 38 -31 124v506z" />
    <glyph glyph-name="Lcommaaccent" unicode="&#x13b;" horiz-adv-x="512" 
d="M242 -229q49 45 49 86q0 33 -39 44q-29 8 -25 32t35 21q36 -3 60 -29q24 -25 24 -64q0 -35 -20 -70t-46 -55q-36 -27 -52 -9q-15 17 14 44zM110 0q-29 0 -29 32v626q0 14 8 23t22 9t22 -9t8 -23v-604h333q12 0 20 -8q7 -8 7 -19q0 -12 -7 -19q-8 -8 -20 -8h-364z" />
    <glyph glyph-name="lcommaaccent" unicode="&#x13c;" horiz-adv-x="303" 
d="M155 -223q52 43 52 86q0 33 -42 42q-27 6 -24 28q4 23 37 20t56 -26q23 -22 23 -60q0 -35 -20 -69q-20 -33 -47 -51q-35 -25 -48 -6q-12 16 13 36zM66 658q0 32 28 32t28 -32v-491q0 -68 18 -96q18 -29 67 -29q20 0 54 13t43 -5q10 -20 -17 -38q-34 -22 -90 -22
q-70 0 -100 38q-31 38 -31 124v506z" />
    <glyph glyph-name="Lcaron" unicode="&#x13d;" horiz-adv-x="512" 
d="M286 513q47 43 47 82q0 33 -38 42q-27 8 -24 31q4 23 34 20q34 -3 58 -27q23 -25 23 -62q0 -33 -19 -67q-20 -34 -45 -53q-34 -25 -50 -9q-14 17 14 43zM110 0q-29 0 -29 32v626q0 14 8 23t22 9t22 -9t8 -23v-604h333q12 0 20 -8q7 -8 7 -19q0 -12 -7 -19q-8 -8 -20 -8
h-364z" />
    <glyph glyph-name="lcaron" unicode="&#x13e;" horiz-adv-x="303" 
d="M196 552q34 31 34 64q0 27 -34 36q-27 8 -21 30q5 21 37 17t50 -25t18 -51q0 -61 -49 -101q-31 -25 -46 -6q-12 16 11 36zM66 658q0 32 28 32t28 -32v-491q0 -68 18 -96q18 -29 67 -29q20 0 54 13t43 -5q10 -20 -17 -38q-34 -22 -90 -22q-70 0 -100 38q-31 38 -31 124
v506z" />
    <glyph glyph-name="Ldot" unicode="&#x13f;" horiz-adv-x="512" 
d="M110 0q-29 0 -29 32v626q0 14 8 23t22 9t22 -9t8 -23v-604h333q12 0 20 -8q7 -8 7 -19q0 -12 -7 -19q-8 -8 -20 -8h-364zM301 374q0 19 12 32q11 13 32 13t33 -13t12 -32t-12 -31q-12 -13 -33 -13t-32 13q-12 12 -12 31z" />
    <glyph glyph-name="ldot" unicode="&#x140;" horiz-adv-x="303" 
d="M66 658q0 32 28 32t28 -32v-491q0 -68 18 -96q18 -29 67 -29q20 0 54 13t43 -5q10 -20 -17 -38q-34 -22 -90 -22q-70 0 -100 38q-31 38 -31 124v506zM190 354q0 20 12 32q11 11 30 11q20 0 32 -11q11 -12 11 -32q0 -19 -11 -30q-12 -12 -32 -12t-31 11t-11 31z" />
    <glyph glyph-name="Lslash" unicode="&#x141;" 
d="M142 0q-29 0 -29 32v275l-49 -34q-30 -22 -44 -1q-14 20 16 42l77 54v290q0 14 8 23t22 9t22 -9t8 -23v-248l81 57q28 21 42 1q17 -22 -14 -42l-109 -77v-295h333q12 0 20 -8q7 -8 7 -19q0 -12 -7 -19q-8 -8 -20 -8h-364z" />
    <glyph glyph-name="lslash" unicode="&#x142;" horiz-adv-x="308" 
d="M85 295l-31 -22q-30 -22 -44 -1q-14 20 16 42l59 41v303q0 32 28 32t28 -32v-263l74 52q28 21 42 1q17 -22 -14 -42l-102 -72v-167q0 -68 18 -96q18 -29 67 -29q20 0 54 13t43 -5q10 -20 -17 -38q-34 -22 -90 -22q-70 0 -100 38q-31 38 -31 124v143z" />
    <glyph glyph-name="Nacute" unicode="&#x143;" horiz-adv-x="697" 
d="M560 658q0 32 28 32t28 -32v-626q0 -14 -8 -23t-21 -9q-16 0 -30 16l-420 564v-548q0 -32 -28 -32t-28 32v624q0 14 8 24q7 10 22 10q19 0 33 -19l416 -562v549zM318 750q-34 -17 -44 4q-12 23 20 40l181 93q34 17 45 -3q14 -24 -22 -42z" />
    <glyph glyph-name="nacute" unicode="&#x144;" horiz-adv-x="541" 
d="M419 286q0 78 -28 120q-29 42 -98 42q-91 0 -131 -76t-40 -197v-143q0 -32 -28 -32t-28 32v426q0 32 28 32t28 -32v-81q24 62 73 93q48 30 103 30q96 0 137 -54q40 -54 40 -158v-256q0 -32 -28 -32t-28 32v254zM272 561q-30 -22 -44 -1q-15 21 16 42l145 101q28 21 42 1
q17 -22 -14 -42z" />
    <glyph glyph-name="Ncommaaccent" unicode="&#x145;" horiz-adv-x="697" 
d="M291 -229q49 45 49 86q0 33 -39 44q-29 8 -25 32t35 21q36 -3 60 -29q24 -25 24 -64q0 -35 -20 -70t-46 -55q-36 -27 -52 -9q-15 17 14 44zM560 658q0 32 28 32t28 -32v-626q0 -14 -8 -23t-21 -9q-16 0 -30 16l-420 564v-548q0 -32 -28 -32t-28 32v624q0 14 8 24
q7 10 22 10q19 0 33 -19l416 -562v549z" />
    <glyph glyph-name="ncommaaccent" unicode="&#x146;" horiz-adv-x="541" 
d="M216 -223q52 43 52 86q0 33 -42 42q-27 6 -24 28q4 23 37 20t56 -26q23 -22 23 -60q0 -35 -20 -69q-20 -33 -47 -51q-35 -25 -48 -6q-12 16 13 36zM419 286q0 78 -28 120q-29 42 -98 42q-91 0 -131 -76t-40 -197v-143q0 -32 -28 -32t-28 32v426q0 32 28 32t28 -32v-81
q24 62 73 93q48 30 103 30q96 0 137 -54q40 -54 40 -158v-256q0 -32 -28 -32t-28 32v254z" />
    <glyph glyph-name="Ncaron" unicode="&#x147;" horiz-adv-x="697" 
d="M560 658q0 32 28 32t28 -32v-626q0 -14 -8 -23t-21 -9q-16 0 -30 16l-420 564v-548q0 -32 -28 -32t-28 32v624q0 14 8 24q7 10 22 10q19 0 33 -19l416 -562v549zM353 787l127 78q31 19 43 -2t-19 -38l-126 -78q-29 -18 -57 0l-123 75q-15 8 -19 20q-5 12 2 22q12 19 43 1
z" />
    <glyph glyph-name="ncaron" unicode="&#x148;" horiz-adv-x="541" 
d="M283 603l105 87q30 23 44 6q15 -18 -13 -42l-113 -92q-15 -11 -27 -11q-13 0 -27 11l-111 90q-28 25 -12 44q16 17 43 -4zM419 286q0 78 -28 120q-29 42 -98 42q-91 0 -131 -76t-40 -197v-143q0 -32 -28 -32t-28 32v426q0 32 28 32t28 -32v-81q24 62 73 93q48 30 103 30
q96 0 137 -54q40 -54 40 -158v-256q0 -32 -28 -32t-28 32v254z" />
    <glyph glyph-name="Omacron" unicode="&#x14c;" horiz-adv-x="748" 
d="M51 345q0 156 85 256q84 99 238 99t239 -99q84 -100 84 -256t-84 -255q-85 -100 -239 -100t-238 100q-85 99 -85 255zM113 345q0 -132 70 -216q69 -85 191 -85t192 85q69 84 69 216t-69 217q-70 84 -192 84t-191 -84q-70 -85 -70 -217zM234 777q-26 0 -26 24q0 10 7 18
q7 7 19 7h280q12 0 19 -7q7 -8 7 -18q0 -24 -26 -24h-280z" />
    <glyph glyph-name="omacron" unicode="&#x14d;" horiz-adv-x="558" 
d="M41 245q0 110 63 183q63 72 175 72t175 -72q63 -73 63 -183t-63 -182q-63 -73 -175 -73t-175 73q-63 72 -63 182zM99 245q0 -93 48 -148t132 -55t132 55t48 148t-48 148t-132 55t-132 -55t-48 -148zM153 592q-26 0 -26 24q0 10 7 18q7 7 19 7h252q12 0 19 -7q7 -8 7 -18
q0 -24 -26 -24h-252z" />
    <glyph glyph-name="Obreve" unicode="&#x14e;" horiz-adv-x="748" 
d="M51 345q0 156 85 256q84 99 238 99t239 -99q84 -100 84 -256t-84 -255q-85 -100 -239 -100t-238 100q-85 99 -85 255zM113 345q0 -132 70 -216q69 -85 191 -85t192 85q69 84 69 216t-69 217q-70 84 -192 84t-191 -84q-70 -85 -70 -217zM375 750q-52 0 -92 22
q-41 22 -58 50q-18 28 0 43q19 15 41 -11q47 -54 109 -54q66 0 110 54q21 26 41 11q18 -15 0 -43q-17 -28 -58 -50t-93 -22z" />
    <glyph glyph-name="obreve" unicode="&#x14f;" horiz-adv-x="558" 
d="M41 245q0 110 63 183q63 72 175 72t175 -72q63 -73 63 -183t-63 -182q-63 -73 -175 -73t-175 73q-63 72 -63 182zM99 245q0 -93 48 -148t132 -55t132 55t48 148t-48 148t-132 55t-132 -55t-48 -148zM279 561q-53 0 -88 26q-35 25 -48 56q-11 28 8 39q22 12 38 -16
q31 -56 90 -56t90 56q16 27 38 16q20 -10 8 -39q-13 -31 -48 -56q-35 -26 -88 -26z" />
    <glyph glyph-name="Ohungarumlaut" unicode="&#x150;" horiz-adv-x="748" 
d="M51 345q0 156 85 256q84 99 238 99t239 -99q84 -100 84 -256t-84 -255q-85 -100 -239 -100t-238 100q-85 99 -85 255zM113 345q0 -132 70 -216q69 -85 191 -85t192 85q69 84 69 216t-69 217q-70 84 -192 84t-191 -84q-70 -85 -70 -217zM264 750q-34 -17 -44 4
q-12 23 20 40l181 93q34 17 45 -3q14 -24 -22 -42zM468 750q-34 -17 -44 4q-12 23 20 40l181 93q34 17 45 -3q14 -24 -22 -42z" />
    <glyph glyph-name="ohungarumlaut" unicode="&#x151;" horiz-adv-x="558" 
d="M41 245q0 110 63 183q63 72 175 72t175 -72q63 -73 63 -183t-63 -182q-63 -73 -175 -73t-175 73q-63 72 -63 182zM99 245q0 -93 48 -148t132 -55t132 55t48 148t-48 148t-132 55t-132 -55t-48 -148zM208 561q-30 -22 -44 -1q-15 21 16 42l145 101q28 21 42 1
q17 -22 -14 -42zM359 561q-30 -22 -44 -1q-15 21 16 42l145 101q28 21 42 1q17 -22 -14 -42z" />
    <glyph glyph-name="OE" unicode="&#x152;" horiz-adv-x="970" 
d="M544 0q-22 0 -32 18q-64 -28 -143 -28q-153 0 -235 100q-83 99 -83 255t83 256q82 99 235 99q79 0 143 -28q7 18 29 18h365q12 0 20 -8q7 -8 7 -19q0 -12 -7 -19q-8 -8 -20 -8h-337v-249h277q12 0 20 -8q7 -8 7 -19q0 -12 -7 -19q-8 -8 -20 -8h-277v-279h348q12 0 20 -8
q7 -8 7 -19q0 -12 -7 -19q-8 -8 -20 -8h-373zM369 44q83 0 140 32v537q-61 33 -140 33q-122 0 -189 -84t-67 -217t67 -217t189 -84z" />
    <glyph glyph-name="oe" unicode="&#x153;" horiz-adv-x="817" 
d="M588 42q62 0 124 30q29 14 40 -5q12 -21 -12 -38q-59 -39 -152 -39q-101 0 -158 52q-63 -52 -151 -52q-112 0 -175 73q-63 72 -63 182t63 183q63 72 175 72q93 0 156 -55q60 55 150 55q93 0 142 -55q49 -56 49 -135q0 -24 -3 -43q-7 -49 -53 -49h-306q6 -85 51 -130
q45 -46 123 -46zM279 42q71 0 117 40q-39 62 -39 160q0 95 43 161q-48 45 -121 45q-84 0 -132 -55t-48 -148t48 -148t132 -55zM581 448q-73 0 -117 -47t-50 -133h307q2 13 2 38q-2 65 -37 104q-36 38 -105 38z" />
    <glyph glyph-name="Racute" unicode="&#x154;" horiz-adv-x="587" 
d="M81 650q0 31 29 35q61 10 142 10q249 0 249 -193q0 -75 -38 -124t-104 -72l160 -253q20 -31 -3 -47q-14 -9 -27 -4q-14 5 -23 21l-170 268q-25 -4 -61 -4q-53 0 -94 6v-261q0 -14 -8 -23t-22 -9t-22 9t-8 23v618zM246 641q-35 0 -105 -6v-290q48 -6 90 -6q108 0 158 39
t50 123q0 77 -50 109q-51 31 -143 31zM236 750q-34 -17 -44 4q-12 23 20 40l181 93q34 17 45 -3q14 -24 -22 -42z" />
    <glyph glyph-name="racute" unicode="&#x155;" horiz-adv-x="337" 
d="M122 32q0 -32 -28 -32t-28 32v427q0 31 28 31t28 -31v-62q15 48 52 76q36 27 82 27q37 0 63 -16q25 -16 16 -38q-9 -21 -41 -7q-22 9 -45 9q-50 0 -83 -45q-44 -58 -44 -215v-156zM336 662q31 20 14 42q-14 20 -42 -1l-145 -101q-31 -21 -16 -42q14 -21 44 1z" />
    <glyph glyph-name="Rcommaaccent" unicode="&#x156;" horiz-adv-x="587" 
d="M281 -229q49 45 49 86q0 33 -39 44q-29 8 -25 32t35 21q36 -3 60 -29q24 -25 24 -64q0 -35 -20 -70t-46 -55q-36 -27 -52 -9q-15 17 14 44zM81 650q0 31 29 35q61 10 142 10q249 0 249 -193q0 -75 -38 -124t-104 -72l160 -253q20 -31 -3 -47q-14 -9 -27 -4q-14 5 -23 21
l-170 268q-25 -4 -61 -4q-53 0 -94 6v-261q0 -14 -8 -23t-22 -9t-22 9t-8 23v618zM246 641q-35 0 -105 -6v-290q48 -6 90 -6q108 0 158 39t50 123q0 77 -50 109q-51 31 -143 31z" />
    <glyph glyph-name="rcommaaccent" unicode="&#x157;" horiz-adv-x="337" 
d="M87 -223q52 43 52 86q0 33 -42 42q-27 6 -24 28q4 23 37 20t56 -26q23 -22 23 -60q0 -35 -20 -69q-20 -33 -47 -51q-35 -25 -48 -6q-12 16 13 36zM133 32q0 -32 -28 -32t-28 32v427q0 31 28 31t28 -31v-62q15 48 52 76q36 27 82 27q37 0 63 -16q25 -16 16 -38
q-9 -21 -41 -7q-22 9 -45 9q-50 0 -83 -45q-44 -58 -44 -215v-156z" />
    <glyph glyph-name="Rcaron" unicode="&#x158;" horiz-adv-x="587" 
d="M84 650q0 31 29 35q61 10 142 10q249 0 249 -193q0 -75 -38 -124t-104 -72l160 -253q20 -31 -3 -47q-14 -9 -27 -4q-14 5 -23 21l-170 268q-25 -4 -61 -4q-53 0 -94 6v-261q0 -14 -8 -23t-22 -9t-22 9t-8 23v618zM249 641q-35 0 -105 -6v-290q48 -6 90 -6q108 0 158 39
t50 123q0 77 -50 109q-51 31 -143 31zM260 787l127 78q31 19 43 -2t-19 -38l-126 -78q-29 -18 -57 0l-123 75q-15 8 -19 20q-5 12 2 22q12 19 43 1z" />
    <glyph glyph-name="rcaron" unicode="&#x159;" horiz-adv-x="337" 
d="M138 32q0 -32 -28 -32t-28 32v427q0 31 28 31t28 -31v-62q15 48 52 76q36 27 82 27q37 0 63 -16q25 -16 16 -38q-9 -21 -41 -7q-22 9 -45 9q-50 0 -83 -45q-44 -58 -44 -215v-156zM100 692q-27 21 -43 4q-16 -19 12 -44l111 -90q14 -11 27 -11q12 0 27 11l113 92
q28 24 13 42q-14 17 -44 -6l-105 -87z" />
    <glyph glyph-name="Sacute" unicode="&#x15a;" horiz-adv-x="540" 
d="M288 646q-74 0 -111 -32q-38 -33 -38 -84q0 -52 39 -84t95 -50q55 -18 111 -38q55 -21 94 -64t39 -111q0 -88 -62 -140q-62 -53 -175 -53q-103 0 -179 40q-60 33 -42 62q2 4 5 7q3 2 7 3l6 1q3 0 8 -1q4 -1 7 -2l8 -4q5 -3 9 -4q3 -2 9 -5q5 -3 8 -5q70 -38 157 -38
q80 0 126 34q46 33 46 96q0 46 -28 78q-28 31 -70 47l-91 34q-49 19 -91 39q-42 19 -70 59t-28 97q0 75 55 124q54 48 158 48q97 0 168 -44q47 -29 30 -54q-12 -18 -59 7q-3 1 -4 2q-67 35 -137 35zM254 750q-34 -17 -44 4q-12 23 20 40l181 93q34 17 45 -3q14 -24 -22 -42z
" />
    <glyph glyph-name="sacute" unicode="&#x15b;" horiz-adv-x="424" 
d="M228 500q81 0 138 -33q32 -18 20 -42q-9 -20 -39 -7q-68 30 -120 30q-53 0 -79 -19q-27 -20 -27 -55t30 -56q29 -21 71 -31q41 -11 83 -24q42 -14 72 -45q29 -32 29 -83q0 -65 -50 -105q-51 -40 -141 -40q-96 0 -152 38q-28 19 -15 41q11 19 43 4q65 -31 132 -31
q55 0 90 24t35 64q0 36 -29 58q-30 21 -71 32q-42 11 -84 24t-71 44q-30 30 -30 80q0 63 45 98q44 34 120 34zM230 561q-30 -22 -44 -1q-15 21 16 42l145 101q28 21 42 1q17 -22 -14 -42z" />
    <glyph glyph-name="Scircumflex" unicode="&#x15c;" horiz-adv-x="540" 
d="M288 646q-74 0 -111 -32q-38 -33 -38 -84q0 -52 39 -84t95 -50q55 -18 111 -38q55 -21 94 -64t39 -111q0 -88 -62 -140q-62 -53 -175 -53q-103 0 -179 40q-60 33 -42 62q2 4 5 7q3 2 7 3l6 1q3 0 8 -1q4 -1 7 -2l8 -4q5 -3 9 -4q3 -2 9 -5q5 -3 8 -5q70 -38 157 -38
q80 0 126 34q46 33 46 96q0 46 -28 78q-28 31 -70 47l-91 34q-49 19 -91 39q-42 19 -70 59t-28 97q0 75 55 124q54 48 158 48q97 0 168 -44q47 -29 30 -54q-12 -18 -59 7q-3 1 -4 2q-67 35 -137 35zM298 827l-127 -78q-32 -19 -43 2q-10 20 19 38l126 78q27 17 57 0l123 -75
q32 -19 17 -42q-12 -19 -43 -1z" />
    <glyph glyph-name="scircumflex" unicode="&#x15d;" horiz-adv-x="424" 
d="M228 500q81 0 138 -33q32 -18 20 -42q-9 -20 -39 -7q-68 30 -120 30q-53 0 -79 -19q-27 -20 -27 -55t30 -56q29 -21 71 -31q41 -11 83 -24q42 -14 72 -45q29 -32 29 -83q0 -65 -50 -105q-51 -40 -141 -40q-96 0 -152 38q-28 19 -15 41q11 19 43 4q65 -31 132 -31
q55 0 90 24t35 64q0 36 -29 58q-30 21 -71 32q-42 11 -84 24t-71 44q-30 30 -30 80q0 63 45 98q44 34 120 34zM226 652l-105 -87q-32 -25 -45 -7q-14 18 15 42l111 91q13 11 27 11q13 0 27 -11l110 -89q29 -24 13 -44q-15 -19 -42 4z" />
    <glyph glyph-name="Scedilla" unicode="&#x15e;" horiz-adv-x="540" 
d="M227 -178q24 -10 52 -10q52 0 52 45q0 43 -75 48q-28 2 -23 25l15 61q-87 7 -146 39q-61 33 -42 62q2 4 5 6t7 3l6 2q3 0 8 -1l7 -3l9 -3q5 -3 8 -4q3 -2 9 -5q5 -4 8 -5q70 -38 157 -38q80 0 126 34q46 33 46 96q0 46 -28 78q-28 31 -70 47l-91 34q-49 19 -91 39
q-42 19 -70 59t-28 97q0 75 55 124q54 48 158 48q98 0 169 -44q46 -29 29 -54q-6 -9 -18 -8q-13 0 -20 4q-8 3 -25 13q-61 35 -137 35q-74 0 -111 -32q-38 -33 -38 -84q0 -52 39 -84t95 -50q55 -18 111 -38q55 -21 94 -64t39 -111q0 -85 -58 -137q-59 -52 -166 -56l-10 -42
q52 -5 76 -30q23 -25 23 -59q0 -45 -27 -70q-28 -25 -79 -25q-44 0 -76 17q-27 13 -16 36q9 19 42 5z" />
    <glyph glyph-name="scedilla" unicode="&#x15f;" horiz-adv-x="424" 
d="M172 -178q24 -10 52 -10q52 0 52 45q0 43 -75 48q-28 2 -23 25l15 61q-84 5 -130 37q-28 19 -15 41q11 19 43 4q65 -31 132 -31q55 0 90 24t35 64q0 36 -29 58q-30 21 -71 32q-42 11 -84 24t-71 44q-30 30 -30 80q0 63 45 98q44 34 120 34q81 0 138 -33q32 -18 20 -42
q-9 -20 -39 -7q-68 30 -120 30q-53 0 -79 -19q-27 -20 -27 -55t30 -56q29 -21 71 -31q41 -11 83 -24q42 -14 72 -45q29 -32 29 -83q0 -60 -44 -99t-122 -45l-11 -43q52 -5 76 -30q23 -25 23 -59q0 -45 -27 -70q-28 -25 -79 -25q-44 0 -76 17q-27 13 -16 36q9 19 42 5z" />
    <glyph glyph-name="Scaron" unicode="&#x160;" horiz-adv-x="540" 
d="M288 646q-74 0 -111 -32q-38 -33 -38 -84q0 -52 39 -84t95 -50q55 -18 111 -38q55 -21 94 -64t39 -111q0 -88 -62 -140q-62 -53 -175 -53q-103 0 -179 40q-60 33 -42 62q2 4 5 7q3 2 7 3l6 1q3 0 8 -1q4 -1 7 -2l8 -4q5 -3 9 -4q3 -2 9 -5q5 -3 8 -5q70 -38 157 -38
q80 0 126 34q46 33 46 96q0 46 -28 78q-28 31 -70 47l-91 34q-49 19 -91 39q-42 19 -70 59t-28 97q0 75 55 124q54 48 158 48q97 0 168 -44q47 -29 30 -54q-12 -18 -59 7q-3 1 -4 2q-67 35 -137 35zM299 787l127 78q31 19 43 -2t-19 -38l-126 -78q-29 -18 -57 0l-123 75
q-15 8 -19 20q-5 12 2 22q12 19 43 1z" />
    <glyph glyph-name="scaron" unicode="&#x161;" horiz-adv-x="424" 
d="M228 500q81 0 138 -33q32 -18 20 -42q-9 -20 -39 -7q-68 30 -120 30q-53 0 -79 -19q-27 -20 -27 -55t30 -56q29 -21 71 -31q41 -11 83 -24q42 -14 72 -45q29 -32 29 -83q0 -65 -50 -105q-51 -40 -141 -40q-96 0 -152 38q-28 19 -15 41q11 19 43 4q65 -31 132 -31
q55 0 90 24t35 64q0 36 -29 58q-30 21 -71 32q-42 11 -84 24t-71 44q-30 30 -30 80q0 63 45 98q44 34 120 34zM231 603l105 87q30 23 44 6q15 -18 -13 -42l-113 -92q-15 -11 -27 -11q-13 0 -27 11l-111 90q-28 25 -12 44q16 17 43 -4z" />
    <glyph glyph-name="Tcommaaccent" unicode="&#x162;" horiz-adv-x="586" 
d="M261 -229q49 45 49 86q0 33 -39 44q-29 8 -25 32t35 21q36 -3 60 -29q24 -25 24 -64q0 -35 -20 -70t-46 -55q-36 -27 -52 -9q-15 17 14 44zM323 636v-604q0 -14 -8 -23t-22 -9t-22 9t-8 23v604h-225q-12 0 -19 8q-8 7 -8 19q0 11 8 19q7 8 19 8h510q12 0 20 -8
q7 -8 7 -19q0 -12 -7 -19q-8 -8 -20 -8h-225z" />
    <glyph glyph-name="tcommaaccent" unicode="&#x163;" horiz-adv-x="302" 
d="M156 -223q52 43 52 86q0 33 -42 42q-27 6 -24 28q4 23 37 20t56 -26q23 -22 23 -60q0 -35 -20 -69q-20 -33 -47 -51q-35 -25 -48 -6q-12 16 13 36zM122 438v-271q0 -68 18 -96q18 -29 67 -29q20 0 51 12q36 15 45 -1q13 -23 -16 -41q-37 -22 -92 -22q-71 0 -100 38
t-29 126v424q0 32 28 32t28 -32v-88h128q12 0 20 -7q7 -8 7 -19q0 -26 -27 -26h-128z" />
    <glyph glyph-name="Tcaron" unicode="&#x164;" horiz-adv-x="586" 
d="M296 787l127 78q31 19 43 -2t-19 -38l-126 -78q-29 -18 -57 0l-123 75q-15 8 -19 20q-5 12 2 22q12 19 43 1zM323 636v-604q0 -14 -8 -23t-22 -9t-22 9t-8 23v604h-225q-12 0 -19 8q-8 7 -8 19q0 11 8 19q7 8 19 8h510q12 0 20 -8q7 -8 7 -19q0 -12 -7 -19q-8 -8 -20 -8
h-225z" />
    <glyph glyph-name="tcaron" unicode="&#x165;" horiz-adv-x="316" 
d="M226 552q34 31 34 64q0 27 -34 36q-27 8 -21 30q5 21 37 17t50 -25t18 -51q0 -61 -49 -101q-31 -25 -46 -6q-12 16 11 36zM122 438v-271q0 -68 18 -96q18 -29 67 -29q20 0 51 12q36 15 45 -1q13 -23 -16 -41q-37 -22 -92 -22q-71 0 -100 38t-29 126v424q0 32 28 32
t28 -32v-88h128q12 0 20 -7q7 -8 7 -19q0 -26 -27 -26h-128z" />
    <glyph glyph-name="Umacron" unicode="&#x16a;" horiz-adv-x="671" 
d="M336 44q194 0 194 235v379q0 14 8 23t22 9t22 -9t8 -23v-382q0 -60 -13 -109q-13 -50 -41 -91q-29 -41 -80 -63q-52 -23 -122 -23q-135 0 -194 79t-59 207v382q0 14 8 23t22 9t22 -9t8 -23v-379q0 -235 195 -235zM207 777q-26 0 -26 24q0 10 7 18q7 7 19 7h280
q12 0 19 -7q7 -8 7 -18q0 -24 -26 -24h-280z" />
    <glyph glyph-name="umacron" unicode="&#x16b;" horiz-adv-x="541" 
d="M122 204q0 -78 29 -120q28 -42 97 -42q91 0 131 76t40 197v143q0 32 28 32t28 -32v-426q0 -32 -28 -32t-28 32v81q-24 -62 -72 -92q-49 -31 -104 -31q-96 0 -136 54q-41 54 -41 158v256q0 32 28 32t28 -32v-254zM144 592q-26 0 -26 24q0 10 7 18q7 7 19 7h252q12 0 19 -7
q7 -8 7 -18q0 -24 -26 -24h-252z" />
    <glyph glyph-name="Ubreve" unicode="&#x16c;" horiz-adv-x="671" 
d="M336 44q194 0 194 235v379q0 14 8 23t22 9t22 -9t8 -23v-382q0 -60 -13 -109q-13 -50 -41 -91q-29 -41 -80 -63q-52 -23 -122 -23q-135 0 -194 79t-59 207v382q0 14 8 23t22 9t22 -9t8 -23v-379q0 -235 195 -235zM348 750q-52 0 -92 22q-41 22 -58 50q-18 28 0 43
q19 15 41 -11q46 -54 109 -54q66 0 110 54q21 26 41 11q18 -15 0 -43q-17 -28 -58 -50t-93 -22z" />
    <glyph glyph-name="ubreve" unicode="&#x16d;" horiz-adv-x="541" 
d="M122 204q0 -78 29 -120q28 -42 97 -42q91 0 131 76t40 197v143q0 32 28 32t28 -32v-426q0 -32 -28 -32t-28 32v81q-24 -62 -72 -92q-49 -31 -104 -31q-96 0 -136 54q-41 54 -41 158v256q0 32 28 32t28 -32v-254zM270 561q-53 0 -88 26q-35 25 -48 56q-11 28 8 39
q22 12 38 -16q32 -56 90 -56t90 56q16 27 38 16q20 -10 8 -39q-13 -31 -48 -56q-35 -26 -88 -26z" />
    <glyph glyph-name="Uring" unicode="&#x16e;" horiz-adv-x="671" 
d="M336 44q194 0 194 235v379q0 14 8 23t22 9t22 -9t8 -23v-382q0 -60 -13 -109q-13 -50 -41 -91q-29 -41 -80 -63q-52 -23 -122 -23q-135 0 -194 79t-59 207v382q0 14 8 23t22 9t22 -9t8 -23v-379q0 -235 195 -235zM347 880q47 0 76 -25q28 -26 28 -65t-28 -64
q-29 -26 -76 -26t-75 26q-29 25 -29 64t29 65q28 25 75 25zM347 840q-25 0 -40 -14q-16 -14 -16 -35q0 -22 15 -36q15 -15 41 -15q25 0 42 15q16 14 16 35t-16 36q-17 14 -42 14z" />
    <glyph glyph-name="uring" unicode="&#x16f;" horiz-adv-x="541" 
d="M122 204q0 -78 29 -120q28 -42 97 -42q91 0 131 76t40 197v143q0 32 28 32t28 -32v-426q0 -32 -28 -32t-28 32v81q-24 -62 -72 -92q-49 -31 -104 -31q-96 0 -136 54q-41 54 -41 158v256q0 32 28 32t28 -32v-254zM270 731q46 0 72 -27q26 -28 26 -69t-26 -68
q-26 -28 -72 -28t-72 28q-26 27 -26 68t26 69q26 27 72 27zM270 691q-24 0 -39 -15q-15 -16 -15 -40t15 -40q15 -17 39 -17t39 16t15 40q0 23 -15 40q-16 16 -39 16z" />
    <glyph glyph-name="Uhungarumlaut" unicode="&#x170;" horiz-adv-x="671" 
d="M336 44q194 0 194 235v379q0 14 8 23t22 9t22 -9t8 -23v-382q0 -60 -13 -109q-13 -50 -41 -91q-29 -41 -80 -63q-52 -23 -122 -23q-135 0 -194 79t-59 207v382q0 14 8 23t22 9t22 -9t8 -23v-379q0 -235 195 -235zM244 750q-34 -17 -44 4q-12 23 20 40l181 93q34 17 45 -3
q14 -24 -22 -42zM448 750q-34 -17 -44 4q-12 23 20 40l181 93q34 17 45 -3q14 -24 -22 -42z" />
    <glyph glyph-name="uhungarumlaut" unicode="&#x171;" horiz-adv-x="541" 
d="M122 204q0 -78 29 -120q28 -42 97 -42q91 0 131 76t40 197v143q0 32 28 32t28 -32v-426q0 -32 -28 -32t-28 32v81q-24 -62 -72 -92q-49 -31 -104 -31q-96 0 -136 54q-41 54 -41 158v256q0 32 28 32t28 -32v-254zM203 561q-30 -22 -44 -1q-15 21 16 42l145 101q28 21 42 1
q17 -22 -14 -42zM354 561q-30 -22 -44 -1q-15 21 16 42l145 101q28 21 42 1q17 -22 -14 -42z" />
    <glyph glyph-name="Uogonek" unicode="&#x172;" horiz-adv-x="671" 
d="M346 -53q-34 -42 -34 -86q0 -49 43 -49q11 0 33 10q19 9 29 -2q15 -18 -10 -38q-22 -18 -57 -18q-42 0 -66 22q-25 22 -25 67q0 78 70 137q-248 8 -248 290v378q0 14 8 23t22 9t22 -9t8 -23v-375q0 -106 46 -172q45 -67 149 -67t149 67q45 66 45 172v375q0 14 8 23t22 9
t22 -9t8 -23v-378q0 -216 -150 -274q-68 -27 -94 -59z" />
    <glyph glyph-name="uogonek" unicode="&#x173;" horiz-adv-x="541" 
d="M452 -12q-69 -69 -69 -127q0 -49 43 -49q10 0 33 10q19 9 29 -2q15 -18 -10 -38q-22 -18 -57 -18q-42 0 -66 22q-25 22 -25 67t26 91q26 47 63 79v90q-24 -62 -72 -92q-49 -31 -104 -31q-96 0 -136 54q-41 54 -41 158v256q0 32 28 32t28 -32v-254q0 -78 29 -120
q28 -42 97 -42q91 0 131 76t40 197v143q0 32 28 32t28 -32v-426q0 -21 -23 -44z" />
    <glyph glyph-name="Ydieresis" unicode="&#x178;" horiz-adv-x="555" 
d="M270 303l-226 335q-19 30 3 46q25 17 48 -16l207 -305l201 308q8 13 20 18q12 4 25 -4q21 -15 1 -44l-219 -333v-276q0 -14 -8 -23t-22 -9t-22 9t-8 23v271zM156 808q0 21 13 34q12 12 33 12q22 0 35 -12q13 -13 13 -34q0 -44 -48 -44q-46 0 -46 44zM342 808q0 21 13 34
q12 12 34 12t35 -13q12 -13 12 -33q0 -21 -12 -32q-13 -12 -35 -12q-47 0 -47 44z" />
    <glyph glyph-name="Zacute" unicode="&#x179;" horiz-adv-x="571" 
d="M66 0q-23 0 -28 18q-6 17 6 32l417 586h-379q-12 0 -19 8q-8 7 -8 19q0 11 8 19q7 8 19 8h427q23 0 29 -18q5 -18 -8 -35l-415 -583h403q12 0 20 -8q7 -8 7 -19q0 -12 -7 -19q-8 -8 -20 -8h-452zM286 750q-34 -17 -44 4q-12 23 20 40l181 93q34 17 45 -3q14 -24 -22 -42z
" />
    <glyph glyph-name="zacute" unicode="&#x17a;" horiz-adv-x="433" 
d="M52 0q-21 0 -25 17q-5 17 8 33l300 388h-265q-27 0 -27 26q0 11 8 19q7 7 19 7h313q23 0 28 -17t-8 -33l-302 -388h288q12 0 20 -7q7 -8 7 -19q0 -26 -27 -26h-337zM213 561q-30 -22 -44 -1q-15 21 16 42l145 101q28 21 42 1q17 -22 -14 -42z" />
    <glyph glyph-name="Zdotaccent" unicode="&#x17b;" horiz-adv-x="571" 
d="M66 0q-23 0 -28 18q-6 17 6 32l417 586h-379q-12 0 -19 8q-8 7 -8 19q0 11 8 19q7 8 19 8h427q23 0 29 -18q5 -18 -8 -35l-415 -583h403q12 0 20 -8q7 -8 7 -19q0 -12 -7 -19q-8 -8 -20 -8h-452zM227 812q0 25 15 37q14 12 37 12t38 -12t15 -37q0 -48 -53 -48
q-52 0 -52 48z" />
    <glyph glyph-name="zdotaccent" unicode="&#x17c;" horiz-adv-x="433" 
d="M52 0q-21 0 -25 17q-5 17 8 33l300 388h-265q-27 0 -27 26q0 11 8 19q7 7 19 7h313q23 0 28 -17t-8 -33l-302 -388h288q12 0 20 -7q7 -8 7 -19q0 -26 -27 -26h-337zM178 618q0 20 12 32q11 11 30 11q20 0 32 -11q11 -12 11 -32q0 -19 -11 -30q-12 -12 -32 -12t-31 11
t-11 31z" />
    <glyph glyph-name="Zcaron" unicode="&#x17d;" horiz-adv-x="571" 
d="M287 787l127 78q31 19 43 -2t-19 -38l-126 -78q-29 -18 -57 0l-123 75q-15 8 -19 20q-5 12 2 22q12 19 43 1zM66 0q-23 0 -28 18q-6 17 6 32l417 586h-379q-12 0 -19 8q-8 7 -8 19q0 11 8 19q7 8 19 8h427q23 0 29 -18q5 -18 -8 -35l-415 -583h403q12 0 20 -8q7 -8 7 -19
q0 -12 -7 -19q-8 -8 -20 -8h-452z" />
    <glyph glyph-name="zcaron" unicode="&#x17e;" horiz-adv-x="433" 
d="M223 603l105 87q30 23 44 6q15 -18 -13 -42l-113 -92q-15 -11 -27 -11q-13 0 -27 11l-111 90q-28 25 -12 44q16 17 43 -4zM52 0q-21 0 -25 17q-5 17 8 33l300 388h-265q-27 0 -27 26q0 11 8 19q7 7 19 7h313q23 0 28 -17t-8 -33l-302 -388h288q12 0 20 -7q7 -8 7 -19
q0 -26 -27 -26h-337z" />
    <glyph glyph-name="uni018F" unicode="&#x18f;" horiz-adv-x="655" 
d="M310 646q-83 0 -166 -39q-31 -14 -43 2q-7 10 -3 22q4 11 15 18q79 51 200 51q157 0 224 -92q67 -93 67 -259q0 -54 -7 -102q-8 -49 -28 -97t-51 -82q-31 -35 -81 -56q-51 -22 -117 -22q-136 0 -202 81q-67 81 -67 208q0 67 12 92q11 25 42 25h436q-9 121 -63 186
q-55 64 -168 64zM319 44q118 0 171 78q52 77 53 220h-431q-4 -28 -4 -58q1 -115 56 -177q54 -63 155 -63z" />
    <glyph glyph-name="florin" unicode="&#x192;" horiz-adv-x="552" 
d="M272 438l-63 -453q-8 -51 -18 -84q-11 -33 -30 -60t-50 -39q-32 -12 -78 -12q-59 0 -94 22q-21 14 -12 36t39 10q48 -16 76 -16q88 0 107 128l76 535q14 101 54 148t129 47q57 0 94 -23q21 -14 10 -36q-10 -19 -39 -8q-45 15 -76 15q-95 0 -113 -127l-5 -31h127
q12 0 20 -7q7 -8 7 -19q0 -26 -27 -26h-134z" />
    <glyph glyph-name="uni01CF" unicode="&#x1cf;" horiz-adv-x="222" 
d="M118 787l127 78q31 19 43 -2t-19 -38l-126 -78q-29 -18 -57 0l-123 75q-15 8 -20 20q-4 12 3 22q12 19 43 1zM86 658q0 14 8 23t22 9t22 -9t8 -23v-626q0 -14 -8 -23t-22 -9t-22 9t-8 23v626z" />
    <glyph glyph-name="uni01D0" unicode="&#x1d0;" horiz-adv-x="188" 
d="M112 603l105 87q30 23 44 6q15 -18 -13 -42l-113 -92q-15 -11 -27 -11q-13 0 -27 11l-111 90q-28 25 -12 44q16 17 43 -4zM82 458q0 32 28 32t28 -32v-426q0 -32 -28 -32t-28 32v426z" />
    <glyph glyph-name="uni01DD" unicode="&#x1dd;" horiz-adv-x="487" 
d="M41 195q0 50 11 71q10 20 47 20h290q-15 162 -156 162q-56 0 -116 -25q-38 -15 -47 4q-10 22 15 36q66 37 148 37q114 0 164 -69q49 -70 49 -185q0 -72 -19 -127q-20 -55 -69 -92t-123 -37q-96 0 -145 53t-49 152zM237 40q149 0 154 194h-296q-3 -21 -3 -41
q-2 -74 35 -113q37 -40 110 -40z" />
    <glyph glyph-name="Gcaron" unicode="&#x1e6;" horiz-adv-x="667" 
d="M375 646q-123 0 -192 -85q-70 -86 -70 -218q0 -140 68 -219q68 -80 198 -80q110 0 182 51v193h-163q-12 0 -19 8q-8 7 -8 19q0 11 8 19q7 8 19 8h188q30 0 30 -32v-217q0 -21 -16 -34q-35 -28 -96 -48q-61 -21 -128 -21q-165 0 -245 95q-80 94 -80 259q0 159 88 258
q88 98 238 98q116 -3 186 -52q31 -22 15 -45q-14 -19 -49 1q-76 42 -154 42zM377 787l127 78q31 19 43 -2t-19 -38l-126 -78q-29 -18 -57 0l-123 75q-15 8 -19 20q-5 12 2 22q12 19 43 1z" />
    <glyph glyph-name="gcaron" unicode="&#x1e7;" horiz-adv-x="513" 
d="M401 446q42 -45 42 -112q0 -72 -49 -118q-50 -47 -142 -47q-65 0 -109 23q-40 -27 -40 -60q0 -60 169 -65q51 -2 86 -7q34 -5 66 -17t48 -35q15 -24 15 -60q0 -71 -64 -115q-64 -43 -185 -43q-217 0 -217 138q0 72 80 116q-52 29 -52 79q0 55 56 97q-44 43 -44 114
q0 74 50 120q49 46 141 46q37 0 74 -10h154q27 0 27 -21q0 -23 -27 -23h-79zM255 14q-55 1 -103 12q-77 -33 -77 -97q0 -38 38 -64q37 -26 124 -26q98 0 147 30t49 72q0 37 -39 53q-40 16 -139 20zM117 334q0 -52 34 -84t101 -32t101 32t34 84t-34 85q-34 32 -101 32
t-101 -32q-34 -33 -34 -85zM259 603l105 87q30 23 44 6q15 -18 -13 -42l-113 -92q-15 -11 -27 -11q-13 0 -27 11l-111 90q-28 25 -12 44q16 17 43 -4z" />
    <glyph glyph-name="Scommaaccent" unicode="&#x218;" horiz-adv-x="540" 
d="M259 -229q49 45 49 86q0 33 -39 44q-29 8 -25 32t35 21q36 -3 60 -29q24 -25 24 -64q0 -35 -20 -70t-46 -55q-36 -27 -52 -9q-15 17 14 44zM288 646q-74 0 -111 -32q-38 -33 -38 -84q0 -52 39 -84t95 -50q55 -18 111 -38q55 -21 94 -64t39 -111q0 -88 -62 -140
q-62 -53 -175 -53q-103 0 -179 40q-60 33 -42 62q2 4 5 7q3 2 7 3l6 1q3 0 8 -1q4 -1 7 -2l8 -4q5 -3 9 -4q3 -2 9 -5q5 -3 8 -5q70 -38 157 -38q80 0 126 34q46 33 46 96q0 46 -28 78q-28 31 -70 47l-91 34q-49 19 -91 39q-42 19 -70 59t-28 97q0 75 55 124q54 48 158 48
q97 0 168 -44q47 -29 30 -54q-12 -18 -59 7q-3 1 -4 2q-67 35 -137 35z" />
    <glyph glyph-name="scommaaccent" unicode="&#x219;" horiz-adv-x="424" 
d="M195 -223q52 43 52 86q0 33 -42 42q-27 6 -24 28q4 23 37 20t56 -26q23 -22 23 -60q0 -35 -20 -69q-20 -33 -47 -51q-35 -25 -48 -6q-12 16 13 36zM228 500q81 0 138 -33q32 -18 20 -42q-9 -20 -39 -7q-68 30 -120 30q-53 0 -79 -19q-27 -20 -27 -55t30 -56
q29 -21 71 -31q41 -11 83 -24q42 -14 72 -45q29 -32 29 -83q0 -65 -50 -105q-51 -40 -141 -40q-96 0 -152 38q-28 19 -15 41q11 19 43 4q65 -31 132 -31q55 0 90 24t35 64q0 36 -29 58q-30 21 -71 32q-42 11 -84 24t-71 44q-30 30 -30 80q0 63 45 98q44 34 120 34z" />
    <glyph glyph-name="uni021A" unicode="&#x21a;" horiz-adv-x="586" 
d="M257 -229q49 45 49 86q0 33 -39 44q-29 8 -25 32t35 21q36 -3 60 -29q24 -25 24 -64q0 -35 -20 -70t-46 -55q-36 -27 -52 -9q-15 17 14 44zM323 636v-604q0 -14 -8 -23t-22 -9t-22 9t-8 23v604h-225q-12 0 -19 8q-8 7 -8 19q0 11 8 19q7 8 19 8h510q12 0 20 -8
q7 -8 7 -19q0 -12 -7 -19q-8 -8 -20 -8h-225z" />
    <glyph glyph-name="uni021B" unicode="&#x21b;" horiz-adv-x="302" 
d="M156 -223q52 43 52 86q0 33 -42 42q-27 6 -24 28q4 23 37 20t56 -26q23 -22 23 -60q0 -35 -20 -69q-20 -33 -47 -51q-35 -25 -48 -6q-12 16 13 36zM122 438v-271q0 -68 18 -96q18 -29 67 -29q20 0 51 12q36 15 45 -1q13 -23 -16 -41q-37 -22 -92 -22q-71 0 -100 38
t-29 126v424q0 32 28 32t28 -32v-88h128q12 0 20 -7q7 -8 7 -19q0 -26 -27 -26h-128z" />
    <glyph glyph-name="uni0259" unicode="&#x259;" horiz-adv-x="487" 
d="M41 195q0 50 11 71q10 20 47 20h290q-15 162 -156 162q-56 0 -116 -25q-38 -15 -47 4q-10 22 15 36q66 37 148 37q114 0 164 -69q49 -70 49 -185q0 -72 -19 -127q-20 -55 -69 -92t-123 -37q-96 0 -145 53t-49 152zM237 40q149 0 154 194h-296q-3 -21 -3 -41
q-2 -74 35 -113q37 -40 110 -40z" />
    <glyph glyph-name="circumflex" unicode="&#x2c6;" 
d="M277 652l-105 -87q-32 -25 -45 -7q-14 18 15 42l111 91q13 11 27 11q13 0 27 -11l110 -89q29 -24 13 -44q-15 -19 -42 4z" />
    <glyph glyph-name="caron" unicode="&#x2c7;" 
d="M283 603l105 87q30 23 44 6q15 -18 -13 -42l-113 -92q-15 -11 -27 -11q-13 0 -27 11l-111 90q-28 25 -12 44q16 17 43 -4z" />
    <glyph glyph-name="breve" unicode="&#x2d8;" 
d="M276 561q-53 0 -88 26q-35 25 -48 56q-11 28 8 39q22 12 38 -16q31 -56 90 -56t90 56q16 27 38 16q20 -10 8 -39q-13 -31 -48 -56q-35 -26 -88 -26z" />
    <glyph glyph-name="dotaccent" unicode="&#x2d9;" 
d="M222 618q0 20 12 32q11 11 30 11q20 0 32 -11q11 -12 11 -32q0 -19 -11 -30q-12 -12 -32 -12t-31 11t-11 31z" />
    <glyph glyph-name="ring" unicode="&#x2da;" 
d="M265 731q46 0 72 -27q26 -28 26 -69t-26 -68q-26 -28 -72 -28t-72 28q-26 27 -26 68t26 69q26 27 72 27zM265 691q-24 0 -39 -15q-15 -16 -15 -40t15 -40q15 -17 39 -17t39 16t15 40q0 23 -15 40q-16 16 -39 16z" />
    <glyph glyph-name="ogonek" unicode="&#x2db;" horiz-adv-x="265" 
d="M171 -15q-22 -20 -44 -55q-23 -35 -23 -69q0 -49 43 -49q11 0 33 10q19 9 29 -2q15 -18 -10 -38q-22 -18 -57 -18q-42 0 -66 22q-25 22 -25 67q0 46 28 93q27 47 64 76q28 21 43 5q14 -15 -15 -42z" />
    <glyph glyph-name="tilde" unicode="&#x2dc;" 
d="M340 562q-34 0 -70 27t-49 27q-9 0 -17 -4q-9 -5 -12 -8l-17 -17q-20 -20 -38 -8q-17 14 0 37q34 49 87 49q30 0 68 -27q37 -27 51 -27q19 0 46 29q20 20 38 8q16 -13 0 -37q-13 -21 -37 -35t-50 -14z" />
    <glyph glyph-name="hungarumlaut" unicode="&#x2dd;" 
d="M147 561q-30 -22 -44 -1q-15 21 16 42l145 101q28 21 42 1q17 -22 -14 -42zM298 561q-30 -22 -44 -1q-15 21 16 42l145 101q28 21 42 1q17 -22 -14 -42z" />
    <glyph glyph-name="pi" unicode="&#x3c0;" horiz-adv-x="551" 
d="M84 438h-36q-27 0 -27 26q0 11 8 19q7 7 19 7h455q12 0 20 -7q7 -8 7 -19q0 -26 -27 -26h-36v-406q0 -32 -28 -32t-28 32v406h-271v-406q0 -32 -28 -32t-28 32v406z" />
    <glyph glyph-name="afii10023" unicode="&#x401;" horiz-adv-x="542" 
d="M116 0q-16 0 -25 10q-10 10 -10 24v623q0 14 9 24q8 9 23 9h365q12 0 20 -8q7 -8 7 -19q0 -12 -7 -19q-8 -8 -20 -8h-337v-249h277q12 0 20 -8q7 -8 7 -19q0 -12 -7 -19q-8 -8 -20 -8h-277v-279h348q12 0 20 -8q7 -8 7 -19q0 -12 -7 -19q-8 -8 -20 -8h-373zM154 808
q0 21 13 34q12 12 33 12q22 0 35 -12q13 -13 13 -34q0 -44 -48 -44q-46 0 -46 44zM340 808q0 21 13 34q12 12 34 12q21 0 34 -13t13 -33q0 -21 -12 -32q-13 -12 -35 -12q-47 0 -47 44z" />
    <glyph glyph-name="afii10051" unicode="&#x402;" horiz-adv-x="748" 
d="M493 -10q-71 0 -117 19q-30 13 -24 37q6 27 40 16q59 -18 106 -18q81 0 114 44q33 43 33 121q0 159 -191 159q-74 0 -131 -15v-321q0 -14 -8 -23t-22 -9t-22 9t-8 23v604h-225q-12 0 -19 8q-8 7 -8 19q0 11 8 19q7 8 19 8h510q12 0 20 -8q7 -8 7 -19q0 -12 -7 -19
q-8 -8 -20 -8h-225v-230q70 16 139 16q50 0 91 -10t77 -32q36 -23 57 -66q20 -43 20 -103q0 -101 -52 -161t-162 -60z" />
    <glyph glyph-name="afii10052" unicode="&#x403;" horiz-adv-x="469" 
d="M141 636v-604q0 -14 -8 -23t-22 -9t-22 9t-8 23v625q0 33 30 33h320q12 0 20 -8q7 -8 7 -19q0 -12 -7 -19q-8 -8 -20 -8h-290zM426 842q36 18 22 42q-11 20 -45 3l-181 -93q-32 -17 -20 -40q10 -21 44 -4z" />
    <glyph glyph-name="afii10053" unicode="&#x404;" horiz-adv-x="634" 
d="M375 646q-114 0 -182 -74q-69 -75 -79 -193h389q12 0 20 -8q7 -8 7 -19q0 -12 -7 -19q-8 -8 -20 -8h-390q5 -131 76 -206q70 -75 182 -75q89 0 169 52q32 21 47 2q16 -21 -18 -48q-34 -25 -89 -42q-55 -18 -114 -18q-159 0 -237 96q-78 95 -78 258q0 159 88 258
q88 98 238 98q109 0 184 -51q32 -22 17 -45q-14 -22 -49 0q-68 42 -154 42z" />
    <glyph glyph-name="afii10054" unicode="&#x405;" horiz-adv-x="540" 
d="M288 646q-74 0 -111 -32q-38 -33 -38 -84q0 -52 39 -84t95 -50q55 -18 111 -38q55 -21 94 -64t39 -111q0 -88 -62 -140q-62 -53 -175 -53q-103 0 -179 40q-60 33 -42 62q2 4 5 7q3 2 7 3l6 1q3 0 8 -1q4 -1 7 -2l8 -4q5 -3 9 -4q3 -2 9 -5q5 -3 8 -5q70 -38 157 -38
q80 0 126 34q46 33 46 96q0 46 -28 78q-28 31 -70 47l-91 34q-49 19 -91 39q-42 19 -70 59t-28 97q0 75 55 124q54 48 158 48q97 0 168 -44q47 -29 30 -54q-12 -18 -59 7q-3 1 -4 2q-67 35 -137 35z" />
    <glyph glyph-name="afii10055" unicode="&#x406;" horiz-adv-x="222" 
d="M81 658q0 14 8 23t22 9t22 -9t8 -23v-626q0 -14 -8 -23t-22 -9t-22 9t-8 23v626z" />
    <glyph glyph-name="afii10056" unicode="&#x407;" horiz-adv-x="222" 
d="M-4 806q0 18 11 31q11 12 31 12t32 -12q11 -13 11 -31q0 -19 -11 -30q-12 -12 -32 -12t-31 12q-11 11 -11 30zM141 806q0 18 11 31q11 12 31 12t32 -12q11 -13 11 -31q0 -19 -11 -30q-12 -12 -32 -12t-31 12q-11 11 -11 30zM81 658q0 14 8 23t22 9t22 -9t8 -23v-626
q0 -14 -8 -23t-22 -9t-22 9t-8 23v626z" />
    <glyph glyph-name="afii10057" unicode="&#x408;" horiz-adv-x="344" 
d="M-2 55q10 19 44 6q42 -17 80 -17q94 0 94 117v497q0 13 8 23q8 9 22 9t22 -9q8 -10 8 -23v-502q0 -166 -149 -166q-71 0 -113 24q-29 17 -16 41z" />
    <glyph glyph-name="afii10058" unicode="&#x409;" horiz-adv-x="945" 
d="M22 58q47 0 75 57q62 125 62 548q0 11 8 19q7 8 19 8h317q14 0 22 -9t8 -23v-246q68 10 122 10q252 0 252 -207q0 -101 -64 -160q-65 -60 -200 -60q-88 0 -140 8q-30 5 -30 38v595h-254q-3 -190 -17 -325q-14 -136 -52 -221q-43 -95 -121 -95q-25 0 -40 9t-12 28q1 5 2 9
q1 3 3 6t3 5q2 2 5 3l5 2q2 0 7 1h7h7h6zM643 49q110 0 156 44q46 43 46 120q0 155 -195 155q-53 0 -117 -10v-304q51 -5 110 -5z" />
    <glyph glyph-name="afii10059" unicode="&#x40a;" horiz-adv-x="1031" 
d="M726 -5q-88 0 -140 8q-30 5 -30 38v285h-415v-294q0 -14 -8 -23t-22 -9t-22 9t-8 23v626q0 14 8 23t22 9t22 -9t8 -23v-278h415v278q0 14 8 23t22 9t22 -9t8 -23v-246q68 10 122 10q252 0 252 -207q0 -101 -64 -160q-65 -60 -200 -60zM726 49q110 0 156 44q46 43 46 120
q0 155 -195 155q-53 0 -117 -10v-304q51 -5 110 -5z" />
    <glyph glyph-name="afii10060" unicode="&#x40b;" horiz-adv-x="763" 
d="M323 636v-261q94 65 186 65q110 0 162 -52q51 -53 51 -184v-172q0 -14 -8 -23t-22 -9t-22 9t-8 23v161q0 107 -35 150t-120 43q-97 0 -184 -72v-282q0 -14 -8 -23t-22 -9t-22 9t-8 23v604h-225q-12 0 -19 8q-8 7 -8 19q0 11 8 19q7 8 19 8h510q12 0 20 -8q7 -8 7 -19
q0 -12 -7 -19q-8 -8 -20 -8h-225z" />
    <glyph glyph-name="afii10061" unicode="&#x40c;" horiz-adv-x="531" 
d="M81 658q0 14 8 23t22 9t22 -9t8 -23v-292l306 307q30 28 50 8q20 -21 -8 -49l-285 -279l300 -293q27 -27 9 -49q-20 -23 -53 8l-319 309v-296q0 -14 -8 -23t-22 -9t-22 9t-8 23v626zM276 750q-34 -17 -44 4q-12 23 20 40l181 93q34 17 45 -3q14 -24 -22 -42z" />
    <glyph glyph-name="afii10062" unicode="&#x40e;" horiz-adv-x="581" 
d="M51 635q-20 37 3 51q28 17 48 -21l242 -442l184 438q15 37 43 26q23 -9 9 -44l-190 -445q-26 -60 -40 -89q-15 -30 -37 -62t-47 -44q-25 -13 -59 -13q-51 0 -89 22q-31 17 -18 43q10 20 45 6q40 -17 64 -17q36 0 59 30q22 29 46 89zM331 750q-52 0 -92 22q-41 22 -58 50
q-18 28 0 43q19 15 41 -11q46 -54 109 -54q66 0 110 54q21 26 41 11q18 -15 0 -43q-17 -28 -58 -50t-93 -22z" />
    <glyph glyph-name="afii10145" unicode="&#x40f;" horiz-adv-x="672" 
d="M531 658q0 14 8 23t22 9t22 -9t8 -23v-626q0 -13 -7 -22q-8 -10 -23 -10h-199v-124q0 -32 -27 -32t-27 32v124h-198q-14 0 -21 10q-8 9 -8 22v626q0 14 8 23t22 9t22 -9t8 -23v-604h390v604z" />
    <glyph glyph-name="afii10017" unicode="&#x410;" horiz-adv-x="601" 
d="M596 47q12 -32 -11 -44q-30 -14 -44 20l-77 197h-303l-71 -190q-13 -38 -42 -28q-27 10 -12 46l244 624q11 28 34 28q21 0 31 -24zM182 274h262l-133 336z" />
    <glyph glyph-name="afii10018" unicode="&#x411;" horiz-adv-x="561" 
d="M251 -5q-68 0 -140 8q-30 3 -30 35v621q0 13 9 22q8 9 22 9h321q12 0 20 -8q7 -8 7 -19q0 -12 -7 -19q-8 -8 -20 -8h-292v-232q68 10 122 10q106 0 174 -45q68 -46 68 -154q0 -220 -254 -220zM258 360q-66 0 -117 -9v-295q44 -7 110 -7q109 0 151 43q41 42 41 121
q0 147 -185 147z" />
    <glyph glyph-name="afii10019" unicode="&#x412;" horiz-adv-x="598" 
d="M269 695q115 0 178 -39t63 -134q0 -53 -26 -95q-27 -42 -77 -62q67 -13 104 -57q36 -45 36 -113q0 -200 -267 -200q-109 0 -169 11q-30 6 -30 36v602q0 34 30 40q64 11 158 11zM141 331v-275q69 -7 139 -7q100 0 153 33q52 32 52 111q0 75 -50 107q-51 31 -154 31h-140z
M252 641q-51 0 -111 -5v-255h125q182 0 182 140q0 67 -50 94q-51 26 -146 26z" />
    <glyph glyph-name="afii10020" unicode="&#x413;" horiz-adv-x="469" 
d="M141 636v-604q0 -14 -8 -23t-22 -9t-22 9t-8 23v625q0 33 30 33h320q12 0 20 -8q7 -8 7 -19q0 -12 -7 -19q-8 -8 -20 -8h-290z" />
    <glyph glyph-name="afii10021" unicode="&#x414;" horiz-adv-x="711" 
d="M21 22q0 13 9 23q8 9 19 9h43q55 89 77 241q22 151 26 368q0 11 8 19q7 8 19 8h325q30 0 30 -32v-604h64q29 0 29 -27v-141q0 -32 -27 -32t-27 32v114h-541v-114q0 -32 -27 -32t-27 32v136zM517 54v582h-263q-11 -410 -94 -582h357z" />
    <glyph glyph-name="afii10022" unicode="&#x415;" horiz-adv-x="542" 
d="M116 0q-16 0 -25 10q-10 10 -10 24v623q0 14 9 24q8 9 23 9h365q12 0 20 -8q7 -8 7 -19q0 -12 -7 -19q-8 -8 -20 -8h-337v-249h277q12 0 20 -8q7 -8 7 -19q0 -12 -7 -19q-8 -8 -20 -8h-277v-279h348q12 0 20 -8q7 -8 7 -19q0 -12 -7 -19q-8 -8 -20 -8h-373z" />
    <glyph glyph-name="afii10024" unicode="&#x416;" horiz-adv-x="816" 
d="M379 331l-305 -312q-32 -32 -54 -9q-8 8 -5 22q2 14 14 26l292 291l-264 280q-27 31 -8 53q23 24 56 -14l274 -304v294q0 14 8 23t22 9t22 -9t8 -23v-294l278 305q32 35 52 15q20 -19 -9 -50l-261 -282l292 -291q29 -28 8 -51q-23 -24 -53 8l-307 312v-298q0 -14 -8 -23
t-22 -9t-22 9t-8 23v299z" />
    <glyph glyph-name="afii10025" unicode="&#x417;" horiz-adv-x="555" 
d="M81 26q-32 16 -21 42q9 22 49 6q73 -30 156 -30q87 0 138 40q50 39 50 108q0 133 -201 135h-61q-27 0 -27 27q0 12 8 20q7 7 19 7h49q88 0 138 36t50 107q0 53 -38 88q-38 34 -113 34q-80 0 -146 -33q-40 -20 -52 -2q-18 26 30 50q77 39 172 39q96 0 153 -43
q56 -43 56 -128q0 -126 -125 -169q71 -12 111 -56q39 -44 39 -108q0 -99 -68 -152q-68 -54 -179 -54q-113 0 -187 36z" />
    <glyph glyph-name="afii10026" unicode="&#x418;" horiz-adv-x="696" 
d="M141 109l414 562q15 19 32 19q28 0 28 -32v-626q0 -14 -8 -23t-22 -9t-22 9t-8 23v550l-416 -563q-15 -19 -31 -19q-12 0 -19 9q-8 9 -8 23v626q0 14 8 23t22 9t22 -9t8 -23v-549z" />
    <glyph glyph-name="afii10027" unicode="&#x419;" horiz-adv-x="696" 
d="M141 109l414 562q15 19 32 19q28 0 28 -32v-626q0 -14 -8 -23t-22 -9t-22 9t-8 23v550l-416 -563q-15 -19 -31 -19q-12 0 -19 9q-8 9 -8 23v626q0 14 8 23t22 9t22 -9t8 -23v-549zM349 750q-52 0 -92 22q-41 22 -58 50q-18 28 0 43q19 15 41 -11q46 -54 109 -54
q66 0 110 54q21 26 41 11q18 -15 0 -43q-17 -28 -58 -50t-93 -22z" />
    <glyph glyph-name="afii10028" unicode="&#x41a;" horiz-adv-x="531" 
d="M81 658q0 14 8 23t22 9t22 -9t8 -23v-292l306 307q30 28 50 8q20 -21 -8 -49l-285 -279l300 -293q27 -27 9 -49q-20 -23 -53 8l-319 309v-296q0 -14 -8 -23t-22 -9t-22 9t-8 23v626z" />
    <glyph glyph-name="afii10029" unicode="&#x41b;" horiz-adv-x="611" 
d="M22 58q47 0 75 57q62 125 62 548q0 11 8 19q7 8 19 8h317q14 0 22 -9t8 -23v-626q0 -14 -8 -23t-22 -9t-22 9t-8 23v604h-254q-3 -190 -17 -325q-14 -136 -52 -221q-43 -95 -121 -95q-25 0 -40 9t-12 28q1 5 2 9q1 3 3 6t3 5q2 2 5 3l5 2q2 0 7 1h7h7h6z" />
    <glyph glyph-name="afii10030" unicode="&#x41c;" horiz-adv-x="777" 
d="M634 667q15 23 34 23q28 0 28 -32v-626q0 -14 -8 -23t-22 -9t-22 9t-8 23v540l-218 -347q-12 -19 -30 -19q-19 0 -32 19l-219 345v-538q0 -32 -28 -32t-28 32v626q0 32 28 32q20 0 36 -25l246 -385z" />
    <glyph glyph-name="afii10031" unicode="&#x41d;" horiz-adv-x="697" 
d="M556 658q0 14 8 23t22 9t22 -9t8 -23v-626q0 -14 -8 -23t-22 -9t-22 9t-8 23v294h-415v-294q0 -14 -8 -23t-22 -9t-22 9t-8 23v626q0 14 8 23t22 9t22 -9t8 -23v-278h415v278z" />
    <glyph glyph-name="afii10032" unicode="&#x41e;" horiz-adv-x="748" 
d="M51 345q0 156 85 256q84 99 238 99t239 -99q84 -100 84 -256t-84 -255q-85 -100 -239 -100t-238 100q-85 99 -85 255zM113 345q0 -132 70 -216q69 -85 191 -85t192 85q69 84 69 216t-69 217q-70 84 -192 84t-191 -84q-70 -85 -70 -217z" />
    <glyph glyph-name="afii10033" unicode="&#x41f;" horiz-adv-x="672" 
d="M531 636h-390v-604q0 -14 -8 -23t-22 -9t-22 9t-8 23v626q0 13 8 23q7 9 21 9h451q15 0 23 -9q7 -10 7 -23v-626q0 -14 -8 -23t-22 -9t-22 9t-8 23v604z" />
    <glyph glyph-name="afii10034" unicode="&#x420;" horiz-adv-x="551" 
d="M515 490q0 -112 -75 -167q-76 -55 -194 -55q-60 0 -105 9v-245q0 -14 -8 -23t-22 -9t-22 9t-8 23v615q0 34 30 38q69 10 150 10q254 0 254 -205zM261 641q-60 0 -120 -7v-303q52 -9 109 -9q89 0 146 39t57 129q0 151 -192 151z" />
    <glyph glyph-name="afii10035" unicode="&#x421;" horiz-adv-x="634" 
d="M375 646q-123 0 -192 -85q-70 -86 -70 -218q0 -139 71 -219t187 -80q89 0 169 52q32 21 47 2q16 -21 -18 -48q-34 -25 -89 -42q-55 -18 -114 -18q-159 0 -237 96q-78 95 -78 258q0 159 88 258q88 98 238 98q109 0 184 -51q32 -22 17 -45q-14 -22 -49 0q-68 42 -154 42z
" />
    <glyph glyph-name="afii10036" unicode="&#x422;" horiz-adv-x="586" 
d="M323 636v-604q0 -14 -8 -23t-22 -9t-22 9t-8 23v604h-225q-12 0 -19 8q-8 7 -8 19q0 11 8 19q7 8 19 8h510q12 0 20 -8q7 -8 7 -19q0 -12 -7 -19q-8 -8 -20 -8h-225z" />
    <glyph glyph-name="afii10037" unicode="&#x423;" horiz-adv-x="581" 
d="M51 635q-20 37 3 51q28 17 48 -21l242 -442l184 438q15 37 43 26q23 -9 9 -44l-190 -445q-26 -60 -40 -89q-15 -30 -37 -62t-47 -44q-25 -13 -59 -13q-51 0 -89 22q-31 17 -18 43q10 20 45 6q40 -17 64 -17q36 0 59 30q22 29 46 89z" />
    <glyph glyph-name="afii10038" unicode="&#x424;" horiz-adv-x="788" 
d="M51 368q0 134 83 204q82 69 230 69v59q0 14 8 23t22 9t22 -9t8 -23v-59q147 0 230 -70t83 -203t-83 -203t-230 -70v-78q0 -14 -8 -23t-22 -9t-22 9t-8 23v78q-148 0 -230 70q-83 69 -83 203zM675 368q0 112 -67 168q-68 55 -187 55v-446q119 0 187 56q67 55 67 167z
M113 368q0 -112 68 -167q67 -56 186 -56v446q-119 0 -186 -55q-68 -56 -68 -168z" />
    <glyph glyph-name="afii10039" unicode="&#x425;" horiz-adv-x="599" 
d="M321 404l194 265q25 32 47 15q20 -16 -2 -45l-204 -277l227 -306q22 -32 -1 -49q-12 -8 -25 -5t-22 16l-219 299l-212 -295q-24 -34 -49 -16q-20 15 1 45l226 308l-206 275q-23 31 0 50q25 21 51 -15z" />
    <glyph glyph-name="afii10040" unicode="&#x426;" horiz-adv-x="718" 
d="M524 658q0 14 8 23t22 9t22 -9t8 -23v-604h64q29 0 29 -28v-140q0 -32 -27 -32t-27 32v114h-513q-13 0 -21 8t-8 21v629q0 14 8 23t22 9t22 -9t8 -23v-604h383v604z" />
    <glyph glyph-name="afii10041" unicode="&#x427;" horiz-adv-x="581" 
d="M440 315q-94 -65 -186 -65q-110 0 -161 53q-52 52 -52 183v172q0 14 8 23t22 9t22 -9t8 -23v-161q0 -107 35 -150t120 -43q97 0 184 72v282q0 14 8 23t22 9t22 -9t8 -23v-626q0 -14 -8 -23t-22 -9t-22 9t-8 23v283z" />
    <glyph glyph-name="afii10042" unicode="&#x428;" horiz-adv-x="916" 
d="M428 658q0 14 8 23t22 9t22 -9t8 -23v-604h287v604q0 14 8 23t22 9t22 -9t8 -23v-624q0 -34 -35 -34h-690q-13 0 -21 9q-8 8 -8 23v626q0 14 8 23t22 9t22 -9t8 -23v-604h287v604z" />
    <glyph glyph-name="afii10043" unicode="&#x429;" horiz-adv-x="969" 
d="M775 658q0 14 8 23t22 9t22 -9t8 -23v-604h64q29 0 29 -28v-140q0 -32 -27 -32t-27 32v114h-764q-13 0 -21 8t-8 21v629q0 14 8 23t22 9t22 -9t8 -23v-604h287v604q0 14 8 23t22 9t22 -9t8 -23v-604h287v604z" />
    <glyph glyph-name="afii10044" unicode="&#x42a;" horiz-adv-x="653" 
d="M348 -5q-88 0 -140 8q-30 5 -30 38v593h-150q-12 0 -19 8q-8 8 -8 20t8 20q7 8 19 8h180q14 0 22 -9t8 -23v-246q68 10 122 10q252 0 252 -207q0 -101 -64 -160q-65 -60 -200 -60zM348 49q110 0 156 44q46 43 46 120q0 155 -195 155q-53 0 -117 -10v-304q51 -5 110 -5z
" />
    <glyph glyph-name="afii10045" unicode="&#x42b;" horiz-adv-x="757" 
d="M616 32q0 -14 8 -23t22 -9t22 9t8 23v626q0 14 -8 23t-22 9t-22 -9t-8 -23v-626zM251 -5q-88 0 -140 8q-30 5 -30 38v617q0 14 8 23t22 9t22 -9t8 -23v-246q68 10 122 10q50 0 91 -9q40 -10 76 -32q35 -23 55 -65t20 -101q0 -101 -61 -160q-62 -60 -193 -60zM251 49
q105 0 149 44q43 43 43 120q0 155 -185 155q-53 0 -117 -10v-304q51 -5 110 -5z" />
    <glyph glyph-name="afii10046" unicode="&#x42c;" horiz-adv-x="556" 
d="M251 -5q-88 0 -140 8q-30 5 -30 38v617q0 14 8 23t22 9t22 -9t8 -23v-246q68 10 122 10q252 0 252 -207q0 -101 -64 -160q-65 -60 -200 -60zM251 49q110 0 156 44q46 43 46 120q0 155 -195 155q-53 0 -117 -10v-304q51 -5 110 -5z" />
    <glyph glyph-name="afii10047" unicode="&#x42d;" horiz-adv-x="639" 
d="M287 646q-84 0 -162 -37q-36 -17 -46 -1q-13 22 20 45q30 21 84 34q53 13 108 13q155 0 232 -93t77 -251q0 -164 -83 -265t-239 -101q-109 0 -180 33q-44 20 -32 48q10 22 48 6q73 -33 158 -33q132 0 196 78q63 77 69 205h-353q-12 0 -19 8q-8 7 -8 19q0 11 8 19
q7 8 19 8h353q-6 123 -71 194q-66 71 -179 71z" />
    <glyph glyph-name="afii10048" unicode="&#x42e;" horiz-adv-x="958" 
d="M81 658q0 14 8 23t22 9t22 -9t8 -23v-284h131q8 145 90 236q81 90 227 90q153 0 236 -99q82 -100 82 -256t-82 -255q-83 -100 -236 -100q-147 0 -229 92q-82 91 -89 238h-130v-288q0 -14 -8 -23t-22 -9t-22 9t-8 23v626zM333 345q0 -133 67 -217t189 -84t189 84t67 217
t-67 217t-189 84t-189 -84t-67 -217z" />
    <glyph glyph-name="afii10049" unicode="&#x42f;" horiz-adv-x="587" 
d="M506 34q0 -14 -8 -24t-22 -10t-22 9t-8 23v246q-45 -5 -86 -5q-39 0 -77 5l-151 -253q-21 -35 -47 -21q-13 7 -13 22q0 14 10 29l143 236q-135 43 -135 194q0 111 72 161q72 49 189 49q70 0 125 -9q30 -5 30 -37v-615zM347 641q-195 0 -195 -156q0 -158 208 -158
q57 0 86 4v304q-45 6 -99 6z" />
    <glyph glyph-name="afii10065" unicode="&#x430;" horiz-adv-x="496" 
d="M114 420q-36 -15 -45 6q-10 24 17 38q70 36 159 36q185 0 185 -177v-291q0 -32 -28 -32t-28 32v75q-21 -49 -69 -83t-122 -34t-118 38q-44 37 -44 108q0 46 20 80q19 33 52 51t70 26t80 8q59 0 131 -10v28q0 129 -134 129q-54 0 -126 -28zM190 42q86 0 135 57t49 123v19
q-68 10 -123 10q-172 0 -172 -113q0 -44 29 -70t82 -26z" />
    <glyph glyph-name="afii10066" unicode="&#x431;" horiz-adv-x="547" 
d="M106 224q0 -83 45 -132q45 -50 124 -50q81 0 127 52q46 51 46 135q0 85 -44 137q-45 51 -127 51q-76 0 -123 -53q-48 -54 -48 -140zM439 646q-21 -10 -69 -28q-49 -18 -80 -31l-15 -6q-38 -15 -60 -27q-23 -12 -55 -38q-32 -27 -49 -70q-18 -44 -21 -104q30 66 84 97
q53 30 116 30q105 0 161 -68q55 -68 55 -171q0 -104 -63 -172q-64 -68 -168 -68q-234 0 -234 294q0 106 24 172q23 66 74 109q51 42 144 77q6 2 57 21t74 29q37 17 47 -4q12 -24 -22 -42z" />
    <glyph glyph-name="afii10067" unicode="&#x432;" horiz-adv-x="478" 
d="M66 448q0 31 28 37q45 9 128 9q97 0 142 -34q45 -35 45 -91q0 -40 -22 -72q-23 -32 -64 -44q53 -7 84 -36q30 -29 30 -79q0 -143 -210 -143q-89 0 -133 9q-28 6 -28 36v408zM122 220v-167q47 -6 107 -6q82 0 116 22t34 68q0 43 -32 63q-33 20 -110 20h-115zM218 442
q-51 0 -96 -4v-170h96q73 0 103 24q30 23 30 68q0 44 -32 63t-101 19z" />
    <glyph glyph-name="afii10068" unicode="&#x433;" horiz-adv-x="365" 
d="M122 438v-406q0 -32 -28 -32t-28 32v426q0 32 28 32h243q12 0 20 -7q7 -8 7 -19q0 -26 -27 -26h-215z" />
    <glyph glyph-name="afii10069" unicode="&#x434;" horiz-adv-x="541" 
d="M11 28q0 11 7 18q6 6 15 6h34q73 107 73 410q0 12 8 20q7 8 19 8h242q17 0 26 -9q8 -10 8 -23v-406h41q26 0 26 -26v-114q0 -32 -26 -32t-26 32v88h-395v-88q0 -32 -26 -32t-26 32v116zM195 438q-7 -258 -65 -386h257v386h-192z" />
    <glyph glyph-name="afii10070" unicode="&#x435;" horiz-adv-x="501" 
d="M272 42q62 0 124 30q29 14 40 -5q12 -21 -12 -38q-59 -39 -152 -39q-115 0 -173 66t-58 186q0 113 61 186q61 72 167 72q93 0 142 -55q49 -56 49 -135q0 -24 -3 -43q-7 -49 -53 -49h-306q6 -85 51 -130q45 -46 123 -46zM265 448q-73 0 -117 -47t-50 -133h307q2 13 2 38
q-2 65 -37 104q-36 38 -105 38z" />
    <glyph glyph-name="afii10072" unicode="&#x436;" horiz-adv-x="617" 
d="M298 231l-217 -216q-27 -27 -45 -8q-18 18 7 42l206 197l-191 196q-22 22 -4 40q19 19 43 -6l201 -213v195q0 32 28 32t28 -32v-194l203 211q25 25 43 8q16 -17 -6 -39l-192 -194l209 -199q24 -24 6 -43q-20 -21 -46 5l-217 218v-199q0 -32 -28 -32t-28 32v199z" />
    <glyph glyph-name="afii10073" unicode="&#x437;" horiz-adv-x="439" 
d="M235 500q78 0 119 -35q40 -36 40 -92q0 -41 -26 -74t-73 -43q51 -5 81 -38q29 -34 29 -86q0 -63 -47 -102q-47 -40 -131 -40q-104 0 -166 37q-26 16 -14 38q11 20 42 6q67 -29 131 -29q65 0 96 27q31 26 31 66q0 49 -36 72q-36 22 -109 22h-40q-28 0 -28 25t28 25h37
q137 0 137 89q0 80 -108 80q-53 0 -118 -30q-30 -15 -41 2q-14 23 15 40q66 40 151 40z" />
    <glyph glyph-name="afii10074" unicode="&#x438;" horiz-adv-x="545" 
d="M423 396l-300 -382q-12 -14 -29 -14q-28 0 -28 32v426q0 32 28 32t28 -32v-367l301 385q12 14 28 14q28 0 28 -32v-426q0 -32 -28 -32t-28 32v364z" />
    <glyph glyph-name="afii10075" unicode="&#x439;" horiz-adv-x="545" 
d="M423 396l-300 -382q-12 -14 -29 -14q-28 0 -28 32v426q0 32 28 32t28 -32v-367l301 385q12 14 28 14q28 0 28 -32v-426q0 -32 -28 -32t-28 32v364zM276 561q-53 0 -88 26q-35 25 -48 56q-11 28 8 39q22 12 38 -16q32 -56 90 -56t90 56q16 27 38 16q20 -10 8 -39
q-13 -31 -48 -56q-35 -26 -88 -26z" />
    <glyph glyph-name="afii10076" unicode="&#x43a;" horiz-adv-x="424" 
d="M66 458q0 32 28 32t28 -32v-194l217 213q24 24 43 5q18 -18 -5 -41l-202 -190l225 -199q24 -22 6 -43q-17 -21 -46 4l-238 214v-195q0 -32 -28 -32t-28 32v426z" />
    <glyph glyph-name="afii10077" unicode="&#x43b;" horiz-adv-x="488" 
d="M22 49q37 0 58 52q36 92 45 364q0 11 8 18q7 7 19 7h242q30 0 30 -31v-427q0 -32 -28 -32t-28 32v406h-191q-4 -84 -7 -130q-4 -46 -16 -120q-12 -75 -29 -116q-33 -77 -99 -77q-18 0 -30 8t-10 24q1 11 7 16q7 5 12 6h17z" />
    <glyph glyph-name="afii10078" unicode="&#x43c;" horiz-adv-x="604" 
d="M66 458q0 32 27 32q20 0 35 -23l171 -241l175 239q18 25 38 25q26 0 26 -32v-426q0 -32 -28 -32t-28 32v362l-159 -219q-12 -17 -28 -16q-16 0 -27 16l-150 211v-354q0 -32 -26 -32t-26 32v426z" />
    <glyph glyph-name="afii10079" unicode="&#x43d;" horiz-adv-x="538" 
d="M416 458q0 32 28 32t28 -32v-426q0 -32 -28 -32t-28 32v195h-294v-195q0 -32 -28 -32t-28 32v426q0 32 28 32t28 -32v-179h294v179z" />
    <glyph glyph-name="afii10080" unicode="&#x43e;" horiz-adv-x="558" 
d="M41 245q0 110 63 183q63 72 175 72t175 -72q63 -73 63 -183t-63 -182q-63 -73 -175 -73t-175 73q-63 72 -63 182zM99 245q0 -93 48 -148t132 -55t132 55t48 148t-48 148t-132 55t-132 -55t-48 -148z" />
    <glyph glyph-name="afii10081" unicode="&#x43f;" horiz-adv-x="524" 
d="M402 438h-280v-406q0 -32 -28 -32t-28 32v426q0 13 8 23q7 9 19 9h336q14 0 22 -9q7 -10 7 -23v-426q0 -32 -28 -32t-28 32v406z" />
    <glyph glyph-name="afii10082" unicode="&#x440;" horiz-adv-x="537" 
d="M304 500q94 0 143 -65q49 -66 49 -175q0 -117 -59 -193q-59 -77 -176 -77q-83 0 -139 31v-189q0 -32 -28 -32t-28 32v626q0 32 28 32t28 -32v-81q49 123 182 123zM296 448q-174 0 -174 -273v-98q60 -35 140 -35q93 0 135 61q41 60 41 157q0 86 -35 137t-107 51z" />
    <glyph glyph-name="afii10083" unicode="&#x441;" horiz-adv-x="465" 
d="M425 36q-65 -46 -156 -46q-111 0 -169 66q-59 65 -59 186q0 116 69 187q68 71 175 71q73 0 126 -31q30 -17 16 -41q-12 -19 -41 -6q-59 26 -107 26q-77 0 -128 -57q-52 -57 -52 -150q0 -95 45 -147q44 -52 125 -52q66 0 123 34q35 21 48 3q15 -22 -15 -43z" />
    <glyph glyph-name="afii10084" unicode="&#x442;" horiz-adv-x="432" 
d="M244 438v-406q0 -32 -28 -32t-28 32v406h-160q-27 0 -27 26q0 11 8 19q7 7 19 7h376q12 0 20 -7q7 -8 7 -19q0 -26 -27 -26h-160z" />
    <glyph glyph-name="afii10085" unicode="&#x443;" horiz-adv-x="441" 
d="M6 -192q-32 18 -23 42q9 23 50 4q25 -12 52 -12q19 0 35 9q15 9 26 20q11 12 23 37q12 26 19 42l19 52l-181 438q-15 36 12 47t42 -25l157 -393l145 392q14 36 42 26q23 -9 9 -45l-173 -448q-45 -118 -81 -161t-98 -43q-42 0 -75 18z" />
    <glyph glyph-name="afii10086" unicode="&#x444;" horiz-adv-x="683" 
d="M312 658q0 32 28 32t28 -32v-158h6q133 0 201 -69q67 -69 67 -186q0 -118 -67 -186q-68 -69 -201 -69h-6v-158q0 -32 -28 -32t-28 32v158h-6q-132 0 -198 69q-67 69 -67 186t67 186q66 69 198 69h6v158zM374 39q102 0 155 53q52 52 52 153t-52 154q-53 52 -155 52h-8
v-412h8zM306 451q-102 0 -154 -52q-53 -53 -53 -154t53 -153q52 -53 154 -53h8v412h-8z" />
    <glyph glyph-name="afii10087" unicode="&#x445;" horiz-adv-x="455" 
d="M245 293l139 182q20 27 43 9q9 -9 8 -22q-2 -13 -11 -22l-144 -183l163 -208q8 -10 8 -22t-9 -21q-22 -19 -45 9l-154 197l-151 -196q-25 -29 -45 -10q-18 16 4 44l158 202l-143 185q-22 29 -1 47q22 19 44 -11z" />
    <glyph glyph-name="afii10088" unicode="&#x446;" horiz-adv-x="554" 
d="M471 0h-376q-29 0 -29 32v426q0 32 28 32t28 -32v-406h278v406q0 32 28 32t28 -32v-406h36q31 0 31 -30v-110q0 -32 -26 -32t-26 32v88z" />
    <glyph glyph-name="afii10089" unicode="&#x447;" horiz-adv-x="454" 
d="M87 349q0 -70 27 -100q26 -31 89 -31q72 0 129 45v195q0 32 28 32t28 -32v-426q0 -32 -28 -32t-28 32v174q-63 -40 -135 -40q-84 0 -125 39t-41 136v117q0 32 28 32t28 -32v-109z" />
    <glyph glyph-name="afii10090" unicode="&#x448;" horiz-adv-x="730" 
d="M66 458q0 32 28 32t28 -32v-406h215v406q0 32 28 32t28 -32v-406h215v406q0 32 28 32t28 -32v-425q0 -14 -8 -23q-8 -10 -24 -10h-537q-29 0 -29 33v425z" />
    <glyph glyph-name="afii10091" unicode="&#x449;" horiz-adv-x="762" 
d="M679 0h-584q-29 0 -29 32v426q0 32 28 32t28 -32v-406h215v406q0 32 28 32t28 -32v-406h215v406q0 32 28 32t28 -32v-406h36q31 0 31 -31v-109q0 -32 -26 -32t-26 32v88z" />
    <glyph glyph-name="afii10092" unicode="&#x44a;" horiz-adv-x="520" 
d="M28 438q-27 0 -27 26q0 11 8 19q7 7 19 7h138q28 0 28 -32v-143q48 8 90 8q200 0 200 -162q0 -27 -8 -52q-9 -25 -30 -52q-21 -28 -65 -45q-45 -17 -108 -17q-72 0 -107 9q-28 7 -28 36v398h-110zM267 47q76 0 118 26q41 25 41 88q0 58 -36 84q-37 26 -110 26
q-34 0 -86 -6v-214q44 -4 73 -4z" />
    <glyph glyph-name="afii10093" unicode="&#x44b;" horiz-adv-x="599" 
d="M477 32q0 -32 28 -32t28 32v426q0 32 -28 32t-28 -32v-426zM66 458q0 32 28 32t28 -32v-143q48 8 90 8q190 0 190 -162q0 -26 -8 -52q-9 -26 -29 -53t-62 -44q-43 -17 -102 -17q-79 0 -107 9t-28 36v418zM195 47q149 0 149 114q0 110 -136 110q-34 0 -86 -6v-215
q33 -3 73 -3z" />
    <glyph glyph-name="afii10094" unicode="&#x44c;" horiz-adv-x="448" 
d="M66 458q0 32 28 32t28 -32v-143q48 8 90 8q200 0 200 -162q0 -27 -8 -52q-9 -25 -30 -52q-21 -28 -65 -45q-45 -17 -108 -17q-71 0 -107 9q-28 7 -28 36v418zM195 47q76 0 118 26q41 25 41 88q0 58 -36 84q-37 26 -110 26q-34 0 -86 -6v-215q33 -3 73 -3z" />
    <glyph glyph-name="afii10095" unicode="&#x44d;" horiz-adv-x="477" 
d="M219 -10q-93 0 -153 36q-26 17 -14 39q11 20 45 4q62 -27 118 -27q162 0 174 185h-228q-27 0 -27 25q0 11 8 18q7 7 19 7h228q-11 171 -164 171q-57 0 -119 -29q-32 -16 -43 3q-12 20 16 39q63 39 153 39q113 0 165 -67q51 -67 51 -180q0 -114 -56 -188q-57 -75 -173 -75
z" />
    <glyph glyph-name="afii10096" unicode="&#x44e;" horiz-adv-x="716" 
d="M66 458q0 32 28 32t28 -32v-182h104q8 100 65 162q56 62 158 62q110 0 168 -71q58 -72 58 -184t-58 -183q-58 -72 -168 -72q-105 0 -161 65q-57 65 -63 169h-103v-192q0 -32 -28 -32t-28 32v426zM281 245q0 -95 43 -149t125 -54t125 54t43 149t-43 149t-125 54t-125 -54
t-43 -149z" />
    <glyph glyph-name="afii10097" unicode="&#x44f;" horiz-adv-x="466" 
d="M417 32q0 -32 -28 -32t-28 32v153q-39 -7 -90 -7q-24 0 -35 1l-107 -158q-23 -34 -47 -15q-19 16 0 44l99 140q-101 34 -101 148q0 156 208 156q62 0 101 -7q28 -4 28 -32v-423zM287 442q-72 0 -110 -24q-39 -24 -39 -82q0 -108 137 -108q56 0 86 6v204q-29 4 -74 4z" />
    <glyph glyph-name="afii10071" unicode="&#x451;" horiz-adv-x="501" 
d="M272 42q62 0 124 30q29 14 40 -5q12 -21 -12 -38q-59 -39 -152 -39q-115 0 -173 66t-58 186q0 113 61 186q61 72 167 72q93 0 142 -55q49 -56 49 -135q0 -24 -3 -43q-7 -49 -53 -49h-306q6 -85 51 -130q45 -46 123 -46zM265 448q-73 0 -117 -47t-50 -133h307q2 13 2 38
q-2 65 -37 104q-36 38 -105 38zM144 616q0 17 11 30q11 12 30 12t31 -12q11 -13 11 -30t-11 -29q-12 -12 -31 -12t-30 12t-11 29zM309 616q0 17 11 30q11 12 30 12t31 -12q11 -13 11 -30t-11 -29q-12 -12 -31 -12t-30 12t-11 29z" />
    <glyph glyph-name="afii10099" unicode="&#x452;" horiz-adv-x="581" 
d="M162 442v-192q24 62 73 93q48 30 103 30q96 0 137 -54q40 -54 40 -158v-196q0 -87 -31 -131q-32 -44 -107 -44q-57 0 -92 18q-24 13 -16 35q7 21 37 12q45 -13 68 -13q53 0 69 30t16 100v187q0 78 -28 120q-29 42 -98 42q-91 0 -131 -76t-40 -197v-16q0 -32 -28 -32
t-28 32v410h-78q-27 0 -27 24t27 24h78v168q0 32 28 32t28 -32v-168h165q27 0 27 -24t-27 -24h-165z" />
    <glyph glyph-name="afii10100" unicode="&#x453;" horiz-adv-x="365" 
d="M122 438v-406q0 -32 -28 -32t-28 32v426q0 32 28 32h243q12 0 20 -7q7 -8 7 -19q0 -26 -27 -26h-215zM350 662q31 20 14 42q-14 20 -42 -1l-145 -101q-31 -21 -16 -42q14 -21 44 1z" />
    <glyph glyph-name="afii10101" unicode="&#x454;" horiz-adv-x="465" 
d="M425 36q-65 -46 -156 -46q-111 0 -169 66q-59 65 -59 186q0 116 69 187q68 71 175 71q73 0 126 -31q30 -17 16 -41q-12 -19 -41 -6q-59 26 -107 26q-71 0 -120 -47q-49 -48 -58 -128h249q12 0 20 -7q7 -7 7 -18q0 -25 -27 -25h-251q5 -86 49 -133q44 -48 121 -48
q66 0 123 34q35 21 48 3q15 -22 -15 -43z" />
    <glyph glyph-name="afii10102" unicode="&#x455;" horiz-adv-x="424" 
d="M228 500q81 0 138 -33q32 -18 20 -42q-9 -20 -39 -7q-68 30 -120 30q-53 0 -79 -19q-27 -20 -27 -55t30 -56q29 -21 71 -31q41 -11 83 -24q42 -14 72 -45q29 -32 29 -83q0 -65 -50 -105q-51 -40 -141 -40q-96 0 -152 38q-28 19 -15 41q11 19 43 4q65 -31 132 -31
q55 0 90 24t35 64q0 36 -29 58q-30 21 -71 32q-42 11 -84 24t-71 44q-30 30 -30 80q0 63 45 98q44 34 120 34z" />
    <glyph glyph-name="afii10103" unicode="&#x456;" horiz-adv-x="188" 
d="M66 458q0 32 28 32t28 -32v-426q0 -32 -28 -32t-28 32v426zM52 618q0 20 12 32q11 11 30 11q20 0 32 -11q11 -12 11 -32q0 -19 -11 -30q-12 -12 -32 -12t-31 11t-11 31z" />
    <glyph glyph-name="afii10104" unicode="&#x457;" horiz-adv-x="188" 
d="M-16 617q0 17 11 30q11 12 30 12t31 -12q11 -13 11 -30t-11 -29q-12 -12 -31 -12t-30 12t-11 29zM121 617q0 17 11 30q11 12 30 12t31 -12q11 -13 11 -30t-11 -29q-12 -12 -31 -12t-30 12t-11 29zM66 458q0 32 28 32t28 -32v-426q0 -32 -28 -32t-28 32v426z" />
    <glyph glyph-name="afii10105" unicode="&#x458;" horiz-adv-x="188" 
d="M-100 -192q-24 11 -16 35q7 21 37 12q45 -13 68 -13q53 0 69 30t16 100v486q0 32 28 32t28 -32v-493q0 -87 -31 -131q-32 -44 -107 -44q-54 0 -92 18zM60 618q0 20 12 32q11 11 30 11q20 0 32 -11q11 -12 11 -32q0 -19 -11 -30q-12 -12 -32 -12t-31 11t-11 31z" />
    <glyph glyph-name="afii10106" unicode="&#x459;" horiz-adv-x="753" 
d="M22 49q37 0 58 52q36 92 45 364q0 11 8 18q7 7 19 7h242q30 0 30 -31v-144q48 8 90 8q200 0 200 -162q0 -27 -8 -52q-9 -25 -30 -52q-21 -28 -65 -45q-45 -17 -108 -17q-72 0 -107 9q-28 7 -28 36v398h-191q-4 -84 -7 -130q-4 -46 -16 -120q-12 -75 -29 -116
q-33 -77 -99 -77q-18 0 -30 8q-12 7 -10 24q1 11 7 16q7 5 11 6h18zM497 47q76 0 118 26q41 25 41 88q0 58 -36 84q-37 26 -110 26q-34 0 -86 -6v-214q44 -4 73 -4z" />
    <glyph glyph-name="afii10107" unicode="&#x45a;" horiz-adv-x="803" 
d="M416 458q0 32 28 32t28 -32v-143q48 8 90 8q200 0 200 -162q0 -27 -8 -52q-9 -25 -30 -52q-21 -28 -65 -45q-45 -17 -108 -17q-71 0 -107 9q-28 7 -28 36v187h-294v-195q0 -32 -28 -32t-28 32v426q0 32 28 32t28 -32v-179h294v179zM545 47q76 0 118 26q41 25 41 88
q0 58 -36 84q-37 26 -110 26q-34 0 -86 -6v-215q33 -3 73 -3z" />
    <glyph glyph-name="afii10108" unicode="&#x45b;" horiz-adv-x="581" 
d="M459 159q0 78 -28 120q-29 42 -98 42q-91 0 -131 -76t-40 -197v-16q0 -32 -28 -32t-28 32v410h-78q-27 0 -27 24t27 24h78v168q0 32 28 32t28 -32v-168h165q27 0 27 -24t-27 -24h-165v-192q24 62 73 93q48 30 103 30q96 0 137 -54q40 -54 40 -158v-129q0 -32 -28 -32
t-28 32v127z" />
    <glyph glyph-name="afii10109" unicode="&#x45c;" horiz-adv-x="424" 
d="M66 458q0 32 28 32t28 -32v-194l217 213q24 24 43 5q18 -18 -5 -41l-202 -190l225 -199q24 -22 6 -43q-17 -21 -46 4l-238 214v-195q0 -32 -28 -32t-28 32v426zM226 561q-30 -22 -44 -1q-15 21 16 42l145 101q28 21 42 1q17 -22 -14 -42z" />
    <glyph glyph-name="afii10110" unicode="&#x45e;" horiz-adv-x="441" 
d="M6 -192q-32 18 -23 42q9 23 50 4q25 -12 52 -12q19 0 35 9q15 9 26 20q11 12 23 37q12 26 19 42l19 52l-181 438q-15 36 12 47t42 -25l157 -393l145 392q14 36 42 26q23 -9 9 -45l-173 -448q-45 -118 -81 -161t-98 -43q-42 0 -75 18zM229 561q-53 0 -88 26q-35 25 -48 56
q-11 28 8 39q22 12 38 -16q32 -56 90 -56t90 56q16 27 38 16q20 -10 8 -39q-13 -31 -48 -56q-35 -26 -88 -26z" />
    <glyph glyph-name="afii10193" unicode="&#x45f;" horiz-adv-x="527" 
d="M402 458q0 32 28 32t28 -32v-426q0 -13 -7 -22q-8 -10 -22 -10h-137v-78q0 -32 -26 -32t-26 32v78h-147q-12 0 -19 10q-8 9 -8 22v426q0 32 28 32t28 -32v-406h280v406z" />
    <glyph glyph-name="afii10146" unicode="&#x462;" horiz-adv-x="656" 
d="M351 -5q-88 0 -140 8q-30 5 -30 38v482h-153q-12 0 -19 8q-8 8 -8 19q0 12 8 20q7 7 19 7h153v81q0 14 8 23t22 9t22 -9t8 -23v-81h179q12 0 20 -7q7 -8 7 -20q0 -11 -7 -19q-8 -8 -20 -8h-179v-111q68 10 122 10q252 0 252 -207q0 -101 -64 -160q-65 -60 -200 -60z
M351 49q110 0 156 44q46 43 46 120q0 155 -195 155q-53 0 -117 -10v-304q51 -5 110 -5z" />
    <glyph glyph-name="afii10194" unicode="&#x463;" horiz-adv-x="522" 
d="M140 658q0 32 28 32t28 -32v-168h141q27 0 27 -24t-27 -24h-141v-127q48 8 90 8q200 0 200 -162q0 -27 -8 -52q-9 -25 -30 -52q-21 -28 -65 -45q-45 -17 -108 -17q-71 0 -107 9q-28 7 -28 36v402h-112q-27 0 -27 24t27 24h112v168zM269 47q76 0 118 26q41 25 41 88
q0 58 -36 84q-37 26 -110 26q-34 0 -86 -6v-215q33 -3 73 -3z" />
    <glyph glyph-name="afii10147" unicode="&#x472;" horiz-adv-x="748" 
d="M51 345q0 156 85 256q84 99 238 99t239 -99q84 -100 84 -256t-84 -255q-85 -100 -239 -100t-238 100q-85 99 -85 255zM374 44q117 0 187 78t75 201h-525q5 -123 75 -201t188 -78zM374 646q-115 0 -185 -75t-77 -194h524q-8 119 -77 194q-70 75 -185 75z" />
    <glyph glyph-name="afii10195" unicode="&#x473;" horiz-adv-x="558" 
d="M41 245q0 110 63 183q63 72 175 72t175 -72q63 -73 63 -183t-63 -182q-63 -73 -175 -73t-175 73q-63 72 -63 182zM279 42q79 0 127 49q47 48 52 132h-359q6 -85 54 -133q47 -48 126 -48zM279 448q-77 0 -124 -46q-47 -47 -55 -127h357q-8 80 -55 127q-47 46 -123 46z" />
    <glyph glyph-name="afii10148" unicode="&#x474;" horiz-adv-x="650" 
d="M350 17q-10 -27 -32 -27t-31 24l-253 626q-14 36 13 47q29 11 43 -22l232 -577l172 455q37 98 70 130t80 32q50 0 80 -24q16 -14 5 -32q-9 -17 -29 -9q-32 13 -58 13q-32 0 -51 -29t-50 -110z" />
    <glyph glyph-name="afii10196" unicode="&#x475;" horiz-adv-x="505" 
d="M267 16q-11 -26 -32 -26q-20 0 -29 22l-189 431q-6 10 -3 24t15 20q13 6 25 0q11 -6 16 -18l170 -391l108 261q40 94 69 125t71 31q39 0 61 -22q15 -15 3 -32q-9 -14 -30 -6q-27 10 -37 10q-22 0 -38 -21t-43 -84z" />
    <glyph glyph-name="afii10050" unicode="&#x490;" horiz-adv-x="458" 
d="M141 636v-604q0 -14 -8 -23t-22 -9t-22 9t-8 23v625q0 33 30 33h286v96q0 31 25 31t25 -31v-122q0 -28 -29 -28h-277z" />
    <glyph glyph-name="afii10098" unicode="&#x491;" horiz-adv-x="355" 
d="M66 458q0 32 28 32h210v83q0 30 25 30t25 -30v-106q0 -31 -31 -31h-201v-404q0 -32 -28 -32t-28 32v426z" />
    <glyph glyph-name="uni0492" unicode="&#x492;" horiz-adv-x="487" 
d="M159 636v-236h232q12 0 19 -7q7 -8 7 -18q0 -24 -26 -24h-232v-319q0 -14 -8 -23t-22 -9t-22 9t-8 23v319h-67q-26 0 -26 24q0 10 7 18q7 7 19 7h67v257q0 33 30 33h320q12 0 20 -8q7 -8 7 -19q0 -12 -7 -19q-8 -8 -20 -8h-290z" />
    <glyph glyph-name="uni0493" unicode="&#x493;" horiz-adv-x="385" 
d="M142 438v-166h175q27 0 27 -24t-27 -24h-175v-192q0 -32 -28 -32t-28 32v192h-58q-27 0 -27 24t27 24h58v186q0 32 28 32h243q12 0 20 -7q7 -8 7 -19q0 -26 -27 -26h-215z" />
    <glyph glyph-name="uni0494" unicode="&#x494;" horiz-adv-x="566" 
d="M309 -107q-71 0 -117 19q-30 13 -24 37q6 27 40 16q59 -18 106 -18q78 0 114 52q35 52 35 137q0 88 -53 130t-144 42q-65 0 -125 -15v-261q0 -14 -8 -23t-22 -9t-22 9t-8 23v625q0 33 30 33h320q12 0 20 -8q7 -8 7 -19q0 -12 -7 -19q-8 -8 -20 -8h-290v-290q64 16 129 16
q119 0 187 -54t68 -171q0 -107 -52 -176q-52 -68 -164 -68z" />
    <glyph glyph-name="uni0495" unicode="&#x495;" horiz-adv-x="494" 
d="M271 -210q-61 0 -99 18q-26 13 -22 35q6 25 36 16q51 -17 90 -17q65 0 92 45q26 46 26 132q0 90 -38 131q-38 40 -119 40q-60 0 -115 -17v-141q0 -32 -28 -32t-28 32v426q0 32 28 32h243q12 0 20 -7q7 -8 7 -19q0 -26 -27 -26h-215v-213q58 17 117 17q214 0 214 -222
q0 -230 -182 -230z" />
    <glyph glyph-name="uni0496" unicode="&#x496;" horiz-adv-x="869" 
d="M851 54q29 0 29 -28v-140q0 -32 -27 -32t-27 32v114h-45q-17 0 -35 18l-307 312v-298q0 -14 -8 -23t-22 -9t-22 9t-8 23v299l-305 -312q-32 -32 -54 -9q-8 8 -5 22q2 14 14 26l292 291l-264 280q-29 32 -7 54t55 -15l274 -304v294q0 14 8 23t22 9t22 -9t8 -23v-294
l278 305q30 33 52 15t-9 -50l-261 -282l298 -298h54z" />
    <glyph glyph-name="uni0497" unicode="&#x497;" horiz-adv-x="644" 
d="M354 231v-199q0 -32 -28 -32t-28 32v199l-217 -216q-27 -27 -45 -8q-18 18 7 42l206 197l-191 196q-22 22 -4 40q19 19 43 -6l201 -213v195q0 32 28 32t28 -32v-194l203 211q25 25 43 8q16 -17 -6 -39l-192 -194l208 -198h40q31 0 31 -30v-110q0 -32 -26 -32t-26 32v88
h-29q-16 0 -30 14z" />
    <glyph glyph-name="uni0498" unicode="&#x498;" horiz-adv-x="555" 
d="M81 26q-32 16 -21 42q9 22 49 6q73 -30 156 -30q87 0 138 40q50 39 50 108q0 133 -201 135h-61q-27 0 -27 27q0 12 8 20q7 7 19 7h49q88 0 138 36t50 107q0 53 -38 88q-38 34 -113 34q-80 0 -146 -33q-40 -20 -52 -2q-18 26 30 50q77 39 172 39q96 0 153 -43
q56 -43 56 -128q0 -126 -125 -169q71 -12 111 -56q39 -44 39 -108q0 -94 -61 -147t-161 -58v-105q0 -32 -27 -32t-27 32v105q-98 5 -158 35z" />
    <glyph glyph-name="uni0499" unicode="&#x499;" horiz-adv-x="439" 
d="M235 500q78 0 119 -35q40 -36 40 -92q0 -41 -26 -74t-73 -43q51 -5 81 -38q29 -34 29 -86q0 -59 -41 -97q-41 -39 -116 -44v-79q0 -32 -26 -32t-26 32v79q-82 5 -135 36q-26 16 -14 38q11 20 42 6q67 -29 131 -29q65 0 96 27q31 26 31 66q0 49 -36 72q-36 22 -109 22h-40
q-28 0 -28 25t28 25h37q137 0 137 89q0 80 -108 80q-53 0 -118 -30q-30 -15 -41 2q-14 23 15 40q66 40 151 40z" />
    <glyph glyph-name="uni049A" unicode="&#x49a;" horiz-adv-x="580" 
d="M560 54q29 0 29 -28v-140q0 -32 -27 -32t-27 32v114h-39q-14 0 -33 17l-322 311v-296q0 -14 -8 -23t-22 -9t-22 9t-8 23v626q0 14 8 23t22 9t22 -9t8 -23v-292l306 307q28 30 50 8q20 -21 -8 -49l-285 -279l306 -299h50z" />
    <glyph glyph-name="uni049B" unicode="&#x49b;" horiz-adv-x="452" 
d="M440 52q31 0 31 -30v-110q0 -32 -26 -32t-26 32v88h-31q-12 0 -28 13l-238 214v-195q0 -32 -28 -32t-28 32v426q0 32 28 32t28 -32v-194l217 213q24 24 43 5q18 -18 -5 -41l-202 -190l225 -199h40z" />
    <glyph glyph-name="uni049C" unicode="&#x49c;" horiz-adv-x="565" 
d="M191 324h-50v-292q0 -14 -8 -23t-22 -9t-22 9t-8 23v626q0 14 8 23t22 9t22 -9t8 -23v-288h50v91q0 30 24 30t24 -30v-91h46l187 295q21 35 45 21q23 -14 1 -47l-184 -287l207 -293q26 -35 3 -53q-25 -19 -49 16l-211 302h-45v-113q0 -30 -24 -30t-24 30v113z" />
    <glyph glyph-name="uni049D" unicode="&#x49d;" horiz-adv-x="445" 
d="M164 224h-42v-192q0 -32 -28 -32t-28 32v426q0 32 28 32t28 -32v-192h42v89q0 27 21 27q20 0 20 -27v-89h33l123 203q18 31 39 17q18 -12 1 -41l-119 -196l144 -202q8 -11 8 -23q-1 -13 -10 -19q-24 -16 -43 12l-143 207h-33v-99q0 -27 -20 -27q-21 0 -21 27v99z" />
    <glyph glyph-name="uni04A0" unicode="&#x4a0;" horiz-adv-x="627" 
d="M177 634h-149q-12 0 -19 8q-8 8 -8 20t8 20q7 8 19 8h180q29 0 29 -32v-291l306 306q30 28 50 8q20 -21 -8 -49l-284 -279l299 -293q27 -27 9 -49q-20 -23 -53 8l-319 309v-296q0 -14 -8 -23t-22 -9t-22 9t-8 23v602z" />
    <glyph glyph-name="uni04A1" unicode="&#x4a1;" horiz-adv-x="498" 
d="M140 438h-112q-27 0 -27 26q0 11 8 19q7 7 19 7h139q29 0 29 -32v-193l217 212q24 24 43 5q18 -18 -5 -41l-200 -191l223 -198q24 -22 6 -43q-18 -20 -46 4l-238 214v-195q0 -32 -28 -32t-28 32v406z" />
    <glyph glyph-name="uni04A2" unicode="&#x4a2;" horiz-adv-x="750" 
d="M556 658q0 14 8 23t22 9t22 -9t8 -23v-604h64q29 0 29 -28v-140q0 -32 -27 -32t-27 32v114h-69q-14 0 -22 9t-8 23v294h-415v-294q0 -14 -8 -23t-22 -9t-22 9t-8 23v626q0 14 8 23t22 9t22 -9t8 -23v-278h415v278z" />
    <glyph glyph-name="uni04A3" unicode="&#x4a3;" horiz-adv-x="570" 
d="M416 458q0 32 28 32t28 -32v-406h36q31 0 31 -30v-110q0 -32 -26 -32t-26 32v88h-43q-28 0 -28 32v195h-294v-195q0 -32 -28 -32t-28 32v426q0 32 28 32t28 -32v-179h294v179z" />
    <glyph glyph-name="uni04A4" unicode="&#x4a4;" horiz-adv-x="944" 
d="M616 636v-604q0 -14 -8 -23t-22 -9t-22 9t-8 23v294h-415v-294q0 -14 -8 -23t-22 -9t-22 9t-8 23v626q0 14 8 23t22 9t22 -9t8 -23v-278h415v277q0 33 30 33h320q12 0 20 -8q7 -8 7 -19q0 -12 -7 -19q-8 -8 -20 -8h-290z" />
    <glyph glyph-name="uni04A5" unicode="&#x4a5;" horiz-adv-x="715" 
d="M472 438v-406q0 -32 -28 -32t-28 32v195h-294v-195q0 -32 -28 -32t-28 32v426q0 32 28 32t28 -32v-179h294v179q0 32 28 32h243q12 0 20 -7q7 -8 7 -19q0 -26 -27 -26h-215z" />
    <glyph glyph-name="uni04AA" unicode="&#x4aa;" horiz-adv-x="634" 
d="M375 646q-123 0 -192 -85q-70 -86 -70 -218q0 -139 71 -219t187 -80q89 0 169 52q32 21 47 2q16 -21 -18 -48q-63 -47 -167 -58v-106q0 -32 -27 -32t-27 32v105q-150 6 -223 101q-74 94 -74 252q0 159 88 258q88 98 238 98q109 0 184 -51q32 -22 17 -45q-14 -22 -49 0
q-68 42 -154 42z" />
    <glyph glyph-name="uni04AB" unicode="&#x4ab;" horiz-adv-x="465" 
d="M425 36q-53 -38 -131 -44v-80q0 -32 -26 -32t-26 32v79q-98 7 -149 72q-52 65 -52 179q0 116 69 187q68 71 175 71q73 0 126 -31q30 -17 16 -41q-12 -19 -41 -6q-59 26 -107 26q-77 0 -128 -57q-52 -57 -52 -150q0 -95 45 -147q44 -52 125 -52q66 0 123 34q35 21 48 3
q15 -22 -15 -43z" />
    <glyph glyph-name="uni04AE" unicode="&#x4ae;" horiz-adv-x="555" 
d="M270 303l-226 335q-19 30 3 46q25 17 48 -16l207 -305l201 308q8 13 20 18q12 4 25 -4q21 -15 1 -44l-219 -333v-276q0 -14 -8 -23t-22 -9t-22 9t-8 23v271z" />
    <glyph glyph-name="uni04AF" unicode="&#x4af;" horiz-adv-x="464" 
d="M275 11v-179q0 -32 -28 -32t-28 32v178l-188 429q-15 37 11 48q27 12 41 -21l168 -389l161 386q15 35 41 24q23 -9 10 -42z" />
    <glyph glyph-name="uni04B0" unicode="&#x4b0;" horiz-adv-x="555" 
d="M271 256h-130q-12 0 -19 7q-8 7 -8 18q0 25 27 25h128l-224 332q-20 31 3 46q25 17 48 -16l206 -312l202 315q8 13 20 18q12 4 25 -4q21 -15 1 -44l-219 -335h130q27 0 27 -25q0 -11 -7 -18q-8 -7 -20 -7h-130v-224q0 -14 -8 -23t-22 -9t-22 9t-8 23v224z" />
    <glyph glyph-name="uni04B1" unicode="&#x4b1;" horiz-adv-x="464" 
d="M275 -48v-120q0 -32 -28 -32t-28 32v120h-108q-27 0 -27 24t27 24h108l-188 439q-15 37 11 48q27 12 41 -21l168 -404l161 401q15 35 41 24q23 -9 10 -42l-188 -445h108q27 0 27 -24t-27 -24h-108z" />
    <glyph glyph-name="uni04B2" unicode="&#x4b2;" horiz-adv-x="634" 
d="M321 404l194 265q25 32 47 15q20 -16 -2 -45l-204 -277l229 -308h49q29 0 29 -28v-140q0 -32 -27 -32t-27 32v114h-48q-12 0 -26 18l-219 299l-212 -295q-24 -34 -49 -16q-20 15 1 45l226 308l-206 275q-23 31 0 50q25 21 51 -15z" />
    <glyph glyph-name="uni04B3" unicode="&#x4b3;" horiz-adv-x="475" 
d="M245 293l139 182q20 27 43 9q19 -15 -2 -43l-145 -184l160 -205h41q31 0 31 -30v-110q0 -32 -26 -32t-26 32v88h-32q-18 0 -31 16l-154 196l-151 -195q-9 -12 -21 -16t-24 5q-18 16 4 44l158 202l-143 185q-22 29 -1 47q22 19 44 -11z" />
    <glyph glyph-name="uni04B6" unicode="&#x4b6;" horiz-adv-x="634" 
d="M440 315q-94 -65 -186 -65q-110 0 -161 53q-52 52 -52 183v172q0 14 8 23t22 9t22 -9t8 -23v-161q0 -107 35 -150t120 -43q97 0 184 72v282q0 14 8 23t22 9t22 -9t8 -23v-604h64q29 0 29 -28v-140q0 -32 -27 -32t-27 32v114h-69q-14 0 -22 9t-8 23v283z" />
    <glyph glyph-name="uni04B7" unicode="&#x4b7;" horiz-adv-x="486" 
d="M87 349q0 -70 27 -100q26 -31 89 -31q72 0 129 45v195q0 32 28 32t28 -32v-406h36q31 0 31 -30v-110q0 -32 -26 -32t-26 32v88h-43q-28 0 -28 32v174q-63 -40 -135 -40q-84 0 -125 39t-41 136v117q0 32 28 32t28 -32v-109z" />
    <glyph glyph-name="uni04B8" unicode="&#x4b8;" horiz-adv-x="581" 
d="M241 250q-103 2 -151 55q-49 53 -49 181v172q0 14 8 23t22 9t22 -9t8 -23v-161q0 -102 32 -145q31 -44 108 -48v106q0 30 26 30t26 -30v-103q77 12 147 70v281q0 14 8 23t22 9t22 -9t8 -23v-626q0 -14 -8 -23t-22 -9t-22 9t-8 23v283q-72 -51 -147 -62v-93q0 -30 -26 -30
t-26 30v90z" />
    <glyph glyph-name="uni04B9" unicode="&#x4b9;" horiz-adv-x="454" 
d="M185 166q-78 2 -116 42t-38 133v117q0 32 28 32t28 -32v-109q0 -65 23 -96q22 -31 75 -35v78q0 29 24 29t24 -29v-76q53 7 99 43v195q0 32 28 32t28 -32v-426q0 -32 -28 -32t-28 32v174q-48 -30 -99 -37v-79q0 -29 -24 -29t-24 29v76z" />
    <glyph glyph-name="uni04BA" unicode="&#x4ba;" horiz-adv-x="581" 
d="M139 375q94 65 186 65q110 0 162 -52q51 -53 51 -184v-172q0 -14 -8 -23t-22 -9t-22 9t-8 23v161q0 107 -35 150t-120 43q-97 0 -184 -72v-282q0 -14 -8 -23t-22 -9t-22 9t-8 23v626q0 14 8 23t22 9t22 -9t8 -23v-283z" />
    <glyph glyph-name="uni04BB" unicode="&#x4bb;" horiz-adv-x="541" 
d="M419 286q0 78 -28 120q-29 42 -98 42q-91 0 -131 -76t-40 -197v-143q0 -32 -28 -32t-28 32v626q0 32 28 32t28 -32v-281q24 62 73 93q48 30 103 30q96 0 137 -54q40 -54 40 -158v-256q0 -32 -28 -32t-28 32v254z" />
    <glyph glyph-name="uni04C0" unicode="&#x4c0;" horiz-adv-x="222" 
d="M81 658q0 14 8 23t22 9t22 -9t8 -23v-626q0 -14 -8 -23t-22 -9t-22 9t-8 23v626z" />
    <glyph glyph-name="uni04C3" unicode="&#x4c3;" horiz-adv-x="566" 
d="M81 658q0 14 8 23t22 9t22 -9t8 -23v-285h91l231 295q27 33 49 16q20 -16 -4 -47l-217 -275q108 -27 171 -112t63 -202q0 -258 -202 -258q-57 0 -96 19q-30 14 -24 37q7 28 40 16q50 -18 89 -18q131 0 131 196q0 114 -70 197q-70 82 -191 82h-61v-287q0 -14 -8 -23
t-22 -9t-22 9t-8 23v626z" />
    <glyph glyph-name="uni04C4" unicode="&#x4c4;" horiz-adv-x="484" 
d="M272 -210q-65 0 -100 18q-29 14 -23 36q7 24 37 15q51 -17 90 -17q58 0 83 39t25 112q0 87 -52 155t-131 69h-79v-185q0 -32 -28 -32t-28 32v426q0 32 28 32t28 -32v-189h80l152 205q21 27 43 10q18 -13 -2 -41l-136 -183q81 -24 133 -96q51 -72 51 -165q0 -96 -41 -153
q-41 -56 -130 -56z" />
    <glyph glyph-name="uni04C7" unicode="&#x4c7;" horiz-adv-x="697" 
d="M556 658q0 14 8 23t22 9t22 -9t8 -23v-693q0 -87 -32 -131t-108 -44q-58 0 -92 18q-24 13 -16 36q8 22 37 13q45 -13 68 -13q53 0 68 30t15 100v352h-415v-294q0 -14 -8 -23t-22 -9t-22 9t-8 23v626q0 14 8 23t22 9t22 -9t8 -23v-278h415v278z" />
    <glyph glyph-name="uni04C8" unicode="&#x4c8;" horiz-adv-x="538" 
d="M416 458q0 32 28 32t28 -32v-493q0 -87 -31 -131q-32 -44 -107 -44q-58 0 -92 18q-24 13 -16 35q7 21 37 12q45 -13 68 -13q53 0 69 30t16 100v255h-294v-195q0 -32 -28 -32t-28 32v426q0 32 28 32t28 -32v-179h294v179z" />
    <glyph glyph-name="uni04D0" unicode="&#x4d0;" horiz-adv-x="601" 
d="M596 47q12 -32 -11 -44q-30 -14 -44 20l-77 197h-303l-71 -190q-13 -38 -42 -28q-27 10 -12 46l244 624q11 28 34 28q21 0 31 -24zM182 274h262l-133 336zM313 750q-52 0 -92 22q-41 22 -58 50q-18 28 0 43q19 15 41 -11q47 -54 109 -54q66 0 110 54q21 26 41 11
q18 -15 0 -43q-17 -28 -58 -50t-93 -22z" />
    <glyph glyph-name="uni04D1" unicode="&#x4d1;" horiz-adv-x="496" 
d="M114 420q-36 -15 -45 6q-10 24 17 38q70 36 159 36q185 0 185 -177v-291q0 -32 -28 -32t-28 32v75q-21 -49 -69 -83t-122 -34t-118 38q-44 37 -44 108q0 46 20 80q19 33 52 51t70 26t80 8q59 0 131 -10v28q0 129 -134 129q-54 0 -126 -28zM190 42q86 0 135 57t49 123v19
q-68 10 -123 10q-172 0 -172 -113q0 -44 29 -70t82 -26zM239 561q-53 0 -88 26q-35 25 -48 56q-11 28 8 39q22 12 38 -16q32 -56 90 -56t90 56q16 27 38 16q20 -10 8 -39q-13 -31 -48 -56q-35 -26 -88 -26z" />
    <glyph glyph-name="uni04D2" unicode="&#x4d2;" horiz-adv-x="601" 
d="M596 47q12 -32 -11 -44q-30 -14 -44 20l-77 197h-303l-71 -190q-13 -38 -42 -28q-27 10 -12 46l244 624q11 28 34 28q21 0 31 -24zM182 274h262l-133 336zM175 808q0 21 13 34q12 12 33 12q22 0 35 -12q13 -13 13 -34q0 -44 -48 -44q-46 0 -46 44zM361 808q0 21 13 34
q12 12 34 12q21 0 34 -13t13 -33q0 -21 -12 -32q-13 -12 -35 -12q-47 0 -47 44z" />
    <glyph glyph-name="uni04D3" unicode="&#x4d3;" horiz-adv-x="496" 
d="M114 420q-36 -15 -45 6q-10 24 17 38q70 36 159 36q185 0 185 -177v-291q0 -32 -28 -32t-28 32v75q-21 -49 -69 -83t-122 -34t-118 38q-44 37 -44 108q0 46 20 80q19 33 52 51t70 26t80 8q59 0 131 -10v28q0 129 -134 129q-54 0 -126 -28zM190 42q86 0 135 57t49 123v19
q-68 10 -123 10q-172 0 -172 -113q0 -44 29 -70t82 -26zM117 616q0 17 11 30q11 12 30 12t31 -12q11 -13 11 -30t-11 -29q-12 -12 -31 -12t-30 12t-11 29zM282 616q0 17 11 30q11 12 30 12t31 -12q11 -13 11 -30t-11 -29q-12 -12 -31 -12t-30 12t-11 29z" />
    <glyph glyph-name="uni04D4" unicode="&#x4d4;" horiz-adv-x="879" 
d="M485 0q-15 0 -25 10t-10 24v186h-237l-127 -191q-28 -44 -55 -24q-20 15 2 50l414 609q17 26 42 26h346q12 0 20 -8q7 -8 7 -19q0 -12 -7 -19q-8 -8 -20 -8h-325v-249h265q12 0 20 -8q7 -8 7 -19q0 -12 -7 -19q-8 -8 -20 -8h-265v-279h336q12 0 20 -8q7 -8 7 -19
q0 -12 -7 -19q-8 -8 -20 -8h-361zM249 274h201v302z" />
    <glyph glyph-name="uni04D5" unicode="&#x4d5;" horiz-adv-x="834" 
d="M605 42q62 0 124 30q29 14 40 -5q12 -21 -12 -38q-59 -39 -152 -39q-81 0 -134 37q-54 36 -73 108q-58 -145 -214 -145q-75 0 -119 36q-44 35 -44 105q0 47 18 79q17 32 50 49t72 24q38 7 90 7h124v29q0 129 -135 129q-60 0 -125 -27q-37 -15 -46 5q-10 23 17 38
q65 36 159 36q153 0 170 -122q55 122 190 122q90 0 139 -52q49 -53 49 -127q0 -25 -5 -47q-8 -34 -49 -34h-311q1 -95 48 -146q46 -52 129 -52zM190 42q87 0 136 56q49 55 49 121v21h-127q-84 0 -126 -22q-43 -22 -43 -85q0 -42 31 -66q30 -25 80 -25zM601 448
q-69 0 -115 -41q-47 -42 -55 -117h309q6 72 -27 115q-34 43 -112 43z" />
    <glyph glyph-name="uni04D6" unicode="&#x4d6;" horiz-adv-x="542" 
d="M116 0q-16 0 -25 10q-10 10 -10 24v623q0 14 9 24q8 9 23 9h365q12 0 20 -8q7 -8 7 -19q0 -12 -7 -19q-8 -8 -20 -8h-337v-249h277q12 0 20 -8q7 -8 7 -19q0 -12 -7 -19q-8 -8 -20 -8h-277v-279h348q12 0 20 -8q7 -8 7 -19q0 -12 -7 -19q-8 -8 -20 -8h-373zM289 750
q-52 0 -92 22q-41 22 -58 50q-18 28 0 43q19 15 41 -11q46 -54 109 -54q66 0 110 54q21 26 41 11q18 -15 0 -43q-17 -28 -58 -50t-93 -22z" />
    <glyph glyph-name="uni04D7" unicode="&#x4d7;" horiz-adv-x="501" 
d="M272 42q62 0 124 30q29 14 40 -5q12 -21 -12 -38q-59 -39 -152 -39q-115 0 -173 66t-58 186q0 113 61 186q61 72 167 72q93 0 142 -55q49 -56 49 -135q0 -24 -3 -43q-7 -49 -53 -49h-306q6 -85 51 -130q45 -46 123 -46zM265 448q-73 0 -117 -47t-50 -133h307q2 13 2 38
q-2 65 -37 104q-36 38 -105 38zM269 561q-53 0 -88 26q-35 25 -48 56q-11 28 8 39q22 12 38 -16q31 -56 90 -56t90 56q16 27 38 16q20 -10 8 -39q-13 -31 -48 -56q-35 -26 -88 -26z" />
    <glyph glyph-name="uni04D8" unicode="&#x4d8;" horiz-adv-x="655" 
d="M310 646q-83 0 -166 -39q-31 -14 -43 2q-7 10 -3 22q4 11 15 18q79 51 200 51q157 0 224 -92q67 -93 67 -259q0 -54 -7 -102q-8 -49 -28 -97t-51 -82q-31 -35 -81 -56q-51 -22 -117 -22q-136 0 -202 81q-67 81 -67 208q0 67 12 92q11 25 42 25h436q-9 121 -63 186
q-55 64 -168 64zM319 44q118 0 171 78q52 77 53 220h-431q-4 -28 -4 -58q1 -115 56 -177q54 -63 155 -63z" />
    <glyph glyph-name="uni04D9" unicode="&#x4d9;" horiz-adv-x="487" 
d="M41 195q0 50 11 71q10 20 47 20h290q-15 162 -156 162q-56 0 -116 -25q-38 -15 -47 4q-10 22 15 36q66 37 148 37q114 0 164 -69q49 -70 49 -185q0 -72 -19 -127q-20 -55 -69 -92t-123 -37q-96 0 -145 53t-49 152zM237 40q149 0 154 194h-296q-3 -21 -3 -41
q-2 -74 35 -113q37 -40 110 -40z" />
    <glyph glyph-name="uni04DA" unicode="&#x4da;" horiz-adv-x="655" 
d="M310 646q-83 0 -166 -39q-31 -14 -43 2q-7 10 -3 22q4 11 15 18q79 51 200 51q157 0 224 -92q67 -93 67 -259q0 -54 -7 -102q-8 -49 -28 -97t-51 -82q-31 -35 -81 -56q-51 -22 -117 -22q-136 0 -202 81q-67 81 -67 208q0 67 12 92q11 25 42 25h436q-9 121 -63 186
q-55 64 -168 64zM319 44q118 0 171 78q52 77 53 220h-431q-4 -28 -4 -58q1 -115 56 -177q54 -63 155 -63zM176 808q0 21 13 34q12 12 33 12q22 0 35 -12q13 -13 13 -34q0 -44 -48 -44q-46 0 -46 44zM362 808q0 21 13 34q12 12 34 12q21 0 34 -13t13 -33q0 -21 -12 -32
q-13 -12 -35 -12q-47 0 -47 44z" />
    <glyph glyph-name="uni04DB" unicode="&#x4db;" horiz-adv-x="487" 
d="M41 195q0 50 11 71q10 20 47 20h290q-15 162 -156 162q-56 0 -116 -25q-38 -15 -47 4q-10 22 15 36q66 37 148 37q114 0 164 -69q49 -70 49 -185q0 -72 -19 -127q-20 -55 -69 -92t-123 -37q-96 0 -145 53t-49 152zM237 40q149 0 154 194h-296q-3 -21 -3 -41
q-2 -74 35 -113q37 -40 110 -40zM115 616q0 17 11 30q11 12 30 12t31 -12q11 -13 11 -30t-11 -29q-12 -12 -31 -12t-30 12t-11 29zM280 616q0 17 11 30q11 12 30 12t31 -12q11 -13 11 -30t-11 -29q-12 -12 -31 -12t-30 12t-11 29z" />
    <glyph glyph-name="uni04DC" unicode="&#x4dc;" horiz-adv-x="816" 
d="M379 331l-305 -312q-32 -32 -54 -9q-8 8 -5 22q2 14 14 26l292 291l-264 280q-27 31 -8 53q23 24 56 -14l274 -304v294q0 14 8 23t22 9t22 -9t8 -23v-294l278 305q32 35 52 15q20 -19 -9 -50l-261 -282l292 -291q29 -28 8 -51q-23 -24 -53 8l-307 312v-298q0 -14 -8 -23
t-22 -9t-22 9t-8 23v299zM270 808q0 21 13 34q12 12 33 12q22 0 35 -12q13 -13 13 -34q0 -44 -48 -44q-46 0 -46 44zM456 808q0 21 13 34q12 12 34 12q21 0 34 -13t13 -33q0 -21 -12 -32q-13 -12 -35 -12q-47 0 -47 44z" />
    <glyph glyph-name="uni04DD" unicode="&#x4dd;" horiz-adv-x="617" 
d="M298 231l-217 -216q-27 -27 -45 -8q-18 18 7 42l206 197l-191 196q-22 22 -4 40q19 19 43 -6l201 -213v195q0 32 28 32t28 -32v-194l203 211q25 25 43 8q16 -17 -6 -39l-192 -194l209 -199q24 -24 6 -43q-20 -21 -46 5l-217 218v-199q0 -32 -28 -32t-28 32v199zM202 616
q0 17 11 30q11 12 30 12t31 -12q11 -13 11 -30t-11 -29q-12 -12 -31 -12t-30 12t-11 29zM367 616q0 17 11 30q11 12 30 12t31 -12q11 -13 11 -30t-11 -29q-12 -12 -31 -12t-30 12t-11 29z" />
    <glyph glyph-name="uni04DE" unicode="&#x4de;" horiz-adv-x="555" 
d="M81 26q-32 16 -21 42q9 22 49 6q73 -30 156 -30q87 0 138 40q50 39 50 108q0 133 -201 135h-61q-27 0 -27 27q0 12 8 20q7 7 19 7h49q88 0 138 36t50 107q0 53 -38 88q-38 34 -113 34q-80 0 -146 -33q-40 -20 -52 -2q-18 26 30 50q77 39 172 39q96 0 153 -43
q56 -43 56 -128q0 -126 -125 -169q71 -12 111 -56q39 -44 39 -108q0 -99 -68 -152q-68 -54 -179 -54q-113 0 -187 36zM143 808q0 21 13 34q12 12 33 12q22 0 35 -12q13 -13 13 -34q0 -44 -48 -44q-46 0 -46 44zM329 808q0 21 13 34q12 12 34 12q21 0 34 -13t13 -33
q0 -21 -12 -32q-13 -12 -35 -12q-47 0 -47 44z" />
    <glyph glyph-name="uni04DF" unicode="&#x4df;" horiz-adv-x="439" 
d="M235 500q78 0 119 -35q40 -36 40 -92q0 -41 -26 -74t-73 -43q51 -5 81 -38q29 -34 29 -86q0 -63 -47 -102q-47 -40 -131 -40q-104 0 -166 37q-26 16 -14 38q11 20 42 6q67 -29 131 -29q65 0 96 27q31 26 31 66q0 49 -36 72q-36 22 -109 22h-40q-28 0 -28 25t28 25h37
q137 0 137 89q0 80 -108 80q-53 0 -118 -30q-30 -15 -41 2q-14 23 15 40q66 40 151 40zM95 616q0 17 11 30q11 12 30 12t31 -12q11 -13 11 -30t-11 -29q-12 -12 -31 -12t-30 12t-11 29zM260 616q0 17 11 30q11 12 30 12t31 -12q11 -13 11 -30t-11 -29q-12 -12 -31 -12
t-30 12t-11 29z" />
    <glyph glyph-name="uni04E2" unicode="&#x4e2;" horiz-adv-x="696" 
d="M141 109l414 562q15 19 32 19q28 0 28 -32v-626q0 -14 -8 -23t-22 -9t-22 9t-8 23v550l-416 -563q-15 -19 -31 -19q-12 0 -19 9q-8 9 -8 23v626q0 14 8 23t22 9t22 -9t8 -23v-549zM208 777q-26 0 -26 24q0 10 7 18q7 7 19 7h280q12 0 19 -7q7 -8 7 -18q0 -24 -26 -24
h-280z" />
    <glyph glyph-name="uni04E3" unicode="&#x4e3;" horiz-adv-x="545" 
d="M423 396l-300 -382q-12 -14 -29 -14q-28 0 -28 32v426q0 32 28 32t28 -32v-367l301 385q12 14 28 14q28 0 28 -32v-426q0 -32 -28 -32t-28 32v364zM150 592q-26 0 -26 24q0 10 7 18q7 7 19 7h252q12 0 19 -7q7 -8 7 -18q0 -24 -26 -24h-252z" />
    <glyph glyph-name="uni04E4" unicode="&#x4e4;" horiz-adv-x="696" 
d="M141 109l414 562q15 19 32 19q28 0 28 -32v-626q0 -14 -8 -23t-22 -9t-22 9t-8 23v550l-416 -563q-15 -19 -31 -19q-12 0 -19 9q-8 9 -8 23v626q0 14 8 23t22 9t22 -9t8 -23v-549zM209 808q0 21 13 34q12 12 33 12q22 0 35 -12q13 -13 13 -34q0 -44 -48 -44q-46 0 -46 44
zM395 808q0 21 13 34q12 12 34 12t35 -13q12 -13 12 -33q0 -21 -12 -32q-13 -12 -35 -12q-47 0 -47 44z" />
    <glyph glyph-name="uni04E5" unicode="&#x4e5;" horiz-adv-x="545" 
d="M423 396l-300 -382q-12 -14 -29 -14q-28 0 -28 32v426q0 32 28 32t28 -32v-367l301 385q12 14 28 14q28 0 28 -32v-426q0 -32 -28 -32t-28 32v364zM152 616q0 17 11 30q11 12 30 12t31 -12q11 -13 11 -30t-11 -29q-12 -12 -31 -12t-30 12t-11 29zM317 616q0 17 11 30
q11 12 30 12t31 -12q11 -13 11 -30t-11 -29q-12 -12 -31 -12t-30 12t-11 29z" />
    <glyph glyph-name="uni04E6" unicode="&#x4e6;" horiz-adv-x="748" 
d="M51 345q0 156 85 256q84 99 238 99t239 -99q84 -100 84 -256t-84 -255q-85 -100 -239 -100t-238 100q-85 99 -85 255zM113 345q0 -132 70 -216q69 -85 191 -85t192 85q69 84 69 216t-69 217q-70 84 -192 84t-191 -84q-70 -85 -70 -217zM235 808q0 21 13 34q12 12 33 12
q22 0 35 -12q13 -13 13 -34q0 -44 -48 -44q-46 0 -46 44zM421 808q0 21 13 34q12 12 34 12t35 -13q12 -13 12 -33q0 -21 -12 -32q-13 -12 -35 -12q-47 0 -47 44z" />
    <glyph glyph-name="uni04E7" unicode="&#x4e7;" horiz-adv-x="558" 
d="M41 245q0 110 63 183q63 72 175 72t175 -72q63 -73 63 -183t-63 -182q-63 -73 -175 -73t-175 73q-63 72 -63 182zM99 245q0 -93 48 -148t132 -55t132 55t48 148t-48 148t-132 55t-132 -55t-48 -148zM155 616q0 17 11 30q11 12 30 12t31 -12q11 -13 11 -30t-11 -29
q-12 -12 -31 -12t-30 12t-11 29zM320 616q0 17 11 30q11 12 30 12t31 -12q11 -13 11 -30t-11 -29q-12 -12 -31 -12t-30 12t-11 29z" />
    <glyph glyph-name="uni04E8" unicode="&#x4e8;" horiz-adv-x="748" 
d="M51 345q0 156 85 256q84 99 238 99t239 -99q84 -100 84 -256t-84 -255q-85 -100 -239 -100t-238 100q-85 99 -85 255zM374 44q117 0 187 78t75 201h-525q5 -123 75 -201t188 -78zM374 646q-115 0 -185 -75t-77 -194h524q-8 119 -77 194q-70 75 -185 75z" />
    <glyph glyph-name="uni04E9" unicode="&#x4e9;" horiz-adv-x="558" 
d="M41 245q0 110 63 183q63 72 175 72t175 -72q63 -73 63 -183t-63 -182q-63 -73 -175 -73t-175 73q-63 72 -63 182zM279 42q79 0 127 49q47 48 52 132h-359q6 -85 54 -133q47 -48 126 -48zM279 448q-77 0 -124 -46q-47 -47 -55 -127h357q-8 80 -55 127q-47 46 -123 46z" />
    <glyph glyph-name="uni04EA" unicode="&#x4ea;" horiz-adv-x="748" 
d="M51 345q0 156 85 256q84 99 238 99t239 -99q84 -100 84 -256t-84 -255q-85 -100 -239 -100t-238 100q-85 99 -85 255zM374 44q117 0 187 78t75 201h-525q5 -123 75 -201t188 -78zM374 646q-115 0 -185 -75t-77 -194h524q-8 119 -77 194q-70 75 -185 75zM235 808
q0 21 13 34q12 12 33 12q22 0 35 -12q13 -13 13 -34q0 -44 -48 -44q-46 0 -46 44zM421 808q0 21 13 34q12 12 34 12t35 -13q12 -13 12 -33q0 -21 -12 -32q-13 -12 -35 -12q-47 0 -47 44z" />
    <glyph glyph-name="uni04EB" unicode="&#x4eb;" horiz-adv-x="558" 
d="M41 245q0 110 63 183q63 72 175 72t175 -72q63 -73 63 -183t-63 -182q-63 -73 -175 -73t-175 73q-63 72 -63 182zM279 42q79 0 127 49q47 48 52 132h-359q6 -85 54 -133q47 -48 126 -48zM279 448q-77 0 -124 -46q-47 -47 -55 -127h357q-8 80 -55 127q-47 46 -123 46z
M155 616q0 17 11 30q11 12 30 12t31 -12q11 -13 11 -30t-11 -29q-12 -12 -31 -12t-30 12t-11 29zM320 616q0 17 11 30q11 12 30 12t31 -12q11 -13 11 -30t-11 -29q-12 -12 -31 -12t-30 12t-11 29z" />
    <glyph glyph-name="uni04EE" unicode="&#x4ee;" horiz-adv-x="581" 
d="M51 635q-20 37 3 51q28 17 48 -21l242 -442l184 438q15 37 43 26q23 -9 9 -44l-190 -445q-26 -60 -40 -89q-15 -30 -37 -62t-47 -44q-25 -13 -59 -13q-51 0 -89 22q-31 17 -18 43q10 20 45 6q40 -17 64 -17q36 0 59 30q22 29 46 89zM184 777q-26 0 -26 24q0 10 7 18
q7 7 19 7h280q12 0 19 -7q7 -8 7 -18q0 -24 -26 -24h-280z" />
    <glyph glyph-name="uni04EF" unicode="&#x4ef;" horiz-adv-x="441" 
d="M6 -192q-32 18 -23 42q9 23 50 4q25 -12 52 -12q19 0 35 9q15 9 26 20q11 12 23 37q12 26 19 42l19 52l-181 438q-15 36 12 47t42 -25l157 -393l145 392q14 36 42 26q23 -9 9 -45l-173 -448q-45 -118 -81 -161t-98 -43q-42 0 -75 18zM103 592q-26 0 -26 24q0 10 7 18
q7 7 19 7h252q12 0 19 -7q7 -8 7 -18q0 -24 -26 -24h-252z" />
    <glyph glyph-name="uni04F0" unicode="&#x4f0;" horiz-adv-x="581" 
d="M51 635q-20 37 3 51q28 17 48 -21l242 -442l184 438q15 37 43 26q23 -9 9 -44l-190 -445q-26 -60 -40 -89q-15 -30 -37 -62t-47 -44q-25 -13 -59 -13q-51 0 -89 22q-31 17 -18 43q10 20 45 6q40 -17 64 -17q36 0 59 30q22 29 46 89zM183 808q0 21 13 34q12 12 33 12
q22 0 35 -12q13 -13 13 -34q0 -44 -48 -44q-46 0 -46 44zM369 808q0 21 13 34q12 12 34 12t35 -13q12 -13 12 -33q0 -21 -12 -32q-13 -12 -35 -12q-47 0 -47 44z" />
    <glyph glyph-name="uni04F1" unicode="&#x4f1;" horiz-adv-x="441" 
d="M6 -192q-32 18 -23 42q9 23 50 4q25 -12 52 -12q19 0 35 9q15 9 26 20q11 12 23 37q12 26 19 42l19 52l-181 438q-15 36 12 47t42 -25l157 -393l145 392q14 36 42 26q23 -9 9 -45l-173 -448q-45 -118 -81 -161t-98 -43q-42 0 -75 18zM108 616q0 17 11 30q11 12 30 12
t31 -12q11 -13 11 -30t-11 -29q-12 -12 -31 -12t-30 12t-11 29zM273 616q0 17 11 30q11 12 30 12t31 -12q11 -13 11 -30t-11 -29q-12 -12 -31 -12t-30 12t-11 29z" />
    <glyph glyph-name="uni04F2" unicode="&#x4f2;" horiz-adv-x="581" 
d="M51 635q-20 37 3 51q28 17 48 -21l242 -442l184 438q15 37 43 26q23 -9 9 -44l-190 -445q-26 -60 -40 -89q-15 -30 -37 -62t-47 -44q-25 -13 -59 -13q-51 0 -89 22q-31 17 -18 43q10 20 45 6q40 -17 64 -17q36 0 59 30q22 29 46 89zM205 750q-34 -17 -44 4q-12 23 20 40
l181 93q34 17 45 -3q14 -24 -22 -42zM409 750q-34 -17 -44 4q-12 23 20 40l181 93q34 17 45 -3q14 -24 -22 -42z" />
    <glyph glyph-name="uni04F3" unicode="&#x4f3;" horiz-adv-x="441" 
d="M6 -192q-32 18 -23 42q9 23 50 4q25 -12 52 -12q19 0 35 9q15 9 26 20q11 12 23 37q12 26 19 42l19 52l-181 438q-15 36 12 47t42 -25l157 -393l145 392q14 36 42 26q23 -9 9 -45l-173 -448q-45 -118 -81 -161t-98 -43q-42 0 -75 18zM169 561q-30 -22 -44 -1
q-15 21 16 42l145 101q28 21 42 1q17 -22 -14 -42zM320 561q-30 -22 -44 -1q-15 21 16 42l145 101q28 21 42 1q17 -22 -14 -42z" />
    <glyph glyph-name="uni04F4" unicode="&#x4f4;" horiz-adv-x="581" 
d="M440 315q-94 -65 -186 -65q-110 0 -161 53q-52 52 -52 183v172q0 14 8 23t22 9t22 -9t8 -23v-161q0 -107 35 -150t120 -43q97 0 184 72v282q0 14 8 23t22 9t22 -9t8 -23v-626q0 -14 -8 -23t-22 -9t-22 9t-8 23v283zM141 808q0 21 13 34q12 12 33 12q22 0 35 -12
q13 -13 13 -34q0 -44 -48 -44q-46 0 -46 44zM327 808q0 21 13 34q12 12 34 12t35 -13q12 -13 12 -33q0 -21 -12 -32q-13 -12 -35 -12q-47 0 -47 44z" />
    <glyph glyph-name="uni04F5" unicode="&#x4f5;" horiz-adv-x="454" 
d="M87 349q0 -70 27 -100q26 -31 89 -31q72 0 129 45v195q0 32 28 32t28 -32v-426q0 -32 -28 -32t-28 32v174q-63 -40 -135 -40q-84 0 -125 39t-41 136v117q0 32 28 32t28 -32v-109zM83 616q0 17 11 30q11 12 30 12t31 -12q11 -13 11 -30t-11 -29q-12 -12 -31 -12t-30 12
t-11 29zM248 616q0 17 11 30q11 12 30 12t31 -12q11 -13 11 -30t-11 -29q-12 -12 -31 -12t-30 12t-11 29z" />
    <glyph glyph-name="uni04F8" unicode="&#x4f8;" horiz-adv-x="757" 
d="M616 32q0 -14 8 -23t22 -9t22 9t8 23v626q0 14 -8 23t-22 9t-22 -9t-8 -23v-626zM251 -5q-88 0 -140 8q-30 5 -30 38v617q0 14 8 23t22 9t22 -9t8 -23v-246q68 10 122 10q50 0 91 -9q40 -10 76 -32q35 -23 55 -65t20 -101q0 -101 -61 -160q-62 -60 -193 -60zM251 49
q105 0 149 44q43 43 43 120q0 155 -185 155q-53 0 -117 -10v-304q51 -5 110 -5zM239 808q0 -44 46 -44q48 0 48 44q0 21 -13 34q-13 12 -35 12q-21 0 -33 -12q-13 -13 -13 -34zM425 808q0 -44 47 -44q22 0 35 12q12 11 12 32q0 20 -12 33q-13 13 -35 13t-34 -12
q-13 -13 -13 -34z" />
    <glyph glyph-name="uni04F9" unicode="&#x4f9;" horiz-adv-x="599" 
d="M477 32q0 -32 28 -32t28 32v426q0 32 -28 32t-28 -32v-426zM66 458q0 32 28 32t28 -32v-143q48 8 90 8q190 0 190 -162q0 -26 -8 -52q-9 -26 -29 -53t-62 -44q-43 -17 -102 -17q-79 0 -107 9t-28 36v418zM195 47q149 0 149 114q0 110 -136 110q-34 0 -86 -6v-215
q33 -3 73 -3zM176 616q0 -17 11 -29t30 -12t31 12q11 12 11 29t-11 30q-12 12 -31 12t-30 -12q-11 -13 -11 -30zM341 616q0 -17 11 -29t30 -12t31 12q11 12 11 29t-11 30q-12 12 -31 12t-30 -12q-11 -13 -11 -30z" />
    <glyph glyph-name="endash" unicode="&#x2013;" horiz-adv-x="338" 
d="M38 244q-27 0 -27 26q0 11 8 19q7 7 19 7h262q12 0 20 -7q7 -8 7 -19q0 -26 -27 -26h-262z" />
    <glyph glyph-name="emdash" unicode="&#x2014;" horiz-adv-x="582" 
d="M38 244q-27 0 -27 26q0 11 8 19q7 7 19 7h506q12 0 20 -7q7 -8 7 -19q0 -26 -27 -26h-506z" />
    <glyph glyph-name="quoteleft" unicode="&#x2018;" horiz-adv-x="211" 
d="M76 653q-16 29 7 43q11 7 24 3q12 -5 19 -18l90 -167q18 -34 -5 -47q-28 -15 -45 19z" />
    <glyph glyph-name="quoteright" unicode="&#x2019;" horiz-adv-x="211" 
d="M77 486q-17 -34 -45 -19q-23 13 -5 47l90 167q7 13 20 18q12 4 23 -3q23 -14 7 -43z" />
    <glyph glyph-name="quotesinglbase" unicode="&#x201a;" horiz-adv-x="211" 
d="M77 -125q-17 -34 -45 -19q-23 13 -5 47l90 167q7 13 20 18q12 4 23 -3q23 -14 7 -43z" />
    <glyph glyph-name="quotedblleft" unicode="&#x201c;" horiz-adv-x="321" 
d="M76 653q-16 29 7 43q11 7 24 3q12 -5 19 -18l90 -167q18 -34 -5 -47q-28 -15 -45 19zM186 653q-16 29 7 43q11 7 24 3q12 -5 19 -18l90 -167q18 -34 -5 -47q-28 -15 -45 19z" />
    <glyph glyph-name="quotedblright" unicode="&#x201d;" horiz-adv-x="321" 
d="M77 486q-17 -34 -45 -19q-23 13 -5 47l90 167q7 13 20 18q12 4 23 -3q23 -14 7 -43zM187 486q-17 -34 -45 -19q-23 13 -5 47l90 167q7 13 20 18q12 4 23 -3q23 -14 7 -43z" />
    <glyph glyph-name="quotedblbase" unicode="&#x201e;" horiz-adv-x="321" 
d="M77 -125q-17 -34 -45 -19q-23 13 -5 47l90 167q7 13 20 18q12 4 23 -3q23 -14 7 -43zM187 -125q-17 -34 -45 -19q-23 13 -5 47l90 167q7 13 20 18q12 4 23 -3q23 -14 7 -43z" />
    <glyph glyph-name="dagger" unicode="&#x2020;" horiz-adv-x="370" 
d="M212 440v-608q0 -32 -27 -32t-27 32v608h-120q-27 0 -27 25q0 11 8 18q7 7 19 7h120v178q0 32 28 32q26 0 26 -32v-178h120q12 0 20 -7q7 -7 7 -18q0 -25 -27 -25h-120z" />
    <glyph glyph-name="daggerdbl" unicode="&#x2021;" horiz-adv-x="370" 
d="M212 19v-187q0 -32 -27 -32t-27 32v187h-120q-27 0 -27 25q0 11 8 18q7 7 19 7h120v371h-120q-27 0 -27 25q0 11 8 18q7 7 19 7h120v178q0 32 28 32q26 0 26 -32v-178h120q12 0 20 -7q7 -7 7 -18q0 -25 -27 -25h-120v-371h120q12 0 20 -7q7 -7 7 -18q0 -25 -27 -25h-120z
" />
    <glyph glyph-name="bullet" unicode="&#x2022;" horiz-adv-x="405" 
d="M91 317q0 49 29 81q28 32 81 32q54 0 84 -32q29 -33 29 -81q0 -49 -29 -79q-30 -31 -84 -31q-53 0 -81 31q-29 30 -29 79z" />
    <glyph glyph-name="ellipsis" unicode="&#x2026;" horiz-adv-x="570" 
d="M57 43q0 19 11 32q11 12 32 12t33 -12q11 -13 11 -32t-11 -31q-12 -12 -33 -12t-32 12t-11 31zM241 43q0 19 11 32q11 12 32 12t33 -12q11 -13 11 -32t-11 -31q-12 -12 -33 -12t-32 12t-11 31zM426 43q0 19 11 32q11 12 32 12t33 -12q11 -13 11 -32t-11 -31
q-12 -12 -33 -12t-32 12t-11 31z" />
    <glyph glyph-name="perthousand" unicode="&#x2030;" horiz-adv-x="1123" 
d="M31 514q0 84 39 135q38 51 114 51t114 -51t38 -135q0 -83 -38 -133q-38 -51 -114 -51t-114 51q-39 50 -39 133zM85 514q0 -138 99 -138q98 0 98 138q0 64 -24 102t-74 38q-99 0 -99 -140zM437 174q0 84 39 135q38 51 114 51t114 -51t38 -135q0 -83 -38 -133
q-38 -51 -114 -51t-114 51q-39 50 -39 133zM491 174q0 -138 99 -138q98 0 98 138q0 64 -24 102t-74 38q-99 0 -99 -140zM797 174q0 84 39 135q38 51 114 51t114 -51t38 -135q0 -83 -38 -133q-38 -51 -114 -51t-114 51q-39 50 -39 133zM851 174q0 -138 99 -138q98 0 98 138
q0 64 -24 102t-74 38q-99 0 -99 -140zM492 711q12 36 37 28q23 -8 9 -45l-253 -704q-14 -37 -38 -29q-22 7 -7 48z" />
    <glyph glyph-name="guilsinglleft" unicode="&#x2039;" horiz-adv-x="314" 
d="M214 434q26 26 42 9q15 -17 -9 -44l-152 -151l156 -158q23 -24 6 -41t-40 7l-160 158q-16 19 -15 33q0 14 17 31z" />
    <glyph glyph-name="guilsinglright" unicode="&#x203a;" horiz-adv-x="314" 
d="M115 59q-26 -26 -42 -9q-15 17 9 44l152 151l-156 158q-23 24 -6 41q17 16 40 -7l160 -158q16 -19 16 -33q-1 -14 -18 -31z" />
    <glyph glyph-name="fraction" unicode="&#x2044;" horiz-adv-x="110" 
d="M173 711q12 36 37 28q23 -8 9 -45l-253 -704q-14 -37 -38 -29q-22 7 -7 48z" />
    <glyph glyph-name="uni2070" unicode="&#x2070;" horiz-adv-x="367" 
d="M31 514q0 84 39 135q38 51 114 51t114 -51t38 -135q0 -83 -38 -133q-38 -51 -114 -51t-114 51q-39 50 -39 133zM85 514q0 -138 99 -138q98 0 98 138q0 64 -24 102t-74 38q-99 0 -99 -140z" />
    <glyph glyph-name="uni2074" unicode="&#x2074;" horiz-adv-x="302" 
d="M179 486v140l-114 -140h114zM227 365q0 -25 -24 -25t-24 25v75h-145q-23 0 -27 19q-5 18 8 30l156 192q16 19 33 19q23 0 23 -25v-189h26q22 0 22 -23t-22 -23h-26v-75z" />
    <glyph glyph-name="uni2075" unicode="&#x2075;" horiz-adv-x="313" 
d="M107 561q32 5 57 5q53 0 85 -31q31 -31 31 -84q0 -55 -38 -88q-39 -33 -102 -33q-55 0 -89 20q-31 18 -18 40q3 5 7 8q4 2 10 1t9 -1q2 -1 9 -4q7 -4 8 -4q31 -14 64 -14q86 0 86 74q0 30 -18 50q-19 20 -59 20q-16 0 -39 -2q-23 -3 -29 -3q-23 0 -20 29l13 122
q2 24 31 24h137q23 0 23 -23q0 -10 -7 -16q-7 -7 -16 -7h-128z" />
    <glyph glyph-name="uni2076" unicode="&#x2076;" horiz-adv-x="321" 
d="M80 466q0 -42 23 -66q22 -24 57 -24t57 20q21 20 21 55t-22 55q-23 19 -56 19q-30 0 -55 -18t-25 -41zM231 644q-33 10 -53 10q-43 0 -69 -32q-27 -33 -30 -89q39 39 95 39t86 -33q30 -34 30 -85t-33 -87q-34 -37 -95 -37q-60 0 -95 39q-36 39 -36 112q0 108 38 160
q42 59 111 59q43 0 67 -15q17 -11 12 -29q-6 -19 -28 -12z" />
    <glyph glyph-name="uni2077" unicode="&#x2077;" horiz-adv-x="241" 
d="M107 366q-15 -34 -38 -24q-22 10 -7 43l120 259h-158q-10 0 -16 6q-7 6 -7 17t7 17q6 6 16 6h188q20 0 26 -14t-3 -33z" />
    <glyph glyph-name="uni2078" unicode="&#x2078;" horiz-adv-x="346" 
d="M59 612q0 40 31 64q30 24 83 24q51 0 83 -23q31 -23 31 -64q0 -56 -55 -88q39 -20 56 -40q17 -21 17 -57q0 -45 -37 -71q-38 -27 -95 -27q-59 0 -95 24q-37 23 -37 70q0 63 75 104q-57 33 -57 84zM94 429q0 -25 22 -41q21 -17 55 -17q38 0 60 16q21 15 21 42t-23 44
q-24 16 -74 34q-61 -32 -61 -78zM110 612q0 -39 82 -70q45 29 45 68q0 22 -16 36q-17 13 -48 13t-47 -13t-16 -34z" />
    <glyph glyph-name="uni2079" unicode="&#x2079;" horiz-adv-x="321" 
d="M239 564q0 42 -22 66q-23 24 -58 24t-56 -20q-22 -20 -22 -55t23 -54q22 -20 55 -20q30 0 55 18t25 41zM88 386q33 -10 53 -10q43 0 69 32q27 33 30 89q-39 -39 -95 -39t-86 34q-30 33 -30 84t34 88q33 36 94 36q60 0 96 -39q35 -39 35 -112q0 -108 -38 -160
q-42 -59 -111 -59q-43 0 -67 15q-17 11 -12 29q6 19 28 12z" />
    <glyph glyph-name="uni2080" unicode="&#x2080;" horiz-adv-x="367" 
d="M31 174q0 84 39 135q38 51 114 51t114 -51t38 -135q0 -83 -38 -133q-38 -51 -114 -51t-114 51q-39 50 -39 133zM85 174q0 -138 99 -138q98 0 98 138q0 64 -24 102t-74 38q-99 0 -99 -140z" />
    <glyph glyph-name="uni2081" unicode="&#x2081;" horiz-adv-x="245" 
d="M147 282l-77 -77q-22 -22 -38 -7q-15 15 4 37l107 108q17 17 32 17q24 0 24 -25v-308q0 -27 -26 -27t-26 27v255z" />
    <glyph glyph-name="uni2082" unicode="&#x2082;" horiz-adv-x="292" 
d="M57 0q-21 0 -21 22q0 50 28 87t61 56q33 18 61 44t28 55q0 50 -63 50q-34 0 -75 -22q-27 -15 -37 -2q-14 18 12 37q42 33 104 33q53 0 83 -24q30 -25 30 -68q0 -40 -28 -72q-28 -33 -61 -51q-34 -18 -62 -44t-28 -55h169q24 0 24 -23t-24 -23h-201z" />
    <glyph glyph-name="uni2083" unicode="&#x2083;" horiz-adv-x="307" 
d="M113 170q-25 0 -25 22q0 11 14 25l95 87h-122q-22 0 -22 22q0 11 6 18q6 6 16 6h178q9 0 15 -6t6 -15q0 -13 -14 -25l-103 -92q131 -3 131 -106q0 -55 -37 -85q-38 -31 -102 -31q-55 0 -94 22q-30 17 -18 40q2 4 6 7q4 2 7 3q3 0 9 -1q5 -2 8 -3q2 -1 8 -3q5 -3 6 -3
q35 -16 67 -16q86 0 86 68q0 66 -121 66z" />
    <glyph glyph-name="uni2084" unicode="&#x2084;" horiz-adv-x="302" 
d="M179 146v140l-114 -140h114zM227 25q0 -25 -24 -25t-24 25v75h-145q-23 0 -27 19q-5 18 8 30l156 192q16 19 33 19q23 0 23 -25v-189h26q22 0 22 -23t-22 -23h-26v-75z" />
    <glyph glyph-name="uni2085" unicode="&#x2085;" horiz-adv-x="313" 
d="M107 221q32 5 57 5q53 0 85 -31q31 -31 31 -84q0 -55 -38 -88q-39 -33 -102 -33q-55 0 -89 20q-31 18 -18 40q3 5 7 8q4 2 10 1t9 -1q2 -1 9 -4q7 -4 8 -4q31 -14 64 -14q86 0 86 74q0 30 -18 50q-19 20 -59 20q-16 0 -39 -2q-23 -3 -29 -3q-23 0 -20 29l13 122
q2 24 31 24h137q23 0 23 -23q0 -10 -7 -16q-7 -7 -16 -7h-128z" />
    <glyph glyph-name="uni2086" unicode="&#x2086;" horiz-adv-x="321" 
d="M80 126q0 -42 23 -66q22 -24 57 -24t57 20q21 20 21 55t-22 55q-23 19 -56 19q-30 0 -55 -18t-25 -41zM231 304q-33 10 -53 10q-43 0 -69 -32q-27 -33 -30 -89q39 39 95 39t86 -33q30 -34 30 -85t-33 -87q-34 -37 -95 -37q-60 0 -95 39q-36 39 -36 112q0 108 38 160
q42 59 111 59q43 0 67 -15q17 -11 12 -29q-6 -19 -28 -12z" />
    <glyph glyph-name="uni2087" unicode="&#x2087;" horiz-adv-x="241" 
d="M107 26q-15 -34 -38 -24q-22 10 -7 43l120 259h-158q-10 0 -16 6q-7 6 -7 17t7 17q6 6 16 6h188q20 0 26 -14t-3 -33z" />
    <glyph glyph-name="uni2088" unicode="&#x2088;" horiz-adv-x="346" 
d="M59 272q0 40 31 64q30 24 83 24q51 0 83 -23q31 -23 31 -64q0 -56 -55 -88q39 -20 56 -40q17 -21 17 -57q0 -45 -37 -71q-38 -27 -95 -27q-59 0 -95 24q-37 23 -37 70q0 63 75 104q-57 33 -57 84zM94 89q0 -25 22 -41q21 -17 55 -17q38 0 60 16q21 15 21 42t-23 44
q-24 16 -74 34q-61 -32 -61 -78zM110 272q0 -39 82 -70q45 29 45 68q0 22 -16 36q-17 13 -48 13t-47 -13t-16 -34z" />
    <glyph glyph-name="uni2089" unicode="&#x2089;" horiz-adv-x="321" 
d="M239 224q0 42 -22 66q-23 24 -58 24t-56 -20q-22 -20 -22 -55t23 -54q22 -20 55 -20q30 0 55 18t25 41zM88 46q33 -10 53 -10q43 0 69 32q27 33 30 89q-39 -39 -95 -39t-86 34q-30 33 -30 84t34 88q33 36 94 36q60 0 96 -39q35 -39 35 -112q0 -108 -38 -160
q-42 -59 -111 -59q-43 0 -67 15q-17 11 -12 29q6 19 28 12z" />
    <glyph glyph-name="Euro" unicode="&#x20ac;" horiz-adv-x="552" 
d="M156 255q18 -101 79 -156q60 -55 155 -55q59 0 125 27q36 16 47 -6q12 -24 -22 -42q-66 -33 -152 -33q-259 0 -296 265h-60q-27 0 -27 26q0 11 8 19q7 7 19 7h56q-1 12 -1 37q0 29 3 56h-58q-27 0 -27 26q0 11 8 19q7 7 19 7h66q25 115 103 182q78 66 200 66
q81 0 133 -25q35 -17 25 -42q-9 -22 -43 -9q-59 22 -121 22q-95 0 -154 -52t-80 -142h252q12 0 20 -7q7 -8 7 -19q0 -26 -27 -26h-261q-3 -28 -3 -57q0 -25 1 -36h263q12 0 20 -7q7 -8 7 -19q0 -26 -27 -26h-257z" />
    <glyph glyph-name="uni20B4" unicode="&#x20b4;" horiz-adv-x="552" 
d="M82 372q-27 0 -27 26q0 11 8 19q7 7 19 7h260q81 57 81 128q0 42 -31 68t-98 26q-66 0 -143 -38q-33 -16 -44 4q-13 24 20 43q78 45 171 45q95 0 141 -40t46 -102q0 -72 -69 -134h53q12 0 20 -7q7 -8 7 -19q0 -26 -27 -26h-387zM191 247q-37 -39 -37 -93q0 -52 36 -81
q35 -29 104 -29q61 0 122 34q44 25 58 8q21 -25 -28 -56q-64 -40 -153 -40q-201 0 -201 153q0 59 33 104h-43q-27 0 -27 26q0 11 8 19q7 7 19 7h387q12 0 20 -7q7 -8 7 -19q0 -26 -27 -26h-278z" />
    <glyph glyph-name="uni20B6" unicode="&#x20b6;" horiz-adv-x="552" 
d="M164 162v-130q0 -14 -8 -23t-22 -9t-22 9t-8 23v130h-61q-27 0 -27 26q0 11 8 19q7 7 19 7h61v66h-61q-27 0 -27 26q0 11 8 19q7 7 19 7h61v316q0 30 30 36q59 11 137 11q116 0 179 -49q63 -50 63 -151q0 -106 -68 -160q-68 -55 -187 -55h-94v-66h171q12 0 20 -7
q7 -8 7 -19q0 -26 -27 -26h-171zM271 641q-50 0 -107 -6v-303h90q96 0 147 37q50 37 50 126q0 77 -45 112q-45 34 -135 34z" />
    <glyph glyph-name="uni20B8" unicode="&#x20b8;" horiz-adv-x="552" 
d="M306 516v-484q0 -14 -8 -23t-22 -9t-22 9t-8 23v484h-203q-12 0 -19 8q-8 7 -8 19q0 11 8 19q7 8 19 8h466q12 0 20 -8q7 -8 7 -19q0 -12 -7 -19q-8 -8 -20 -8h-203zM43 636q-12 0 -19 8q-8 7 -8 19q0 11 8 19q7 8 19 8h466q12 0 20 -8q7 -8 7 -19q0 -12 -7 -19
q-8 -8 -20 -8h-466z" />
    <glyph glyph-name="afii61352" unicode="&#x2116;" horiz-adv-x="1072" 
d="M731 251q-27 0 -27 26q0 11 8 19q7 7 19 7h242q12 0 20 -7q7 -8 7 -19q0 -26 -27 -26h-242zM700 514q0 84 39 135q38 51 114 51t114 -51t38 -135q0 -83 -38 -133q-38 -51 -114 -51t-114 51q-39 50 -39 133zM754 514q0 -138 99 -138q98 0 98 138q0 64 -24 102t-74 38
q-99 0 -99 -140zM560 658q0 32 28 32t28 -32v-626q0 -14 -8 -23t-21 -9q-16 0 -30 16l-420 564v-548q0 -32 -28 -32t-28 32v624q0 14 8 24q7 10 22 10q19 0 33 -19l416 -562v549z" />
    <glyph glyph-name="trademark" unicode="&#x2122;" horiz-adv-x="823" 
d="M332 644q25 0 25 22q0 10 -7 17t-18 7h-296q-25 0 -25 -23t25 -23h122v-302q0 -29 26 -29q12 0 19 9q7 8 7 20v302h122zM392 660q0 30 24 30q16 0 31 -21l136 -199l139 197q18 23 36 23q24 0 24 -30v-318q0 -12 -7 -20q-7 -9 -19 -9q-26 0 -26 29v258l-126 -173
q-12 -15 -26 -14q-15 0 -24 14l-116 166v-251q0 -29 -23 -29t-23 29v318z" />
    <glyph glyph-name="Omega" unicode="&#x2126;" horiz-adv-x="748" 
d="M374 646q-124 0 -199 -70q-75 -71 -75 -197q0 -103 47 -160q47 -58 115 -79q25 -8 25 -37v-71q0 -13 -7 -22q-8 -10 -21 -10h-189q-12 0 -19 8q-8 7 -8 19q0 11 8 19q7 8 19 8h162v43q-35 9 -66 28q-31 18 -61 50q-31 32 -49 85q-18 52 -18 119q0 142 91 232
q90 89 245 89t246 -89q90 -90 90 -232q0 -54 -12 -99q-13 -45 -32 -74q-20 -29 -47 -52q-27 -24 -51 -36q-25 -12 -52 -21v-43h162q12 0 20 -8q7 -8 7 -19q0 -12 -7 -19q-8 -8 -20 -8h-189q-13 0 -20 10q-8 9 -8 22v71q0 29 25 37q68 21 115 79q47 57 47 160q0 126 -75 197
q-75 70 -199 70z" />
    <glyph glyph-name="partialdiff" unicode="&#x2202;" horiz-adv-x="547" 
d="M459 321q-16 59 -56 93q-41 34 -105 34q-95 0 -151 -69t-56 -176q0 -74 39 -117q39 -44 111 -44q53 0 94 26q41 25 66 69q24 44 38 89q13 44 20 95zM209 649q-35 5 -32 29q3 25 33 22q115 -9 183 -50q124 -76 124 -241q0 -73 -15 -142q-15 -70 -46 -134q-32 -65 -89 -104
t-133 -39q-98 0 -150 57t-51 152q0 122 73 212q73 89 193 89t169 -96q-2 69 -33 123q-32 54 -72 77q-56 32 -154 45z" />
    <glyph glyph-name="Delta" unicode="&#x2206;" horiz-adv-x="602" 
d="M52 0q-20 0 -26 15q-7 15 1 31l246 626q11 28 34 28q21 0 31 -24l251 -630q6 -17 -2 -31q-8 -15 -27 -15h-508zM89 54h432l-217 556z" />
    <glyph glyph-name="product" unicode="&#x220f;" horiz-adv-x="672" 
d="M531 636h-390v-804q0 -14 -8 -23t-22 -9t-22 9t-8 23v829q0 29 27 29h454q29 0 29 -29v-829q0 -14 -8 -23t-22 -9t-22 9t-8 23v804z" />
    <glyph glyph-name="summation" unicode="&#x2211;" horiz-adv-x="553" 
d="M37 632q-14 16 -7 37q6 21 30 21h446q32 0 32 -27t-32 -27h-399l265 -359q26 -33 0 -67l-267 -356h401q32 0 32 -27t-32 -27h-443q-26 0 -32 19q-7 19 8 38l283 384z" />
    <glyph glyph-name="minus" unicode="&#x2212;" horiz-adv-x="497" 
d="M68 305q-27 0 -27 26q0 11 8 19q7 7 19 7h361q12 0 20 -7q7 -8 7 -19q0 -26 -27 -26h-361z" />
    <glyph glyph-name="uni2215" unicode="&#x2215;" horiz-adv-x="320" 
d="M295 766q15 41 43 32q26 -8 11 -51l-293 -824q-13 -40 -41 -32t-12 54z" />
    <glyph glyph-name="radical" unicode="&#x221a;" horiz-adv-x="594" 
d="M503 638q-156 -613 -162 -622q-8 -26 -30 -26q-20 0 -30 24l-175 424h-78q-27 0 -27 26q0 11 8 19q7 7 19 7h92q28 0 39 -28l150 -374l141 567q10 35 42 35h154q12 0 20 -7q7 -8 7 -19q0 -26 -27 -26h-143z" />
    <glyph glyph-name="infinity" unicode="&#x221e;" horiz-adv-x="740" 
d="M554 189q-95 0 -185 114q-82 -114 -175 -114q-59 0 -106 40t-47 112q0 66 44 110t112 44q84 0 172 -114q80 114 184 114q67 0 107 -42q39 -42 39 -115q0 -62 -39 -105q-40 -44 -106 -44zM545 443q-75 0 -145 -99q80 -103 151 -103q45 0 70 29q25 28 25 68q0 47 -26 76
t-75 29zM197 241q75 0 141 98q-36 49 -69 77q-34 27 -70 27q-48 0 -76 -28q-29 -29 -29 -74q0 -49 31 -74q30 -26 72 -26z" />
    <glyph glyph-name="integral" unicode="&#x222b;" horiz-adv-x="322" 
d="M-40 -148q7 22 37 11q33 -11 60 -11q46 0 65 30q18 30 18 89v551q0 89 33 134q32 44 110 44q48 0 80 -19q20 -12 13 -33q-7 -22 -37 -11q-33 11 -60 11q-46 0 -64 -30q-19 -30 -19 -89v-551q0 -89 -32 -134q-33 -44 -111 -44q-48 0 -80 19q-20 12 -13 33z" />
    <glyph glyph-name="approxequal" unicode="&#x2248;" horiz-adv-x="497" 
d="M351 321q-33 0 -92 24q-59 23 -83 23q-30 0 -65 -25q-31 -23 -45 -10q-18 18 9 43q47 44 106 44q38 0 99 -23q60 -24 76 -24q32 0 65 25q33 24 47 9q7 -10 4 -21q-4 -11 -15 -21q-47 -44 -106 -44zM351 196q-33 0 -92 24q-59 23 -83 23q-30 0 -65 -25q-31 -23 -45 -10
q-18 18 9 43q47 44 106 44q38 0 99 -23q60 -24 76 -24q32 0 65 25q33 24 47 9q7 -10 4 -21q-4 -11 -15 -21q-47 -44 -106 -44z" />
    <glyph glyph-name="notequal" unicode="&#x2260;" horiz-adv-x="497" 
d="M240 205l-50 -145q-15 -40 -39 -32q-22 8 -9 46l45 131h-119q-27 0 -27 26q0 11 8 19q7 7 19 7h137l30 88h-167q-27 0 -27 26q0 11 8 19q7 7 19 7h185l51 146q14 39 39 31q23 -7 10 -46l-46 -131h122q12 0 20 -7q7 -8 7 -19q0 -26 -27 -26h-140l-31 -88h171q12 0 20 -7
q7 -8 7 -19q0 -26 -27 -26h-189z" />
    <glyph glyph-name="lessequal" unicode="&#x2264;" horiz-adv-x="497" 
d="M374 114q29 -23 15 -44q-13 -20 -41 -1l-225 174q-11 8 -15 20q-4 11 3 23q17 22 47 -2zM344 596q32 23 46 3t-18 -44l-203 -158l204 -161q32 -26 15 -46q-16 -19 -42 2l-221 171q-19 14 -18 32q0 17 20 32z" />
    <glyph glyph-name="greaterequal" unicode="&#x2265;" horiz-adv-x="497" 
d="M355 284q30 24 47 2q16 -22 -14 -44l-222 -173q-10 -8 -22 -8t-19 9q-14 20 15 44zM170 194q-32 -23 -46 -3t18 44l203 158l-204 161q-32 26 -15 46q16 19 42 -2l221 -171q19 -14 19 -31q-1 -18 -21 -33z" />
    <glyph glyph-name="dotmath" unicode="&#x22c5;" horiz-adv-x="201" 
d="M56 324q0 19 12 32q11 13 32 13t33 -13t12 -32t-12 -31q-12 -13 -33 -13t-32 13q-12 12 -12 31z" />
    <glyph glyph-name="lozenge" unicode="&#x25ca;" horiz-adv-x="561" 
d="M76 317q-19 27 -2 52l185 273q15 24 36 24q20 0 37 -24l190 -273q13 -19 -1 -43l-187 -276q-17 -24 -36 -24q-20 0 -37 24zM120 348l179 -259l172 255l-177 259z" />
    <glyph glyph-name="uniF639" unicode="&#xf639;" horiz-adv-x="548" 
d="M27 345q0 162 62 259q61 96 185 96t186 -96q61 -97 61 -259t-61 -258q-62 -97 -186 -97t-185 97q-62 96 -62 258zM85 345q0 -142 50 -222q50 -81 139 -81t139 81q50 80 50 222t-50 223q-50 80 -139 80q-95 0 -142 -79t-47 -224z" />
    <glyph glyph-name="uniF63A" unicode="&#xf63a;" horiz-adv-x="465" 
d="M90 603q-1 -1 -5 -3l-5 -4l-6 -3q-4 -3 -6 -3q-2 -1 -5 -2q-4 -2 -6 -2h-5q-3 -1 -5 0q-3 1 -5 3q-3 1 -5 3q-20 21 18 50q78 58 176 58q97 0 145 -43q47 -44 47 -117q0 -46 -18 -85q-19 -40 -49 -69q-30 -30 -66 -57l-72 -56q-37 -29 -67 -59q-30 -31 -48 -72
q-19 -42 -19 -90h336q12 0 20 -7t8 -19q0 -11 -8 -18q-8 -8 -20 -8h-359q-34 0 -34 36q0 58 19 108q18 50 48 85q30 34 66 65q36 30 72 57t66 54t49 62q18 34 18 73q0 44 -33 76t-103 32t-139 -45z" />
    <glyph glyph-name="uniF63B" unicode="&#xf63b;" horiz-adv-x="511" 
d="M192 361q-27 0 -33 18q-7 18 11 38l197 221h-254q-12 0 -20 7t-8 19q0 11 8 19q8 7 20 7h294q29 0 34 -19q4 -20 -13 -38l-198 -220q111 -2 173 -56t62 -155q0 -97 -63 -154q-63 -58 -164 -58q-102 0 -173 50q-29 20 -14 43q13 20 48 -1q65 -40 141 -40q85 0 126 46
q41 45 41 116q0 75 -53 116t-162 41z" />
    <glyph glyph-name="uniF63C" unicode="&#xf63c;" horiz-adv-x="508" 
d="M394 235v-203q0 -32 -28 -32t-28 32v203h-292q-24 0 -29 17q-5 16 8 30l313 399q14 19 30 19q26 0 26 -32v-381h47q31 0 31 -26t-31 -26h-47zM338 287v315l-248 -315h248z" />
    <glyph glyph-name="uniF63D" unicode="&#xf63d;" horiz-adv-x="489" 
d="M240 -10q-105 0 -172 50q-31 23 -13 46q13 17 49 -5q63 -39 138 -39q90 0 131 51q40 51 40 127q0 68 -39 112t-119 44q-31 0 -76 -13t-52 -13q-28 0 -26 31l20 277q0 32 27 32h266q12 0 20 -7q7 -8 7 -19q0 -26 -27 -26h-242l-16 -230q53 20 105 20q59 0 102 -19t66 -51
q22 -32 32 -65q10 -34 10 -71q0 -110 -65 -171t-166 -61z" />
    <glyph glyph-name="uniF63E" unicode="&#xf63e;" horiz-adv-x="518" 
d="M96 235q0 -23 4 -46q4 -24 16 -51q11 -27 29 -47q18 -21 49 -35t71 -14q80 0 120 56q39 55 39 132q0 71 -43 118q-43 46 -115 46q-66 0 -118 -41q-52 -42 -52 -118zM401 634q-44 14 -89 14q-96 0 -150 -67q-63 -77 -71 -231q61 96 185 96q95 0 151 -60q55 -60 55 -155
q0 -99 -56 -170q-57 -71 -165 -71t-166 74q-59 74 -59 224q0 216 80 320q71 92 195 92q77 0 116 -21q25 -13 16 -36q-8 -20 -42 -9z" />
    <glyph glyph-name="uniF63F" unicode="&#xf63f;" horiz-adv-x="452" 
d="M165 27q-16 -36 -43 -25q-12 5 -13 20q-2 14 5 26q4 7 266 590h-341q-12 0 -20 7t-8 19q0 11 8 19q8 7 20 7h377q50 0 24 -53z" />
    <glyph glyph-name="uniF640" unicode="&#xf640;" horiz-adv-x="566" 
d="M82 541q0 73 59 116q58 43 142 43q87 0 144 -42t57 -120q0 -57 -30 -100t-88 -82q78 -37 114 -78q35 -41 35 -106q0 -78 -66 -130q-67 -52 -166 -52q-64 0 -114 17t-84 59t-34 105q0 121 150 202q-65 36 -92 74q-27 37 -27 94zM109 171q0 -64 50 -96q50 -33 124 -33
q76 0 125 36t49 92q0 32 -16 60q-17 27 -47 49q-31 21 -65 37t-80 32q-82 -39 -111 -83t-29 -94zM138 536q0 -52 50 -89t135 -67q105 65 105 155q0 113 -145 113q-64 0 -104 -29q-41 -30 -41 -83z" />
    <glyph glyph-name="uniF641" unicode="&#xf641;" horiz-adv-x="518" 
d="M420 455q0 23 -4 47q-4 23 -15 50q-12 27 -30 48q-18 20 -49 34t-71 14q-80 0 -119 -55q-40 -56 -40 -133q0 -71 43 -117q43 -47 115 -47q66 0 118 42q52 41 52 117zM115 56q44 -14 89 -14q96 0 150 67q63 77 71 231q-61 -96 -185 -96q-95 0 -150 60q-56 60 -56 155
q0 99 57 170q56 71 164 71t167 -74q58 -74 58 -224q0 -216 -80 -320q-71 -92 -195 -92q-78 0 -116 21q-25 13 -16 36q8 20 42 9z" />
    <glyph glyph-name="uniF6BA" unicode="&#xf6ba;" horiz-adv-x="0" 
 />
    <glyph glyph-name="uniF6BB" unicode="&#xf6bb;" horiz-adv-x="0" 
 />
    <glyph glyph-name="uniF6BC" unicode="&#xf6bc;" horiz-adv-x="0" 
 />
    <glyph glyph-name="Acute" unicode="&#xf6c9;" 
d="M198 750q-34 -17 -44 4q-12 23 20 40l181 93q34 17 45 -3q14 -24 -22 -42z" />
    <glyph glyph-name="Caron" unicode="&#xf6ca;" 
d="M271 787l127 78q31 19 43 -2t-19 -38l-126 -78q-29 -18 -57 0l-123 75q-15 8 -19 20q-5 12 2 22q12 19 43 1z" />
    <glyph glyph-name="Dieresis" unicode="&#xf6cb;" 
d="M135 808q0 21 13 34q12 12 33 12q22 0 35 -12q13 -13 13 -34q0 -44 -48 -44q-46 0 -46 44zM321 808q0 21 13 34q12 12 34 12t35 -13q12 -13 12 -33q0 -21 -12 -32q-13 -12 -35 -12q-47 0 -47 44z" />
    <glyph glyph-name="Grave" unicode="&#xf6ce;" 
d="M178 842q-36 18 -22 42q11 21 46 3l180 -93q33 -17 20 -40q-11 -20 -44 -4z" />
    <glyph glyph-name="Hungarumlaut" unicode="&#xf6cf;" 
d="M96 750q-34 -17 -44 4q-12 23 20 40l181 93q34 17 45 -3q14 -24 -22 -42zM300 750q-34 -17 -44 4q-12 23 20 40l181 93q34 17 45 -3q14 -24 -22 -42z" />
    <glyph glyph-name="Macron" unicode="&#xf6d0;" 
d="M125 777q-26 0 -26 24q0 10 7 18q7 7 19 7h280q12 0 19 -7q7 -8 7 -18q0 -24 -26 -24h-280z" />
    <glyph glyph-name="cyrBreve" unicode="&#xf6d1;" 
d="M283 750q-52 0 -92 22q-41 22 -58 50q-18 28 0 43q19 15 41 -11q47 -54 109 -54q66 0 110 54q21 26 41 11q18 -15 0 -43q-17 -28 -58 -50t-93 -22z" />
    <glyph glyph-name="cyrbreve" unicode="&#xf6d4;" 
d="M276 561q-53 0 -88 26q-35 25 -48 56q-11 28 8 39q22 12 38 -16q31 -56 90 -56t90 56q16 27 38 16q20 -10 8 -39q-13 -31 -48 -56q-35 -26 -88 -26z" />
    <glyph glyph-name="uniF6DC" unicode="&#xf6dc;" horiz-adv-x="347" 
d="M213 611l-131 -131q-26 -26 -44 -10q-19 18 6 43l168 169q18 18 32 18q25 0 25 -32v-636q0 -32 -28 -32t-28 32v579z" />
    <glyph glyph-name="uniF730" unicode="&#xf730;" horiz-adv-x="552" 
d="M36 245q0 107 65 181q64 74 175 74t176 -74q64 -74 64 -181t-64 -181q-65 -74 -176 -74t-175 74q-65 74 -65 181zM94 245q0 -92 49 -147q48 -56 133 -56t134 56q48 55 48 147t-48 148q-49 55 -134 55t-133 -55q-49 -56 -49 -148z" />
    <glyph glyph-name="uniF731" unicode="&#xf731;" horiz-adv-x="369" 
d="M231 409l-120 -117q-26 -26 -44 -10q-19 18 8 45l155 155q18 18 32 18q25 0 25 -32v-436q0 -32 -28 -32t-28 32v377z" />
    <glyph glyph-name="uniF732" unicode="&#xf732;" horiz-adv-x="423" 
d="M105 418q-1 -1 -4 -2q-3 -2 -4 -3q-2 -1 -5 -2q-3 -2 -5 -2q-2 -1 -5 -2t-5 -1q-2 -1 -4 -1q-3 0 -5 1q-3 1 -5 3q-2 1 -4 3q-18 22 21 49q58 39 131 39q81 0 117 -35q35 -36 35 -90q0 -47 -27 -85q-27 -39 -65 -65l-77 -50q-39 -25 -66 -56t-27 -67h261q14 0 21 -8
q6 -8 6 -18t-7 -18t-20 -8h-295q-24 0 -24 26q0 57 27 100t66 70l77 50q38 24 65 56t27 72q0 33 -23 54q-23 20 -73 20t-104 -30z" />
    <glyph glyph-name="uniF733" unicode="&#xf733;" horiz-adv-x="511" 
d="M192 161q-27 0 -33 18q-7 18 11 38l197 221h-254q-12 0 -20 7t-8 19q0 11 8 19q8 7 20 7h294q29 0 34 -19q4 -20 -13 -38l-198 -220q111 -2 173 -56t62 -155q0 -97 -63 -155q-63 -57 -164 -57q-102 0 -173 50q-29 20 -14 43q13 20 48 -1q65 -40 141 -40q85 0 126 45
q41 46 41 117q0 75 -53 116t-162 41z" />
    <glyph glyph-name="uniF734" unicode="&#xf734;" horiz-adv-x="508" 
d="M394 35v-203q0 -32 -28 -32t-28 32v203h-292q-24 0 -29 17q-5 16 8 30l313 399q14 19 30 19q26 0 26 -32v-381h47q31 0 31 -26t-31 -26h-47zM338 87v315l-248 -315h248z" />
    <glyph glyph-name="uniF735" unicode="&#xf735;" horiz-adv-x="489" 
d="M240 -210q-105 0 -172 50q-31 23 -13 46q13 17 49 -5q63 -39 138 -39q90 0 131 51q40 51 40 127q0 68 -39 112t-119 44q-31 0 -76 -13t-52 -13q-28 0 -26 31l20 277q0 32 27 32h266q12 0 20 -7q7 -8 7 -19q0 -26 -27 -26h-242l-16 -230q53 20 105 20q59 0 102 -19t66 -51
q22 -32 32 -65q10 -34 10 -71q0 -110 -65 -171t-166 -61z" />
    <glyph glyph-name="uniF736" unicode="&#xf736;" horiz-adv-x="518" 
d="M96 235q0 -23 4 -46q4 -24 16 -51q11 -27 29 -47q18 -21 49 -35t71 -14q80 0 120 56q39 55 39 132q0 71 -43 118q-43 46 -115 46q-66 0 -118 -41q-52 -42 -52 -118zM401 634q-44 14 -89 14q-96 0 -150 -67q-63 -77 -71 -231q61 96 185 96q95 0 151 -60q55 -60 55 -155
q0 -99 -56 -170q-57 -71 -165 -71t-166 74q-59 74 -59 224q0 216 80 320q71 92 195 92q77 0 116 -21q25 -13 16 -36q-8 -20 -42 -9z" />
    <glyph glyph-name="uniF737" unicode="&#xf737;" horiz-adv-x="470" 
d="M165 -173q-16 -36 -43 -25q-12 5 -13 19q-2 15 5 27q4 7 266 590h-341q-12 0 -20 7t-8 19q0 11 8 19q8 7 20 7h377q50 0 24 -53z" />
    <glyph glyph-name="uniF738" unicode="&#xf738;" horiz-adv-x="566" 
d="M82 541q0 73 59 116q58 43 142 43q87 0 144 -42t57 -120q0 -57 -30 -100t-88 -82q78 -37 114 -78q35 -41 35 -106q0 -78 -66 -130q-67 -52 -166 -52q-64 0 -114 17t-84 59t-34 105q0 121 150 202q-65 36 -92 74q-27 37 -27 94zM109 171q0 -64 50 -96q50 -33 124 -33
q76 0 125 36t49 92q0 32 -16 60q-17 27 -47 49q-31 21 -65 37t-80 32q-82 -39 -111 -83t-29 -94zM138 536q0 -52 50 -89t135 -67q105 65 105 155q0 113 -145 113q-64 0 -104 -29q-41 -30 -41 -83z" />
    </font>
</defs>
</svg>
